<?xml version="1.0" encoding="utf-8"?>
<!-- Generator: Adobe Illustrator 23.0.1, SVG Export Plug-In . SVG Version: 6.00 Build 0)  -->
<svg version="1.1" id="Layer_1" xmlns="http://www.w3.org/2000/svg" xmlns:xlink="http://www.w3.org/1999/xlink" x="0px" y="0px"
	 viewBox="0 0 468.08 619.53" style="enable-background:new 0 0 468.08 619.53;" xml:space="preserve">
<style type="text/css">
	.st0{fill:#FFFFFF;}
	.st1{fill:#90CFCF;}
</style>
<path d="M443.24,351.6c-6.67,22.22-16.24,36.01-30.56,54.63c-10.04,13.05-12.89,25.7-27.97,31.88
	c-16.31,6.68-21.27,21.05-33.85,33.96c-10.69,10.97-20.52,22.98-29.38,35.49c-17.69,24.94-41.54,37.57-71.64,41.08
	c-18.55,2.17-42.23,18.79-60.11,24.14c-10.47,3.13-20.18,10.02-29.15,16.67c-21.67,16.09-62.75,36.75-87.23,27.99
	c-21.02-7.52-21.34-38.19-30.16-59.83c-3.52-8.65-5.53-18.28-6.26-27.62c-2-25.79-10.69-35.73-15.85-60.57
	c-5.16-24.84-13.13-43.68-19.16-57.87c-7.97-18.74,11.05-61.32,16.87-59.14c29.59,11.06,62.29-5.99,62.29-5.99
	s-35.38,12.78-65.99-4.39c-5.3-2.97-0.52-17.7-0.97-24.21c-1.08-15.51,0.01-33.51-5.29-48.26c-3.58-9.96-12.94-39.06,1.26-36.71
	c28.23,4.68,80.82,8.19,80.82,8.19S4.66,224.59,5.58,214.21c2.39-27.08,10.54-54.95,19.15-71.09c2.88-5.39,6.41-10.45,9.01-15.96
	c9.5-20.09,13.58-17.25,34.07-15.92c47.9,3.11,64.79,38.2,58.48,86.87c-2.71,20.9-1.16,21.32-5.96,41.96
	c-4.49,19.3-7.16,38.67-1.15,58.18c0.66,2.15,1.44,4.29,2.39,6.32c0.83,1.77,1.98,3.38,4.04,6.8c7.4-16.38,14.32-31.31,20.93-46.37
	c11.9-27.12,20.44-37.29,27.32-50.97c1.12-2.23,79.41,44.25,79.41,44.25s-75.85-50.55-72.31-60.38c2.79-7.76,3.2-12.35,5.7-25.82
	c3.44-18.55,8.48-36.63,19.52-52.36c24.82-35.39,58.06-41.98,97.03-22.89c12.62,6.18,25.63,11.4,36.16,21.15
	c30.97,28.64,24.76,67.66,0.52,106.11c-12.28,19.48-15.27,42.72-28.75,61.46c-30.46,42.33-47.66,79.13-66.52,127.7
	c-0.14,0.36,0.01,0.83,0.04,1.83c14.22-2.38,19.46-0.15,28.28-10.71c14.16-16.96,26.94-35.09,39.83-53.07
	c17.97,18.94,58.25,53.62,58.25,53.62s-55.28-57.3-50.81-63.87c7.4-10.86,16.38-20.41,27.8-27.67
	c23.63-15.04,48.22-16.59,73.58-5.12c12.63,5.72,18.99,9.94,26.97,21.2C456.09,340.08,447.2,338.41,443.24,351.6z M326.99,98.91
	c4.5,4.2,9.86,7.49,14.97,11.31C350.72,87.06,353.63,18.86,352.25,0c-18.03,13.84-68.23,63.07-75.6,80.64
	c4.93,1.04,9.38,2.25,13.91,2.89C304.09,85.44,316.65,89.26,326.99,98.91z M459.65,328.6c0,0-0.01-0.01-0.01-0.01
	c-0.01,0.05-0.02,0.09-0.04,0.14L459.65,328.6z M454.38,321.68c1.65,2.38,3.5,4.61,5.26,6.92c6.95-24.85,10.58-50,7.08-77.85
	c-10.06,22.05-26.07,35.79-46.83,46.05C435.19,301.64,446.14,309.83,454.38,321.68z M100.24,111.24
	c-5.87-22.53-5.34-43.42,3.69-63.87C81.54,61.3,64.46,79.92,48.86,102.47C68.04,97.89,84.2,101.12,100.24,111.24z"/>
</svg>
