<?xml version="1.0" encoding="utf-8"?>
<!-- Generator: Adobe Illustrator 23.0.1, SVG Export Plug-In . SVG Version: 6.00 Build 0)  -->
<svg version="1.1" id="Layer_1" xmlns="http://www.w3.org/2000/svg" xmlns:xlink="http://www.w3.org/1999/xlink" x="0px" y="0px"
	 viewBox="0 0 553.43 448.08" style="enable-background:new 0 0 553.43 448.08;" xml:space="preserve">
<style type="text/css">
	.st0{fill:#6D5287;}
	.st1{fill:#896CA6;}
	.st2{fill:#2A363F;}
	.st3{fill:#FFFFFF;}
	.st4{fill:#826EAC;}
	.st5{fill:#8B7BAA;}
	.st6{fill:#8F463B;}
	.st7{fill:#D5D4D3;}
	.st8{fill:#69802B;}
	.st9{fill:#77912B;}
	.st10{fill:#85A429;}
	.st11{fill:#8EA63E;}
	.st12{fill:#B8C38B;}
	.st13{fill:#ADB393;}
	.st14{fill:#DD513F;}
	.st15{fill:#4D5138;}
	.st16{fill:#9AA962;}
	.st17{fill:#BAC09F;}
	.st18{fill:#E27533;}
	.st19{fill:#B8B0CC;}
	.st20{fill:#473D54;}
	.st21{fill:#CE5720;}
	.st22{fill:#C4805F;}
	.st23{fill:#218B57;}
	.st24{fill:#39AA6E;}
	.st25{fill:#89C8A5;}
	.st26{fill:#64BFB3;}
	.st27{fill:#318876;}
	.st28{fill:#A14525;}
	.st29{fill:#617729;}
	.st30{fill:#718A2B;}
	.st31{fill:#A49035;}
	.st32{fill:#A7B86A;}
	.st33{fill:#8B975F;}
	.st34{fill:#704D19;}
	.st35{fill:#E08276;}
	.st36{fill:#7F885A;}
	.st37{fill:#B4BB9A;}
	.st38{fill:#CC8455;}
	.st39{fill:#CA6222;}
	.st40{fill:#CD4433;}
	.st41{fill:#492917;}
	.st42{fill:#EFAE82;}
	.st43{fill:#BA7A50;}
	.st44{fill:#D39266;}
	.st45{fill:#DF864C;}
	.st46{fill:#8F98AD;}
	.st47{fill:#AEB8D1;}
	.st48{fill:#5C698B;}
	.st49{fill:#6F7D9D;}
	.st50{fill:#6E717D;}
	.st51{fill:#5B6681;}
	.st52{fill:#66779C;}
	.st53{fill:#8B95AD;}
	.st54{fill:#8C93A5;}
	.st55{fill:#D46D2E;}
	.st56{fill:#5E331A;}
	.st57{fill:#EEA34F;}
	.st58{fill:#894216;}
	.st59{fill:#E5AA25;}
	.st60{fill:#964F34;}
	.st61{fill:#AB5D41;}
	.st62{fill:#C69886;}
	.st63{fill:#80452F;}
	.st64{fill:#F3CC40;}
	.st65{fill:#C0502D;}
	.st66{fill:#DE653F;}
	.st67{fill:#F5CCBF;}
	.st68{fill:#532919;}
	.st69{fill:#C48F6C;}
	.st70{fill:#CD3F2E;}
	.st71{fill:#DC4632;}
	.st72{fill:#E96251;}
	.st73{fill:#A82B17;}
	.st74{fill:#E77767;}
	.st75{fill:#319885;}
	.st76{fill:#45AE9A;}
	.st77{fill:#369482;}
</style>
<g id="_x31_2-brachiosaurus_1_">
	<g id="_x31_2-brachiosaurus">
		<path class="st0" d="M433.93,279.05c-16.45-0.92-23.17,16.13-25.21,31.8c-2.04,15.67-0.45,23.17-0.68,30.43
			c-0.23,7.27-4.77,13.63-4.09,23.39c0.68,9.77,1.14,8.63,1.36,12.95c0.23,4.32,0,15.22,1.59,22.49c1.59,7.27,5.68,18.4,4.32,24.98
			c-1.36,6.59-3.26,13.63-1.59,16.05c1.67,2.42,13.02,0.15,13.02,0.15s4.39,0.45,6.97-0.15c0,0,4.39,1.67,7.57-0.3
			c0,0,4.39,1.97,5-0.3c0.61-2.27-8.63-10.45-8.63-10.45s-3.33-9.99-4.09-13.48c-0.76-3.48,0.15-28.77,2.57-39.07
			c2.42-10.3,17.56-25.59,20.9-53C456.27,297.14,448.85,279.88,433.93,279.05z"/>
		<path class="st0" d="M340.07,319.14c4.59,13.46,3.09,32.11,1.67,41.87c-1.43,9.75-7.37,16.89-9.04,25.69
			c-1.67,8.8-7.29,32.03-5.87,37.43c1.43,5.39,9.04,10.15,10.31,12.05c0,0,6.5,3.17,6.03,5.07c-0.48,1.9-11.42,0.32-11.42,0.32
			s-5.07,1.59-8.72,0.32c0,0-6.18,0.32-9.2-0.95c0,0-10.94,3.01-13.16-3.01c-2.22-6.03,4.28-21.88,3.01-31.24
			c-1.27-9.36-3.65-20.77-1.27-30.61c2.38-9.83,1.74-12.85-2.06-16.97s-23.15-12.05-28.7-29.5c-5.55-17.44-2.7-31.08,13.96-40.92
			C302.24,278.85,331.58,294.24,340.07,319.14z"/>
		<path class="st1" d="M372.66,229.53c-57.73,16.18-95.79,43.14-105.93,55.19c-10.15,12.05-19.03,39.33-9.52,57.09
			c9.52,17.76,32.35,26.01,55.82,28.55c23.47,2.54,42.82-10.15,54.87-10.78c12.05-0.63,22.84,1.59,41.55-2.85
			c18.71-4.44,60.58-23.47,74.53-33.94c13.96-10.47,25.69-42.82,24.74-59.31c-0.95-16.49-19.03-54.87-32.03-55.19
			s-24.11,1.27-34.25,4.12c-10.15,2.85-15.22,6.66-24.11,7.93C409.45,221.61,396.41,222.88,372.66,229.53z"/>
		<path class="st1" d="M464.08,275.13c-17.23-0.96-24.26,16.89-26.4,33.3c-2.14,16.41-0.48,24.26-0.71,31.88
			c-0.24,7.61-5,14.27-4.28,24.5c0.71,10.23,1.19,9.04,1.43,13.56c0.24,4.52,0,15.94,1.67,23.55c1.67,7.61,5.95,19.27,4.52,26.17
			c-1.43,6.9-3.41,14.27-1.67,16.81c1.74,2.54,13.64,0.16,13.64,0.16s4.6,0.48,7.29-0.16c0,0,4.6,1.74,7.93-0.32
			c0,0,4.6,2.06,5.23-0.32c0.63-2.38-9.04-10.94-9.04-10.94s-3.49-10.47-4.28-14.11c-0.79-3.65,0.16-30.13,2.7-40.92
			c2.54-10.78,18.4-26.8,21.88-55.5C487.47,294.08,479.7,276,464.08,275.13z"/>
		<path class="st1" d="M350.85,324.84c4.59,13.46,3.09,32.11,1.67,41.87c-1.43,9.75-7.37,16.89-9.04,25.69
			c-1.67,8.8-7.3,32.03-5.87,37.43c1.43,5.39,9.04,10.15,10.31,12.05c0,0,6.5,3.17,6.03,5.07c-0.48,1.9-11.42,0.32-11.42,0.32
			s-5.07,1.59-8.72,0.32c0,0-6.18,0.32-9.2-0.95c0,0-10.94,3.01-13.16-3.01c-2.22-6.03,4.28-21.88,3.01-31.24
			c-1.27-9.36-3.65-20.77-1.27-30.61c2.38-9.83,1.74-12.85-2.06-16.97s-23.15-12.05-28.7-29.5c-5.55-17.44-2.7-31.08,13.96-40.91
			C313.03,284.56,342.37,299.95,350.85,324.84z"/>
		<path class="st1" d="M466.54,208.92c0,0,32.03-1.35,46.31-44.64c14.27-43.29,14.87-80.89,5.23-112.99
			c-9.51-31.72-48.53-12.85-48.53-12.85s-32.34-14.5-27.36-20.22c2.07-2.37,8.78-2.13,11.66-3.57c8.09-4.04,12.78-7.29,19.27-10.47
			c8.35-4.08,16.07-5.37,25.14-3.01c5.89,1.53,13.7,4.59,18.71,8.25c11.74,8.56,30.6,29.68,34.57,71.05
			c2.22,23.15,5.07,53.28-8.25,107.2c-9.55,38.65-44.72,96.26-44.72,96.26S447.83,270.45,466.54,208.92z"/>
		<path class="st1" d="M462.06,21.2c-2.59-0.08-12.48-6.24-19.28-3.58c-6.8,2.66-1.77,9.45-4.41,12.49
			c-2.64,3.04-11.55,9.63-11.77,13.73c-0.22,4.1,5.13,5.65,5.13,5.65s-0.45,4.92,3.39,6.33c3.84,1.42,6.53-0.55,9.48-2.8
			c2.95-2.25,6.49-2.66,10.57-4.69c6.17-3.07,17.21-6.37,16.36-15.53C470.69,23.66,462.06,21.2,462.06,21.2z"/>
		<path class="st1" d="M276.24,277.43c0,0-31.72,22.84-45.67,33.62c-13.96,10.78-98.32,71.84-132.1,89.44
			c-33.78,17.6-58.52,23.79-83.26,29.97c-24.74,6.18-16.49,5.55,4.76,6.18c21.25,0.63,82.15-10.78,110.38-19.03
			c28.23-8.25,115.77-47.58,132.89-48.84c17.13-1.27,54.87-0.95,54.87-0.95S320.64,287.89,276.24,277.43z"/>
		<g>
			<path class="st2" d="M449.05,25.38c0.04,2.15-0.75,3.91-1.75,3.93c-1.01,0.02-1.85-1.71-1.89-3.87s0.75-3.91,1.75-3.93
				C448.17,21.5,449.01,23.23,449.05,25.38z"/>
			<path class="st3" d="M448.52,23.14c0.01,0.54-0.42,0.99-0.97,1c-0.55,0.01-0.99-0.42-1-0.97c-0.01-0.54,0.42-0.99,0.97-1
				C448.06,22.16,448.51,22.6,448.52,23.14z"/>
		</g>
		<path class="st2" d="M444.37,19.84c0.32-1.23,1.47-2.21,2.73-2.38c1.14-0.15,2.79,0.28,3.19,1.49c0.06,0.17-0.12,0.35-0.29,0.3
			c-0.89-0.26-1.56-0.81-2.56-0.73c-1.14,0.09-1.91,0.73-2.62,1.56C444.65,20.3,444.31,20.09,444.37,19.84z"/>
		<path class="st2" d="M432.66,50.84c2.99-1.92,5.12-4.43,7.11-7.34c0.19-0.28,0.75-0.11,0.6,0.25c-1.38,3.37-4.14,6.07-7.25,7.87
			C432.61,51.92,432.17,51.16,432.66,50.84z"/>
		<path class="st4" d="M474.54,282.45c-0.37-0.69,0.4-1.58,1.12-1.12c5.37,3.49,7.54,10.05,8.33,16.15
			c1.04,8.09,0.58,17.44-1.43,25.32c-0.36,1.43-2.51,1.1-2.54-0.34c-0.12-6.9,1.14-13.76,0.81-20.69
			C480.49,294.47,477.98,288.76,474.54,282.45z"/>
		<path class="st4" d="M468.48,277.6c1.15-0.01,2.35,0.49,3.32,1.09c1.2,0.73,0.42,2.64-0.96,2.28c-1.09-0.29-2.29-0.81-3.07-1.64
			C467.17,278.69,467.59,277.6,468.48,277.6z"/>
		<path class="st4" d="M321.64,294.54c12.82,2.3,21.57,16.23,26.29,27.2c5.18,12.04,9.42,29.67,2.06,41.75
			c-0.47,0.77-1.47,0.22-1.36-0.57c1.04-7.37,2.34-14.17,1.24-21.65c-0.97-6.61-3.05-13.07-5.89-19.1
			c-2.47-5.24-5.5-10.34-9.31-14.72c-4.02-4.63-8.75-7.69-13.84-10.97C319.79,295.8,320.48,294.33,321.64,294.54z"/>
		<path class="st4" d="M311.65,293.47c1.12-1.94,4.62-0.27,5.83,0.75c0.75,0.63-0.07,1.73-0.9,1.54c-0.89-0.2-1.76-0.41-2.66-0.52
			c-0.87-0.11-1.74-0.09-2.27-0.9C311.48,294.09,311.5,293.73,311.65,293.47z"/>
		<path class="st5" d="M434.19,333.07c-0.08-4.68-0.64-9.33-0.85-14c-0.31-6.88-0.52-16.47,4.58-21.8c0.67-0.7,1.87,0.02,1.62,0.94
			c-1.24,4.45-3,8.26-3.32,12.97c-0.31,4.51,0.13,9.03,0.52,13.52c0.6,6.88,2.02,16.79-2.67,22.6c-0.33,0.41-0.99,0.06-0.99-0.41
			C433.05,342.27,434.27,337.74,434.19,333.07z"/>
		<path class="st5" d="M280.49,325.9c2.1,4.63,3.61,9.58,5.94,14.09c2.25,4.36,5.55,7.81,9.29,10.93
			c5.62,4.7,14.82,9.89,16.54,17.61c0.17,0.75-0.72,1.29-1.29,0.75c-3.3-3.09-6.01-6.56-9.56-9.46c-3.75-3.06-7.75-5.83-11.25-9.18
			c-6.88-6.6-10.08-15.08-10.92-24.41C279.19,325.6,280.22,325.31,280.49,325.9z"/>
		<g>
			<path class="st5" d="M374.58,241.27c-1.84,0.88-3.97,1.58-5.98,1.96c-1.83,0.35-1.75,3.21,0,3.62c1.57,0.37,2.96,0.39,4.54-0.01
				c1.58-0.4,2.75-1.25,3.86-2.42C378.62,242.71,376.59,240.31,374.58,241.27z"/>
			<path class="st5" d="M383.43,237.59c-0.13,0-0.13,0.2,0,0.2C383.56,237.79,383.56,237.59,383.43,237.59z"/>
			<path class="st5" d="M383.82,235.27c-0.73,0.05-1.28,0.45-2.05,0.37c-1.15-0.12-1.37,1.73-0.27,1.99
				c1.1,0.27,2.85-0.01,3.08-1.36C384.67,235.81,384.38,235.23,383.82,235.27z"/>
			<path class="st5" d="M365.12,239.2c-1.24-0.29-2.14-0.15-3.34,0.22c-1.08,0.34-2.32,0.68-3.28,1.29c-1.38,0.87-0.97,3.5,0.9,3.32
				c1.17-0.12,2.3-0.52,3.39-0.93c1.18-0.44,2.07-0.82,2.88-1.81C366.23,240.6,366.11,239.43,365.12,239.2z"/>
			<path class="st5" d="M374.01,233.51c-0.66-0.19-1.2,0-1.86,0.15c-1.35,0.32-0.77,2.43,0.57,2.08c0.65-0.17,1.19-0.26,1.68-0.74
				C374.89,234.52,374.64,233.7,374.01,233.51z"/>
			<path class="st5" d="M347.17,245.55c-1.36,0.26-2.54,0.82-3.79,1.36c-1.36,0.59-2.82,1.02-4.23,1.46
				c-1.2,0.37-0.99,2.19,0.3,2.21c3.12,0.05,6.95-1.06,8.57-3.93C348.36,246.05,347.8,245.43,347.17,245.55z"/>
			<path class="st5" d="M358.31,249.57c-1.07,0.16-2.05,0.38-3.08,0.71c-0.98,0.31-0.54,1.88,0.42,1.54
				c1.07-0.38,2.03-0.81,3.03-1.36C359.2,250.17,358.82,249.5,358.31,249.57z"/>
			<path class="st5" d="M397,231.27c-0.7-0.23-1.47-0.09-2.19,0.01c-0.75,0.1-1.6,0.21-2.3,0.48c-1.02,0.4-0.89,1.86,0.26,1.93
				c0.76,0.05,1.59-0.12,2.33-0.24c0.7-0.12,1.52-0.23,2.1-0.65C397.79,232.39,397.73,231.51,397,231.27z"/>
			<path class="st5" d="M396.25,238.01c-0.45,0.06-1.1,0.1-1.55,0.03c-1.22-0.18-1.79,1.64-0.52,1.9c1.13,0.23,1.95,0.1,2.78-0.73
				C397.51,238.66,396.92,237.92,396.25,238.01z"/>
			<path class="st5" d="M413.45,229.99c-0.96,0.11-1.7,0.35-2.59,0.73c-1.25,0.54-0.34,2.45,0.9,2.14c0.84-0.21,1.47-0.45,2.22-0.89
				C414.82,231.47,414.55,229.86,413.45,229.99z"/>
		</g>
		<g>
			<path class="st5" d="M327.15,322.72c-0.78-2.68-2.15-5.05-4.59-6.52c-0.82-0.49-1.96,0.53-1.37,1.37
				c1.38,1.95,2.93,3.84,4.04,5.96C325.79,324.58,327.48,323.86,327.15,322.72z"/>
			<path class="st5" d="M323.31,328.02c-0.44-1.53-2.92-0.79-2.35,0.65c0.31,0.78,0.51,1.8,1.19,2.33c0.53,0.41,1.37,0.33,1.57-0.41
				C323.95,329.7,323.56,328.86,323.31,328.02z"/>
			<path class="st5" d="M330.97,329.66c-1.03-0.18-1.46,1.41-0.43,1.57c1.08,0.16,1.47,0.98,1.63,1.97c0.11,0.68,1.09,0.57,1.27,0
				C333.94,331.57,332.56,329.93,330.97,329.66z"/>
		</g>
		<g>
			<path class="st5" d="M469.96,300.15c-0.78-0.95-2.46,0.07-2.06,1.2c0.64,1.81,1.03,3.66,1.61,5.47c0.34,1.06,1.97,1.17,2.26,0
				C472.35,304.41,471.51,302.04,469.96,300.15z"/>
			<path class="st5" d="M466.7,309.35c-0.23-0.73-1.41-0.64-1.38,0.19c0.04,1.03,0.14,2.43,0.72,3.29c0.27,0.4,0.96,0.38,1.09-0.14
				C467.38,311.66,467.02,310.33,466.7,309.35z"/>
			<path class="st5" d="M461.22,298.16c-0.45-0.61-1.56-0.29-1.31,0.55c0.26,0.87,0.31,1.85,1.06,2.44
				c0.57,0.45,1.54,0.21,1.52-0.63C462.47,299.49,461.8,298.94,461.22,298.16z"/>
			<path class="st5" d="M461.23,309.86c-0.43-0.89-1.14-1.17-1.94-1.64c-0.24-0.14-0.53,0.14-0.39,0.38
				c0.63,1.08,0.31,2.54,0.78,3.67c0.27,0.64,1.38,1.08,1.74,0.23C461.83,311.58,461.67,310.76,461.23,309.86z"/>
		</g>
	</g>
	<path id="_x31_2-silhouette" d="M551.54,80.46c-3.97-41.37-22.84-62.48-34.57-71.05c-5.01-3.66-12.83-6.72-18.71-8.25
		c-9.06-2.35-16.78-1.07-25.14,3.01c-6.49,3.17-11.18,6.42-19.27,10.47c-2.55,1.28-8.13,1.24-10.79,2.88
		c-0.09,0.03-0.19,0.05-0.28,0.08c-6.8,2.66-1.77,9.45-4.41,12.49c-2.64,3.04-11.55,9.63-11.77,13.73c-0.22,4.1,5.13,5.65,5.13,5.65
		s-0.45,4.92,3.39,6.33c3.84,1.42,6.53-0.55,9.48-2.8c2.95-2.25,6.49-2.66,10.57-4.69c4.84-2.4,12.63-4.96,15.38-10.35
		c6.16-2.68,38.91-15.39,47.52,13.3c9.63,32.11,9.04,69.7-5.23,112.99c-11.14,33.78-33.08,42.02-42.19,44.01
		c-10.45,0.23-19.68,1.71-28.22,4.12c-10.15,2.85-15.22,6.66-24.1,7.93c-8.88,1.27-21.91,2.54-45.67,9.2
		c-55.97,15.68-93.45,41.5-104.93,54.05c-10.41,7.55-27.79,20.22-37.16,27.47c-13.96,10.78-98.32,71.84-132.1,89.44
		c-33.78,17.6-58.52,23.79-83.26,29.97c-24.74,6.18-16.49,5.55,4.76,6.18c21.25,0.63,82.15-10.78,110.38-19.03
		c28.23-8.25,115.77-47.58,132.89-48.84c8.76-0.65,22.9-0.88,34.63-0.96c1.93,0.44,3.87,0.85,5.84,1.2c-0.18,1.9-0.61,4.18-1.3,7.05
		c-2.38,9.83,0,21.25,1.27,30.61c1.27,9.36-5.23,25.22-3.01,31.24c1.5,4.07,6.98,4.01,10.38,3.55c0.06,0.8,0.18,1.54,0.41,2.16
		c2.22,6.03,13.16,3.01,13.16,3.01c3.01,1.27,9.2,0.95,9.2,0.95c3.65,1.27,8.72-0.32,8.72-0.32s10.94,1.59,11.42-0.32
		c0.48-1.9-6.03-5.07-6.03-5.07c-1.27-1.9-8.88-6.66-10.31-12.05c-1.43-5.39,4.2-28.62,5.87-37.43c1.67-8.8,7.61-15.94,9.04-25.69
		c0.15-1,0.29-2.12,0.43-3.29c5.76-1.97,10.79-3.62,14.95-3.84c10.9-0.57,20.78,1.17,36.4-1.77c-0.35,2.12-0.51,4.38-0.34,6.87
		c0.68,9.77,1.14,8.63,1.36,12.95c0.23,4.32,0,15.22,1.59,22.49c1.59,7.27,5.68,18.4,4.32,24.98c-1.36,6.59-3.26,13.63-1.59,16.05
		c1.67,2.42,13.02,0.15,13.02,0.15s4.39,0.45,6.97-0.15c0,0,4.39,1.67,7.57-0.3c0,0,0.32,0.14,0.79,0.3
		c-0.06,1.61,0.09,2.95,0.64,3.75c1.74,2.54,13.64,0.16,13.64,0.16s4.6,0.48,7.29-0.16c0,0,4.6,1.74,7.93-0.32
		c0,0,4.6,2.06,5.23-0.32s-9.04-10.94-9.04-10.94s-3.49-10.47-4.28-14.11c-0.79-3.65,0.16-30.13,2.7-40.92s18.4-26.8,21.88-55.5
		c13.2-9.9,24.41-39.39,24.78-56.51c11.16-20.09,28.3-53.38,34.53-78.61C556.61,133.75,553.76,103.62,551.54,80.46z M433.56,430.09
		c0,0-3.33-9.99-4.09-13.48c-0.76-3.48,0.15-28.77,2.57-39.07c0.31-1.3,0.82-2.68,1.48-4.16c0.26,1.77,0.46,2.56,0.59,4.98
		c0.24,4.52,0,15.94,1.67,23.55c1.67,7.61,5.95,19.27,4.52,26.17c-0.49,2.39-1.05,4.83-1.5,7.12
		C436.37,432.58,433.56,430.09,433.56,430.09z"/>
</g>
</svg>
