<?xml version="1.0" encoding="utf-8"?>
<!-- Generator: Adobe Illustrator 23.0.1, SVG Export Plug-In . SVG Version: 6.00 Build 0)  -->
<svg version="1.1" id="Layer_1" xmlns="http://www.w3.org/2000/svg" xmlns:xlink="http://www.w3.org/1999/xlink" x="0px" y="0px"
	 viewBox="0 0 656.22 350.37" style="enable-background:new 0 0 656.22 350.37;" xml:space="preserve">
<style type="text/css">
	.st0{fill:#6D5287;}
	.st1{fill:#896CA6;}
	.st2{fill:#2A363F;}
	.st3{fill:#FFFFFF;}
	.st4{fill:#826EAC;}
	.st5{fill:#8B7BAA;}
	.st6{fill:#8F463B;}
	.st7{fill:#D5D4D3;}
	.st8{fill:#69802B;}
	.st9{fill:#77912B;}
	.st10{fill:#85A429;}
	.st11{fill:#8EA63E;}
	.st12{fill:#B8C38B;}
	.st13{fill:#ADB393;}
	.st14{fill:#DD513F;}
	.st15{fill:#4D5138;}
	.st16{fill:#9AA962;}
	.st17{fill:#BAC09F;}
	.st18{fill:#E27533;}
	.st19{fill:#B8B0CC;}
	.st20{fill:#473D54;}
	.st21{fill:#CE5720;}
	.st22{fill:#C4805F;}
	.st23{fill:#218B57;}
	.st24{fill:#39AA6E;}
	.st25{fill:#89C8A5;}
	.st26{fill:#64BFB3;}
	.st27{fill:#318876;}
	.st28{fill:#A14525;}
	.st29{fill:#617729;}
	.st30{fill:#718A2B;}
	.st31{fill:#A49035;}
	.st32{fill:#A7B86A;}
	.st33{fill:#8B975F;}
	.st34{fill:#704D19;}
	.st35{fill:#E08276;}
	.st36{fill:#7F885A;}
	.st37{fill:#B4BB9A;}
	.st38{fill:#CC8455;}
	.st39{fill:#CA6222;}
	.st40{fill:#CD4433;}
	.st41{fill:#492917;}
	.st42{fill:#EFAE82;}
	.st43{fill:#BA7A50;}
	.st44{fill:#D39266;}
	.st45{fill:#DF864C;}
	.st46{fill:#8F98AD;}
	.st47{fill:#AEB8D1;}
	.st48{fill:#5C698B;}
	.st49{fill:#6F7D9D;}
	.st50{fill:#6E717D;}
	.st51{fill:#5B6681;}
	.st52{fill:#66779C;}
	.st53{fill:#8B95AD;}
	.st54{fill:#8C93A5;}
	.st55{fill:#D46D2E;}
	.st56{fill:#5E331A;}
	.st57{fill:#EEA34F;}
	.st58{fill:#894216;}
	.st59{fill:#E5AA25;}
	.st60{fill:#964F34;}
	.st61{fill:#AB5D41;}
	.st62{fill:#C69886;}
	.st63{fill:#80452F;}
	.st64{fill:#F3CC40;}
	.st65{fill:#C0502D;}
	.st66{fill:#DE653F;}
	.st67{fill:#F5CCBF;}
	.st68{fill:#532919;}
	.st69{fill:#C48F6C;}
	.st70{fill:#CD3F2E;}
	.st71{fill:#DC4632;}
	.st72{fill:#E96251;}
	.st73{fill:#A82B17;}
	.st74{fill:#E77767;}
	.st75{fill:#319885;}
	.st76{fill:#45AE9A;}
	.st77{fill:#369482;}
</style>
<g id="_x30_1-brontosaurus">
	<g id="_x30_1-brontosaurus_1_">
		<path class="st75" d="M173.41,277.32c0.19,0.77,7.7,16.55,7.5,24.44s-9.81,29.44-10.78,33.48c-0.96,4.04,0.96,7.89-3.08,8.85
			c-4.04,0.96-13.98,0.64-13.98,0.64s-5.26,1.15-7.06-0.38c0,0-6.54,0.77-7.95-0.64c-1.41-1.41,4.1-7.44,4.1-7.44
			s7.31-8.85,8.59-12.44c1.28-3.59,3.34-20.01,2.82-23.73c-0.51-3.72-11.93-14.37-18.6-25.4c-6.67-11.03-10.45-32.39,1.28-44.51
			c11.74-12.12,31.17-10.97,37.91,7.12c6.73,18.09-3.08,36.37-3.08,36.37L173.41,277.32z"/>
		<path class="st75" d="M357.67,282.77c0,0,4.73,15.69,4.51,23.21c-0.21,7.52-0.21,17.62,1.29,21.92c1.5,4.3,5.16,11.17,2.15,13.97
			c-3.01,2.79-11.46,2.15-15.47,2.15c-4.01,0-8.6,0.57-10.89,1c-2.29,0.43-6.3-0.57-6.3-0.57s-2.72,2.15-4.44,0
			c-1.72-2.15,3.01-9.17,4.58-16.76c1.58-7.59,1.86-6.45,0.29-12.32c-1.58-5.87-13.61-24.21-10.74-32.52
			C325.51,274.53,352.87,276.53,357.67,282.77z"/>
		<path class="st76" d="M155.46,192.15c-16.8,8.4-41.42-8.39-56.28-35.37C70.68,105.03,89.45,19.2,72.65,6.61
			c-10.3-7.72-33.21-8.49-46.28-0.56C16.9,11.8,3.51,12.58,1.18,19.58c-7.95,23.84,26.13,26.13,48.53,23.33
			c0,0-25.52,180.47,92.08,212.2c0,0,21.36-6.01,26.72-21.68C174.68,215.41,164.44,187.66,155.46,192.15z"/>
		<path class="st76" d="M292.99,128.69c-63.32,0-122.34,55.16-137.53,63.46c-15.19,8.31-34.38,43.55-23.21,60.74
			c11.17,17.19,28.65,30.08,42.12,32.95c13.47,2.87,31.8,1.72,44.7,0c12.89-1.72,32.09-5.73,44.41-3.72
			c12.32,2.01,54.73,5.73,73.64,5.73c18.91,0,46.56-9.6,62.46-2.29c15.9,7.31,45.99,32.66,99.71,50.28
			c53.72,17.62,97.05,15.19,124.55,13.04c27.51-2.15,34.47-12.18,31.89-13.04c-2.58-0.86-17.3,5.41-53.68,1.81
			c-60.09-5.94-102.18-45.5-131.41-69.99C441.41,243.17,378.09,128.69,292.99,128.69z"/>
		<g>
			<path class="st76" d="M208.11,274.6c0.21,0.86,8.6,18.48,8.38,27.29c-0.22,8.81-10.96,32.88-12.03,37.39
				c-1.07,4.51,1.07,8.81-3.44,9.89c-4.51,1.07-15.62,0.72-15.62,0.72s-5.87,1.29-7.88-0.43c0,0-7.31,0.86-8.88-0.72
				c-1.58-1.58,4.58-8.31,4.58-8.31s8.17-9.89,9.6-13.9c1.43-4.01,3.72-22.35,3.15-26.5c-0.57-4.15-13.32-16.05-20.77-28.37
				s-11.68-36.17,1.43-49.71c13.11-13.54,34.81-12.25,42.33,7.95c7.52,20.2-3.44,40.61-3.44,40.61L208.11,274.6z"/>
			<path class="st26" d="M192.63,214.9c-1.6-0.26-4.19-1.3-5.45,0.16c-0.54,0.63-0.54,1.41,0,2.04c1.26,1.47,3.84,0.42,5.45,0.16
				C193.8,217.08,193.8,215.09,192.63,214.9z"/>
			<path class="st77" d="M223.49,253.05c-4.75,5.48-8.07,11.73-10.57,18.53c-1.6,4.35-4.26,10.56-0.2,14.25
				c0.51,0.46,1.26,0.01,1.12-0.65c-2.16-10.2,6.4-22.45,11.16-30.96C225.51,253.29,224.22,252.2,223.49,253.05z"/>
			<path class="st26" d="M181.26,218.91c0.92-0.68,0.43-2.49-0.86-2.03c-26.91,9.72-23.73,50.78-4.57,66.49
				c0.64,0.52,1.53-0.12,1.15-0.89c-5.63-11.24-12.19-21.3-11.64-34.46C165.84,236.14,171.76,225.93,181.26,218.91z"/>
			<path class="st77" d="M177.02,232.73c-1.65,2.11-2.75,4.33-3.38,6.94c-0.49,2.04-1.28,4.89,0.43,6.52c0.44,0.42,1.01,0.35,1.46,0
				c1.56-1.22,1.46-3.69,1.88-5.48c0.53-2.24,1.24-4.45,1.89-6.65C179.67,232.83,177.89,231.62,177.02,232.73z"/>
			<path class="st77" d="M186.86,233.52c-1.93,0.36-2.84,2.46-2.98,4.23c-0.09,1.15,1.69,1.62,2.19,0.59
				c0.56-1.15,1.56-1.93,2.19-3.01C188.84,234.35,187.89,233.33,186.86,233.52z"/>
			<path class="st77" d="M183.57,248.3c-0.16-0.49-0.69-0.87-1.21-0.69c-0.29,0.1-0.59,0.18-0.84,0.37
				c-0.3,0.23-0.47,0.56-0.65,0.88c-0.36,0.65-0.18,1.59,0.51,1.95c0.63,0.33,1.62,0.21,1.96-0.51c0.15-0.34,0.34-0.68,0.39-1.05
				C183.77,248.91,183.67,248.62,183.57,248.3z"/>
			<path class="st77" d="M179.24,258.03c-0.04-0.6-0.22-1-0.66-1.41c-0.36-0.33-0.88-0.33-1.25,0c-0.44,0.41-0.62,0.81-0.66,1.41
				c-0.03,0.42-0.04,0.84-0.06,1.26c-0.03,0.7,0.64,1.38,1.35,1.35c0.7-0.03,1.38-0.59,1.34-1.35
				C179.28,258.87,179.27,258.45,179.24,258.03z"/>
			<path class="st77" d="M194.45,246.82c-0.66-0.27-1.31-0.02-1.71,0.56c-0.28,0.4-0.54,0.82-0.84,1.21
				c-0.36,0.47-0.53,0.91-0.73,1.47c-0.11,0.33-0.06,0.71,0.08,1.04c0,0.01,0,0.03,0,0.04c0.02,0.79,0.98,1.51,1.71,0.98
				c0.07-0.05,0.14-0.1,0.21-0.15c0.36-0.1,0.68-0.31,0.93-0.68c0.59-0.87,0.81-1.86,1.14-2.86
				C195.45,247.79,195.05,247.06,194.45,246.82z"/>
		</g>
		<g>
			<path class="st76" d="M285.54,193.87c-3.68,6.99-10.31,20.34-11.75,33.81c-1.43,13.47,0.29,25.5-0.57,31.8
				c-0.86,6.3-1.43,16.9,1.43,25.79c2.87,8.88,8.6,45.27,7.74,47.56c-0.86,2.29-13.18,11.75-11.75,14.33
				c1.43,2.58,9.24,0.5,9.24,0.5s-2.15,0.64,1.29,1.5c3.44,0.86,10.53-0.43,10.53-0.43s12.25,0,15.9,0.22
				c3.65,0.21,7.09-0.22,7.31-1.93c0.21-1.72-2.58-15.04-2.15-19.34c0.43-4.3,3.87-22.56,2.58-32.45
				c-1.29-9.89-4.08-15.04,7.31-27.72c11.39-12.68,23.64-21.49,29.37-49.28s-13.18-43.26-25.5-44.7
				C314.19,172.1,291.27,182.99,285.54,193.87z"/>
			<path class="st26" d="M315.59,180.26c-1.51-0.6-3.09-0.78-4.71-0.83c-1.27-0.04-1.4,1.74-0.29,2.12c1.53,0.53,3.07,0.9,4.71,0.88
				C316.61,182.42,316.71,180.71,315.59,180.26z"/>
			<path class="st77" d="M353.35,205.22c-0.24-0.85-1.44-0.48-1.3,0.36c5.74,33.76-36.72,47.01-39.83,78.5
				c-0.1,1,1.56,1.23,1.76,0.24C319.88,255.52,362.76,237.86,353.35,205.22z"/>
			<path class="st26" d="M304.53,181.06c-15.79,5.25-27.04,23.89-30.15,39.52c-0.9,4.54-1.25,9.15-1.3,13.77
				c-0.06,5.28,1.08,10.4,1.22,15.64c0.15,5.2-1.61,10.24-1.79,15.43c-0.17,4.95,1.31,9,2.87,13.63c0.27,0.8,1.42,0.48,1.25-0.35
				c-1.85-9.16,1.85-17.77,2.08-26.78c0.13-5-1.28-9.94-1.52-14.92c-0.22-4.54,0.25-9.04,1.23-13.48
				c1.88-8.52,5.4-16.56,10.49-23.65c4.7-6.55,11.06-11.36,16.68-17C306.32,182.13,305.58,180.71,304.53,181.06z"/>
			<path class="st77" d="M299.48,208.67c-1.94,1.81-3.52,3.38-4.9,5.68c-1.13,1.87-2.72,4.24-2.5,6.51c0.1,1.04,1.14,1.42,1.94,0.8
				c1.69-1.31,2.5-3.74,3.63-5.51c1.27-1.97,2.47-4.04,3.84-5.92C302.38,209.01,300.5,207.72,299.48,208.67z"/>
			<path class="st77" d="M308.4,215.99c-0.81,0.19-1.45,1.11-1.92,1.76c-0.54,0.74-1.02,1.52-1.52,2.28
				c-0.46,0.69,0.55,1.41,1.12,0.87c0.67-0.63,1.38-1.24,2.01-1.91c0.57-0.61,1.29-1.36,1.35-2.21
				C309.47,216.23,308.88,215.87,308.4,215.99z"/>
			<path class="st77" d="M301.87,231.06c-1.99,0.21-2.69,3-2.68,4.66c0.01,1.58,2.35,1.56,2.44,0c0.04-0.63,0.22-1.23,0.48-1.8
				c0.28-0.63,0.78-1.13,0.78-1.85C302.88,231.57,302.41,231.01,301.87,231.06z"/>
			<path class="st77" d="M317.22,226.15c-1.29,2.11-2.44,4.18-3.48,6.43c-0.57,1.24,1.25,2.33,1.85,1.08c1.1-2.31,2-4.58,2.82-7.01
				C318.65,225.94,317.59,225.54,317.22,226.15z"/>
		</g>
		<path class="st2" d="M36.75,32.81c-7.22,5.22-16.4,7.43-25.18,5.84c-0.99-0.18-1.42,1.3-0.42,1.52
			c9.67,2.16,18.76-0.05,26.26-6.51C37.88,33.27,37.26,32.45,36.75,32.81z"/>
		<ellipse class="st2" cx="42" cy="12" rx="2" ry="6"/>
		<path class="st3" d="M43.32,8.9c0,0.75-0.61,1.36-1.36,1.36c-0.75,0-1.36-0.61-1.36-1.36c0-0.75,0.61-1.36,1.36-1.36
			C42.71,7.54,43.32,8.14,43.32,8.9z"/>
		<path class="st2" d="M42.04,0.01c-1.73-0.14-3.93,1-4.02,2.92c-0.01,0.27,0.33,0.38,0.52,0.21c0.92-0.87,1.89-1.86,3.3-1.61
			c1.24,0.23,2.28,1.37,2.58,2.56c0.15,0.6,1.07,0.47,1.07-0.14C45.49,1.95,44.13,0.18,42.04,0.01z"/>
		<path class="st2" d="M8.26,23.26c-0.08-0.68-0.06-1.41-0.05-2.09c0.01-0.71-0.9-0.72-1.14-0.15c-0.47,1.11-0.83,3.69,0.62,4.25
			c0.2,0.08,0.43-0.06,0.54-0.22C8.58,24.51,8.33,23.86,8.26,23.26z"/>
		<path class="st2" d="M1.57,22.03c-0.18,0.53-0.27,1.11-0.3,1.67c-0.01,0.27,0,0.55,0.05,0.83c0.06,0.3,0.18,0.4,0.31,0.66
			c0.13,0.25,0.54,0.25,0.66,0c0.13-0.26,0.25-0.37,0.32-0.66c0.05-0.23,0.09-0.48,0.1-0.72c0.04-0.53,0.08-1.08,0.07-1.61
			C2.77,21.48,1.8,21.38,1.57,22.03z"/>
		<g>
			<path class="st77" d="M299.43,137.15c-1.47-1.89-4.4-1.78-6.58-1.57c-2.49,0.24-5.16,0.49-7.48,1.45
				c-2.81,1.16-2.84,5.94,0.78,5.79c2.39-0.1,4.76-0.56,7.15-0.72c2.13-0.14,4.63,0.01,6.13-1.73
				C300.31,139.34,300.24,138.18,299.43,137.15z"/>
			<path class="st77" d="M313.08,153.17c-1.42-1.72-3.29-1.65-5.39-1.74c-2.25-0.09-4.47,0.08-6.63,0.73c-1.9,0.57-1.91,3.3,0,3.87
				c2.16,0.64,4.38,0.82,6.63,0.73c2.09-0.09,3.97-0.02,5.39-1.74C313.56,154.42,313.56,153.75,313.08,153.17z"/>
			<path class="st77" d="M274.93,151.94c0,0-0.71-0.18-0.41-0.04c-0.49-0.23-0.68-0.51-1.24-0.59c-0.73-0.11-1.64-0.03-2.36,0.13
				c-1.15,0.25-2.89,0.42-3.7,1.3c-0.37,0.4-0.37,0.98,0,1.38c0.8,0.87,2.56,1.05,3.7,1.3c0.65,0.14,1.41,0.21,2.07,0.17
				c0.52-0.03,0.86-0.26,1.31-0.46c0.12-0.05,0.18-0.08,0.22-0.11c0.09-0.02,0.22-0.05,0.41-0.1
				C276.4,154.53,276.4,152.33,274.93,151.94z"/>
			<path class="st77" d="M268.29,140.87c-1.85-0.76-3.89-0.36-5.39,0.93c-1.18,1.01,0.09,2.82,1.45,2.49
				c1.18-0.29,2.35-0.57,3.57-0.65C269.57,143.52,269.74,141.46,268.29,140.87z"/>
			<path class="st77" d="M243.54,154.86c-2.45-0.17-4.96,0.35-7.31,1.05c-1.03,0.31-2.16,0.5-2.75,1.5
				c-0.52,0.87-0.53,1.89,0.14,2.67c1.31,1.52,3.58,0.86,5.32,0.56c1.97-0.33,3.9-0.93,5.67-1.85
				C246.58,157.76,245.49,154.99,243.54,154.86z"/>
			<path class="st77" d="M266.94,166.22c-1.29-0.31-2.65,0.01-3.96,0.15c-1.38,0.14-2.73,0.41-4.09,0.67
				c-2.17,0.41-1.23,3.65,0.91,3.29c1.31-0.22,2.61-0.42,3.9-0.75c1.19-0.3,2.5-0.45,3.53-1.13
				C268.06,167.9,268.01,166.47,266.94,166.22z"/>
			<path class="st77" d="M333.32,148.08c-1.84-1.9-4.74-1.68-7.11-0.99c-1.91,0.56-1.62,3.66,0.48,3.56
				c1.84-0.08,3.49,0.71,5.3,0.62C333.6,151.19,334.48,149.28,333.32,148.08z"/>
			<path class="st77" d="M216.39,167.21c-1.56,0-3.1-0.18-4.64,0.04c-1.54,0.22-3.04,0.54-4.55,0.96c-2.37,0.66-1.92,4.32,0.58,4.31
				c1.56-0.01,3.09-0.11,4.64-0.32c1.55-0.21,2.97-0.79,4.47-1.22C218.98,170.4,218.58,167.2,216.39,167.21z"/>
			<path class="st77" d="M296.34,161.62c-2.74-0.11-5.25,0.44-7.9,1.09c-2.98,0.73-2.24,5.13,0.71,5.23
				c2.74,0.09,5.29,0.06,7.96-0.62C300.36,166.5,299.56,161.75,296.34,161.62z"/>
			<path class="st77" d="M335.18,164.08c-0.51-0.48-1.4-0.85-2.1-0.56c-1.43,0.6-2.87,0.74-4.4,0.89c-1.34,0.14-2.19,2.03-0.75,2.78
				c1.99,1.03,4.14,0.97,6.3,0.5c0.65-0.14,1.42-0.82,1.51-1.51C335.85,165.36,335.83,164.7,335.18,164.08z"/>
			<path class="st77" d="M354,157.15c-2.98-2.15-7.83-1.59-11.11-0.53c-1.3,0.42-1.02,2.25,0.32,2.34c1.72,0.12,3.51,0.32,5.21,0.63
				c1.57,0.28,3.1,0.84,4.71,0.79C354.93,160.32,355.36,158.13,354,157.15z"/>
		</g>
	</g>
	<path id="_x30_1-silhoutte" d="M655.72,335.84c-2.58-0.86-17.3,5.41-53.68,1.81c-60.09-5.94-102.18-45.5-131.41-69.99
		c-29.23-24.5-92.55-138.97-177.65-138.97c-63.32,0-122.34,55.16-137.53,63.46c-16.8,8.4-41.42-8.39-56.28-35.37
		C70.68,105.03,89.45,19.2,72.65,6.61c-6.46-4.85-17.89-6.95-28.74-5.89c-0.52-0.38-1.15-0.65-1.87-0.7
		c-1.25-0.1-2.74,0.48-3.51,1.53c-4.47,0.91-8.67,2.39-12.15,4.51C16.9,11.8,3.51,12.58,1.18,19.58
		c-7.95,23.84,26.13,26.13,48.53,23.33c0,0-23.54,166.67,79.02,207.82c-0.1,8.94,2.65,17.98,6.27,23.96
		c6.67,11.03,18.09,21.68,18.6,25.4c0.51,3.72-1.54,20.14-2.82,23.73c-1.28,3.59-8.59,12.44-8.59,12.44s-5.52,6.03-4.1,7.44
		c1.41,1.41,7.95,0.64,7.95,0.64c1.8,1.54,7.06,0.38,7.06,0.38s9.94,0.32,13.98-0.64c4.04-0.96,2.12-4.81,3.08-8.85
		c0.96-4.04,10.58-25.59,10.78-33.48c0.08-3.49-1.33-8.51-2.96-13.1c4.29,5.15,7.72,9.26,8.01,11.37c0.57,4.15-1.72,22.49-3.15,26.5
		c-1.43,4.01-9.6,13.9-9.6,13.9s-6.16,6.73-4.58,8.31c1.58,1.58,8.88,0.72,8.88,0.72c2.01,1.72,7.88,0.43,7.88,0.43
		s11.1,0.36,15.62-0.72c4.51-1.07,2.36-5.37,3.44-9.89c1.07-4.51,11.82-28.58,12.03-37.39c0.1-4.07-1.64-10.02-3.56-15.33
		c2.14-0.22,4.2-0.46,6.14-0.72c12.89-1.72,32.09-5.73,44.41-3.72c2.48,0.4,6.2,0.88,10.69,1.38c0.16,0.59,0.29,1.19,0.48,1.77
		c2.87,8.88,8.6,45.27,7.74,47.56c-0.86,2.29-13.18,11.75-11.75,14.33s9.24,0.5,9.24,0.5s-2.15,0.64,1.29,1.5
		c3.44,0.86,10.53-0.43,10.53-0.43s12.25,0,15.9,0.21c3.65,0.21,7.09-0.21,7.31-1.93c0.21-1.72-2.58-15.04-2.15-19.34
		c0.43-4.3,3.87-22.56,2.58-32.45c-0.41-3.11-0.96-5.75-1.17-8.3c2.81,0.18,5.54,0.33,8.16,0.47c0.99,9.19,9.73,23.01,11.06,27.96
		c1.58,5.87,1.29,4.73-0.29,12.32c-1.58,7.59-6.3,14.61-4.58,16.76c1.72,2.15,4.44,0,4.44,0s4.01,1,6.3,0.57
		c2.29-0.43,6.88-1,10.89-1s12.46,0.64,15.47-2.15s-0.64-9.67-2.15-13.97c-1.5-4.3-1.5-14.4-1.29-21.92
		c0.16-5.55-2.37-15.53-3.71-20.39c14.89-2.29,30.57-4.87,41.1-0.03c15.9,7.31,45.99,32.66,99.71,50.28
		c53.72,17.62,97.05,15.19,124.55,13.04C651.34,346.73,658.3,336.7,655.72,335.84z"/>
</g>
</svg>
