<?xml version="1.0" encoding="utf-8"?>
<!-- Generator: Adobe Illustrator 23.0.1, SVG Export Plug-In . SVG Version: 6.00 Build 0)  -->
<svg version="1.1" id="Layer_1" xmlns="http://www.w3.org/2000/svg" xmlns:xlink="http://www.w3.org/1999/xlink" x="0px" y="0px"
	 viewBox="0 0 648.02 256.29" style="enable-background:new 0 0 648.02 256.29;" xml:space="preserve">
<style type="text/css">
	.st0{fill:#6D5287;}
	.st1{fill:#896CA6;}
	.st2{fill:#2A363F;}
	.st3{fill:#FFFFFF;}
	.st4{fill:#826EAC;}
	.st5{fill:#8B7BAA;}
	.st6{fill:#8F463B;}
	.st7{fill:#D5D4D3;}
	.st8{fill:#69802B;}
	.st9{fill:#77912B;}
	.st10{fill:#85A429;}
	.st11{fill:#8EA63E;}
	.st12{fill:#B8C38B;}
	.st13{fill:#ADB393;}
	.st14{fill:#DD513F;}
	.st15{fill:#4D5138;}
	.st16{fill:#9AA962;}
	.st17{fill:#BAC09F;}
	.st18{fill:#E27533;}
	.st19{fill:#B8B0CC;}
	.st20{fill:#473D54;}
	.st21{fill:#CE5720;}
	.st22{fill:#C4805F;}
	.st23{fill:#218B57;}
	.st24{fill:#39AA6E;}
	.st25{fill:#89C8A5;}
	.st26{fill:#64BFB3;}
	.st27{fill:#318876;}
	.st28{fill:#A14525;}
	.st29{fill:#617729;}
	.st30{fill:#718A2B;}
	.st31{fill:#A49035;}
	.st32{fill:#A7B86A;}
	.st33{fill:#8B975F;}
	.st34{fill:#704D19;}
	.st35{fill:#E08276;}
	.st36{fill:#7F885A;}
	.st37{fill:#B4BB9A;}
	.st38{fill:#CC8455;}
	.st39{fill:#CA6222;}
	.st40{fill:#CD4433;}
	.st41{fill:#492917;}
	.st42{fill:#EFAE82;}
	.st43{fill:#BA7A50;}
	.st44{fill:#D39266;}
	.st45{fill:#DF864C;}
	.st46{fill:#8F98AD;}
	.st47{fill:#AEB8D1;}
	.st48{fill:#5C698B;}
	.st49{fill:#6F7D9D;}
	.st50{fill:#6E717D;}
	.st51{fill:#5B6681;}
	.st52{fill:#66779C;}
	.st53{fill:#8B95AD;}
	.st54{fill:#8C93A5;}
	.st55{fill:#D46D2E;}
	.st56{fill:#5E331A;}
	.st57{fill:#EEA34F;}
	.st58{fill:#894216;}
	.st59{fill:#E5AA25;}
	.st60{fill:#964F34;}
	.st61{fill:#AB5D41;}
	.st62{fill:#C69886;}
	.st63{fill:#80452F;}
	.st64{fill:#F3CC40;}
	.st65{fill:#C0502D;}
	.st66{fill:#DE653F;}
	.st67{fill:#F5CCBF;}
	.st68{fill:#532919;}
	.st69{fill:#C48F6C;}
	.st70{fill:#CD3F2E;}
	.st71{fill:#DC4632;}
	.st72{fill:#E96251;}
	.st73{fill:#A82B17;}
	.st74{fill:#E77767;}
	.st75{fill:#319885;}
	.st76{fill:#45AE9A;}
	.st77{fill:#369482;}
</style>
<g id="_x31_1-allosaurus_1_">
	<g id="_x31_1-allosaurus">
		<path class="st6" d="M575.82,57.71c0,0,20.74,7.91,27.36,10.52c3.35,1.33,5.57,2.09,7.01,2.42c1.55,0.35,2.11,0.96,1.4,1.56
			c-1.37,1.16-14.51-3.48-20.93-5.48c-6.42-2-17.41-7.84-17.41-7.84S573.01,57,575.82,57.71z"/>
		<path class="st6" d="M625.29,87.35c0,0-0.6-2.06-1.69-2.84c-1.09-0.78-21.2-9.66-24.78-11.69c-3.59-2.03-20.48-13.04-22.08-13.22
			c-1.61-0.18,4.16,12.91,4.16,12.91l32.73,14.03C613.62,86.54,624.64,89.1,625.29,87.35z"/>
		<path class="st7" d="M632.95,66.9c0,0-3.04,4.68-5.22,5.46c0,0,0.23,0.39,1.01,0.47c0.78,0.08,5.14-1.56,7.4-4.91
			C636.14,67.92,635.99,65.58,632.95,66.9z"/>
		<path class="st7" d="M639.31,67.7c0,0-2.5,3.85-4.29,4.49c0,0,0.19,0.32,0.83,0.38c0.64,0.06,4.23-1.28,6.09-4.04
			C641.94,68.54,641.81,66.62,639.31,67.7z"/>
		<path class="st7" d="M628.09,65.21c0,0-2.5,3.85-4.29,4.49c0,0,0.19,0.32,0.83,0.38c0.64,0.06,4.23-1.28,6.09-4.04
			C630.72,66.04,630.59,64.12,628.09,65.21z"/>
		<path class="st7" d="M621.7,64.74c0,0-2.5,3.85-4.29,4.49c0,0,0.19,0.32,0.83,0.38c0.64,0.06,4.23-1.28,6.09-4.04
			C624.33,65.58,624.2,63.65,621.7,64.74z"/>
		<path class="st7" d="M616.39,63.08c0,0-3.04,4.68-5.22,5.46c0,0,0.23,0.39,1.01,0.47c0.78,0.08,5.14-1.56,7.4-4.91
			C619.58,64.1,619.43,61.76,616.39,63.08z"/>
		<path class="st7" d="M606.8,59.46c0,0-3.04,4.68-5.22,5.46c0,0,0.23,0.39,1.01,0.47c0.78,0.08,5.14-1.56,7.4-4.91
			C609.99,60.47,609.84,58.13,606.8,59.46z"/>
		<path class="st7" d="M602.12,57.12c0,0-3.04,4.68-5.22,5.46c0,0,0.23,0.39,1.01,0.47c0.78,0.08,5.14-1.56,7.4-4.91
			C605.32,58.13,605.16,55.8,602.12,57.12z"/>
		<path class="st7" d="M596.95,56.48c0,0-2.59,3.98-4.45,4.65c0,0,0.2,0.33,0.86,0.4c0.66,0.07,4.38-1.33,6.31-4.18
			C599.67,57.34,599.54,55.35,596.95,56.48z"/>
		<path class="st7" d="M592.01,55.81c0,0-2.17,3.33-3.72,3.89c0,0,0.17,0.28,0.72,0.33c0.56,0.06,3.67-1.11,5.28-3.5
			C594.29,56.53,594.18,54.86,592.01,55.81z"/>
		<path class="st7" d="M588.15,54.64c0,0-2.17,3.33-3.72,3.89c0,0,0.17,0.28,0.72,0.33c0.56,0.06,3.67-1.11,5.28-3.5
			C590.43,55.36,590.32,53.7,588.15,54.64z"/>
		<path class="st7" d="M610.5,62.07c0,0-3.04,4.68-5.22,5.46c0,0,0.23,0.39,1.01,0.47c0.78,0.08,5.14-1.56,7.4-4.91
			C613.7,63.08,613.54,60.75,610.5,62.07z"/>
		<path class="st7" d="M607.97,80.5c0,0,4.06-3.82,4.44-6.11c0,0,0.42,0.16,0.64,0.91c0.21,0.75-0.62,5.34-3.52,8.16
			C609.53,83.47,607.2,83.73,607.97,80.5z"/>
		<path class="st7" d="M612.73,83.37c0,0,3.49-3.28,3.82-5.25c0,0,0.37,0.14,0.55,0.79c0.18,0.65-0.53,4.59-3.02,7.01
			C614.07,85.92,612.07,86.14,612.73,83.37z"/>
		<path class="st7" d="M604.39,79.01c0,0,3.49-3.28,3.82-5.25c0,0,0.37,0.14,0.55,0.79c0.18,0.65-0.53,4.59-3.02,7.01
			C605.73,81.55,603.73,81.78,604.39,79.01z"/>
		<path class="st7" d="M599.87,77.45c0,0,3.91-2.77,4.5-4.67c0,0,0.34,0.19,0.44,0.85c0.09,0.67-1.16,4.47-3.96,6.53
			C600.85,80.16,598.84,80.1,599.87,77.45z"/>
		<path class="st7" d="M596.83,74.8c0,0,3.5-2.53,4.02-4.24c0,0,0.31,0.17,0.4,0.77c0.09,0.6-1.01,4.04-3.52,5.91
			C597.74,77.23,595.92,77.2,596.83,74.8z"/>
		<path class="st7" d="M593.33,72.87c0,0,2.97-2.14,3.41-3.6c0,0,0.26,0.14,0.34,0.65c0.08,0.51-0.86,3.43-2.99,5.02
			C594.1,74.94,592.56,74.91,593.33,72.87z"/>
		<path class="st7" d="M591.07,70.63c0,0,2.45-1.77,2.82-2.97c0,0,0.22,0.12,0.28,0.54c0.06,0.42-0.71,2.83-2.46,4.14
			C591.7,72.34,590.43,72.31,591.07,70.63z"/>
		<path class="st7" d="M587.56,69.15c0,0,2.45-1.77,2.82-2.97c0,0,0.22,0.12,0.28,0.54c0.06,0.42-0.71,2.83-2.46,4.14
			C588.19,70.86,586.92,70.83,587.56,69.15z"/>
		<path class="st7" d="M584.37,67.05c0,0,2.45-1.77,2.82-2.97c0,0,0.22,0.12,0.28,0.54c0.06,0.42-0.71,2.83-2.46,4.14
			C585,68.75,583.73,68.73,584.37,67.05z"/>
		<path class="st7" d="M580.47,65.18c0,0,2.45-1.77,2.82-2.97c0,0,0.22,0.12,0.28,0.54c0.06,0.42-0.71,2.83-2.46,4.14
			C581.1,66.88,579.83,66.86,580.47,65.18z"/>
		<path class="st7" d="M620.48,86.96c0,0,3.49-3.28,3.82-5.25c0,0,0.36,0.14,0.55,0.79c0.18,0.65-0.53,4.59-3.02,7.01
			C621.82,89.5,619.82,89.73,620.48,86.96z"/>
		<path class="st7" d="M616.39,85.55c0,0,3.49-3.28,3.82-5.25c0,0,0.37,0.14,0.55,0.79c0.18,0.65-0.53,4.59-3.02,7.01
			C617.73,88.1,615.73,88.32,616.39,85.55z"/>
		<g>
			<path class="st8" d="M446.77,42.28c0,0,2.56-12.35-0.71-17.32c0,0-0.16-0.61,1.32,0.38c1.48,0.99,5.61,5.56,5.07,16.65
				C452.44,41.99,449.83,44.96,446.77,42.28z"/>
			<path class="st8" d="M438.5,36.67c0,0,2.56-12.35-0.71-17.32c0,0-0.16-0.61,1.32,0.38c1.48,0.99,5.61,5.56,5.07,16.65
				C444.18,36.38,441.57,39.35,438.5,36.67z"/>
			<path class="st8" d="M432.6,30.25c0,0,1.81-8.77-0.5-12.29c0,0-0.11-0.43,0.93,0.27c1.05,0.7,3.98,3.95,3.6,11.82
				C436.63,30.05,434.78,32.15,432.6,30.25z"/>
			<path class="st8" d="M426.52,31.5c0,0,1.81-8.77-0.5-12.29c0,0-0.11-0.43,0.93,0.27c1.05,0.7,3.98,3.95,3.6,11.82
				C430.55,31.29,428.7,33.4,426.52,31.5z"/>
			<path class="st8" d="M420.56,33.41c0,0,1.81-8.77-0.5-12.29c0,0-0.11-0.43,0.93,0.27c1.05,0.7,3.98,3.95,3.6,11.82
				C424.59,33.2,422.73,35.31,420.56,33.41z"/>
			<path class="st8" d="M454.47,45.22c0,0,1.81-8.77-0.5-12.29c0,0-0.11-0.43,0.93,0.27c1.05,0.7,3.98,3.95,3.6,11.82
				C458.49,45.01,456.64,47.11,454.47,45.22z"/>
		</g>
		<g>
			<path class="st8" d="M280.44,33.7c0,0-6.05-10.68-10.91-11.96c0,0-0.44-0.29,1.04-0.5c1.49-0.21,7.85,2.23,13.76,9.51
				C284.34,30.74,283.87,33.66,280.44,33.7z"/>
			<path class="st8" d="M250.65,38.9c0,0-5.45-9.61-9.82-10.77c0,0-0.4-0.26,0.94-0.45s7.07,2,12.39,8.56
				C254.16,36.23,253.74,38.86,250.65,38.9z"/>
			<path class="st8" d="M245.27,43.1c0,0-5.45-9.61-9.82-10.77c0,0-0.4-0.26,0.94-0.45c1.34-0.19,7.07,2,12.39,8.56
				C248.78,40.44,248.36,43.07,245.27,43.1z"/>
			<path class="st8" d="M237.09,47.08c0,0-5.45-9.61-9.82-10.77c0,0-0.4-0.26,0.94-0.45c1.34-0.19,7.07,2,12.39,8.56
				C240.6,44.41,240.18,47.04,237.09,47.08z"/>
			<path class="st8" d="M289.25,32.63c0,0-5.49-9.68-9.89-10.85c0,0-0.4-0.26,0.95-0.46c1.35-0.19,7.12,2.02,12.48,8.62
				C292.78,29.94,292.36,32.59,289.25,32.63z"/>
			<path class="st8" d="M268.98,35.1c0,0-6.05-10.68-10.91-11.96c0,0-0.44-0.29,1.04-0.5c1.49-0.21,7.85,2.23,13.76,9.51
				C272.88,32.14,272.42,35.06,268.98,35.1z"/>
			<path class="st8" d="M257.99,36.51c0,0-6.05-10.68-10.91-11.96c0,0-0.44-0.29,1.04-0.5c1.49-0.21,7.85,2.23,13.76,9.51
				C261.89,33.55,261.43,36.46,257.99,36.51z"/>
		</g>
		<g>
			<path class="st8" d="M529.22,17.14c0,0-2.06-13.16-7.14-16.86c0,0-0.38-0.54,1.44-0.11c1.83,0.43,7.61,3.41,11.2,14.58
				C534.72,14.74,533.24,18.64,529.22,17.14z"/>
			<path class="st8" d="M543.2,15.24c0,0-1.53-9.75-5.29-12.49c0,0-0.28-0.4,1.07-0.08c1.35,0.32,5.64,2.53,8.29,10.8
				C547.28,13.46,546.18,16.35,543.2,15.24z"/>
			<path class="st8" d="M503.57,22.95c0,0-6.05-10.68-10.91-11.96c0,0-0.44-0.29,1.04-0.5c1.49-0.21,7.85,2.23,13.76,9.51
				C507.47,19.99,507,22.9,503.57,22.95z"/>
			<path class="st8" d="M494.38,30.04c0,0-4.05-7.99-7.02-8.77c0,0-0.27-0.18,0.64-0.31c0.91-0.13,5.41,1.97,9.03,6.43
				C497.03,27.39,496.48,30.01,494.38,30.04z"/>
			<path class="st8" d="M557.2,17.56c0,0,0.9-4.96-0.45-6.91c0,0-0.07-0.24,0.53,0.14c0.6,0.38,2.3,2.17,2.19,6.6
				C559.46,17.39,558.44,18.6,557.2,17.56z"/>
			<path class="st8" d="M550.7,15.77c0,0,0.89-4.92-0.45-6.86c0,0-0.07-0.24,0.53,0.14c0.6,0.38,2.28,2.15,2.17,6.55
				C552.94,15.6,551.94,16.8,550.7,15.77z"/>
			<path class="st8" d="M537.13,13.55c0,0-0.99-6.46-3.47-8.28c0,0-0.19-0.27,0.71-0.05c0.9,0.21,3.73,1.69,5.47,7.17
				C539.84,12.38,539.1,14.3,537.13,13.55z"/>
			<path class="st8" d="M521.52,14.06c0,0-0.99-6.46-3.47-8.28c0,0-0.19-0.27,0.71-0.05c0.9,0.21,3.73,1.69,5.47,7.17
				C524.22,12.9,523.49,14.81,521.52,14.06z"/>
			<path class="st8" d="M508.74,18.32c0,0-2.56-5.99-5.41-7.13c0,0-0.25-0.21,0.67-0.23c0.92-0.02,4.79,1.6,7.83,6.45
				C511.83,17.41,510.83,18.55,508.74,18.32z"/>
			<path class="st8" d="M498.27,26.06c0,0-2.55-6.05-4.88-6.98c0,0-0.2-0.17,0.55-0.19c0.75-0.01,4.34,1.8,6.83,5.76
				C500.77,24.66,499.98,26.25,498.27,26.06z"/>
			<path class="st8" d="M488.59,33.93c0,0-3.28-5.65-6.26-6.44c0,0-0.27-0.18,0.64-0.31c0.91-0.13,4.09,0.21,7.71,4.67
				C490.68,31.86,490.69,33.9,488.59,33.93z"/>
		</g>
		<path class="st9" d="M454.82,124.65c0.78-1.79,3.59-5.85,11.51-2.94c7.92,2.91,19.03,10.7,23.45,16.3
			c4.42,5.6,5.01,10.83,4.39,14.28c-0.62,3.45-1.63,4.15-1.63,4.15s-0.56-6.29-1.61-6.32c0,0,0.88,6.95-0.69,10.79
			c-1.56,3.84-4.08,5.68-4.08,5.68s1.87-4.96,1.4-8.58c-0.47-3.62-3.78-10.7-3.78-10.7s-0.15,4.67-2.04,7.25
			c-1.89,2.57-3.32,3.39-3.32,3.39s2.1-8.76,1.1-13.29c-1.01-4.53-2.85-7.65-5.21-8.69c-2.36-1.04-16.78-3.64-18.44-6.06
			C454.2,127.5,454.16,126.17,454.82,124.65z"/>
		<path class="st9" d="M467.79,105.61c-0.53,0.36-12.64,13.95-12.56,20.04c0.08,6.08,8.43,5.84,8.43,5.84s5.07-3.29,11.5-10.07
			c6.43-6.78,5.85-12.39,5.85-12.39S480.7,96.85,467.79,105.61z"/>
		<path class="st9" d="M412.54,137.2c0.29,1.63,0.94,10.05-5.14,15.9s-30.16,10.76-37.41,13.56c-7.25,2.81-14.96,9.82-14.96,9.82
			s1.27,8.69,3.12,12.94c0.78,1.79,1.09,4.6,2.03,12.78c0.94,8.18,0.62,18.86,0.62,18.86l-1.25,7.95c0,0-2.18,2.65-5.14,0
			c-2.96-2.65-1.87-18.86-3.43-21.67c0,0-1.56,11.85-4.52,16.68s-8.26,5.14-8.42,1.71s4.52-14.96,3.9-21.35
			c-0.62-6.39-2.18-11.22-2.18-11.22s-3.35,2.26-4.44,1.79c-1.09-0.47-2.03-1.4-2.1-3.2c-0.08-1.79-0.31-15.28-0.31-18.86
			c0-3.59-2.49-12.94,0.62-16.05c3.12-3.12,7.95,1.56,12.94-0.78c4.99-2.34,10.44-6.08,12.94-10.76c2.49-4.68,3.58-17.46,3.58-17.46
			s5.77-21.67,27.43-14.18C412.08,121.15,410.83,127.54,412.54,137.2z"/>
		<path class="st10" d="M363.91,17.02c47.69,0.66,82.77,12.63,100.07,26.65c17.3,14.03,23.85,47.7,18.24,64.53
			s-34.6,32.73-52.37,36.01c-17.77,3.27-27.28-5.92-35.07-6.23c-7.79-0.31-40.84,1.56-60.79-1.87
			c-19.95-3.43-28.37-25.56-37.41-34.6c-9.04-9.04-43.33-19.64-75.13-22.45c-31.8-2.81-95.55,11.85-143.25,11.85
			c-47.7,0-75.75-8.88-78.09-11.22c-2.34-2.34,35.54,4.68,75.29,0.94c39.75-3.74,116.44-33.2,157.59-43.02
			S330.24,16.56,363.91,17.02z"/>
		<path class="st11" d="M459.62,39.94c9.46-2.33,26.15-4.19,34.43-10.99c8.28-6.8,20.39-16.35,38.01-18.26
			c17.63-1.91,36.74,8.42,43.54,11.26c6.8,2.83,28.46,6.8,32,6.94c3.54,0.14,8.78,2.27,13.17,4.39c4.39,2.12,6.51,4.53,8.92,5.66
			c2.41,1.13,11.47,5.52,14.44,9.49c2.97,3.96,4.25,8.07,3.82,12.03c-0.42,3.96-1.98,8.35-5.52,9.2c-3.54,0.85-9.91-2.12-13.03-2.41
			c-3.11-0.28-13.31-1.56-20.67-3.96c-7.36-2.41-19.4-6.8-25.2-6.94c-5.8-0.14-8.21,0.57-6.8,3.26
			c1.42,2.69,17.98,13.03,24.21,16.42c6.23,3.4,24.21,9.49,24.35,11.33c0.14,1.84-3.68,4.81-10.76,4.96
			c-7.08,0.14-11.61-4.53-16.28-6.94c-4.67-2.41-14.72-6.8-20.67-6.8c-5.95,0-16.99,1.13-26.48-0.57
			c-9.49-1.7-10.76-4.39-21.38-4.67c-10.62-0.28-17.13,0.57-21.66,3.26c-4.53,2.69-21.55,29.78-33.01,31.62
			c-11.47,1.84-4.5-13.5-11.3-21.14S433.21,46.45,459.62,39.94z"/>
		<path class="st2" d="M638.98,49.61c-0.37-0.52-1.21-0.22-1.05,0.44c0.16,0.73,0.36,1.4,0.66,2.09c0.27,0.63,0.64,1.41,1.18,1.85
			c0.37,0.3,0.93,0.12,0.95-0.39C640.78,52.19,639.77,50.7,638.98,49.61z"/>
		<path class="st12" d="M65.31,90.68c-3.26-0.11-6.42-0.26-9.45-0.46c-1.64-2.85-0.85-7.13,2.35-8.59c1.54-0.04,3.1-0.09,4.66-0.16
			C66.59,82.83,67.4,87.76,65.31,90.68z"/>
		<path class="st12" d="M111.19,88.33c-0.03,0.28-0.1,0.58-0.23,0.85c-4,0.36-7.98,0.69-11.9,0.95c-0.81-0.39-1.55-0.94-2.08-1.56
			c-1.51-1.78-2.57-3.69-3.34-5.9c-0.79-2.25,0.68-4.55,2.68-5.49c0.62-0.13,1.24-0.26,1.87-0.4c0.64,0.01,1.27,0.18,1.85,0.46
			c0.78-0.19,1.65-0.06,2.25,0.52c1.72,1.63,3.43,3.25,5.13,4.92C108.94,84.15,111.45,85.96,111.19,88.33z"/>
		<path class="st12" d="M600.94,76.03c-6.23-3.4-22.8-13.74-24.21-16.42c-0.29-0.55-0.42-1.01-0.38-1.4l-6.06-2.21l-15.11-3.9
			c0,0-11.85-1.56-24.32-1.56c-12.48,0-27.44,4.37-38.66,16.22c-2.75,2.9-5.9,7.51-9.45,12.89c-4.43,6.73-9.47,14.66-15.06,21.89
			c-8.17,10.58-17.53,19.66-27.87,21.33c-23.06,3.74-50.5-3.12-66.71-6.86c-16.21-3.74-71.7-34.29-94.15-39.28
			c-1.17-0.26-2.27-0.52-3.32-0.77c-5.48-6.51-9.13-15.93-9.77-16.06c-0.78-0.16-1.09-2.81-0.94,2.03
			c0.09,2.84,2.71,8.42,4.86,12.54c-9.38-2.55-13.85-4.46-22.83-4.92c-5.05-6.44-8.38-14.98-9-15.11c-0.78-0.16-1.09-2.81-0.94,2.03
			c0.09,2.94,2.9,8.82,5.08,12.97c-3.05,0.01-6.59,0.15-10.85,0.43c-1.95,0.13-5.02,0.34-7.28,0.56
			c-6.77-6.1-13.65-15.31-14.34-15.44c-0.78-0.16-1.09-2.81-0.94,2.03c0.11,3.31,3.66,10.36,5.88,14.47
			c-7.54,0.69-15.82,1.55-24.31,2.63c-1.38-1.42-3.08-2.69-4.29-3.97c-1.64-1.74-3.17-3.57-4.71-5.4c-0.09-0.2-0.2-0.4-0.33-0.58
			c-0.24-0.31-0.49-0.54-0.77-0.71c-0.39-0.45-0.77-0.91-1.17-1.35c-0.21-0.23-0.47-0.36-0.75-0.42c-0.37-0.92-0.81-1.81-1.4-2.62
			c-0.66-0.9-2.27-0.94-2.56,0.34c-0.95,4.05,0.38,8.88,2.27,13c0.26,1.21,0.62,2.37,1.15,3.47c-10.54,1.62-20.94,3.61-30.16,6.05
			c-0.18-1-0.84-1.83-1.58-2.65c-1.34-1.48-2.59-2.92-3.7-4.58c-0.58-0.86-1.21-1.94-2.05-2.68c-0.02-0.04-0.02-0.07-0.04-0.11
			c-0.18-0.32-0.45-0.62-0.68-0.91c-0.31-0.41-0.66-0.73-1.13-0.89c-0.23-0.52-0.52-1.02-0.92-1.46c-0.85-0.94-2.58-0.94-3.43,0
			c-3.57,3.94,0.2,13.09,4.5,15.97c-2.17,0.73-4.25,1.48-6.18,2.28c34.41-4.11,68.47-9.63,89.09-7.81
			c31.8,2.81,66.09,13.41,75.14,22.45c9.03,9.04,17.45,31.18,37.41,34.6c19.95,3.43,52.99,1.56,60.79,1.87
			c7.79,0.32,17.3,9.51,35.07,6.24c17.77-3.27,46.76-19.17,52.37-36.01c0.46-1.37,0.83-2.87,1.13-4.46
			c10.14-8.26,21.19-25.06,24.71-27.16c4.53-2.68,11.05-3.54,21.66-3.25c10.62,0.28,11.9,2.97,21.38,4.68
			c9.48,1.69,20.53,0.56,26.48,0.56c5.95,0,15.99,4.4,20.67,6.8c4.68,2.4,9.2,7.08,16.28,6.94c7.08-0.14,10.9-3.11,10.76-4.96
			C625.14,85.51,607.17,79.42,600.94,76.03z"/>
		<path class="st13" d="M457.48,118.47c-3.02,1.13-5.36,3.25-7.96,5.11c-2.63,1.88-5.6,3.32-8.11,5.36
			c-0.45,0.37-0.46,0.87-0.25,1.29c-0.24,0.34-0.27,0.84,0.08,1.25c1.21,1.46,2.93,2.56,4.47,3.65c1.28,0.91,2.99,2.35,4.66,2.13
			c0.29-0.04,0.58-0.23,0.57-0.57c-0.09-1.76-4.27-6.26-5.58-6.83c2.67-1,4.01-2.1,6.3-3.68c2.66-1.84,5.21-3.76,6.57-6.76
			C458.43,118.97,458.07,118.25,457.48,118.47z"/>
		<path class="st6" d="M576.73,59.6c0.22,0.4,0.77,0.98,1.58,1.67c-1.8-0.29-5.24-0.99-7.24-2.33c-2.81-1.87-15.9-6.86-15.9-6.86
			s17.14,3.11,19.64,3.11c2.49,0,8.72,1.14,8.72,1.14C577.72,56.2,575.31,56.91,576.73,59.6z"/>
		<path class="st14" d="M585.22,34.54c0,0-0.57-5.66-1.13-7.36c-0.57-1.7,1.42-7.93,6.23-9.91c0,0,1.63,0.11,3.33,1.49
			c1.55,1.26,7.5,7.26,12.57,9.84c0.47,0.24,0.35,0.58,0,0.7c0,0-1.28,0.08-3.28,0.03c-1.08-0.03-2.22-0.07-3.19-0.15
			c-2.76-0.21-5.74-2.9-9.35-1.09C586.78,29.9,587.63,34.93,585.22,34.54z"/>
		<path class="st15" d="M354.15,227.03c-0.13-0.86,2.14-1.22,3.41-0.45c1.12,0.69,1.64,2.08,1.64,2.08s-1.14,4.23-5.64,5.22
			C353.56,233.88,354.47,229.15,354.15,227.03z"/>
		<path class="st15" d="M334.16,191.84c-0.13-0.86,2.14-1.22,3.41-0.45c1.12,0.69,1.64,2.08,1.64,2.08s-1.14,4.23-5.64,5.22
			C333.57,198.69,334.48,193.97,334.16,191.84z"/>
		<path class="st15" d="M338.61,223.74c0.17-0.99,2.74-0.27,3.84,1.03c1.44,1.71,0.25,3.57,0.25,3.57s-1.95,3.23-7.23,2.68
			C335.48,231.01,338.18,226.18,338.61,223.74z"/>
		<path class="st13" d="M359.59,68.46c-0.26-0.57-1.25-0.3-1.19,0.32c0.51,5.68,1.74,11.25,2.06,16.97
			c0.32,5.76,0.19,11.52-0.37,17.26c-0.58,5.94-1.58,11.86-2.8,17.71c-1.12,5.38-3.08,10.95-2.93,16.49
			c0.01,0.3,0.39,0.39,0.54,0.15c3.19-4.86,4.68-10.76,5.89-16.36c1.26-5.83,2.27-11.21,2.81-17.15
			C364.59,92.77,364.4,78.77,359.59,68.46z"/>
		<g>
			<path class="st2" d="M576.19,31.06c-0.43,3.33,0.48,6.19,2.04,6.4c1.56,0.2,3.17-2.34,3.6-5.67s-0.48-6.19-2.04-6.4
				C578.23,25.19,576.62,27.73,576.19,31.06z"/>
			<path class="st3" d="M577.4,27.68c-0.11,0.84,0.49,1.62,1.33,1.72c0.84,0.11,1.62-0.49,1.72-1.33c0.11-0.84-0.49-1.62-1.33-1.72
				C578.28,26.24,577.51,26.83,577.4,27.68z"/>
		</g>
		<path class="st2" d="M584.4,23.27c-0.29-1.96-1.89-3.68-3.82-4.16c-1.74-0.44-4.37-0.05-5.21,1.76c-0.12,0.26,0.12,0.57,0.4,0.52
			c1.42-0.25,2.56-0.98,4.09-0.68c1.75,0.34,2.84,1.47,3.79,2.88C583.89,23.94,584.45,23.67,584.4,23.27z"/>
		<path class="st13" d="M440.37,140.86c-1.02-1.84-6.04-3.32-7.86-4.2c-1.91-0.92-6.46-4.98-8.58-5.23
			c-0.43-0.05,1.89,3.65,2.18,3.93c1.6,1.49,3.66,2.49,5.52,3.6c1.68,0.99,4.01,2.85,6.01,2.92
			C438.24,141.9,440.64,141.36,440.37,140.86z"/>
		<path class="st11" d="M422.9,124.52c1.37-1.76,5.65-5.48,13.62,0c7.98,5.48,18.11,17.28,21.43,24.76
			c3.32,7.48,2.49,13.46,0.83,17.11c-1.66,3.66-2.99,4.15-2.99,4.15s1.16-7.14,0-7.48c0,0-1,7.98-3.82,11.8
			c-2.82,3.82-6.15,5.15-6.15,5.15s3.49-4.98,3.99-9.14c0.5-4.15-1.16-12.96-1.16-12.96s-1.5,5.15-4.32,7.48
			c-2.82,2.33-4.65,2.82-4.65,2.82s4.82-9.14,4.98-14.46c0.17-5.32-1-9.31-3.32-11.13c-2.33-1.83-17.61-8.81-18.78-11.96
			C421.4,127.51,421.73,126.02,422.9,124.52z"/>
		<path class="st11" d="M442.7,107.04c-0.7,0.25-18,11.92-19.64,18.7c-1.64,6.78,7.72,8.88,7.72,8.88s24.33-11.51,27.08-14.73
			c4.79-5.61,5.42-10.5,3.62-14.61C459.65,101.06,451.23,103.96,442.7,107.04z"/>
		<path class="st16" d="M447.99,105.42c-8.91,3.94-18.89,12.27-23.98,20.58c-0.13,0.22,0.15,0.39,0.33,0.25
			c4.11-3.28,7.75-7.12,11.82-10.46c4.07-3.34,8.59-5.99,12.74-9.2C449.62,106.03,448.7,105.11,447.99,105.42z"/>
		<path class="st16" d="M424.74,129.87c0.48-0.89-0.88-1.69-1.36-0.8c-0.51,0.95-0.52,2.74,0.84,2.94c0.27,0.04,0.63-0.12,0.6-0.45
			c-0.03-0.33-0.09-0.62-0.15-0.94C424.61,130.35,424.61,130.12,424.74,129.87z"/>
		<path class="st11" d="M359.47,72.44c4.57,18.47-0.86,54.63-8.34,70.22c-7.48,15.59-23.07,23.07-27.75,29.93
			c-4.68,6.86-12.78,18.7-13.09,23.07c-0.31,4.36-1.87,19.64-0.94,26.19c0.94,6.55,1.09,6.24,3.12,7.95s14.18,7.33,15.74,10.6
			c1.56,3.27-0.31,6.24-3.58,6.86c-3.27,0.62-3.27,0.62-3.27,0.62s-1.09,3.12-6.7,3.12c-5.61,0-5.92,0.16-8.88-2.49
			c-2.96-2.65-5.3-6.23-5.3-6.23s0.94,4.21-1.87,6.23c-2.81,2.03-6.24,2.65-8.88-1.25c-2.65-3.9-0.62-19.95-1.09-27.75
			c-0.47-7.79-3.9-12.63-2.65-19.17c1.25-6.55,8.88-14.03,10.13-21.67c1.25-7.64,0.31-25.72,5.61-34.6
			c5.3-8.88,11.85-17.3,11.85-17.3s-8.81-20.42-9.04-41.23c-0.23-20.81,6.98-32.9,28.52-34.6C350.82,49.52,357.6,64.88,359.47,72.44
			z"/>
		<path class="st15" d="M292.21,248.34c-0.62-0.91,1.97-2.55,3.21-2.94c1.59-0.5,3.64,1.07,3.64,1.07s-0.31,2.49-1.25,8.26
			C297.82,254.73,293.92,250.83,292.21,248.34z"/>
		<path class="st15" d="M323.23,246.78c-1.07-0.25-0.41-1.99,1.09-3.12c1.33-1,4.21-1.09,4.21-1.09s3.43,2.34,2.49,8.11
			C331.02,250.68,325.88,247.4,323.23,246.78z"/>
		<path class="st15" d="M316.53,246.78c0,0,3.59,4.05,3.27,9.51l-9.2-5.92C310.6,250.37,309.98,243.97,316.53,246.78z"/>
		<path class="st16" d="M314.82,59.74c-7.05,7.89-9.45,16.72-9.75,27.2c-0.32,11.15,0.92,24.42,6.93,34.08
			c0.35,0.57,1.14,0.18,1.04-0.44c-1.85-10.79-4.98-20.81-4.78-31.92c0.17-9.32,1.73-20.56,7.39-28.28
			C316.01,59.89,315.22,59.29,314.82,59.74z"/>
		<path class="st16" d="M322.75,55.37c-0.37-0.36-0.93-0.23-1.4-0.22c-0.64,0.02-1.25,0.33-1.79,0.67
			c-0.86,0.55-2.42,1.91-1.13,2.89c1.06,0.8,2.78-0.26,3.61-0.98C322.55,57.3,323.39,56,322.75,55.37z"/>
		<g>
			<path class="st17" d="M354.82,67.64c-5.5-4.53-14.02-3.18-20.33-1.25c-7.95,2.43-16.62,6.59-22.37,12.73
				c-0.54,0.58,0.17,1.63,0.89,1.15c6.25-4.17,11.89-8.42,19.11-10.9c7.28-2.51,14.59-4.55,21.63-0.33
				C354.59,69.54,355.62,68.29,354.82,67.64z"/>
			<path class="st17" d="M358.1,89.79c-8.1-2.78-19.09-0.98-27.43,0.17c-7.67,1.06-15.6,3.45-19.8,10.43
				c-0.24,0.4,0.31,0.82,0.64,0.5c12.31-11.99,30.62-9.55,46.25-8.63C359.25,92.35,359.38,90.23,358.1,89.79z"/>
			<path class="st17" d="M355.98,108.58c-9.09-1.85-18.09-0.35-27.19,0.66c-5.97,0.66-14.27-0.26-18.5,4.95
				c-0.64,0.79,0.18,2.16,1.17,1.51c12.7-8.35,29.96-4.44,44.34-5.75C356.52,109.89,356.81,108.74,355.98,108.58z"/>
			<path class="st17" d="M353.54,128.75c-6.82-3.59-14.14-2.63-21.49-2.55c-5.71,0.06-12.08-1.58-15.61,4.16
				c-0.33,0.53,0.33,1.18,0.86,0.86c5.61-3.42,11.41-3.93,17.88-3.53c6.08,0.38,11.79,0.89,17.55,2.99
				C353.85,131.08,354.59,129.3,353.54,128.75z"/>
			<path class="st17" d="M342.14,148.45c-6.32-2.67-14.25-3.85-21.1-4.3c-4.78-0.31-9.7,0.28-11.71,5.16
				c-0.21,0.51,0.58,0.79,0.85,0.36c3.65-5.69,12.05-3.57,17.6-2.83c4.73,0.63,9.09,2.17,13.76,3.02
				C342.33,150.01,343,148.81,342.14,148.45z"/>
			<path class="st17" d="M323.89,164.76c-5.94-2.62-14.05-2.66-20.22-0.82c-0.93,0.28-0.73,1.62,0.23,1.66
				c3.28,0.16,6.55-0.04,9.83,0.05c3.26,0.09,6.53,0.63,9.78,0.49C324.18,166.12,324.61,165.08,323.89,164.76z"/>
		</g>
		<g>
			<path class="st17" d="M404.67,86.23c-0.49-7.46-0.96-14.52-1.4-21.98c-0.43-7.12,0.56-11.88,0.75-19.02
				c0.09-3.56,0.32-7.1,0.61-10.65c0.28-3.46,1.12-6.84,0.5-10.26c-0.32-1.76-2.93-1.95-3.74-0.49c-3,5.39-2.55,13.59-2.62,19.62
				c-0.09,7.44,0.35,14.87,0.99,22.28c0.62,7.17,1.49,14.32,2.24,21.48c0.74,7.18,0.65,14.69,2.71,21.63c0.15,0.5,1.04,0.56,1.06,0
				C406.07,100.73,405.1,92.82,404.67,86.23z"/>
			<path class="st17" d="M385.34,93.29c-0.3-3.51-0.48-7.01-0.64-10.52c-0.31-6.84-0.95-13.66-1.27-20.5
				c-0.32-6.88-0.29-13.74-0.17-20.63c0.13-7.16,1.32-14.28,1.35-21.43c0.01-1.49-2.25-1.83-2.62-0.35
				c-3.27,13.23-1.51,28.07-0.85,41.52c0.35,7.14,0.62,14.27,1.18,21.4c0.25,3.21,0.49,6.42,0.63,9.65c0.14,3.28-0.2,6.76,0.83,9.9
				c0.28,0.84,1.67,1,1.87,0C386.23,99.3,385.6,96.33,385.34,93.29z"/>
			<path class="st17" d="M371.02,98.07c-2.7-12.93-6.18-25.37-6.57-38.68c-0.38-12.93,2.49-25.37,3.2-38.19
				c0.06-0.99-1.42-1.13-1.69-0.23c-7.64,25.55-3.42,52.33,3.78,77.44C369.98,99.24,371.19,98.9,371.02,98.07z"/>
			<path class="st17" d="M423.98,36.4c-0.1-3.22,0.12-6.47-1.24-9.43c-0.27-0.58-1.06-0.33-1.24,0.16
				c-1.17,3.22-0.6,6.79-0.54,10.18c0.06,3.64,0.06,7.27,0.07,10.91c0.02,7.57,0.23,15.15,0.08,22.73
				c-0.15,7.29-1.12,14.51-1.5,21.77c-0.41,7.93-2.23,15.59-2.74,23.49c-0.07,1.14,1.77,1.4,2.01,0.27
				c1.53-7.17,1.58-14.67,2.48-21.95c0.97-7.85,1.15-15.7,1.73-23.58c0.57-7.88,1.13-15.73,1.11-23.64
				C424.18,43.68,424.09,40.04,423.98,36.4z"/>
			<path class="st17" d="M441.28,34.46c-0.18-1.15-2.16-0.89-2.05,0.28c1.26,12.37,1.5,24.91,0.41,37.3
				c-0.94,10.72-2.58,21.01,1.92,31.22c0.24,0.54,1.08,0.15,0.93-0.39c-2.95-11.1,0.12-23.17,0.66-34.47
				C443.71,57,443.03,45.72,441.28,34.46z"/>
			<path class="st17" d="M458.27,41.24c-0.12-0.23-0.46-0.16-0.53,0.07c-2.29,7.63,1.39,16.84,1.58,24.61
				c0.21,8.37-1.94,17.25-0.84,25.52c0.01,0.09,0.16,0.1,0.15,0c-0.43-4.44,1.08-9.25,1.5-13.72c0.4-4.28,0.17-8.43,0.15-12.71
				C460.23,57.6,461.86,48.02,458.27,41.24z"/>
			<path class="st17" d="M475.97,58.87c0.06-6.53,0.01-14.87-3.93-20.39c-0.4-0.57-1.41-0.42-1.4,0.38
				c0.16,7.22,3.05,14.47,3.71,21.72c0.63,6.91-1.13,13.85-0.04,20.73c0.08,0.51,0.87,0.46,0.99,0
				C477.17,74.03,475.9,66.29,475.97,58.87z"/>
			<path class="st17" d="M492.79,33.57c-0.35-1.35-2.57-1.11-2.48,0.33c0.57,8.41,1.26,16.78,1.76,25.19c0.08,1.37,1.91,1.3,2.08,0
				C495.25,50.97,494.84,41.55,492.79,33.57z"/>
			<path class="st17" d="M506.47,24.04c-0.1-0.83-1.35-0.89-1.34,0c0.05,7.04,0.19,14.73,1.54,21.66c0.12,0.63,1.03,0.43,1.06-0.14
				C508.17,38.57,507.31,30.99,506.47,24.04z"/>
			<path class="st17" d="M519.82,15.86c-0.2-0.99-1.71-0.73-1.72,0.23c-0.03,3.89,0.36,7.79,0.4,11.69
				c0.04,3.87-0.5,7.85-0.07,11.69c0.07,0.58,0.87,0.76,1.06,0.14C521.67,32.65,521.24,22.95,519.82,15.86z"/>
			<path class="st17" d="M539.09,12.82c-0.12-1.27-2.06-1.32-2.02,0c0.21,5.99,0.3,12.05,1.48,17.94c0.16,0.82,1.33,0.56,1.38-0.19
				C540.34,24.66,539.64,18.71,539.09,12.82z"/>
			<path class="st17" d="M557.61,18.41c-0.13-1.2-1.93-1.27-1.93,0c0.01,3.29-0.21,6.88,0.73,10.06c0.21,0.72,1.43,0.83,1.58,0
				C558.56,25.19,557.97,21.7,557.61,18.41z"/>
			<path class="st17" d="M337.48,24.63c-2.64,5.41-4.35,13.8-2.64,19.69c0.16,0.56,1.04,0.61,1.18,0c0.72-3.09,0.56-6.4,1.02-9.55
				c0.47-3.22,1.29-6.36,1.8-9.57C338.96,24.44,337.89,23.8,337.48,24.63z"/>
			<path class="st17" d="M310.55,26.49c-3.21,2.88-3.65,7.23-3.98,11.31c-0.47,5.79-0.21,11.5,0.66,17.23c0.09,0.6,0.97,0.41,1-0.14
				c0.25-4.28,0.54-8.56,0.87-12.83c0.37-4.72,0.22-9.88,3.25-13.78C313.33,27.02,311.8,25.37,310.55,26.49z"/>
			<path class="st17" d="M287.24,29.46c-3.21,2.88-3.65,7.22-3.98,11.31c-0.47,5.79-0.21,11.5,0.66,17.23c0.09,0.6,0.97,0.41,1-0.14
				c0.25-4.28,0.54-8.56,0.87-12.83c0.37-4.72,0.22-9.88,3.25-13.78C290.02,29.99,288.49,28.34,287.24,29.46z"/>
		</g>
	</g>
	<g id="_x31_1-silhouette">
		<path d="M644.12,48.42c-2.97-3.96-12.03-8.35-14.44-9.49c-2.41-1.13-4.53-3.54-8.92-5.66c-4.39-2.12-9.63-4.25-13.17-4.39
			c-0.27-0.01-0.68-0.05-1.15-0.1c-0.05-0.06-0.12-0.12-0.23-0.18c-5.07-2.58-11.02-8.58-12.57-9.84c-1.7-1.38-3.33-1.49-3.33-1.49
			c-3.32,1.37-5.27,4.74-5.98,7.27c-3.61-0.88-6.79-1.78-8.74-2.6c-3.19-1.33-9.1-4.3-16.28-6.89c-0.4-2.73-1.56-3.96-2.04-4.26
			c-0.6-0.38-0.53-0.14-0.53-0.14c0.61,0.88,0.76,2.38,0.74,3.75c-1.53-0.52-3.11-1.01-4.73-1.46c-0.44-2.48-1.53-3.61-1.99-3.9
			c-0.6-0.38-0.53-0.14-0.53-0.14c0.58,0.84,0.74,2.24,0.74,3.56c-1.45-0.37-2.93-0.7-4.43-0.99c-2.65-6.64-6.34-8.53-7.57-8.81
			c-1.35-0.32-1.07,0.08-1.07,0.08c2.06,1.5,3.44,5.09,4.28,8.05c-1.01-0.12-2.03-0.2-3.04-0.25c-1.72-3.98-3.99-5.14-4.78-5.33
			c-0.9-0.21-0.71,0.05-0.71,0.05c1.33,0.98,2.23,3.28,2.78,5.21c-1.1,0-2.2,0.05-3.3,0.14c-3.51-7.79-8.04-10.08-9.62-10.45
			c-1.83-0.43-1.44,0.11-1.44,0.11c2.82,2.05,4.7,7.02,5.82,11.03c-1.35,0.25-2.66,0.54-3.95,0.87c-1.75-4.86-4.35-6.26-5.2-6.46
			c-0.9-0.21-0.71,0.05-0.71,0.05c1.84,1.35,2.85,5.23,3.26,7.16c-3.53,1.1-6.8,2.47-9.8,4.01c-2.99-4.47-6.62-6.01-7.51-5.99
			c-0.92,0.02-0.67,0.23-0.67,0.23c2.85,1.14,5.41,7.13,5.41,7.13c0.08,0.01,0.15,0,0.22,0.01c-0.66,0.37-1.31,0.75-1.94,1.13
			c-5.78-6.86-11.87-9.19-13.31-8.98c-1.49,0.21-1.04,0.5-1.04,0.5c4,1.06,8.8,8.48,10.37,11.07c-0.95,0.65-1.85,1.31-2.73,1.96
			c-2.45-3.5-5.67-5.13-6.37-5.12c-0.75,0.02-0.55,0.19-0.55,0.19c1.98,0.79,4.12,5.29,4.72,6.61c-0.52,0.41-1.03,0.81-1.52,1.2
			c-3.54-4.11-7.72-6.06-8.59-5.94c-0.91,0.13-0.64,0.31-0.64,0.31c2.34,0.62,5.34,5.68,6.51,7.82c-1.07,0.86-2.27,1.63-3.58,2.34
			c-3.46-4.02-6.45-4.37-7.32-4.24c-0.91,0.13-0.64,0.31-0.64,0.31c2.07,0.55,4.29,3.44,5.44,5.16c-8.78,3.89-20.7,5.45-28.15,7.29
			c-0.2,0.05-0.37,0.11-0.56,0.17c-0.3-0.2-0.6-0.4-0.91-0.6c-0.76-3.94-2.49-5.8-3.25-6.31c-1.05-0.7-0.93-0.27-0.93-0.27
			c0.77,1.17,1.08,2.9,1.15,4.71c-0.94-0.55-1.87-1.11-2.87-1.65c-0.85-6.79-3.69-9.85-4.87-10.64c-1.48-0.99-1.32-0.38-1.32-0.38
			c1.37,2.09,1.71,5.47,1.65,8.7c-1.14-0.55-2.36-1.08-3.56-1.61c-0.55-7.98-3.76-11.48-5.03-12.33c-1.48-0.99-1.32-0.38-1.32-0.38
			c1.66,2.53,1.81,6.97,1.56,10.73c-0.9-0.35-1.79-0.71-2.73-1.05c0.08-7.09-2.6-10.13-3.6-10.79c-1.05-0.7-0.93-0.27-0.93-0.27
			c1.53,2.33,1.26,6.92,0.9,9.79c-0.87-0.29-1.74-0.59-2.63-0.87c-0.63-4.69-2.59-6.85-3.42-7.4c-1.05-0.7-0.93-0.27-0.93-0.27
			c1.05,1.59,1.25,4.25,1.16,6.69c-1.24-0.37-2.49-0.73-3.77-1.08c-0.83-2.01-1.87-3.08-2.42-3.44c-1.05-0.7-0.93-0.27-0.93-0.27
			c0.53,0.81,0.84,1.9,1.01,3.09c-16.07-4.17-35.27-6.87-57.16-7.18c-19.84-0.28-47.48,3.51-75.25,8.67
			c-3.9-3.33-7.35-4.52-8.35-4.38c-1.35,0.19-0.95,0.46-0.95,0.46c1.84,0.49,3.88,2.47,5.62,4.62c-1.32,0.25-2.64,0.51-3.96,0.76
			c-4.79-4.51-9.23-6.09-10.44-5.92c-1.49,0.21-1.04,0.5-1.04,0.5c2.37,0.63,5.03,3.5,7.13,6.27c-2.12,0.42-4.24,0.85-6.35,1.28
			c-5.07-5.07-9.92-6.84-11.19-6.66c-1.49,0.21-1.04,0.5-1.04,0.5c2.61,0.69,5.55,4.09,7.73,7.09c-1.93,0.41-3.85,0.81-5.76,1.22
			c-5.33-5.65-10.59-7.6-11.92-7.41c-1.49,0.21-1.04,0.5-1.04,0.5c2.85,0.76,6.11,4.75,8.32,7.92c-1.32,0.29-2.63,0.58-3.94,0.87
			c-4.43-4.28-8.59-5.82-9.7-5.66c-1.34,0.19-0.94,0.45-0.94,0.45c2.26,0.6,4.81,3.46,6.74,6.08c-1.42,0.32-2.83,0.64-4.22,0.96
			c-3.3-2.48-6.08-3.42-6.95-3.29c-1.34,0.19-0.94,0.45-0.94,0.45c1.53,0.41,3.2,1.86,4.72,3.57c-2.44,0.57-4.84,1.13-7.19,1.69
			c-0.02,0-0.04,0.01-0.06,0.01c-2.27-1.35-4.04-1.85-4.71-1.76c-1.34,0.19-0.94,0.45-0.94,0.45c1,0.27,2.07,0.99,3.11,1.93
			c-34.96,8.71-92.84,30.01-133.59,38.84c-0.15,0.03-0.3,0.07-0.45,0.1c0,0,0,0,0,0c-7.69,1.65-14.76,2.86-20.94,3.44
			c-4.49,0.42-8.95,0.7-13.33,0.88c-1.19,0.05-2.38,0.09-3.55,0.12c-32.9,0.91-60.4-3.94-58.4-1.94
			c1.95,1.95,21.71,8.42,55.76,10.54c0,0,0,0,0,0c0.02,0,0.04,0,0.05,0c1.27,0.08,2.57,0.15,3.88,0.22
			c0.32,0.02,0.64,0.03,0.96,0.05c5.48,0.26,11.29,0.41,17.44,0.41c6.68,0,13.68-0.29,20.86-0.78c0,0,0.01,0,0.01,0
			c0.15-0.01,0.3-0.03,0.45-0.04c3.5-0.24,7.03-0.53,10.6-0.85c0.29-0.03,0.56-0.04,0.85-0.07c0,0,0-0.01,0-0.01
			c22.95-2.12,46.98-5.71,68.06-8.09c0.15-0.02,0.31-0.03,0.46-0.05c1.38-0.16,2.75-0.3,4.11-0.45c0.2-0.02,0.4-0.04,0.6-0.06
			c3.85-0.4,7.57-0.75,11.16-1.04c0.59-0.05,1.18-0.09,1.77-0.14c0.91-0.07,1.81-0.13,2.7-0.19c0.66-0.04,1.32-0.08,1.97-0.12
			c0.82-0.05,1.65-0.1,2.46-0.13c1.2-0.06,2.38-0.1,3.54-0.13c0.74-0.02,1.45-0.03,2.17-0.04c0.78-0.01,1.56-0.02,2.32-0.02
			c0.62,0,1.22,0.01,1.82,0.01c0.76,0.01,1.51,0.03,2.24,0.05c0.53,0.02,1.07,0.03,1.59,0.06c1.01,0.05,1.99,0.11,2.94,0.19
			c0.19,0.02,0.39,0.02,0.58,0.04c31.8,2.81,66.09,13.41,75.13,22.45c2.5,2.5,4.96,6.01,7.62,9.83c2.23,3.21,4.6,6.63,7.27,9.9
			c1.22,3.46,2.1,5.52,2.1,5.52s-6.55,8.42-11.85,17.3s-4.36,26.97-5.61,34.6c-1.25,7.64-8.88,15.12-10.13,21.67
			c-1.25,6.55,2.18,11.38,2.65,19.17c0.47,7.79-1.56,23.85,1.09,27.75c1.15,1.68,2.44,2.49,3.76,2.73c1.87,2.27,4.34,4.75,4.34,4.75
			c0.49-3.01,0.8-5.1,1-6.44c2.5-2.09,1.65-6.03,1.65-6.03s2.34,3.59,5.3,6.23c2.28,2.04,3,2.42,5.78,2.48l8.25,5.31
			c0.13-2.35-0.46-4.41-1.17-6.02c2.17-0.92,2.73-2.39,2.73-2.39s0,0,3.27-0.62c2.74,1.1,6.4,3.43,6.4,3.43
			c0.79-4.86-1.5-7.26-2.25-7.9c0.01-0.75-0.16-1.56-0.56-2.38c-1.56-3.27-13.72-8.88-15.74-10.6s-2.18-1.4-3.12-7.95
			c-0.94-6.55,0.62-21.82,0.94-26.19c0.31-4.36,8.42-16.21,13.09-23.07c1.72-2.52,4.91-5.13,8.63-8.19c0.21,3.27,0.87,6.65,0.87,8.5
			c0,3.59,0.23,17.07,0.31,18.86c0.05,1.1,0.44,1.85,0.97,2.4c-0.15,2.15-0.6,4.54-0.6,4.54c4.4-0.97,5.57-4.99,5.63-5.18
			c0.34-0.21,0.55-0.35,0.55-0.35s1.56,4.83,2.18,11.22c0.62,6.34-3.97,17.72-3.89,21.26c-0.93,2.45-2.56,5.38-2.56,5.38
			c5.28,0.55,7.23-2.68,7.23-2.68s0.26-0.41,0.39-1.02c1.2-0.64,2.4-1.73,3.36-3.29c2.96-4.83,4.52-16.68,4.52-16.68
			c1.52,2.74,0.53,18.18,3.23,21.41c-0.09,2.27-0.64,5.13-0.64,5.13c3.15-0.69,4.63-2.94,5.25-4.25c0.47-0.31,0.74-0.63,0.74-0.63
			l1.25-7.95c0,0,0.31-10.68-0.62-18.86c-0.94-8.18-1.25-10.99-2.03-12.78c-1.85-4.25-3.12-12.94-3.12-12.94s7.72-7.01,14.96-9.82
			c7.25-2.81,31.33-7.72,37.41-13.56c3.03-2.92,4.39-6.48,4.96-9.51c0.88,0.23,1.78,0.44,2.72,0.62c0.11,0.02,0.22,0.05,0.33,0.07
			c4.14,0.76,8.89,0.96,14.44-0.07c2.99-0.55,6.29-1.46,9.75-2.67c0.79,0.45,1.41,0.83,1.74,1.09c2.33,1.83,3.49,5.82,3.32,11.13
			c-0.17,5.32-4.98,14.46-4.98,14.46s1.83-0.5,4.65-2.82s4.32-7.48,4.32-7.48s1.66,8.81,1.16,12.96c-0.5,4.15-3.99,9.14-3.99,9.14
			s3.32-1.33,6.15-5.15c2.82-3.82,3.82-11.8,3.82-11.8c1.16,0.33,0,7.48,0,7.48s1.33-0.5,2.99-4.15s2.49-9.64-0.83-17.11
			c-1.53-3.43-4.49-7.77-8.02-12c0.14,0,0.29,0.01,0.43-0.01c0.28-0.04,0.55-0.22,0.56-0.52c2.94-1.46,5.87-3.09,8.69-4.84
			c4.93,1.73,12.98,3.31,14.7,4.07c2.36,1.04,4.2,4.16,5.21,8.69c1.01,4.53-1.1,13.29-1.1,13.29s1.44-0.81,3.32-3.39
			c1.88-2.57,2.04-7.25,2.04-7.25s3.3,7.08,3.78,10.7c0.47,3.62-1.4,8.58-1.4,8.58s2.52-1.84,4.08-5.68
			c1.56-3.84,0.69-10.79,0.69-10.79c1.05,0.03,1.61,6.32,1.61,6.32s1.02-0.71,1.63-4.15c0.62-3.45,0.03-8.68-4.39-14.28
			c-3.4-4.31-10.77-9.91-17.6-13.59c0.95-0.91,1.95-1.91,2.98-3c3.77-3.97,5.12-7.54,5.6-9.81c0.58-1.13,1.08-2.26,1.46-3.4
			c0.03-0.09,0.05-0.2,0.08-0.29c0.17-0.53,0.33-1.08,0.48-1.64c0.05-0.21,0.1-0.42,0.16-0.63c0.12-0.51,0.24-1.02,0.34-1.55
			c0.02-0.12,0.05-0.23,0.08-0.34c2.53-2.07,5.12-4.66,7.64-7.44c0,0,0.01-0.01,0.01-0.01c1.23-1.36,2.45-2.75,3.63-4.15
			c0.06-0.07,0.11-0.13,0.17-0.2c1.11-1.32,2.19-2.63,3.23-3.9c0.14-0.17,0.27-0.34,0.41-0.51c0.36-0.44,0.71-0.88,1.06-1.31
			c1.18-1.46,2.3-2.85,3.31-4.09c0.01-0.01,0.01-0.01,0.02-0.02c0.43-0.53,0.84-1.02,1.24-1.49c0.04-0.04,0.07-0.09,0.11-0.13
			c0.38-0.45,0.74-0.87,1.09-1.26c0.06-0.07,0.13-0.14,0.19-0.21c0.3-0.34,0.59-0.65,0.86-0.93c0.04-0.04,0.09-0.09,0.13-0.13
			c0.28-0.29,0.54-0.53,0.78-0.75c0.07-0.06,0.13-0.12,0.2-0.17c0.22-0.18,0.42-0.34,0.6-0.45c0.02-0.01,0.04-0.03,0.05-0.04
			c1.31-0.78,2.82-1.39,4.52-1.88c2.93-0.84,6.53-1.28,11.03-1.39c1.88-0.05,3.89-0.05,6.11,0.01c7.96,0.21,10.67,1.78,15.53,3.27
			c1.62,0.5,3.48,0.98,5.85,1.41c1.91,0.34,3.88,0.56,5.86,0.71c7.86,0.57,15.86-0.14,20.61-0.14c2.55,0,5.87,0.81,9.18,1.93
			c4.4,1.48,8.82,3.5,11.49,4.87c0.39,0.2,0.78,0.44,1.17,0.66c2.22,1.3,4.48,2.95,7.03,4.24c2.36,1.2,4.97,2.09,8.09,2.03
			c6.03-0.12,9.68-2.29,10.54-4.08c0.15-0.31,0.24-0.61,0.22-0.88c0,0-0.33-1.13-0.95-2.03c0.46-1.36,0.6-2.51,0.51-2.83
			c-0.18-0.65-0.55-0.79-0.55-0.79c-0.12,0.72-0.67,1.62-1.32,2.47c-0.53-0.27-1.39-0.68-2.46-1.18c0.24-0.94,0.3-1.66,0.23-1.91
			c-0.18-0.65-0.55-0.79-0.55-0.79c-0.1,0.61-0.52,1.34-1.03,2.07c-0.76-0.35-1.57-0.73-2.44-1.13c0.33-1.13,0.44-2.05,0.36-2.34
			c-0.18-0.65-0.55-0.79-0.55-0.79c-0.12,0.71-0.66,1.6-1.29,2.44c-0.98-0.45-1.99-0.91-3.02-1.38c0.71-1.83,0.93-3.45,0.82-3.87
			c-0.22-0.75-0.64-0.91-0.64-0.91c-0.19,1.12-1.25,2.59-2.29,3.82c-0.63-0.29-1.25-0.57-1.87-0.86c0.46-1.35,0.59-2.49,0.5-2.81
			c-0.18-0.65-0.55-0.79-0.55-0.79c-0.14,0.83-0.84,1.88-1.6,2.83c-0.8-0.37-1.57-0.73-2.3-1.07c0.37-0.91,0.54-1.63,0.51-1.89
			c-0.09-0.67-0.44-0.85-0.44-0.85c-0.2,0.64-0.79,1.38-1.47,2.08c-0.91-0.43-1.71-0.82-2.39-1.15c0.54-1.13,0.79-2.09,0.74-2.38
			c-0.09-0.6-0.4-0.77-0.4-0.77c-0.22,0.74-1,1.62-1.82,2.39c-0.07-0.04-0.17-0.09-0.23-0.12c-0.49-0.28-1.25-0.74-2.17-1.3
			c0.32-0.77,0.48-1.39,0.45-1.6c-0.08-0.51-0.34-0.65-0.34-0.65c-0.15,0.5-0.61,1.08-1.13,1.62c-0.59-0.36-1.23-0.76-1.9-1.18
			c0.33-0.72,0.48-1.32,0.45-1.51c-0.03-0.2-0.09-0.32-0.15-0.41c6.82,2.21,16.42,5.4,17.58,4.41c0.71-0.6,0.15-1.21-1.4-1.56
			c-1.44-0.33-3.66-1.09-7.01-2.42c-5.97-2.36-23.43-9.03-26.79-10.31c0.12-0.43,0.47-0.77,1.03-1.01c0.53-0.23,1.28-0.38,2.19-0.47
			c0.07-0.01,0.13-0.02,0.21-0.03c0.01,0,0.03,0,0.04,0c1.01-0.09,2.24-0.1,3.67-0.06c0,0-0.02,0-0.02,0c0.01,0,0.01,0,0.02,0
			c0.89,0.02,1.94,0.15,3.08,0.35c-0.69,0.8-1.48,1.59-2.17,1.83c0,0,0.17,0.28,0.72,0.33c0.39,0.04,2.07-0.55,3.59-1.74
			c0.63,0.14,1.28,0.3,1.95,0.47c-0.73,0.89-1.64,1.83-2.4,2.1c0,0,0.17,0.28,0.72,0.33c0.41,0.04,2.21-0.59,3.77-1.87
			c0.78,0.22,1.58,0.45,2.38,0.69c-0.83,0.99-1.82,1.97-2.66,2.27c0,0,0.2,0.33,0.86,0.4c0.46,0.05,2.36-0.62,4.13-1.95
			c0.74,0.23,1.48,0.47,2.22,0.71c-0.91,1.02-1.92,1.98-2.8,2.29c0,0,0.23,0.39,1.01,0.47c0.49,0.05,2.42-0.59,4.35-1.92
			c0.91,0.3,1.79,0.6,2.65,0.89c-1.02,1.23-2.27,2.53-3.33,2.9c0,0,0.23,0.39,1.01,0.47c0.55,0.06,2.92-0.77,5.06-2.46
			c0.37,0.12,0.73,0.24,1.08,0.36c0.25,0.08,0.5,0.16,0.75,0.23c-1.08,1.44-2.81,3.51-4.2,4.01c0,0,0.23,0.39,1.01,0.47
			c0.67,0.07,3.97-1.14,6.33-3.6c0.79,0.2,1.6,0.39,2.41,0.57c-1.08,1.4-2.61,3.12-3.86,3.57c0,0,0.23,0.39,1.01,0.47
			c0.65,0.06,3.76-1.07,6.09-3.38c0.84,0.16,1.67,0.31,2.48,0.45c-0.89,1.18-2.25,2.76-3.34,3.15c0,0,0.19,0.32,0.83,0.38
			c0.56,0.06,3.39-0.97,5.33-3.09c1.2,0.18,2.29,0.32,3.24,0.44c-0.88,1.11-2.04,2.39-3.02,2.73c0,0,0.19,0.32,0.83,0.38
			c0.53,0.05,3.1-0.89,5.03-2.79c0.74,0.09,1.63,0.3,2.62,0.58c-1.01,1.41-2.99,3.93-4.55,4.49c0,0,0.23,0.39,1.01,0.47
			c0.71,0.07,4.35-1.28,6.71-4.04c0.87,0.25,1.75,0.46,2.61,0.64c-0.88,1.11-2.06,2.41-3.03,2.76c0,0,0.19,0.32,0.83,0.38
			c0.53,0.05,3.09-0.88,5.01-2.78c0.56,0.01,1.08-0.03,1.55-0.14c3.54-0.85,5.1-5.24,5.52-9.2
			C648.37,56.49,647.09,52.38,644.12,48.42z M587.22,65.64c0.02-0.05,0.04-0.1,0.05-0.15c1.03,0.41,2.02,0.77,2.93,1.07
			c-0.12,0.21-0.28,0.43-0.46,0.65C588.9,66.69,588.06,66.16,587.22,65.64z M586.47,65.18c-0.01-0.01-0.03-0.02-0.04-0.03
			C586.44,65.16,586.46,65.17,586.47,65.18C586.47,65.18,586.47,65.18,586.47,65.18z M346.45,156.06c-1.88,0.88-3.75,0.76-5.5,0.44
			c3.85-3.82,7.52-8.32,10.18-13.85c0.68-1.42,1.34-3.01,1.99-4.74c2.8,0.12,5.62,0.2,8.42,0.24c-0.55,2.78-1.25,5.48-2.14,7.15
			C356.9,149.98,351.44,153.72,346.45,156.06z M593.85,67.74c-0.16,0.44-0.57,0.94-1.03,1.41c-0.77-0.48-1.56-0.98-2.38-1.49
			c0.16-0.45,0.24-0.8,0.22-0.94C591.6,67.01,592.68,67.36,593.85,67.74z"/>
		<path d="M575.77,21.39c1.42-0.25,2.56-0.98,4.09-0.68c1.75,0.34,2.84,1.47,3.79,2.88c0.24,0.35,0.8,0.08,0.75-0.31
			c-0.29-1.96-1.9-3.68-3.82-4.16c-1.74-0.44-4.37-0.05-5.21,1.76C575.25,21.13,575.49,21.44,575.77,21.39z"/>
	</g>
</g>
</svg>
