<?xml version="1.0" encoding="utf-8"?>
<!-- Generator: Adobe Illustrator 23.0.1, SVG Export Plug-In . SVG Version: 6.00 Build 0)  -->
<svg version="1.1" id="Layer_1" xmlns="http://www.w3.org/2000/svg" xmlns:xlink="http://www.w3.org/1999/xlink" x="0px" y="0px"
	 viewBox="0 0 425.24 256.73" style="enable-background:new 0 0 425.24 256.73;" xml:space="preserve">
<style type="text/css">
	.st0{fill:#6D5287;}
	.st1{fill:#896CA6;}
	.st2{fill:#2A363F;}
	.st3{fill:#FFFFFF;}
	.st4{fill:#826EAC;}
	.st5{fill:#8B7BAA;}
	.st6{fill:#8F463B;}
	.st7{fill:#D5D4D3;}
	.st8{fill:#69802B;}
	.st9{fill:#77912B;}
	.st10{fill:#85A429;}
	.st11{fill:#8EA63E;}
	.st12{fill:#B8C38B;}
	.st13{fill:#ADB393;}
	.st14{fill:#DD513F;}
	.st15{fill:#4D5138;}
	.st16{fill:#9AA962;}
	.st17{fill:#BAC09F;}
	.st18{fill:#E27533;}
	.st19{fill:#B8B0CC;}
	.st20{fill:#473D54;}
	.st21{fill:#CE5720;}
	.st22{fill:#C4805F;}
	.st23{fill:#218B57;}
	.st24{fill:#39AA6E;}
	.st25{fill:#89C8A5;}
	.st26{fill:#64BFB3;}
	.st27{fill:#318876;}
	.st28{fill:#A14525;}
	.st29{fill:#617729;}
	.st30{fill:#718A2B;}
	.st31{fill:#A49035;}
	.st32{fill:#A7B86A;}
	.st33{fill:#8B975F;}
	.st34{fill:#704D19;}
	.st35{fill:#E08276;}
	.st36{fill:#7F885A;}
	.st37{fill:#B4BB9A;}
	.st38{fill:#CC8455;}
	.st39{fill:#CA6222;}
	.st40{fill:#CD4433;}
	.st41{fill:#492917;}
	.st42{fill:#EFAE82;}
	.st43{fill:#BA7A50;}
	.st44{fill:#D39266;}
	.st45{fill:#DF864C;}
	.st46{fill:#8F98AD;}
	.st47{fill:#AEB8D1;}
	.st48{fill:#5C698B;}
	.st49{fill:#6F7D9D;}
	.st50{fill:#6E717D;}
	.st51{fill:#5B6681;}
	.st52{fill:#66779C;}
	.st53{fill:#8B95AD;}
	.st54{fill:#8C93A5;}
	.st55{fill:#D46D2E;}
	.st56{fill:#5E331A;}
	.st57{fill:#EEA34F;}
	.st58{fill:#894216;}
	.st59{fill:#E5AA25;}
	.st60{fill:#964F34;}
	.st61{fill:#AB5D41;}
	.st62{fill:#C69886;}
	.st63{fill:#80452F;}
	.st64{fill:#F3CC40;}
	.st65{fill:#C0502D;}
	.st66{fill:#DE653F;}
	.st67{fill:#F5CCBF;}
	.st68{fill:#532919;}
	.st69{fill:#C48F6C;}
	.st70{fill:#CD3F2E;}
	.st71{fill:#DC4632;}
	.st72{fill:#E96251;}
	.st73{fill:#A82B17;}
	.st74{fill:#E77767;}
	.st75{fill:#319885;}
	.st76{fill:#45AE9A;}
	.st77{fill:#369482;}
</style>
<g id="_x30_3-coelophysis_1_">
	<g id="_x30_3-coelophysis">
		<path class="st65" d="M262.02,135.47c0,0-1.54,22.63-6.81,29c-5.27,6.37-19.77,4.17-21.09-15.16
			c-1.32-19.33,3.08-28.56,11.86-31.63C254.78,114.6,263.56,121.19,262.02,135.47z"/>
		<path class="st65" d="M238.96,153.04c-0.6,0.27-7.47,1.98-16.26,7.47c-8.79,5.49-21.09,14.72-26.8,17.35
			c-5.71,2.64-16.91,6.04-18.23,8.84c-1.32,2.8,0.16,24.22-0.33,27.02c-0.49,2.8-4.45,6.76-3.62,9.06c0.82,2.31,4.45,3.62,4.45,3.62
			s-4.45,10.05-8.07,11.2c-3.62,1.15,3.95,4.94,3.95,4.94s13.67-14.33,14.66-17.46c0.99-3.13-3.13-23.4,2.47-29.99
			c5.6-6.59,14.5-11.7,21.91-13.02c7.41-1.32,34.32-10.71,38.22-14.17c3.9-3.46,6.26-7.08,2.47-11.04
			C250,152.93,244.23,150.68,238.96,153.04z"/>
		<path class="st65" d="M369.51,124.04c-0.98,0.33-6.71,2.88-5.88,7.08c0.83,4.2,5.16,2.37,7.03,1.95
			c1.87-0.42,21.02-9.28,22.92-8.57c1.89,0.71,7.76,8.65,7.27,10.03c-0.5,1.38-1.59,2.91-2.47,2.71c-0.89-0.2-1.61-3.63-1.61-3.63
			s-1.86,4.53-0.23,6.01c1.63,1.48,3.08,1.25,4.09,0.92c1.01-0.33,4.71-7.25,4.71-7.25s-5.6-14.97-9.15-15.77
			C392.61,116.72,373.35,122.75,369.51,124.04z"/>
		<path class="st65" d="M364.69,105.23c0,0,7.9,18.05,5.72,23.68c-2.18,5.63-4.12,6.15-5.84,4.33c-1.48-1.57-10.38-11.59-12.8-18.75
			C349.36,107.33,353.55,96.33,364.69,105.23z"/>
		<path class="st66" d="M291.02,71.38c32.37-1.75,67.88,1.04,74.69,1.48c0.72,0.05,4.7,0.05,5.46,0.47
			c6.4,3.54,10.25,19.43,7.5,26.11c-3.08,7.47-15.82,24.82-33.61,30.31c-17.79,5.49-34.27,5.93-39.1,7.91
			c-4.83,1.98-21.09,12.08-40.86,11.86c-19.77-0.22-44.81-7.03-60.19-11.64c-15.38-4.61-65.24-15.82-94.46-19.77
			c-29.22-3.95-79.43,11.55-92.92,20.32C6.55,145.58,1.71,150.3,0.07,148.65c-1.65-1.65,27.68-35.26,88.97-43.17
			s95.23-5.93,114.34-11.2C222.48,89.01,244.23,73.91,291.02,71.38z"/>
		<path class="st67" d="M376.27,104.02c-5.17,8.47-16.45,21.19-31.21,25.74c-17.79,5.5-34.27,5.93-39.1,7.91
			c-4.84,1.98-21.09,12.09-40.86,11.86c-19.77-0.22-44.81-7.02-60.19-11.64c-15.37-4.61-65.24-15.82-94.46-19.77
			c-29.21-3.95-79.43,11.55-92.92,20.32c-7.12,4.63-11.66,8.24-14.41,9.77c15.53-17.24,56.21-32.65,90.64-35.14
			c36.46-2.64,75.56,11.86,131.36,19.33c2.93,0.39,7.14-1.37,10-1.1c6.58,0.63,11.65,3.03,17.79,3.11
			c41.9,0.49,73.09-10.45,86.88-12.99C353.98,118.8,371.38,107.38,376.27,104.02z"/>
		<path class="st66" d="M258.51,96.59c13.57,7.54,32.29,35.59,36.03,47.45c3.73,11.86,2.42,16.26,3.29,19.77
			c0.88,3.51,3.08,20.87,1.98,29.22c-1.1,8.35-0.22,21.31,0.88,25.04c1.1,3.73,12.08,21.09,20.43,26.14
			c8.35,5.05,18.45,5.49,19.55,6.81c1.1,1.32-0.66,4.83-0.66,4.83s-21.75-0.66-25.7-1.76c-3.95-1.1-10.76-12.3-10.76-12.3
			s-2.86,2.42-6.15,1.54c-3.29-0.88-9.45-14.72-9.45-14.72s1.76-15.38-1.76-23.94s-7.25-18.89-7.91-26.8
			c-0.66-7.91-1.32-20.87-2.42-22.63c-1.1-1.76-10.54-8.35-24.6-12.96c-14.06-4.61-38.26-21.77-24.6-39.98
			C237.86,87.36,254.56,94.39,258.51,96.59z"/>
		<path class="st67" d="M288.71,221.8c-0.11,0.01-0.22,0.02-0.35,0.03c0.12-5.2-0.18-12.28-2.17-17.16
			c-3.52-8.57-7.25-18.89-7.91-26.8s-1.32-20.86-2.42-22.62c-1.1-1.76-10.52-8.41-24.6-12.96c-7.89-2.55-13.87-6.44-17.66-10.02
			c-2.84-2.69-2.33-3.46-1.13-5.9c1.06-2.14,12.21,2.76,15.71,4.5c12.01,5.98,30.62,12.42,33.94,23.4
			c4.28,14.17,5.6,43.5,7.58,49.76C291.68,210.27,293.33,221.14,288.71,221.8z"/>
		<path class="st66" d="M363.43,73.56c15.57-1.62,28.51-4.39,39.53-17.11c4.45-5.14,5.09-18.57,2.08-23.2s-6.94-8.25-13.64-6.86
			c-6.7,1.39-7.86,2.08-16.18,3.24c-8.32,1.16-15.72-0.23-21.96,1.39c-6.24,1.62-15.95,3.01-18.38,2.08
			c-2.43-0.92-2.89-4.62-2.89-4.62s-2.2-2.2-0.92-4.39c1.27-2.2,12.6-10.29,22.19-14.68c9.59-4.39,10.52-4.93,15.26-7.13
			c4.74-2.2,17.69-3.51,30.29-0.62c12.6,2.89,28.91,17.71,26.12,45.93c-2.31,23.43-12.65,41.94-47.32,55.49
			c-13.41,5.24-23.73-0.28-24.1-9.1C353.15,85.38,358.1,74.12,363.43,73.56z"/>
		<path class="st67" d="M406.42,47.81c0.94-5.53,0.47-11.7-1.38-14.54c-3.01-4.63-6.93-8.25-13.64-6.86
			c-6.7,1.38-7.86,2.08-16.18,3.24c-8.32,1.15-15.72-0.23-21.96,1.38c-6.24,1.62-15.95,3.01-18.38,2.08
			c-1.6-0.61-2.35-2.42-2.66-3.59c2.66-0.01,7.79,0.2,9.55-0.15c2.19-0.44,24.73-13.72,37.33-13.37
			c12.59,0.36,27.26,1.84,28.9,15.35C408.97,39.34,408.44,43.76,406.42,47.81z"/>
		<path class="st45" d="M268.12,145.78c-3-3.24-8.81-3.84-12.83-5.28c-5.11-1.83-10.11-4.07-14.62-7.11
			c-8.69-5.86-14.71-15-15.69-25.53c-0.05-0.57-0.99-0.82-1.1-0.15c-1.66,10.53,4.7,20.34,12.71,26.65
			c4.43,3.49,9.45,6.08,14.66,8.2c2.77,1.13,5.6,2.14,8.45,3.05c2.62,0.84,5.39,1.92,8.14,1.21
			C268.31,146.69,268.43,146.11,268.12,145.78z"/>
		<path class="st45" d="M225.97,102.82c-1.15,0.67-1.68,1.92-1.76,3.21c-0.08,1.25,1.85,1.48,2.16,0.29
			c0.22-0.86,0.61-1.65,0.95-2.47C227.64,103.08,226.6,102.45,225.97,102.82z"/>
		<g>
			<path class="st66" d="M366.78,128.24c-1.22-0.27-8.72-1.22-10.49,3.63c-1.77,4.85,3.84,5.67,6.03,6.41
				c2.19,0.73,27.49,3.57,29.01,5.48c1.51,1.91,2.6,13.78,1.23,14.89c-1.38,1.11-3.46,2.01-4.25,1.25c-0.79-0.76,0.6-4.75,0.6-4.75
				s-4.75,3.51-4,6.06c0.75,2.55,2.39,3.21,3.64,3.5c1.25,0.29,9.39-4.54,9.39-4.54s3.59-18.95,0.42-21.99
				C395.19,135.13,371.54,129.31,366.78,128.24z"/>
			<path class="st66" d="M373.56,105.81c0,0-3.13,23.56-8.9,28.01c-2.33,1.8-3.05,2.89-4.37,3.2c-1.95,0.46-3.98-0.62-4.36-2.37
				c-0.55-2.55-3.46-18.45-1.48-27.35C356.43,98.4,367.63,89.67,373.56,105.81z"/>
			<path class="st45" d="M359.77,98.92c-3.12,2.97-4.5,6.45-5.23,10.68c-0.7,4.06-1.37,9.3,0.14,13.2c0.2,0.53,1.04,0.64,1.19,0
				c0.92-3.87,0.13-8.07,0.82-12.04c0.68-3.88,2.16-7.73,3.77-11.31C360.66,99.01,360.15,98.55,359.77,98.92z"/>
			<path class="st45" d="M365.21,97.59c-0.72-1.02-2.31-0.43-3.04,0.28c-0.7,0.67,0.21,1.89,1.05,1.36c0.3-0.19,0.53-0.31,0.87-0.4
				c0.34-0.1,0.78-0.22,1.02-0.47C365.29,98.17,365.37,97.81,365.21,97.59z"/>
		</g>
		<path class="st44" d="M295.13,141.85c-2.79-10.61-8-21.51-17.03-28.1c-0.45-0.33-0.94,0.37-0.58,0.75
			c7.78,8.01,11.32,18.21,16.48,27.83C294.33,142.95,295.3,142.52,295.13,141.85z"/>
		<path class="st44" d="M276.16,110.77c-0.42-0.48-0.92-1.03-1.54-1.24c-0.28-0.09-0.63,0.04-0.66,0.37
			c-0.06,0.71,0.31,1.42,0.76,1.96c0.47,0.57,1.04,1.28,1.85,1.19c0.26-0.03,0.54-0.28,0.55-0.55
			C277.16,111.75,276.62,111.3,276.16,110.77z"/>
		<path class="st68" d="M340.12,250.8c0,0,5.77-0.82,8.57,5.93c0,0-8.57-0.49-9.39-0.82C338.47,255.58,338.58,251.24,340.12,250.8z"
			/>
		<path class="st68" d="M302.77,240.25c0,0,1.1,7.58-1.65,11.64c0,0-2.86-8.24-4.39-8.9C295.2,242.34,300.03,236.63,302.77,240.25z"
			/>
		<path class="st68" d="M173.84,242.9c0,0-6.29,3.71-10.87,2.76c0,0,6.23-5.5,6.26-7.1C169.26,236.97,176.05,239.17,173.84,242.9z"
			/>
		<path class="st68" d="M178.29,226.59c0,0-6.29,3.71-10.87,2.76c0,0,6.23-5.5,6.26-7.1S180.5,222.85,178.29,226.59z"/>
		<path class="st2" d="M379.04,15.64c-7.61,0.35-14.87,2.68-21.74,5.88c-7.98,3.71-15.17,7.39-24.14,7.75
			c-0.15,0.01-0.21,0.25-0.04,0.28c7.16,1.34,14.25-2.17,20.55-5.18c8.28-3.96,16.37-6.73,25.41-8.37
			C379.3,15.96,379.25,15.63,379.04,15.64z"/>
		<g>
			<path class="st2" d="M371.94,8.57c0.04,2.16-0.75,3.93-1.76,3.94c-1.01,0.02-1.86-1.72-1.9-3.88c-0.04-2.16,0.75-3.93,1.76-3.94
				C371.06,4.68,371.91,6.41,371.94,8.57z"/>
			<path class="st3" d="M371.41,6.32c0.01,0.55-0.43,1-0.97,1.01c-0.55,0.01-1-0.43-1.01-0.97s0.43-1,0.97-1.01
				C370.95,5.34,371.4,5.78,371.41,6.32z"/>
		</g>
		<path class="st2" d="M367.25,3.01c0.32-1.23,1.48-2.22,2.74-2.39c1.15-0.15,2.8,0.28,3.2,1.5c0.06,0.17-0.12,0.36-0.29,0.3
			c-0.89-0.26-1.57-0.81-2.57-0.73c-1.14,0.09-1.92,0.74-2.63,1.57C367.53,3.47,367.19,3.26,367.25,3.01z"/>
		<g>
			<path class="st69" d="M311.22,99.47c-0.6-2.98-1.14-5.98-1.75-8.96c-1.2-5.88-1.82-12.48-4.56-17.87
				c-0.43-0.84-1.67-0.4-1.7,0.46c-0.17,6.04,2.12,12.34,3.54,18.16c0.72,2.95,1.51,5.88,2.24,8.83c0.74,3,1.1,6.18,2.43,8.98
				c0.35,0.73,1.47,0.34,1.47-0.4C312.89,105.57,311.83,102.5,311.22,99.47z"/>
			<path class="st69" d="M336.36,101.82c-1.02-5.03-2.45-10-3.18-15.09c-0.68-4.78-1.39-9.68-2.96-14.26
				c-0.88-2.58-4.44-1.51-4.02,1.11c0.79,4.93,2.56,9.68,4.24,14.36c1.68,4.69,2.71,9.61,4.14,14.39
				C334.91,103.46,336.59,102.98,336.36,101.82z"/>
			<path class="st69" d="M353.75,83.55c-0.55-3.12-0.23-8.11-3.2-10.01c-0.46-0.29-1.03-0.07-1.31,0.34
				c-1.97,2.87,0.44,7.58,1.29,10.56c1.15,4.02,2.16,8.06,4.34,11.66c0.17,0.28,0.6,0.16,0.6-0.16
				C355.55,91.72,354.48,87.68,353.75,83.55z"/>
			<path class="st69" d="M288.86,89.99c-0.29-1.95-0.58-3.9-0.98-5.82c-0.75-3.55-1.58-7.81-3.87-10.69
				c-0.75-0.95-2.26-0.12-2.27,0.94c-0.04,3.71,2.01,7.77,3.44,11.15c1.65,3.9,3.08,7.87,4.7,11.75c0.12,0.28,0.49,0.17,0.45-0.12
				C289.99,94.76,289.23,92.43,288.86,89.99z"/>
			<path class="st69" d="M259.43,77.43c-0.38-0.44-1.24-0.1-1.19,0.49c0.28,3.29,1.52,6.48,2.57,9.59c1.02,3.05,2.22,6.56,3.89,9.29
				c0.39,0.64,1.4,0.38,1.41-0.38C266.16,90.39,263.38,82.04,259.43,77.43z"/>
			<path class="st69" d="M239.97,97.32c-0.85-2.09-0.7-3.97-1.51-6.03c-0.94-2.4-1.84-6.55-4.64-7.18c-0.45-0.1-0.81,0.14-0.97,0.55
				c-1.01,2.59,1.83,6.07,3.01,8.35c0.73,1.41,1.81,2.38,2.47,3.82c0.82,1.8,1.47,3.59,2.34,5.39c0.14,0.29,0.53,0.07,0.48-0.2
				C240.86,100.41,240.58,98.83,239.97,97.32z"/>
			<path class="st69" d="M211.43,107.65c0-1.71-0.09-3-0.27-4.74c-0.33-3.07-1.25-6.09-2.78-8.8c-0.97-1.72-3.39-0.5-3.05,1.29
				c0.55,2.9,1.59,5.67,2.79,8.34c0.63,1.42,1.29,2.79,1.94,4.19c0.74,1.6,0.6,2.87,1.25,4.41c0.15,0.35,0.68,0.33,0.7-0.09
				C212.06,110.61,211.43,109.29,211.43,107.65z"/>
			<path class="st69" d="M186.02,112.47c-0.01-1.64,0.06-3.04-0.31-4.66c-0.36-1.6-0.88-3.16-1.47-4.69
				c-0.74-1.92-1.71-2.84-2.77-4.55c-0.53-0.86-1.76-0.28-1.58,0.67c0.24,1.29,0.04,2.41,0.38,3.7c0.46,1.78,1.02,3.55,1.6,5.29
				c0.44,1.33,0.94,2.53,1.58,3.76c1.05,2.02,1.34,3.94,2.07,6.05c0.21,0.61,1.21,0.55,1.18-0.16
				C186.63,116.04,186.02,114.32,186.02,112.47z"/>
			<path class="st69" d="M155.04,106.26c-0.63-2.22-0.89-5.1-2.96-6.4c-0.56-0.35-1.14,0.03-1.36,0.55
				c-0.92,2.22,0.6,5.05,1.18,7.26c0.69,2.64,1.35,5.28,2.72,7.67c0.47,0.82,1.59,0.39,1.67-0.45
				C156.56,111.93,155.84,109.09,155.04,106.26z"/>
			<path class="st69" d="M123.12,103.34c-0.22-0.42-0.73-0.7-1.2-0.69c-0.31,0.01-0.57,0.03-0.81,0.25
				c-0.06,0.05-0.11,0.1-0.17,0.15c-0.36,0.33-0.48,0.88-0.36,1.35c0.61,2.35,1.18,5.55,3.09,7.24c0.15,0.13,0.38,0.12,0.49-0.06
				C125.64,109.12,124.34,105.65,123.12,103.34z"/>
			<path class="st69" d="M96.64,109.11c-0.29-1.13-0.75-2.25-1.27-3.3c-0.22-0.44-0.9-0.74-1.37-0.56c-0.09,0.03-0.17,0.07-0.25,0.1
				c-0.01,0.01-0.02,0.01-0.04,0.02c-0.44,0.22-0.74,0.9-0.56,1.37c0.43,1.1,0.88,2.19,1.35,3.26c0.39,0.88,0.67,1.76,1.61,2.14
				c0.19,0.08,0.39-0.06,0.49-0.2C97.21,111.13,96.87,110.03,96.64,109.11z"/>
			<path class="st69" d="M73.82,113.07c-0.2-0.82-0.69-1.62-1.19-2.3c-0.55-0.75-1.07-1.46-2.04-1.63
				c-0.69-0.12-1.31,0.28-1.34,1.02c-0.04,0.86,0.35,1.43,0.74,2.15c0.35,0.64,0.62,1.34,1.02,1.94
				C71.97,115.68,74.25,114.82,73.82,113.07z"/>
			<path class="st69" d="M43.65,118.74c-0.5-0.63-1.58-0.52-2.1,0c-0.62,0.62-0.5,1.47,0,2.1c0.63,0.8,1.03,1.79,1.51,2.68
				c0.59,1.1,2.39,0.6,2.35-0.64C45.36,121.28,44.62,119.98,43.65,118.74z"/>
			<path class="st69" d="M20.59,133.49c-0.02-0.04-0.04-0.09-0.07-0.13c0-0.04,0-0.07,0-0.1c-0.04-0.31-0.17-0.51-0.36-0.76
				c-0.13-0.17-0.26-0.33-0.4-0.5c-0.46-0.58-1.51-0.51-1.98,0c-0.46,0.51-0.61,1.49,0,1.98c0.17,0.13,0.33,0.27,0.5,0.4
				c0.19,0.15,0.36,0.27,0.59,0.34c0.1,0.03,0.2,0.04,0.3,0.04c0.03,0.02,0.07,0.03,0.1,0.05
				C20.14,135.26,21.04,134.36,20.59,133.49z"/>
		</g>
		<g>
			<path class="st69" d="M271.32,123.03c-0.76-0.11-1.5-0.05-2.17,0.2c-0.08-0.11-0.21-0.19-0.39-0.16
				c-6.47,0.98-12.76,3.61-18.61,6.5c-0.64,0.32-0.25,1.25,0.43,1.03c5.74-1.92,11.67-3.69,17.21-6.16c0.07,0.08,0.18,0.11,0.3,0.05
				c0.98-0.55,2.04-0.93,3.17-0.94C271.53,123.54,271.62,123.08,271.32,123.03z"/>
			<path class="st69" d="M278.58,132.21c-1.22-0.41-2.58-0.26-3.8,0.11c-1.87-0.17-3.74,0.33-5.57,0.72
				c-2.37,0.5-4.74,1.43-6.76,2.79c-0.9,0.61-0.35,2.36,0.79,1.88c2.17-0.91,4.29-1.92,6.49-2.76c1.96-0.75,4.08-0.92,6-1.77
				c0.08-0.04,0.14-0.1,0.17-0.17c0.9-0.03,1.8-0.06,2.68-0.18C278.92,132.78,278.85,132.3,278.58,132.21z"/>
			<path class="st69" d="M285.87,139.37c-1.84,0.36-3.54,1.24-5.27,1.93c-1.58,0.63-3.17,1.22-4.64,2.09
				c-0.64,0.38-0.19,1.24,0.48,1.13c3.18-0.51,7.33-2.01,9.94-3.95C286.97,140.13,286.63,139.22,285.87,139.37z"/>
			<path class="st69" d="M261.42,111.42c-1.22,0.25-2.39,0.54-3.58,0.9c-0.34,0.1-0.69,0.19-1.04,0.28c-0.01,0-0.02,0-0.03,0
				c-5.57,0.54-11.28,3.15-16.36,5.4c-0.41,0.18-0.11,0.79,0.29,0.7c5.33-1.28,11.48-2.49,16.34-5.1c0.01,0,0.01-0.01,0.01-0.01
				c0.44-0.08,0.87-0.21,1.29-0.31c1.21-0.31,2.2-0.8,3.25-1.45C261.8,111.68,261.66,111.37,261.42,111.42z"/>
			<path class="st69" d="M288.23,157.31c-0.62,0.12-1.25,0.2-1.87,0.32c-0.63,0.12-1.27,0.25-1.92,0.23
				c-0.73-0.02-0.88,1.09-0.17,1.27c0.82,0.22,1.6,0.38,2.45,0.24c0.87-0.14,1.46-0.5,2.09-1.08
				C289.26,157.86,288.77,157.21,288.23,157.31z"/>
			<path class="st69" d="M290.2,169.37c-0.81-0.11-1.55,0.13-2.34,0.3c-0.89,0.19-1.75,0.45-2.62,0.72
				c-0.6,0.19-0.53,1.22,0.16,1.15c0.84-0.09,1.68-0.17,2.51-0.32c0.81-0.15,1.73-0.2,2.44-0.64
				C290.8,170.33,290.8,169.45,290.2,169.37z"/>
			<path class="st69" d="M293.33,181.5c-2.25-0.18-4.83-0.71-7.04,0c-0.43,0.14-0.43,0.74,0,0.87c2.21,0.71,4.79,0.17,7.04,0
				C293.88,182.32,293.88,181.54,293.33,181.5z"/>
			<path class="st69" d="M292.85,190.62c-0.67,0.13-1.31,0.43-1.96,0.64c-0.67,0.22-1.36,0.36-2.02,0.59
				c-0.62,0.22-0.65,1.09,0,1.29c1.56,0.49,3.81-0.2,4.61-1.71C293.71,190.99,293.32,190.52,292.85,190.62z"/>
		</g>
		<path class="st2" d="M337.65,21.42c-0.4,0.05-0.75,0.1-1.13,0.25c-0.37,0.14-0.73,0.3-1.1,0.46c-0.67,0.3-0.2,1.43,0.5,1.2
			c0.34-0.12,0.68-0.24,1.02-0.37c0.36-0.14,0.65-0.31,0.97-0.54C338.3,22.15,338.23,21.34,337.65,21.42z"/>
	</g>
	<path id="_x30_3-silhouette" d="M398.8,1.66c-10.06-2.31-20.32-1.93-26.47-0.57c-0.69-0.42-1.61-0.57-2.34-0.47
		c-1.2,0.16-2.28,1.07-2.66,2.21c-3.78,1.77-5.34,2.58-14.07,6.57c-9.59,4.39-20.92,12.48-22.19,14.68
		c-1.27,2.2,0.92,4.39,0.92,4.39s0.12,0.95,0.55,2c0,0.01,0.01,0.02,0.01,0.02c0.12,0.3,0.28,0.59,0.45,0.89
		c0.05,0.09,0.11,0.17,0.17,0.26c0.15,0.22,0.32,0.43,0.51,0.62c0.08,0.08,0.15,0.16,0.23,0.23c0.28,0.24,0.59,0.46,0.96,0.6
		c2.43,0.92,12.14-0.46,18.38-2.08c5.59-1.45,12.11-0.5,19.38-1.11c0.85-0.07,1.71-0.15,2.59-0.27c8.32-1.15,9.48-1.85,16.18-3.24
		c1.12-0.23,2.16-0.31,3.13-0.28c2.72,0.08,4.91,1.1,6.75,2.67c1.44,1.23,2.66,2.78,3.76,4.47c0.21,0.33,0.41,0.72,0.58,1.13
		c0.05,0.11,0.09,0.24,0.13,0.35c0.12,0.32,0.24,0.66,0.34,1.01c0.04,0.15,0.08,0.31,0.12,0.46c0.09,0.37,0.17,0.75,0.25,1.14
		c0.03,0.15,0.06,0.3,0.09,0.46c0.08,0.49,0.14,1,0.19,1.52c0.01,0.07,0.02,0.14,0.02,0.21c0.05,0.61,0.09,1.23,0.1,1.87
		c0,0.15,0,0.3,0,0.45c0,0.48,0,0.96-0.02,1.45c-0.01,0.23-0.02,0.46-0.03,0.69c-0.02,0.42-0.05,0.83-0.09,1.25
		c-0.02,0.25-0.05,0.5-0.07,0.75c-0.05,0.41-0.11,0.82-0.17,1.23c-0.56,3.67-1.73,7.12-3.53,9.2c-9.79,11.3-21.12,14.75-34.44,16.51
		c-1.21-0.06-2.44-0.08-2.81-0.1c-4.15-0.27-18.96-1.41-37.21-1.86c-0.06-0.01-0.11,0-0.16,0c-11.67-0.29-24.72-0.3-37.31,0.38
		c-46.79,2.53-68.54,17.63-87.65,22.9c-19.11,5.27-53.05,3.3-114.34,11.2C27.74,113.39-1.58,147,0.07,148.65
		c0.58,0.58,1.57,0.36,3.08-0.48c-0.01,0.01-0.02,0.02-0.03,0.03c0.08-0.04,0.17-0.1,0.25-0.15c0.1-0.06,0.21-0.12,0.31-0.18
		c0.45-0.27,0.93-0.57,1.46-0.93c0.06-0.04,0.12-0.08,0.19-0.12c0.26-0.18,0.55-0.37,0.83-0.57c0.16-0.11,0.32-0.22,0.49-0.34
		c0.28-0.19,0.57-0.39,0.86-0.6c0.35-0.24,0.71-0.5,1.08-0.76c0.15-0.1,0.31-0.22,0.46-0.32c0.71-0.5,1.48-1.04,2.29-1.61
		c0.27-0.19,0.54-0.38,0.82-0.57c0.33-0.23,0.68-0.47,1.03-0.71c0.36-0.25,0.74-0.51,1.12-0.76c0.31-0.21,0.62-0.42,0.95-0.64
		c0.73-0.49,1.48-0.98,2.27-1.5c13.49-8.76,63.71-24.27,92.92-20.32c29.21,3.95,79.08,15.16,94.46,19.77
		c7.83,2.35,18.17,5.26,29.03,7.59c0.04,1.23,0.09,2.5,0.19,3.83c0.13,1.88,0.41,3.56,0.77,5.12c-2.95,1.11-7.27,3-12.2,6.08
		c-8.79,5.49-21.09,14.72-26.8,17.35c-5.71,2.64-16.91,6.04-18.23,8.84s0.16,24.22-0.33,27.02c-0.46,2.63-3.93,6.26-3.67,8.6
		c-0.19,1.68-6.24,7.02-6.24,7.02c4.01,0.83,9.32-1.91,10.59-2.6c-0.79,1.71-4.68,9.84-7.92,10.87c-0.89,0.28-1.1,0.72-0.92,1.23
		c-0.59,1.87-6.2,6.82-6.2,6.82c4.58,0.95,10.87-2.76,10.87-2.76c0.07-0.12,0.11-0.24,0.16-0.36c0.01,0.01,0.04,0.02,0.04,0.02
		s13.67-14.33,14.66-17.46c0.99-3.13-3.13-23.39,2.47-29.99c5.6-6.59,14.5-11.7,21.91-13.02c7.41-1.32,34.32-10.71,38.22-14.17
		c0.57-0.51,1.1-1.02,1.59-1.53c0.88-0.51,1.66-1.15,2.31-1.93c2.4-2.9,4.02-9.16,5.08-15.12c1.63,0.1,3.24,0.17,4.8,0.19
		c0.9,0.01,1.79-0.02,2.68-0.06c4.62,2.59,7.51,4.85,8.08,5.77c1.1,1.76,1.76,14.72,2.42,22.63c0.66,7.91,4.39,18.23,7.91,26.8
		c0.04,0.1,0.07,0.2,0.11,0.3c0.19,0.49,0.37,0.98,0.53,1.51c0.07,0.24,0.13,0.48,0.19,0.72c0.11,0.41,0.22,0.82,0.31,1.24
		c0.06,0.28,0.11,0.56,0.17,0.84c0.08,0.4,0.16,0.81,0.22,1.22c0.05,0.3,0.09,0.61,0.13,0.91c0.06,0.4,0.11,0.81,0.15,1.22
		c0.04,0.32,0.07,0.63,0.1,0.95c0.04,0.39,0.07,0.79,0.1,1.18c0.02,0.33,0.05,0.66,0.07,0.99c0.02,0.36,0.03,0.71,0.05,1.06
		c0.01,0.36,0.03,0.72,0.04,1.07c0.01,0.23,0.01,0.46,0.01,0.69c0.09,5.51-0.42,10.04-0.42,10.04s5.47,12.3,8.86,14.44
		c1.55,0.86,4.32,8.85,4.32,8.85c1.87-2.77,1.96-7.16,1.82-9.68c0.37-0.24,0.59-0.42,0.59-0.42s6.81,11.2,10.76,12.3
		c3.51,0.97,21.01,1.6,24.92,1.73c0.03,0.02,0.04,0.07,0.07,0.08c0.82,0.33,9.39,0.82,9.39,0.82c-2.47-5.95-7.23-6.02-8.33-5.95
		c-2.05-1.15-11.42-1.84-19.24-6.57c-8.35-5.05-19.33-22.41-20.43-26.14c-1.1-3.73-1.98-16.7-0.88-25.04
		c1.1-8.35-1.1-25.7-1.98-29.22c-0.88-3.51,0.44-7.91-3.3-19.77c-0.09-0.28-0.19-0.58-0.3-0.88c5.55-2.35,9.67-4.65,11.72-5.49
		c4.83-1.98,21.31-2.42,39.1-7.91c0.09-0.03,0.18-0.07,0.28-0.1c0.93-0.29,1.84-0.62,2.74-0.97c0.35-0.14,0.69-0.29,1.04-0.44
		c0.64-0.27,1.28-0.55,1.9-0.85c0.37-0.18,0.74-0.36,1.11-0.55c0.6-0.31,1.18-0.62,1.76-0.95c0.2-0.11,0.41-0.21,0.61-0.33
		c0.53,4.41,1.2,7.98,1.44,9.08c0.27,1.25,1.39,2.15,2.71,2.4c1.3,0.6,2.78,0.92,3.67,1.22c2.19,0.73,27.49,3.57,29.01,5.48
		c1.51,1.91,2.6,13.78,1.23,14.89c-1.38,1.11-3.46,2.01-4.25,1.25c-0.79-0.76,0.6-4.75,0.6-4.75s-4.75,3.51-4,6.06
		c0.75,2.55,2.39,3.21,3.64,3.5c1.25,0.29,9.39-4.54,9.39-4.54s2.51-13.3,1.45-19.39c0.45-0.02,0.86-0.12,1.22-0.24
		c1.01-0.33,4.71-7.25,4.71-7.25s-5.6-14.97-9.15-15.77c-3.3-0.74-20.16,4.41-25.61,6.18c-0.08-0.53-0.17-1.07-0.28-1.63
		c1.39-5,2.35-10.31,2.86-13.45c0.18-0.24,0.33-0.46,0.5-0.7c0.21-0.29,0.42-0.57,0.62-0.86c0.26-0.37,0.52-0.74,0.76-1.11
		c0.16-0.23,0.31-0.46,0.45-0.69c0.25-0.39,0.5-0.78,0.73-1.15c0.02-0.03,0.05-0.07,0.07-0.1c0,0,0,0-0.01,0
		c0.12-0.2,0.24-0.4,0.36-0.6c0.33-0.12,0.65-0.21,0.99-0.34c34.66-13.55,45-32.06,47.32-55.49C427.71,19.37,411.4,4.55,398.8,1.66z
		 M393.58,124.49c1.89,0.7,7.76,8.65,7.27,10.03c-0.5,1.38-1.59,2.91-2.47,2.71c-0.89-0.2-1.61-3.63-1.61-3.63s-0.63,1.56-0.83,3.15
		c-4.23-1.92-12.53-4.3-19.33-6.08C382.99,127.97,392.28,124.01,393.58,124.49z M369.46,1.9c0.06-0.02,0.11-0.04,0.17-0.06
		C369.58,1.86,369.52,1.88,369.46,1.9z"/>
</g>
</svg>
