<?xml version="1.0" encoding="utf-8"?>
<!-- Generator: Adobe Illustrator 23.0.1, SVG Export Plug-In . SVG Version: 6.00 Build 0)  -->
<svg version="1.1" id="Layer_1" xmlns="http://www.w3.org/2000/svg" xmlns:xlink="http://www.w3.org/1999/xlink" x="0px" y="0px"
	 viewBox="0 0 380.63 186.41" style="enable-background:new 0 0 380.63 186.41;" xml:space="preserve">
<style type="text/css">
	.st0{fill:#6D5287;}
	.st1{fill:#896CA6;}
	.st2{fill:#2A363F;}
	.st3{fill:#FFFFFF;}
	.st4{fill:#826EAC;}
	.st5{fill:#8B7BAA;}
	.st6{fill:#8F463B;}
	.st7{fill:#D5D4D3;}
	.st8{fill:#69802B;}
	.st9{fill:#77912B;}
	.st10{fill:#85A429;}
	.st11{fill:#8EA63E;}
	.st12{fill:#B8C38B;}
	.st13{fill:#ADB393;}
	.st14{fill:#DD513F;}
	.st15{fill:#4D5138;}
	.st16{fill:#9AA962;}
	.st17{fill:#BAC09F;}
	.st18{fill:#E27533;}
	.st19{fill:#B8B0CC;}
	.st20{fill:#473D54;}
	.st21{fill:#CE5720;}
	.st22{fill:#C4805F;}
	.st23{fill:#218B57;}
	.st24{fill:#39AA6E;}
	.st25{fill:#89C8A5;}
	.st26{fill:#64BFB3;}
	.st27{fill:#318876;}
	.st28{fill:#A14525;}
	.st29{fill:#617729;}
	.st30{fill:#718A2B;}
	.st31{fill:#A49035;}
	.st32{fill:#A7B86A;}
	.st33{fill:#8B975F;}
	.st34{fill:#704D19;}
	.st35{fill:#E08276;}
	.st36{fill:#7F885A;}
	.st37{fill:#B4BB9A;}
	.st38{fill:#CC8455;}
	.st39{fill:#CA6222;}
	.st40{fill:#CD4433;}
	.st41{fill:#492917;}
	.st42{fill:#EFAE82;}
	.st43{fill:#BA7A50;}
	.st44{fill:#D39266;}
	.st45{fill:#DF864C;}
	.st46{fill:#8F98AD;}
	.st47{fill:#AEB8D1;}
	.st48{fill:#5C698B;}
	.st49{fill:#6F7D9D;}
	.st50{fill:#6E717D;}
	.st51{fill:#5B6681;}
	.st52{fill:#66779C;}
	.st53{fill:#8B95AD;}
	.st54{fill:#8C93A5;}
	.st55{fill:#D46D2E;}
	.st56{fill:#5E331A;}
	.st57{fill:#EEA34F;}
	.st58{fill:#894216;}
	.st59{fill:#E5AA25;}
	.st60{fill:#964F34;}
	.st61{fill:#AB5D41;}
	.st62{fill:#C69886;}
	.st63{fill:#80452F;}
	.st64{fill:#F3CC40;}
	.st65{fill:#C0502D;}
	.st66{fill:#DE653F;}
	.st67{fill:#F5CCBF;}
	.st68{fill:#532919;}
	.st69{fill:#C48F6C;}
	.st70{fill:#CD3F2E;}
	.st71{fill:#DC4632;}
	.st72{fill:#E96251;}
	.st73{fill:#A82B17;}
	.st74{fill:#E77767;}
	.st75{fill:#319885;}
	.st76{fill:#45AE9A;}
	.st77{fill:#369482;}
</style>
<g id="_x30_7-velociraptor_1_">
	<g id="_x30_7-velociraptor">
		<g>
			<path class="st39" d="M59.47,88.91c0,0-18.83,11.84-19.4,15.57c-0.58,3.73-2.34,6.92-1.37,9.8c0.97,2.87,1.73,6.02,1.73,6.02
				s0.48-3.8,0.31-5.05c-0.37-2.81,0.66-2.87,0.66-2.87s-0.11,9.44,3.07,11.45c0,0-0.87-7.81,0.44-11.12c0,0,0.26,5.2,1.84,7.26
				c0,0,0.68-6.84,0.79-8.95c0.11-2.11-1.21-6.41-1.21-6.41s21.15-7.6,22.4-12.47C69.99,87.26,59.47,88.91,59.47,88.91z"/>
			<path class="st39" d="M68.73,92.13c0,0,5.43-20.08,1.69-22.22c-1.4-0.8-2.16-4.01-3.39-3.63c-2.05,0.63-4.34,5.79-5.25,8.73
				c-1.46,4.71-3.02,15.47-1.28,16.41C63.25,92.89,68.73,92.13,68.73,92.13z"/>
		</g>
		<path class="st40" d="M34.14,24.24c-0.91-0.31-11.66-0.76-16.84-0.46c-5.18,0.31-9.75,3.32-8.23,3.28
			c2.44-0.08,6.27-1.22,10.9-1.14c2.28,0.04,3.72,1.99,5.34,2.59C30.18,30.33,34.14,24.24,34.14,24.24z"/>
		<path class="st7" d="M2.01,14.05c0,0-0.2,2.47,0.36,3.33c0,0-0.19,0.07-0.48-0.11c-0.3-0.18-1.39-1.94-1.27-3.73
			C0.61,13.54,1.3,12.76,2.01,14.05z"/>
		<path class="st7" d="M5.41,30.08c0,0-0.95-2.29-0.69-3.28c0,0-0.2-0.01-0.43,0.25C4.07,27.32,3.58,29.33,4.24,31
			C4.24,31,5.14,31.52,5.41,30.08z"/>
		<path class="st7" d="M10.95,28.5c0,0-0.95-2.29-0.69-3.28c0,0-0.2-0.01-0.43,0.25c-0.22,0.27-0.72,2.28-0.06,3.94
			C9.78,29.42,10.67,29.95,10.95,28.5z"/>
		<path class="st7" d="M6.98,29.32c0,0-0.82-1.96-0.59-2.82c0,0-0.17-0.01-0.37,0.22c-0.19,0.23-0.62,1.95-0.05,3.39
			C5.98,30.11,6.74,30.56,6.98,29.32z"/>
		<path class="st7" d="M8.96,28.91c0,0-0.82-1.96-0.59-2.82c0,0-0.17-0.01-0.37,0.22s-0.62,1.95-0.05,3.39
			C7.96,29.7,8.73,30.15,8.96,28.91z"/>
		<path class="st7" d="M12.57,27.95c0,0-0.82-1.96-0.59-2.82c0,0-0.17-0.01-0.37,0.22c-0.19,0.23-0.62,1.95-0.05,3.39
			C11.56,28.73,12.33,29.19,12.57,27.95z"/>
		<path class="st7" d="M14.35,27.34c0,0-0.75-1.81-0.55-2.59c0,0-0.16-0.01-0.34,0.2s-0.57,1.8-0.05,3.12
			C13.42,28.07,14.13,28.48,14.35,27.34z"/>
		<path class="st7" d="M16.13,26.88c0,0-0.65-1.56-0.47-2.24c0,0-0.14-0.01-0.29,0.17s-0.49,1.55-0.04,2.69
			C15.33,27.51,15.95,27.87,16.13,26.88z"/>
		<path class="st7" d="M17.58,26.46c0,0-0.65-1.56-0.47-2.24c0,0-0.14-0.01-0.29,0.17c-0.15,0.18-0.49,1.55-0.04,2.69
			C16.78,27.09,17.39,27.45,17.58,26.46z"/>
		<path class="st7" d="M19.1,25.94c0,0-0.61-1.47-0.44-2.11c0,0-0.13-0.01-0.27,0.16c-0.14,0.17-0.46,1.46-0.04,2.53
			C18.34,26.53,18.92,26.87,19.1,25.94z"/>
		<path class="st7" d="M20.53,25.51c0,0-0.49-1.19-0.36-1.7c0,0-0.1-0.01-0.22,0.13c-0.12,0.14-0.37,1.18-0.03,2.04
			C19.92,25.98,20.38,26.26,20.53,25.51z"/>
		<path class="st7" d="M22.13,25.35c0,0-0.49-1.19-0.36-1.7c0,0-0.1-0.01-0.22,0.13c-0.12,0.14-0.37,1.18-0.03,2.04
			C21.52,25.83,21.99,26.1,22.13,25.35z"/>
		<path class="st7" d="M23.73,25.32c0,0-0.49-1.19-0.36-1.7c0,0-0.1-0.01-0.22,0.13c-0.12,0.14-0.37,1.18-0.03,2.04
			C23.12,25.79,23.59,26.07,23.73,25.32z"/>
		<path class="st7" d="M25.18,24.9c0,0-0.49-1.18-0.36-1.7c0,0-0.1-0.01-0.22,0.13c-0.12,0.14-0.37,1.18-0.03,2.04
			C24.57,25.37,25.03,25.65,25.18,24.9z"/>
		<path class="st7" d="M26.82,24.67c0,0-0.49-1.19-0.36-1.7c0,0-0.1-0.01-0.22,0.13c-0.12,0.14-0.37,1.18-0.03,2.04
			C26.21,25.14,26.67,25.42,26.82,24.67z"/>
		<path class="st7" d="M28.26,24.63c0,0-0.49-1.18-0.36-1.7c0,0-0.1-0.01-0.22,0.13c-0.12,0.14-0.37,1.18-0.03,2.04
			C27.66,25.1,28.12,25.38,28.26,24.63z"/>
		<path class="st7" d="M5.92,14.32c0,0-0.2,2.47,0.36,3.33c0,0-0.19,0.07-0.48-0.11c-0.3-0.18-1.39-1.94-1.27-3.73
			C4.52,13.81,5.21,13.03,5.92,14.32z"/>
		<path class="st7" d="M7.84,14.63c0,0-0.2,2.47,0.36,3.33c0,0-0.19,0.07-0.48-0.11c-0.3-0.18-1.39-1.94-1.27-3.73
			C6.44,14.12,7.13,13.34,7.84,14.63z"/>
		<path class="st7" d="M11.65,14.84c0,0-0.2,2.47,0.36,3.33c0,0-0.19,0.07-0.48-0.11c-0.3-0.18-1.39-1.94-1.27-3.73
			C10.25,14.33,10.94,13.55,11.65,14.84z"/>
		<path class="st7" d="M13.41,15.58c0,0-0.16,2,0.29,2.7c0,0-0.15,0.06-0.39-0.09c-0.24-0.15-1.12-1.57-1.03-3.03
			C12.27,15.17,12.83,14.54,13.41,15.58z"/>
		<path class="st7" d="M15.44,15.68c0,0-0.16,2,0.29,2.7c0,0-0.15,0.06-0.39-0.09c-0.24-0.15-1.12-1.57-1.03-3.03
			C14.31,15.27,14.86,14.64,15.44,15.68z"/>
		<path class="st7" d="M17.42,15.78c0,0-0.16,2,0.29,2.7c0,0-0.15,0.06-0.39-0.09c-0.24-0.15-1.12-1.57-1.03-3.03
			C16.29,15.37,16.85,14.74,17.42,15.78z"/>
		<path class="st7" d="M19.5,15.78c0,0-0.16,2,0.29,2.7c0,0-0.15,0.06-0.39-0.09c-0.24-0.15-1.12-1.57-1.03-3.03
			C18.37,15.37,18.93,14.74,19.5,15.78z"/>
		<path class="st7" d="M21.28,15.68c0,0-0.16,2,0.29,2.7c0,0-0.15,0.06-0.39-0.09c-0.24-0.15-1.12-1.57-1.03-3.03
			C20.15,15.27,20.71,14.64,21.28,15.68z"/>
		<path class="st7" d="M23.31,15.68c0,0-0.16,2,0.29,2.7c0,0-0.15,0.06-0.39-0.09c-0.24-0.15-1.12-1.57-1.03-3.03
			C22.18,15.27,22.74,14.64,23.31,15.68z"/>
		<path class="st7" d="M25.19,15.84c0,0-0.16,2,0.29,2.7c0,0-0.15,0.06-0.39-0.09c-0.24-0.15-1.12-1.57-1.03-3.03
			C24.06,15.42,24.62,14.79,25.19,15.84z"/>
		<path class="st7" d="M26.83,16.08c0,0-0.14,1.71,0.25,2.31c0,0-0.13,0.05-0.34-0.08c-0.2-0.13-0.96-1.35-0.88-2.59
			C25.86,15.73,26.33,15.19,26.83,16.08z"/>
		<path class="st7" d="M28.81,15.73c0,0-0.14,1.71,0.25,2.31c0,0-0.13,0.05-0.33-0.08c-0.2-0.13-0.96-1.35-0.88-2.59
			C27.84,15.37,28.32,14.83,28.81,15.73z"/>
		<path class="st7" d="M9.87,15.35c0,0-0.2,2.47,0.36,3.33c0,0-0.19,0.07-0.48-0.11c-0.3-0.18-1.39-1.94-1.27-3.73
			C8.48,14.83,9.16,14.06,9.87,15.35z"/>
		<path class="st7" d="M3.91,14.29c0,0-0.2,2.42,0.35,3.27c0,0-0.18,0.07-0.47-0.11c-0.29-0.18-1.36-1.91-1.25-3.66
			C2.54,13.79,3.22,13.02,3.91,14.29z"/>
		<g>
			<path class="st39" d="M89.32,109.9c-0.36,0.83-3.42,6.33-0.89,10.2c2.53,3.88,14.8,9.48,18.33,11.87c3.53,2.4,6.79,7.1,6.79,7.1
				s-1.28,8.94-2.79,13.2c-0.83,2.34-2.49,5.1-3.83,7.12c-0.67,1.01-3.64,2.66-5.72,3.3c-1.83,0.56-1.42,2.03-1.42,2.03l1.27,1.58
				l3.59,0.31c0,0,0.84,1.69,2.75,0.63c1.91-1.05,6.31-3.08,9.71-11.63c1.3-3.27,0.56-1.1,0.56-1.1s2.25,0.85,2.9,0.74
				c0.64-0.12,2.51-4.36,2.77-5.31c0.26-0.95,2.05-8.13,2.49-10.05c0.44-1.92,2.93-6.61,1.65-8.66s-4.44-0.15-6.82-2.01
				c-2.38-1.87-4.84-4.54-5.59-7.35c-0.76-2.81,0.24-9.78,0.24-9.78s1.47-19.36-11.05-18.03C91.75,95.38,91.43,104.94,89.32,109.9z"
				/>
			<path class="st41" d="M101.78,163.56c-0.34-0.15-1.73-0.74-2.85,2.1c-1.11,2.85-0.99,3.34-0.99,3.34s2.6-2.1,4.71-2.85
				C102.65,166.16,102.9,164.05,101.78,163.56z"/>
			<path class="st39" d="M110.97,155.61c-0.46,0-4.95,0.08-4.95,0.08s-2.36,0.08-2.51,1.68c-0.15,1.6,1.23,2.22,1.23,2.22
				s4.87,2.89,7,1.67C113.86,160.03,110.97,155.61,110.97,155.61z"/>
			<path class="st41" d="M117.82,153.88c0,0-0.76,4.34-0.61,5.41c0,0,2.97-3.51,3.05-4.73
				C120.34,153.34,117.82,153.88,117.82,153.88z"/>
		</g>
		<path class="st18" d="M93.28,47c15.18,1.82,28.66,8.74,34.55,9.55c5.89,0.81,14.84,3.66,22.36,5.69
			c7.52,2.03,19.31,2.64,32.92,2.44c13.62-0.2,53.86,0,67.07,0.2c13.21,0.2,126.62,5.08,129.97,6.61
			c3.35,1.52-11.89,2.74-17.07,3.05c-5.18,0.3-67.68,2.74-99.38,7.32c-31.71,4.57-88.31,15.34-94,17.99
			c-5.69,2.64-7.72,6.91-12.19,8.33c-4.47,1.42-24.39,4.27-39.02,1.63c-14.63-2.64-45.73-13.41-53.66-21.14
			c-7.93-7.72-6.5-23.98,1.22-32.72C73.77,47.2,88.2,46.39,93.28,47z"/>
		<path class="st41" d="M132.91,171.96c-0.05-0.4-1.05-5.52-5.52-4.95c-4.48,0.57-3.72,4-3.72,4s2.76-1.43,3.62-0.57
			c0.86,0.86,0.76,2.57,0.76,2.57S133.1,173.58,132.91,171.96z"/>
		<path class="st41" d="M106.59,157.21c-0.11-0.26-1.77-3.49-4.65-2.24c-2.88,1.25-1.7,3.39-1.7,3.39s1.57-1.49,2.31-1.09
			c0.74,0.41,1.01,1.57,1.01,1.57s0.88,0.1,1.62-0.13C106.07,158.45,106.83,157.79,106.59,157.21z"/>
		<path class="st41" d="M123.04,181.51c-0.26-0.35-1.35-1.74-4.1,0.54c-2.75,2.28-2.91,2.85-2.91,2.85s3.85-0.68,6.42-0.24
			C122.45,184.66,123.9,182.65,123.04,181.51z"/>
		<path class="st18" d="M79.26,49.84c0,0-7.93-1.22-10.97-6.1c-3.05-4.88,0.31-13.41-0.91-20.73C66.15,15.7,60.05,5.33,49.99,2.9
			C39.93,0.46,26.42,1.07,23.67,2.29C20.93,3.51,7.21,4.12,4.16,5.64c-3.05,1.52-5.18,7.82-3.66,8.43
			c1.52,0.61,5.18,1.22,10.37,1.83c5.18,0.61,13.21,0.41,17.48,0.41c4.27,0,6.4,2.74,5.49,5.49c-0.91,2.74-14.94,3.35-19.21,5.18
			c-4.27,1.83-11.28,1.83-10.97,3.05c0,0,0,2.74,4.27,3.35c4.27,0.61,14.94-0.91,18.9,1.52s3.35,3.05,7.62,4.57
			c4.27,1.52,5.79,1.22,8.54,8.23c2.74,7.01,2.29,8.69,5.64,13.41c3.35,4.73,5.64,5.64,7.47,11.58c1.83,5.94,1.22,10.67,7.93,14.18
			C70.72,90.39,79.26,49.84,79.26,49.84z"/>
		<path class="st42" d="M358.24,74.78c-16.3,0.75-67.02,3.11-94.54,7.08c-31.71,4.57-88.31,15.35-94,17.99
			c-5.69,2.64-7.72,6.91-12.19,8.33c-4.47,1.42-24.39,4.27-39.02,1.62c-14.63-2.64-45.73-13.41-53.66-21.13
			c-0.77-0.75-1.46-1.59-2.05-2.49c-5.4-3.43-4.98-7.91-6.69-13.47c-1.83-5.94-4.12-6.86-7.47-11.58c-3.35-4.73-2.9-6.4-5.64-13.41
			c-2.74-7.01-4.27-6.71-8.54-8.23c-4.27-1.52-3.66-2.13-7.62-4.57s-14.63-0.91-18.9-1.52c-4.27-0.61-4.27-3.35-4.27-3.35
			c-0.31-1.22,6.71-1.22,10.97-3.05c4.27-1.83,18.29-2.44,19.21-5.18c0.34-1.03,0.26-2.06-0.21-2.94c4.57-0.6,8.07-1.02,8.07-1.02
			s4.85,4.16,4.44,7.82c-0.41,3.66-2.04,6.51-2.04,6.51s6.91,7.73,9.35,15.44c1.51,4.79,4.94,13.51,8.13,18.85
			c1.95,3.28,2.26,5.32,3.96,6.86c1.66,1.51,4.32,1.65,6.31,3.2c3.36,2.6,8.63,5.47,20.62,9.3c19.1,6.1,36.17,8.94,52.84,7.32
			c16.67-1.63,72.76-12.19,117.07-16.26C298.77,73.54,337.64,74.04,358.24,74.78z"/>
		<g>
			<path class="st43" d="M380.16,71.49c-1.14-0.52-15.04-1.43-33.41-2.41c-0.05,0.03-0.12,0.07-0.17,0.1
				c-0.9,0.12-1.78,0.86-1.7,1.8c0.01,0.14,0.02,0.29,0.04,0.44c-0.07,0.33-0.11,0.67-0.12,1.01c-0.78-0.6-1.98-0.35-2.9-0.28
				c-1.18,0.09-2.55,0.02-3.45,0.87c-0.46,0.44-0.47,1.28,0,1.72c1.19,1.1,3.2,0.72,4.66,0.43c0.24-0.05,0.47,0.12,0.77-0.01
				c0.16,0.36,0.64,0.21,1.15,0.21c0.26,0,0.46-0.08,0.62-0.18c0.07,0.05,0.12,0.12,0.19,0.17c1.44-0.07,2.81-0.13,4.11-0.2
				c0.01-0.01,0.01-0.02,0.01-0.02c0.03,0.01,0.05,0.01,0.09,0.02c6.96-0.34,11.75-0.54,13.03-0.62
				C368.27,74.23,383.51,73.01,380.16,71.49z"/>
			<path class="st43" d="M53.35,5.03c-0.77-0.18-1.47,0.07-2.13,0.44c-0.08-0.44-0.36-0.86-0.9-1.06c-8.67-3.26-17.97-2.1-26.85-0.9
				C18.69,4.15,13.46,4.92,8.69,5.56c-2.1,0.28-7.29,0.69-6.86,3.96C2,10.86,3.38,9.1,4.49,8.31c1.07-0.76,10.08-0.6,11.6-0.8
				C19.55,7.06,23,6.63,26.44,6.12C34.43,4.93,41.79,4.87,49.61,7c0.01,0,0.02,0,0.04,0.01c-0.09,0.17-0.17,0.35-0.25,0.51
				c-0.24,0.5,0.24,0.95,0.73,0.73c0.2-0.09,0.4-0.17,0.6-0.26c0.04-0.02,0.31-0.11,0.13-0.06c0.47-0.11,0.75-0.31,1.15-0.58
				c0.63-0.43,1.28-0.77,1.7-1.42C53.92,5.6,53.72,5.11,53.35,5.03z"/>
			<path class="st43" d="M85.33,56.18c-0.2-2.05-0.4-4.09-0.61-6.13c-0.07-0.66-0.43-1.31-1.12-1.47c-0.29-0.07-0.49-0.15-0.77-0.03
				c-0.14,0.06-0.27,0.12-0.41,0.18c-0.45,0.2-0.8,0.84-0.76,1.32c0.2,2.2,0.48,4.35,0.98,6.5c0.55,2.4,1.77,4.45,2.59,6.75
				c0.08,0.24,0.4,0.14,0.37-0.1C85.28,60.85,85.56,58.52,85.33,56.18z"/>
			<path class="st43" d="M94.64,56.66c0.08-2.79,0.64-5.21,0.43-8.04c-0.18-2.48-4.03-2.53-3.91,0c0.14,3.06,1.06,5.62,1.46,8.62
				c0.29,2.22-0.02,4.52,1.02,6.54c0.19,0.36,0.68,0.22,0.81-0.11C95.26,61.47,94.57,58.98,94.64,56.66z"/>
			<path class="st43" d="M104.5,49.73c-0.58-1.09-2.19-0.76-2.52,0.33c-0.68,2.16-0.2,4.49,0.21,6.68c0.57,3.06,1.99,7,1.56,10.1
				c-0.06,0.45,0.61,0.45,0.56,0.08c-0.36-2.86,0.68-6.51,0.99-9.43C105.56,54.87,105.75,52.09,104.5,49.73z"/>
			<path class="st43" d="M115.75,53.72c-0.35-1.38-2.53-1.43-2.85,0c-1.07,4.78,0.11,10.21,1.06,14.89c0.05,0.25,0.42,0.23,0.48,0
				C115.68,64,116.96,58.49,115.75,53.72z"/>
			<path class="st43" d="M126.81,57.15c-0.58-0.95-1.83-0.65-2.2,0.29c-0.73,1.85-0.41,4-0.24,5.94c0.17,1.86,0.25,3.92,0.82,5.69
				c0.11,0.34,0.57,0.41,0.76,0.1C127.78,66.15,128.74,60.29,126.81,57.15z"/>
			<path class="st43" d="M142.27,65.06c-0.22-1.88-0.72-3.85-2-5.29c-1.08-1.21-2.65,0.13-2.45,1.43c0.16,1.01,0.56,1.95,0.78,2.95
				c0.22,1,0.26,2.02,0.43,3.03c0.15,0.87,0.59,2.63,1.81,2.25C142.44,68.93,142.41,66.33,142.27,65.06z"/>
			<path class="st43" d="M156.38,72.38c-0.03-1.29,0.21-2.56,0.15-3.86c-0.09-1.84-0.6-3.48-1.96-4.77
				c-1.22-1.16-2.97,0.61-1.84,1.84c1.15,1.25,1.37,3.41,1.78,5.02c0.47,1.86,0.34,3.83,0.86,5.62c0.23,0.78,1.29,0.57,1.36-0.18
				C156.84,74.79,156.41,73.64,156.38,72.38z"/>
			<path class="st43" d="M168.09,65.47c-0.84-0.76-2.41-0.04-2.01,1.17c0.7,2.09,1.73,3.83,1.83,6.09c0.05,1.1,0.15,3.44,1.94,2.81
				c0.69-0.24,1.02-0.74,1.1-1.44C171.26,71.33,170.21,67.38,168.09,65.47z"/>
			<path class="st43" d="M181.47,65.94c-0.4-0.57-1.5-0.25-1.22,0.51c0.66,1.8,0.72,3.61,0.63,5.51c-0.07,1.5-0.43,3.11,0.24,4.51
				c0.2,0.43,0.93,0.53,1.23,0.16C184.58,73.88,183.33,68.58,181.47,65.94z"/>
			<path class="st43" d="M197.09,70.7c-0.16-1.49-0.54-3-1.2-4.34c-0.55-1.12-2.08-0.28-1.89,0.8c0.24,1.38,0.58,2.71,0.74,4.1
				c0.06,0.48,0.09,0.94,0.2,1.41c0.17,0.74,0.59,1.28,0.81,2.01c0.05,0.16,0.31,0.23,0.39,0.05c0.28-0.62,0.72-1.12,0.89-1.79
				C197.22,72.22,197.17,71.44,197.09,70.7z"/>
			<path class="st43" d="M208.09,66.13c-0.63-1.07-2.44-0.37-2.05,0.86c0.6,1.89,1.02,3.7,1.11,5.7c0.07,1.61-0.01,3.37,0.57,4.89
				c0.1,0.27,0.47,0.35,0.63,0.08C210.31,74.52,209.92,69.24,208.09,66.13z"/>
			<path class="st43" d="M225.26,68.9c-0.33-1.67-1.17-3.73-3.1-3.82c-0.63-0.03-0.93,0.58-0.85,1.12c0.1,0.71,0.48,1.15,0.76,1.8
				c0.44,1.01,0.46,2.08,0.49,3.16c0.04,1.82-0.22,3.82,0.69,5.44c0.4,0.71,1.67,0.62,1.83-0.24c0.25-1.34,0.16-2.7,0.27-4.06
				C225.46,71.14,225.49,70.06,225.26,68.9z"/>
			<path class="st43" d="M240.66,66.51c-0.55-1.75-3.19-1.03-2.76,0.76c0.38,1.58,0.49,3.28,0.96,4.83
				c0.16,0.37,0.31,0.75,0.46,1.12c0.06,0.46,0.02,0.91-0.11,1.36c0.02,0.53,0.06,0.68,0.35,1.19c0.18,0.32,0.72,0.44,0.97,0.13
				c0.4-0.51,0.52-0.73,0.55-1.36c0.03-0.55-0.04-1.05,0.08-1.58c0.09-0.41,0.26-0.77,0.31-1.2
				C241.7,70.02,241.18,68.14,240.66,66.51z"/>
			<path class="st43" d="M254.75,70.34c-0.16-1.59-0.33-3.41-1.21-4.77c-0.58-0.91-1.91-0.52-1.97,0.53
				c-0.1,1.57,0.36,3.28,0.54,4.85c0.15,1.34,0.98,2.32,0.83,3.69c-0.07,0.67,1.07,0.7,1.07,0
				C254.01,73.07,254.91,71.97,254.75,70.34z"/>
			<path class="st43" d="M267.02,66.72c-0.87-0.81-2.45-0.02-2.07,1.2c0.28,0.9,0.75,1.71,0.95,2.64c0.2,0.93,0.08,1.87,0.3,2.79
				c0.24,1,1.92,1.36,2.37,0.31C269.47,71.58,268.68,68.27,267.02,66.72z"/>
			<path class="st43" d="M282.6,67.28c-0.71-1.29-2.77-0.42-2.37,1c0.57,1.99,1.11,4.01,1.15,6.09c0.02,1.24,2.05,1.63,2.25,0.31
				C284.03,72.1,283.89,69.61,282.6,67.28z"/>
			<path class="st43" d="M298.8,71.55c-0.18-1.52-0.81-4.25-2.62-4.52c-0.61-0.09-1.31,0.15-1.46,0.83
				c-0.32,1.42,0.81,2.73,1.16,4.09c0.23,0.92,0.15,2.27,0.96,2.87c0.05,0.16,0.1,0.31,0.17,0.47c0.06,0.15,0.23,0.21,0.36,0.09
				c0.43-0.39,0.95-0.66,1.22-1.22C298.94,73.37,298.9,72.37,298.8,71.55z"/>
			<path class="st43" d="M313.24,68.31c-0.47-0.03-0.79,0.41-0.82,0.82c-0.05,0.58,0.18,1.06,0.4,1.59c0.3,0.7,0.49,1.38,0.6,2.14
				c0.08,0.58,0.19,1.15,0.28,1.71c0.04,0.11,0.1,0.21,0.19,0.3c-0.05,0.01-0.1,0.03-0.15,0.04c0.03,0.23,0,0.42,0.06,0.66
				c0.29,1.21,2.24,0.37,1.44-0.75C317.06,73.18,315.65,68.48,313.24,68.31z"/>
			<path class="st43" d="M331.18,73.96c-0.46-0.62-0.29-1.74-0.42-2.49c-0.15-0.9-0.29-1.98-1.16-2.46
				c-0.32-0.18-0.83-0.17-1.08,0.14c-0.84,1.01-0.36,2.5-0.02,3.65c0.26,0.88,0.41,2.45,1.57,2.61
				C330.8,75.51,331.76,74.75,331.18,73.96z"/>
			<path class="st43" d="M181.69,91.52c-0.2-0.66-1.17-0.85-1.52-0.2c-0.32,0.58-0.59,1.17-0.65,1.83c-0.06,0.65-0.13,1.3,0,1.94
				c0.18,0.87,1.65,1.15,2.02,0.26c0.27-0.64,0.32-1.28,0.41-1.97C182.03,92.74,181.88,92.13,181.69,91.52z"/>
			<path class="st43" d="M197.69,89.31c-0.08-0.31-0.32-0.6-0.61-0.76c-0.34-0.4-1.14-0.3-1.36,0.18c-0.01,0.03-0.03,0.06-0.04,0.09
				c-0.4,0.44-0.41,1.06-0.52,1.74c-0.05,0.3-0.14,0.59-0.2,0.89c-0.11,0.56-0.05,0.83,0.14,1.34c0.15,0.42,0.6,0.77,1.07,0.61
				c0.35-0.12,0.63-0.19,0.9-0.47c0.32-0.32,0.5-0.77,0.61-1.21C197.88,90.9,197.9,90.12,197.69,89.31z"/>
			<path class="st43" d="M210.97,87.57c-0.1-0.51-0.41-1.5-1.08-1.5c-0.64,0-0.94,0.89-1.06,1.38c-0.21,0.85-0.19,1.92,0.07,2.76
				c0.3,0.97,1.67,0.97,1.98,0C211.13,89.39,211.13,88.41,210.97,87.57z"/>
			<path class="st43" d="M226.24,83.42c-0.22-0.81-1.4-0.99-1.81-0.24c-0.32,0.59-0.49,1.13-0.6,1.79c-0.1,0.65-0.22,1.42-0.01,2.05
				c0.32,0.93,1.53,1.11,2.07,0.27c0.36-0.56,0.44-1.32,0.49-1.97C226.45,84.65,226.42,84.07,226.24,83.42z"/>
			<path class="st43" d="M241.51,81.97c-0.25-0.66-1.1-0.67-1.36,0c-0.35,0.91,0.01,1.71,0.11,2.63c0.08,0.73,1.06,0.74,1.14,0
				C241.51,83.69,241.86,82.88,241.51,81.97z"/>
			<path class="st43" d="M254.37,80.45c-0.1-0.54-0.86-0.7-1.21-0.32c-0.32,0.34-0.54,0.66-0.67,1.12
				c-0.05,0.18-0.08,0.36-0.11,0.54c-0.04,0.24-0.04,0.49-0.06,0.71c-0.11,0.79,1.18,1.11,1.51,0.41c0.09-0.19,0.21-0.36,0.29-0.56
				c0.08-0.19,0.17-0.38,0.23-0.58C254.49,81.3,254.45,80.91,254.37,80.45z"/>
			<g>
				<path class="st43" d="M267.85,79.4c0-0.02,0.01-0.04,0.01-0.06C267.86,79.31,267.86,79.31,267.85,79.4z"/>
				<path class="st43" d="M269.88,79.52c0.05-0.08,0.05-0.08,0.04-0.06C269.91,79.48,269.9,79.5,269.88,79.52z"/>
				<path class="st43" d="M269.65,78.43c-0.52-0.32-1.18-0.05-1.55,0.36c-0.16,0.17-0.21,0.33-0.24,0.54
					c-0.01,0.06-0.03,0.28-0.03,0.32c0.01,0.15,0.05,0.27,0.1,0.41c0.02,0.05,0.11,0.24,0.12,0.26c0.3,0.47,1.11,0.34,1.15-0.25
					c0.01-0.01,0.01-0.01,0.02-0.02c0.06-0.04,0.1-0.1,0.14-0.15c0.04-0.02,0.07-0.05,0.11-0.06c0.11-0.06,0.19-0.1,0.29-0.19
					c0.05-0.04,0.13-0.16,0.15-0.2c0.07-0.1,0.12-0.19,0.13-0.34C270.05,78.85,269.89,78.57,269.65,78.43z"/>
				<path class="st43" d="M267.94,80.09c0-0.01-0.01-0.02-0.01-0.02C267.93,80.05,267.93,80.05,267.94,80.09z"/>
			</g>
			<path class="st43" d="M284.21,77.93c-0.04-0.29-0.24-0.59-0.54-0.67c-0.26-0.07-0.46,0.03-0.69,0.13c0.19-0.08-0.02-0.01-0.05,0
				c-0.1,0.03-0.2,0.08-0.3,0.13c-0.03,0.01-0.11,0.03-0.13,0.04c-0.02,0-0.02,0.01-0.03,0.01c-0.01,0-0.01,0-0.01,0
				c-0.01,0-0.02,0.01-0.02,0.01c-0.41-0.04-0.81,0.13-0.98,0.54c-0.16,0.4-0.04,0.96,0.38,1.16c0.54,0.25,1.11,0.31,1.65,0.02
				C283.97,79.05,284.29,78.48,284.21,77.93z"/>
			<path class="st43" d="M168.71,97.94c-0.17-0.48-0.42-0.77-0.75-1.13c-0.59-0.65-1.56,0.05-1.39,0.81
				c0.04,0.19,0.01,0.4,0.01,0.67c0,0.06,0,0.12-0.01,0.19c0.02-0.08,0.02-0.08,0,0c-0.02,0.21-0.05,0.42-0.07,0.63
				c-0.05,0.58,0.49,1.09,1.02,1.16c0.53,0.07,1.21-0.26,1.3-0.85C168.9,98.91,168.88,98.43,168.71,97.94z"/>
			<path class="st43" d="M157.48,104.21c-0.47-0.42-1.09-0.42-1.56,0c-0.46,0.34-0.69,0.92-0.68,1.52c0.01,0.61,0.1,1.29,0.58,1.72
				c0.52,0.46,1.22,0.47,1.75,0c0.48-0.43,0.57-1.11,0.58-1.72C158.16,105.13,157.94,104.55,157.48,104.21z"/>
			<path class="st43" d="M74.5,49.95c-0.6,1.29-0.48,2.74-0.37,4.12c0.05,0.65,0.1,1.22,0.33,1.83c0.44,1.14,0.51,1.81,0.21,3.04
				c-0.05,0.21,0.25,0.29,0.32,0.09c0.28-0.72,0.31-1.52,0.61-2.22c0.21-0.48,0.5-0.8,0.67-1.29c0.44-1.28,0.01-2.91,0.68-4.13
				C77.87,49.76,75.26,48.3,74.5,49.95z"/>
			<path class="st43" d="M69.06,45.91c-2.73-0.29-2.18,4.01-1.59,5.52c0.04,0.1,0.19,0.18,0.28,0.07c1.03-1.3,1.53-3.08,2.05-4.62
				C69.99,46.37,69.53,45.96,69.06,45.91z"/>
			<path class="st43" d="M66.41,40.46c-1.42-0.57-3.1,0.43-4.29,1.17c-0.72,0.44-1.33,1.05-2.06,1.46c-0.65,0.37-1.2,0.4-1.59,1.07
				c-0.16,0.28-0.06,0.65,0.21,0.81c1.11,0.66,2.86-0.36,3.93-0.85c0.76-0.35,1.45-0.83,2.22-1.16c0.73-0.31,1.36-0.47,1.99-0.97
				C67.42,41.52,66.97,40.69,66.41,40.46z"/>
			<path class="st43" d="M65.84,34.09c-1.85-0.81-3.55,0.63-5.14,1.58c-1.28,0.76-2.42,1.39-3.88,1.74
				c-1.11,0.26-2.03,0.55-2.96,1.22c-0.43,0.31-0.28,0.97,0.27,1c2.44,0.14,4.61-1.45,6.95-1.97c1.82-0.4,4.43-0.77,5.11-2.72
				C66.28,34.66,66.12,34.22,65.84,34.09z"/>
			<path class="st43" d="M66.57,27.01c-1.01-0.51-1.5-0.45-2.61,0.01c-1.48,0.61-2.3,1.61-3.89,2.17c-1.94,0.69-4.41,0.73-5.95,2.21
				c-0.18,0.18,0.01,0.44,0.23,0.4c2-0.37,4.44-0.43,6.25-1.34c0.96-0.48,1.5-0.76,2.49-0.9c0.61-0.09,0.94-0.11,1.5-0.27
				c1.14-0.32,1.63-0.51,2.19-1.5C66.92,27.54,66.85,27.15,66.57,27.01z"/>
			<path class="st43" d="M66.22,20.68c-1.49-0.81-4.4-0.71-5.6,0.67c-0.16,0.19-0.26,0.45-0.42,0.62c-0.68,0.75-1.21,0.87-2.24,1.23
				c-1.61,0.56-3.29,0.9-4.65,1.95c-0.31,0.24-0.26,0.84,0.22,0.82c2.69-0.11,4.82-1.81,7.31-2.59c1.77-0.55,3.77-0.5,5.38-1.42
				C66.7,21.7,66.72,20.95,66.22,20.68z"/>
			<path class="st43" d="M61.39,13.36c-1.49,0.24-3.32,0.68-4.43,1.75c-1.03,1-2.54,1.38-3.7,2.34c-0.55,0.45,0.15,1.13,0.69,0.9
				c0.72-0.31,1.36-0.74,2.07-1.08c0.75-0.36,1.07-0.34,1.82-0.36c1.42-0.05,2.91-0.55,4.29-0.87
				C63.89,15.62,63.12,13.08,61.39,13.36z"/>
			<path class="st43" d="M59.06,8.22c-1.16-0.88-3.09,0.29-4.12,0.97c-1.37,0.91-2.26,1.91-3.01,3.34c-0.07,0.13,0.07,0.25,0.2,0.2
				c1.39-0.61,2.81-1.23,4.24-1.76c1.14-0.43,2.56-0.62,3.06-1.83C59.58,8.77,59.32,8.41,59.06,8.22z"/>
		</g>
		<path class="st40" d="M33.84,21.8c0.86-2.57-0.96-5.14-4.71-5.45c0.27-0.07,0.57-0.11,0.9-0.11c1.83,0,9.83,1.75,11.66,1.6
			c0,0-6.39,4.09-8.87,4.96C33.35,22.49,33.71,22.16,33.84,21.8z"/>
		<g>
			<path class="st2" d="M36.36,6.79c0.03,1.84-0.64,3.34-1.5,3.35c-0.86,0.01-1.58-1.46-1.61-3.3C33.22,5,33.89,3.5,34.74,3.49
				C35.6,3.47,36.32,4.95,36.36,6.79z"/>
			<path class="st3" d="M35.9,4.87c0.01,0.47-0.36,0.85-0.83,0.86c-0.47,0.01-0.85-0.36-0.86-0.83c-0.01-0.46,0.36-0.85,0.83-0.86
				C35.51,4.04,35.9,4.41,35.9,4.87z"/>
		</g>
		<path class="st2" d="M32.37,2.05c0.27-1.05,1.25-1.88,2.33-2.03c0.97-0.13,2.38,0.24,2.72,1.27c0.05,0.15-0.1,0.3-0.25,0.26
			c-0.76-0.22-1.33-0.69-2.18-0.62c-0.97,0.08-1.63,0.63-2.23,1.34C32.6,2.45,32.31,2.27,32.37,2.05z"/>
		<g>
			<path class="st18" d="M65.5,93.59c0,0-16.51,22.1-15.51,26.68c0.99,4.58,0.38,9.06,2.78,11.95c2.41,2.89,4.68,6.19,4.68,6.19
				s-1.15-4.61-1.89-5.99c-1.68-3.08-0.51-3.61-0.51-3.61s4.09,10.97,8.66,11.89c0,0-4.48-8.65-4.45-13.07c0,0,2.61,5.9,5.36,7.58
				c0,0-2.26-8.22-3.07-10.71c-0.81-2.49-4.26-6.89-4.26-6.89s21.09-18.23,20.36-24.43C76.93,86.99,65.5,93.59,65.5,93.59z"/>
			<path class="st18" d="M77.66,93.18c0,0-0.57-6.25-2.06-12.64c-1.31-5.64-3.48-11.33-4.58-13.58c-0.94-1.92-5.6-3.93-6.85-2.94
				c-2.09,1.65-2.44,8.64-2.18,12.45c0.31,4.69,2.16,13.57,4.11,17.55c0.58,1.19,0.57,3.86,6.26,3.61
				C76.1,97.46,77.66,93.18,77.66,93.18z"/>
		</g>
		<path class="st44" d="M163.4,89.4c-2.89,3.69-9.77,9.12-13.41,12.04c-2.25,1.81-7.34,5.35-7.54,8.59
			c-0.01,0.2,0.22,0.38,0.41,0.31c1.69-0.6,3-2.1,4.4-3.19c1.81-1.41,3.64-2.81,5.43-4.24c1.85-1.48,3.68-2.99,5.33-4.69
			c1.61-1.66,2.6-3.59,3.81-5.54C162.04,92.32,163.67,89.05,163.4,89.4z"/>
		<path class="st18" d="M113.71,79.57c-1.18,2.16-3.44,7.49-4.57,13.67c-1.5,8.2-1.61,17.81-0.3,22.76
			c2.29,8.69,9.3,17.07,14.18,21.65c4.88,4.57,15.7,13.72,15.7,17.22c0,3.51,0.46,12.35-0.46,14.63c-0.91,2.29-3.61,6.05-3.61,6.05
			s-0.84-4.29-1.96-4.6c-1.12-0.3-4.34,0.33-5.16,2.46c-0.29,0.76-0.86,2.34-0.48,3.25c0.34,0.83,1.87,1.1,2.44,1.6
			s0.17,1.22,0.08,1.45c-0.3,0.71-5.49-0.51-7.42,0.51c-1.93,1.02-1.93,2.74-0.91,4.37c1.02,1.63,4.57,2.13,9.76,1.63
			c5.18-0.51,8.13-3.25,9.35-3.56c1.22-0.3,3.66-1.42,4.67-5.89c1.02-4.47,3.05-13.92,4.17-16.87c1.12-2.95,2.44-6.91,0.51-9.35
			c-1.93-2.44-5.59-4.78-6.91-8.64c-1.32-3.86-0.71-10.57-2.24-13.92c-1.52-3.35-2.74-5.59-2.74-5.59s-2.59-1.68,1.68-8.54
			c4.27-6.86,8.54-9.15,20.88-20.27c12.35-11.13-9.6-23.93-25.46-23.93S116.45,74.54,113.71,79.57z"/>
		<path class="st42" d="M162.79,90.7c-0.57,0.97-1.38,1.94-2.44,2.9c-12.35,11.13-16.61,13.41-20.88,20.27
			c-4.27,6.86-1.68,8.54-1.68,8.54s1.22,2.24,2.74,5.59c1.52,3.35,0.91,10.06,2.24,13.92c1.32,3.86,4.98,6.2,6.91,8.64
			c1.93,2.44,0.61,6.4-0.51,9.35c-1.12,2.95-3.15,12.4-4.17,16.87c-0.43,1.89-1.12,3.18-1.85,4.06c0.02-1.81,0.03-4.23-0.07-6.6
			c-0.21-4.68,1.83-19.51,1.83-19.51s-2.24-6.3-6.91-11.99c-4.67-5.69-4.88-11.79-7.72-18.49c-2.85-6.71,0.4-8.54,2.44-16.66
			c2.03-8.13,9.35-16.06,14.43-19.11C152.22,85.41,162.79,90.7,162.79,90.7z"/>
		<path class="st45" d="M116.39,74.86c-3.89,3.94-5.47,10.26-6.57,15.54c-1.06,5.12-2.01,12.35-1.55,16.9
			c0.05,0.52,1.44,0.17,1.58-0.42c0.59-2.46,1.12-9.38,2.59-15.76c1.23-5.36,4.01-10.24,5.11-15.58
			C117.7,74.88,116.9,74.34,116.39,74.86z"/>
		<path class="st45" d="M122.96,71.67c-0.3,0.03-0.64,0.04-0.92,0.13c-0.31,0.09-0.61,0.3-0.88,0.47c-0.62,0.38-0.96,0.85-1.4,1.39
			c-0.35,0.43,0.08,1.12,0.62,0.81c0.52-0.3,1.08-0.5,1.58-0.83c0.51-0.33,0.93-0.65,1.38-1.07
			C123.64,72.28,123.42,71.62,122.96,71.67z"/>
		<g>
			<path class="st43" d="M128.89,95.29c-1.32-0.93-2.72-1.28-4.21-1.85c-1.96-0.75-3.57-1.93-5.34-3.01
				c-2.37-1.45-5.66-2.37-8.36-1.39c-0.66,0.24-0.89,1.26-0.27,1.69c2.43,1.66,5.82,1.84,8.61,2.69c2.97,0.91,5.82,3.02,8.9,3.31
				C128.98,96.8,129.62,95.8,128.89,95.29z"/>
			<path class="st43" d="M135.44,86.84c-0.92-1.28-1.74-1.37-3.17-2.02c-1.99-0.9-3.9-2.04-5.87-2.98
				c-3.54-1.7-6.41-3.82-10.43-4.19c-2.47-0.22-3.21,2.98-0.82,3.77c3.41,1.14,6.86,2.05,10.26,3.2c1.99,0.67,4.04,1.18,6.01,1.87
				c1.52,0.53,2.18,1.11,3.79,0.83C135.42,87.28,135.59,87.05,135.44,86.84z"/>
			<path class="st43" d="M127.38,107.3c-2.98-1.23-5.53-3.54-8.58-4.66c-2.81-1.03-6.05-1.81-9.03-1.89
				c-1.26-0.03-1.86,1.88-0.67,2.46c2.57,1.25,5.44,2.06,8.2,2.78c2.49,0.65,7.77,0.08,9.53,2.26
				C127.34,108.89,128.37,107.71,127.38,107.3z"/>
			<path class="st43" d="M127.65,119.83c-2.61-1.24-5.75-1.85-8.59-2.36c-2.61-0.47-5.59-1.5-8.19-0.78
				c-0.82,0.23-0.88,1.28-0.22,1.72c2.3,1.55,5.56,1.47,8.25,1.86c2.75,0.4,5.76,0.78,8.52,0.45
				C127.82,120.67,128.13,120.06,127.65,119.83z"/>
			<path class="st43" d="M124.1,127.55c-0.81-0.33-1.74-0.02-2.59,0.11c-1.04,0.15-2.08,0.28-3.13,0.38c-1.35,0.13-1.35,2.27,0,2.12
				c1.09-0.12,2.18-0.27,3.26-0.44c0.98-0.16,2.05-0.2,2.79-0.91C124.87,128.38,124.6,127.75,124.1,127.55z"/>
			<path class="st43" d="M129.01,138.48c-0.56-0.31-1.19-0.34-1.81-0.19c-0.6,0.14-1.39,0.62-1.51,1.28
				c-0.09,0.51,0.13,0.93,0.63,1.11c0.52,0.19,1.2-0.08,1.67-0.32c0.42-0.21,0.81-0.43,1.16-0.76
				C129.48,139.29,129.41,138.7,129.01,138.48z"/>
		</g>
		<path class="st2" d="M7.85,7.49C7.81,7.16,7.57,6.94,7.23,7.01C6.82,7.09,6.5,7.33,6.29,7.68c-0.2,0.33-0.43,0.79-0.27,1.18
			c0.13,0.32,0.4,0.51,0.76,0.43c0.39-0.09,0.63-0.45,0.83-0.78C7.8,8.2,7.9,7.86,7.85,7.49z"/>
	</g>
	<path id="_x30_7-silhouette" d="M380.16,71.49c-0.06-0.03-0.18-0.06-0.32-0.09c-0.04-0.01-0.09-0.02-0.14-0.03
		c-0.13-0.02-0.28-0.05-0.45-0.08c-0.06-0.01-0.11-0.02-0.17-0.03c-0.24-0.03-0.51-0.07-0.83-0.11c-0.04,0-0.09-0.01-0.13-0.01
		c-0.29-0.03-0.61-0.07-0.95-0.1c-0.1-0.01-0.21-0.02-0.32-0.03c-0.34-0.03-0.69-0.07-1.07-0.1c-0.08-0.01-0.16-0.01-0.25-0.02
		c-0.48-0.04-0.98-0.08-1.52-0.13c-0.1-0.01-0.21-0.02-0.32-0.03c-0.45-0.04-0.93-0.07-1.42-0.11c-0.16-0.01-0.31-0.02-0.47-0.04
		c-0.53-0.04-1.08-0.08-1.65-0.12c-0.1-0.01-0.2-0.01-0.3-0.02c-0.65-0.05-1.32-0.09-2.02-0.14c-0.26-0.02-0.53-0.03-0.79-0.05
		c-0.45-0.03-0.9-0.06-1.36-0.09c-0.36-0.02-0.72-0.05-1.09-0.07c-0.32-0.02-0.66-0.04-0.99-0.06c-4.89-0.3-10.59-0.63-16.84-0.96
		c0,0,0,0,0,0c-35.56-1.9-87.85-4.06-96.56-4.2c-13.21-0.2-53.45-0.41-67.07-0.2c-13.62,0.2-25.4-0.41-32.92-2.44
		c-7.52-2.03-16.46-4.88-22.36-5.69c-5.77-0.8-18.82-7.44-33.62-9.42c-0.59-0.4-1.37-0.49-2-0.23c-3.52-0.23-9.72,0.14-15.67,2.28
		c-2.59-0.79-6.36-2.41-8.25-5.44c-3.05-4.88,0.3-13.41-0.91-20.73C66.15,15.7,60.05,5.33,49.99,2.9
		c-3.95-0.96-8.42-1.44-12.58-1.61c-0.35-1.02-1.75-1.4-2.72-1.27c-0.77,0.1-1.48,0.57-1.93,1.21c-4.36,0.07-7.84,0.5-9.09,1.05
		C20.93,3.51,7.21,4.12,4.16,5.64c-3.05,1.52-5.18,7.82-3.66,8.43c0.03,0.01,0.08,0.03,0.12,0.04c0.11,1.58,1,3,1.26,3.16
		c0.3,0.18,0.48,0.11,0.48,0.11c-0.41-0.63-0.41-2.11-0.38-2.87c0.18,0.04,0.39,0.09,0.6,0.13c0.19,1.42,0.96,2.65,1.21,2.8
		c0.29,0.18,0.47,0.11,0.47,0.11c-0.37-0.58-0.4-1.88-0.38-2.65c0.24,0.04,0.48,0.09,0.73,0.13c0.26,1.3,0.95,2.36,1.18,2.5
		c0.3,0.18,0.48,0.11,0.48,0.11c-0.33-0.52-0.39-1.62-0.39-2.41c0.21,0.03,0.43,0.06,0.65,0.1c0.26,1.3,0.95,2.38,1.18,2.52
		c0.3,0.18,0.48,0.11,0.48,0.11c-0.34-0.53-0.4-1.65-0.39-2.45c0.23,0.03,0.46,0.06,0.69,0.09c0.17,1.49,0.99,2.8,1.24,2.96
		c0.3,0.18,0.48,0.11,0.48,0.11c-0.41-0.64-0.41-2.15-0.38-2.9c0.19,0.02,0.38,0.05,0.57,0.07c0.3,1.16,0.9,2.08,1.11,2.21
		c0.3,0.18,0.48,0.11,0.48,0.11c-0.31-0.48-0.38-1.43-0.39-2.2c0.23,0.02,0.47,0.05,0.71,0.07c0.19,1.11,0.78,2.04,0.97,2.15
		c0.24,0.15,0.39,0.09,0.39,0.09c-0.3-0.47-0.33-1.52-0.31-2.16c0.32,0.02,0.66,0.04,0.99,0.06c0.2,1.09,0.78,2,0.97,2.12
		c0.24,0.15,0.39,0.09,0.39,0.09c-0.3-0.47-0.33-1.51-0.31-2.15c0.31,0.01,0.62,0.02,0.93,0.03c0.19,1.1,0.78,2.02,0.97,2.14
		c0.24,0.15,0.39,0.09,0.39,0.09c-0.31-0.48-0.33-1.55-0.31-2.19c0.35,0.01,0.69,0.01,1.04,0.02c0.2,1.07,0.77,1.97,0.96,2.08
		c0.24,0.15,0.39,0.09,0.39,0.09c-0.3-0.47-0.33-1.51-0.31-2.16c0.25,0,0.51,0.01,0.76,0.01c0.22,1.02,0.76,1.85,0.94,1.96
		c0.24,0.15,0.39,0.09,0.39,0.09c-0.28-0.44-0.32-1.4-0.32-2.05c0.34,0,0.68,0,1.02,0c0.22,1.02,0.76,1.84,0.94,1.95
		c0.24,0.15,0.39,0.09,0.39,0.09c-0.28-0.44-0.32-1.4-0.32-2.05c0.28,0,0.57,0,0.84,0c0.2,1.09,0.78,2,0.97,2.11
		c0.24,0.15,0.39,0.09,0.39,0.09c-0.31-0.48-0.33-1.57-0.31-2.21c0.25,0,0.49,0,0.73-0.01c0.13,1.01,0.66,1.89,0.83,2
		c0.2,0.13,0.33,0.08,0.33,0.08c-0.3-0.47-0.28-1.59-0.26-2.08c0.39,0,0.76,0,1.11,0c0.19,0.86,0.65,1.56,0.8,1.65
		c0.2,0.13,0.33,0.08,0.33,0.08c-0.23-0.37-0.27-1.14-0.27-1.69c0.23,0.01,0.46,0.03,0.67,0.06c0.24,0.03,0.48,0.07,0.7,0.12
		c0.21,0.05,0.42,0.1,0.61,0.17c0.2,0.06,0.39,0.13,0.58,0.21c0.19,0.08,0.37,0.18,0.54,0.27c0.16,0.09,0.31,0.17,0.45,0.27
		c0.16,0.12,0.3,0.24,0.45,0.37c0.11,0.1,0.23,0.2,0.33,0.32c0.13,0.15,0.23,0.31,0.34,0.47c0.07,0.11,0.15,0.22,0.21,0.34
		c0.09,0.18,0.15,0.38,0.21,0.57c0.02,0.08,0.06,0.16,0.07,0.24c0.02,0.07,0.03,0.15,0.04,0.22c0.03,0.18,0.04,0.37,0.04,0.55
		c0,0.04,0.01,0.07,0.01,0.11c0,0.09,0,0.17-0.01,0.26c-0.03,0.3-0.08,0.61-0.18,0.92c-0.06,0.18-0.18,0.35-0.34,0.51
		c-0.04,0.04-0.11,0.08-0.16,0.12c-0.14,0.12-0.29,0.23-0.48,0.34c-0.74,0.42-1.83,0.78-3.13,1.11c-0.54-0.03-1.12-0.05-1.72-0.07
		c-0.08-0.32-0.15-0.66-0.09-0.87c0,0-0.1-0.01-0.22,0.13c-0.06,0.07-0.15,0.35-0.18,0.73c-0.32-0.01-0.65-0.02-0.98-0.03
		c-0.07-0.29-0.12-0.59-0.07-0.79c0,0-0.1-0.01-0.22,0.13c-0.05,0.06-0.13,0.32-0.17,0.64c-0.41-0.01-0.83-0.02-1.24-0.03
		c-0.03-0.2-0.04-0.38-0.01-0.52c0,0-0.1-0.01-0.22,0.13c-0.04,0.04-0.08,0.19-0.12,0.38c-0.37-0.01-0.74-0.01-1.1-0.02
		c0-0.02-0.01-0.05,0-0.07c0,0-0.07,0.02-0.14,0.07c-0.49-0.01-0.98-0.01-1.46-0.01c0-0.01,0-0.02,0-0.03c0,0-0.03,0.01-0.08,0.03
		c-1.64,0-3.17,0.03-4.39,0.1c-2.85,0.17-5.5,1.15-7.07,2c-0.01-0.21-0.01-0.4,0.03-0.56c0,0-0.2-0.01-0.43,0.25
		c-0.07,0.08-0.16,0.33-0.23,0.67c-0.83,0.53-1.1,0.93-0.54,0.91c0.13,0,0.27-0.02,0.4-0.03c-0.03,0.41-0.02,0.87,0.04,1.34
		c-0.24,0.04-0.47,0.09-0.71,0.13c-0.23-0.62-0.59-1.79-0.43-2.4c0,0-0.17-0.01-0.37,0.22c-0.15,0.18-0.43,1.24-0.29,2.37
		c-0.31,0.05-0.62,0.11-0.91,0.16c-0.23-0.64-0.57-1.75-0.41-2.34c0,0-0.17-0.01-0.37,0.22c-0.15,0.17-0.42,1.21-0.3,2.32
		c-0.23,0.05-0.44,0.09-0.64,0.14c-0.25-0.75-0.52-1.79-0.36-2.38c0,0-0.2-0.01-0.43,0.25c-0.16,0.19-0.46,1.3-0.36,2.53
		c-0.21,0.13-0.32,0.27-0.28,0.44c0,0,0,2.74,4.27,3.35c4.27,0.61,14.94-0.91,18.9,1.52c3.96,2.44,3.35,3.05,7.62,4.57
		c4.27,1.52,5.79,1.22,8.54,8.23c2.74,7.01,2.29,8.69,5.64,13.41c3.35,4.73,5.64,5.64,7.47,11.58c0.11,0.36,0.21,0.71,0.3,1.06
		c0.05,0.2,0.1,0.39,0.15,0.59c0.04,0.15,0.08,0.29,0.11,0.44c0.07,0.29,0.14,0.58,0.21,0.87c0.01,0.03,0.01,0.05,0.02,0.08
		c0.17,0.73,0.33,1.44,0.49,2.12c0.01,0.05,0.02,0.09,0.03,0.14c0.06,0.26,0.13,0.52,0.2,0.77c0.02,0.08,0.04,0.15,0.06,0.23
		c0.06,0.23,0.13,0.45,0.2,0.68c0.03,0.08,0.05,0.17,0.08,0.25c0.07,0.21,0.14,0.42,0.22,0.63c0.03,0.09,0.06,0.17,0.1,0.26
		c0.08,0.2,0.17,0.4,0.26,0.6c0.04,0.08,0.08,0.17,0.12,0.25c0.1,0.2,0.2,0.4,0.31,0.59c0.04,0.08,0.08,0.16,0.13,0.23
		c0.12,0.2,0.25,0.4,0.39,0.59c0.05,0.07,0.09,0.14,0.14,0.2c0.13,0.18,0.28,0.36,0.43,0.54c-0.23,1.89-0.34,3.67-0.28,5.05
		c-0.17,0.02-0.29,0.04-0.29,0.04s-18.83,11.84-19.4,15.57c-0.58,3.73-2.34,6.92-1.37,9.8c0.97,2.87,1.73,6.02,1.73,6.02
		s0.48-3.8,0.31-5.05c-0.37-2.81,0.66-2.87,0.66-2.87s-0.11,9.44,3.07,11.45c0,0-0.87-7.81,0.44-11.12c0,0,0.26,5.2,1.84,7.26
		c0,0,0.68-6.84,0.79-8.95c0.11-2.11-1.21-6.41-1.21-6.41s9.85-3.54,16.5-7.34c-4.63,6.48-13.58,19.59-12.84,23
		c0.99,4.58,0.38,9.06,2.78,11.95c2.41,2.89,4.68,6.19,4.68,6.19s-1.15-4.61-1.89-5.99c-1.68-3.08-0.51-3.61-0.51-3.61
		s4.09,10.97,8.66,11.89c0,0-4.48-8.65-4.45-13.07c0,0,2.61,5.9,5.36,7.58c0,0-2.26-8.22-3.07-10.71c-0.81-2.49-4.26-6.89-4.26-6.89
		s16.09-13.91,19.67-21.56c2.96,1.39,6.21,2.77,9.61,4.1c0.52,0.21,1.05,0.41,1.58,0.61c0.53,0.2,1.06,0.4,1.59,0.6
		c0.77,0.29,1.53,0.57,2.31,0.85c-1.28,2.74-1.86,5.62-2.74,7.69c-0.36,0.83-3.42,6.33-0.89,10.2c2.53,3.88,14.8,9.48,18.33,11.87
		c3.53,2.4,6.79,7.1,6.79,7.1s-1.28,8.94-2.79,13.2c-0.38,1.07-0.94,2.22-1.56,3.35c-1.43,0.02-3.19,0.05-3.19,0.05
		s-0.21,0.01-0.49,0.06c-0.79-0.78-1.99-1.46-3.58-0.77c-2.88,1.25-1.7,3.39-1.7,3.39s1.57-1.49,2.31-1.09
		c0.74,0.41,1.01,1.57,1.01,1.57s0.15,0.01,0.35,0.02c0.36,0.49,0.82,0.7,0.82,0.7s0.53,0.31,1.3,0.68
		c-1.22,0.92-3.26,1.95-4.82,2.43c-1.09,0.33-1.38,0.99-1.44,1.47c-0.28,0.34-0.56,0.82-0.83,1.5c-1.11,2.85-0.99,3.34-0.99,3.34
		s2.17-1.75,4.15-2.62l2.56,0.22c0,0,0.84,1.69,2.75,0.64c1.91-1.05,6.31-3.08,9.71-11.63c0.41-1.03,0.62-1.52,0.71-1.71
		c0,0.02-0.03,0.15-0.06,0.33c-0.05,0.15-0.09,0.28-0.09,0.28s0.03,0.01,0.04,0.02c-0.2,1.25-0.62,3.95-0.5,4.76
		c0,0,2.17-2.57,2.84-4.07c0.21,0.03,0.39,0.05,0.51,0.03c0.64-0.12,2.51-4.36,2.77-5.31c0.25-0.91,1.9-7.52,2.43-9.76c0,0,0,0,0,0
		c0.1,0.21,0.27,0.38,0.53,0.48c5.29,4.81,12.41,11.37,12.41,14.21c0,3.51,0.46,12.35-0.46,14.63c-0.91,2.29-3.61,6.05-3.61,6.05
		s-0.84-4.29-1.96-4.6c-0.01,0-0.02,0-0.03,0c-0.51-1.58-1.91-4.36-5.27-3.93c-4.48,0.57-3.72,4-3.72,4s2.76-1.43,3.62-0.57
		c0.59,0.59,0.73,1.57,0.76,2.13c-0.21,0.25-0.4,0.52-0.52,0.84c-0.29,0.76-0.86,2.34-0.48,3.25c0.34,0.83,1.87,1.1,2.44,1.6
		s0.17,1.22,0.08,1.45c-0.3,0.71-5.49-0.51-7.42,0.51c-0.32,0.17-0.57,0.37-0.79,0.57c-0.61,0.08-1.4,0.41-2.42,1.26
		c-2.75,2.28-2.91,2.85-2.91,2.85s2.76-0.48,5.17-0.36c0.01,0.02,0.02,0.03,0.03,0.05c1.02,1.63,4.57,2.13,9.76,1.63
		c5.18-0.51,8.13-3.25,9.35-3.56c0.7-0.18,1.81-0.65,2.82-1.85c0,0.01,0,0.02,0,0.02c0.04-0.04,0.07-0.1,0.1-0.14
		c0.1-0.12,0.19-0.26,0.29-0.39c0.11-0.15,0.21-0.32,0.31-0.49c0.08-0.15,0.17-0.29,0.25-0.45c0.11-0.22,0.21-0.47,0.32-0.72
		c0.06-0.15,0.12-0.29,0.18-0.45c0.14-0.39,0.26-0.81,0.37-1.27c0.01-0.05,0.03-0.09,0.04-0.14c0.82-3.62,2.31-10.51,3.44-14.56
		c0-0.01,0.01-0.03,0.01-0.04c0,0,0,0,0,0c0.26-0.93,0.5-1.71,0.71-2.26c0.98-2.58,2.11-5.93,1.08-8.37
		c-0.15-0.35-0.34-0.68-0.58-0.98c-1.39-1.75-3.66-3.46-5.32-5.72c-0.65-0.88-1.21-1.84-1.58-2.92c-0.77-2.24-0.89-5.44-1.15-8.39
		c-0.19-2.13-0.45-4.13-1.09-5.54c-1.33-2.93-2.43-5.01-2.69-5.49c-0.04-0.07-0.06-0.1-0.06-0.1s-2.59-1.68,1.68-8.54
		c0.77-1.24,1.55-2.33,2.37-3.36c7.35-0.56,13.43-1.62,15.67-2.33c0.82-0.26,1.53-0.64,2.22-1.06c3.1-1.89,5.32-5.11,9.97-7.28
		c0.39-0.18,1.06-0.41,1.92-0.67c10.37-3.1,52.69-11.19,82.57-15.88c3.35-0.53,6.54-1.01,9.51-1.44c0.93-0.13,1.89-0.27,2.87-0.4
		c0.33-0.04,0.67-0.09,1-0.13c0.67-0.09,1.34-0.17,2.03-0.26c0.4-0.05,0.81-0.1,1.22-0.15c0.64-0.08,1.28-0.15,1.94-0.23
		c0.45-0.05,0.9-0.1,1.35-0.15c0.63-0.07,1.28-0.14,1.92-0.21c0.48-0.05,0.95-0.1,1.44-0.15c0.65-0.07,1.3-0.13,1.96-0.2
		c0.49-0.05,0.98-0.1,1.48-0.15c0.71-0.07,1.43-0.14,2.14-0.21c0.45-0.04,0.89-0.09,1.34-0.13c1.12-0.11,2.26-0.21,3.4-0.31
		c0.62-0.06,1.25-0.11,1.88-0.16c0.57-0.05,1.13-0.1,1.7-0.15c0.69-0.06,1.39-0.12,2.09-0.17c0.5-0.04,1-0.08,1.5-0.12
		c0.76-0.06,1.53-0.12,2.29-0.18c0.42-0.03,0.83-0.07,1.25-0.1c0.83-0.06,1.66-0.13,2.5-0.19c0.32-0.02,0.65-0.05,0.97-0.07
		c0.94-0.07,1.88-0.14,2.82-0.21c0.08-0.01,0.17-0.01,0.25-0.02c21.82-1.57,43.54-2.58,53.19-3.03c-0.02,0-0.05,0-0.07,0
		c2.5-0.12,4.23-0.2,4.91-0.24C368.27,74.23,383.51,73.01,380.16,71.49z M34.99,0.93c0.54-0.04,0.97,0.13,1.41,0.32
		c-0.81-0.02-1.6-0.04-2.38-0.04C34.31,1.08,34.62,0.96,34.99,0.93z M17.41,26c0.27-0.02,0.53-0.04,0.8-0.06
		c0,0.02,0.01,0.04,0.01,0.05c-0.26,0.05-0.51,0.11-0.75,0.16C17.45,26.11,17.43,26.05,17.41,26z M16.61,26.35
		c-0.22,0.05-0.41,0.11-0.61,0.17c-0.04-0.11-0.08-0.24-0.13-0.39c0.24-0.03,0.46-0.06,0.71-0.08
		C16.58,26.16,16.6,26.25,16.61,26.35z M13.16,26.51c0,0.31,0.02,0.64,0.09,0.96c-0.25,0.08-0.51,0.16-0.78,0.23
		c-0.09-0.23-0.22-0.61-0.34-1.03C12.47,26.62,12.81,26.57,13.16,26.51z M10.43,26.93c0.28-0.04,0.56-0.07,0.87-0.12
		c-0.02,0.37,0,0.77,0.07,1.18c-0.19,0.04-0.37,0.09-0.56,0.13C10.69,27.82,10.55,27.39,10.43,26.93z M14.26,27.12
		c-0.07-0.17-0.16-0.43-0.25-0.74c0.36-0.06,0.73-0.11,1.12-0.16c0,0.19,0.01,0.37,0.04,0.56c-0.18,0.06-0.38,0.13-0.53,0.19
		C14.51,27.03,14.39,27.07,14.26,27.12z M117.83,153.88c0.05-0.09,0.05-0.08,0.04-0.01C117.86,153.87,117.84,153.88,117.83,153.88z"
		/>
</g>
</svg>
