<?xml version="1.0" encoding="utf-8"?>
<!-- Generator: Adobe Illustrator 23.0.1, SVG Export Plug-In . SVG Version: 6.00 Build 0)  -->
<svg version="1.1" id="Layer_1" xmlns="http://www.w3.org/2000/svg" xmlns:xlink="http://www.w3.org/1999/xlink" x="0px" y="0px"
	 viewBox="0 0 540.8 256.36" style="enable-background:new 0 0 540.8 256.36;" xml:space="preserve">
<style type="text/css">
	.st0{fill:#6D5287;}
	.st1{fill:#896CA6;}
	.st2{fill:#2A363F;}
	.st3{fill:#FFFFFF;}
	.st4{fill:#826EAC;}
	.st5{fill:#8B7BAA;}
	.st6{fill:#8F463B;}
	.st7{fill:#D5D4D3;}
	.st8{fill:#69802B;}
	.st9{fill:#77912B;}
	.st10{fill:#85A429;}
	.st11{fill:#8EA63E;}
	.st12{fill:#B8C38B;}
	.st13{fill:#ADB393;}
	.st14{fill:#DD513F;}
	.st15{fill:#4D5138;}
	.st16{fill:#9AA962;}
	.st17{fill:#BAC09F;}
	.st18{fill:#E27533;}
	.st19{fill:#B8B0CC;}
	.st20{fill:#473D54;}
	.st21{fill:#CE5720;}
	.st22{fill:#C4805F;}
	.st23{fill:#218B57;}
	.st24{fill:#39AA6E;}
	.st25{fill:#89C8A5;}
	.st26{fill:#64BFB3;}
	.st27{fill:#318876;}
	.st28{fill:#A14525;}
	.st29{fill:#617729;}
	.st30{fill:#718A2B;}
	.st31{fill:#A49035;}
	.st32{fill:#A7B86A;}
	.st33{fill:#8B975F;}
	.st34{fill:#704D19;}
	.st35{fill:#E08276;}
	.st36{fill:#7F885A;}
	.st37{fill:#B4BB9A;}
	.st38{fill:#CC8455;}
	.st39{fill:#CA6222;}
	.st40{fill:#CD4433;}
	.st41{fill:#492917;}
	.st42{fill:#EFAE82;}
	.st43{fill:#BA7A50;}
	.st44{fill:#D39266;}
	.st45{fill:#DF864C;}
	.st46{fill:#8F98AD;}
	.st47{fill:#AEB8D1;}
	.st48{fill:#5C698B;}
	.st49{fill:#6F7D9D;}
	.st50{fill:#6E717D;}
	.st51{fill:#5B6681;}
	.st52{fill:#66779C;}
	.st53{fill:#8B95AD;}
	.st54{fill:#8C93A5;}
	.st55{fill:#D46D2E;}
	.st56{fill:#5E331A;}
	.st57{fill:#EEA34F;}
	.st58{fill:#894216;}
	.st59{fill:#E5AA25;}
	.st60{fill:#964F34;}
	.st61{fill:#AB5D41;}
	.st62{fill:#C69886;}
	.st63{fill:#80452F;}
	.st64{fill:#F3CC40;}
	.st65{fill:#C0502D;}
	.st66{fill:#DE653F;}
	.st67{fill:#F5CCBF;}
	.st68{fill:#532919;}
	.st69{fill:#C48F6C;}
	.st70{fill:#CD3F2E;}
	.st71{fill:#DC4632;}
	.st72{fill:#E96251;}
	.st73{fill:#A82B17;}
	.st74{fill:#E77767;}
	.st75{fill:#319885;}
	.st76{fill:#45AE9A;}
	.st77{fill:#369482;}
</style>
<g id="_x30_8-spinosaurus_1_">
	<g id="_x30_8-spinosaurus">
		<path class="st28" d="M67.82,82.24c0,0-14.52,15.68-23.23,18.01c-8.71,2.32-15.1,3.63-14.23,6.24c1.12,3.35,9.58-0.87,12.49-1.6
			c4.52-1.13,20.91-9,20.91-9S70.14,84.27,67.82,82.24z"/>
		<path class="st7" d="M3.64,82.63c0,0,1.18,2.85,2.28,3.49c0,0-0.17,0.19-0.6,0.15c-0.43-0.04-2.64-1.37-3.52-3.42
			C1.8,82.86,2.12,81.6,3.64,82.63z"/>
		<path class="st7" d="M28.86,125.45c0,0-1.74-2.55-1.67-3.83c0,0-0.25,0.04-0.45,0.42c-0.21,0.38-0.3,2.96,0.92,4.82
			C27.66,126.87,28.88,127.29,28.86,125.45z"/>
		<path class="st7" d="M31.33,124c0,0-1.74-2.55-1.67-3.83c0,0-0.25,0.04-0.45,0.42c-0.21,0.38-0.3,2.96,0.92,4.82
			C30.13,125.41,31.35,125.83,31.33,124z"/>
		<path class="st7" d="M33.87,122.62c0,0-1.74-2.55-1.67-3.83c0,0-0.25,0.04-0.45,0.42c-0.21,0.38-0.3,2.96,0.92,4.82
			C32.67,124.04,33.89,124.45,33.87,122.62z"/>
		<path class="st7" d="M39.2,118.81c0,0-1.74-2.55-1.67-3.83c0,0-0.25,0.04-0.45,0.42c-0.21,0.38-0.3,2.96,0.92,4.82
			C38.01,120.22,39.23,120.64,39.2,118.81z"/>
		<path class="st7" d="M41.36,116.78c0,0-1.54-2.27-1.48-3.41c0,0-0.22,0.03-0.4,0.37c-0.18,0.34-0.27,2.63,0.82,4.29
			C40.29,118.04,41.38,118.41,41.36,116.78z"/>
		<path class="st7" d="M44.08,114.33c0,0-1.54-2.27-1.48-3.41c0,0-0.22,0.03-0.4,0.37c-0.18,0.34-0.27,2.63,0.82,4.29
			C43.01,115.59,44.1,115.96,44.08,114.33z"/>
		<path class="st7" d="M46.8,112.21c0,0-1.54-2.27-1.48-3.41c0,0-0.22,0.03-0.4,0.37c-0.18,0.34-0.27,2.63,0.82,4.29
			C45.74,113.46,46.83,113.84,46.8,112.21z"/>
		<path class="st7" d="M48.97,109.21c0,0-1.31-1.92-1.26-2.89c0,0-0.19,0.03-0.34,0.31c-0.16,0.29-0.23,2.23,0.7,3.64
			C48.06,110.27,48.99,110.59,48.97,109.21z"/>
		<path class="st7" d="M51.36,106.48c0,0-1.31-1.92-1.26-2.89c0,0-0.19,0.03-0.34,0.31c-0.16,0.29-0.23,2.23,0.7,3.64
			C50.46,107.55,51.38,107.87,51.36,106.48z"/>
		<path class="st7" d="M53.08,103.88c0,0-1.25-1.83-1.2-2.75c0,0-0.18,0.03-0.33,0.3c-0.15,0.27-0.22,2.12,0.66,3.46
			C52.22,104.9,53.1,105.2,53.08,103.88z"/>
		<path class="st7" d="M55.21,101.65c0,0-1.25-1.83-1.2-2.75c0,0-0.18,0.03-0.33,0.3c-0.15,0.27-0.22,2.12,0.66,3.46
			C54.34,102.67,55.23,102.97,55.21,101.65z"/>
		<path class="st7" d="M58.46,97.34c0,0-1.06-1.56-1.02-2.34c0,0-0.15,0.02-0.28,0.26c-0.13,0.23-0.19,1.81,0.56,2.95
			C57.72,98.2,58.47,98.46,58.46,97.34z"/>
		<path class="st7" d="M56.95,99.36c0,0-1.25-1.83-1.2-2.75c0,0-0.18,0.03-0.33,0.3c-0.15,0.27-0.22,2.12,0.66,3.46
			C56.09,100.38,56.97,100.68,56.95,99.36z"/>
		<path class="st7" d="M36.53,120.7c0,0-2.03-2.98-1.95-4.48c0,0-0.29,0.04-0.53,0.49c-0.24,0.45-0.35,3.46,1.08,5.64
			C35.12,122.35,36.56,122.84,36.53,120.7z"/>
		<path class="st7" d="M6.53,82.41c0,0,1.18,2.85,2.28,3.49c0,0-0.17,0.19-0.6,0.15c-0.43-0.04-2.64-1.37-3.52-3.42
			C4.69,82.64,5.01,81.38,6.53,82.41z"/>
		<path class="st7" d="M10.18,82.09c0,0,1.18,2.85,2.28,3.49c0,0-0.17,0.19-0.6,0.15c-0.43-0.04-2.64-1.37-3.52-3.42
			C8.34,82.31,8.66,81.06,10.18,82.09z"/>
		<path class="st7" d="M13.88,81.81c0,0,1.18,2.85,2.28,3.49c0,0-0.17,0.19-0.6,0.15c-0.43-0.04-2.64-1.37-3.52-3.42
			C12.04,82.04,12.36,80.79,13.88,81.81z"/>
		<path class="st7" d="M18.24,82.74c0,0,1.18,2.85,2.28,3.49c0,0-0.17,0.19-0.6,0.15c-0.43-0.04-2.64-1.37-3.52-3.42
			C16.4,82.97,16.72,81.71,18.24,82.74z"/>
		<path class="st7" d="M25.53,82.52c0,0,1.18,2.85,2.28,3.49c0,0-0.17,0.19-0.6,0.15c-0.43-0.04-2.64-1.37-3.52-3.42
			C23.69,82.75,24.02,81.49,25.53,82.52z"/>
		<path class="st7" d="M28.96,81.11c0,0,1.18,2.85,2.28,3.49c0,0-0.17,0.19-0.6,0.15s-2.64-1.37-3.52-3.42
			C27.12,81.33,27.45,80.08,28.96,81.11z"/>
		<path class="st7" d="M32.23,79.65c0,0,1.18,2.85,2.28,3.49c0,0-0.17,0.19-0.6,0.15c-0.43-0.04-2.64-1.37-3.52-3.42
			C30.39,79.88,30.71,78.63,32.23,79.65z"/>
		<path class="st7" d="M35.79,79c0,0,1.18,2.85,2.28,3.49c0,0-0.17,0.19-0.6,0.15c-0.43-0.04-2.64-1.37-3.52-3.42
			C33.95,79.23,34.27,77.97,35.79,79z"/>
		<path class="st7" d="M38.82,79.01c0,0,0.96,2.32,1.86,2.85c0,0-0.14,0.15-0.49,0.12c-0.35-0.03-2.15-1.12-2.87-2.79
			C37.32,79.19,37.58,78.17,38.82,79.01z"/>
		<path class="st7" d="M41.71,77.82c0,0,0.9,2.18,1.75,2.68c0,0-0.13,0.14-0.46,0.12c-0.33-0.03-2.02-1.05-2.7-2.62
			C40.3,77.99,40.55,77.03,41.71,77.82z"/>
		<path class="st7" d="M45.49,77.24c0,0,0.9,2.18,1.75,2.68c0,0-0.13,0.14-0.46,0.12c-0.33-0.03-2.02-1.05-2.7-2.62
			C44.08,77.41,44.32,76.45,45.49,77.24z"/>
		<path class="st7" d="M49.33,77.09c0,0,0.9,2.18,1.75,2.68c0,0-0.13,0.14-0.46,0.12c-0.33-0.03-2.02-1.05-2.7-2.62
			C47.92,77.27,48.17,76.3,49.33,77.09z"/>
		<path class="st7" d="M52.82,77.16c0,0,0.9,2.18,1.75,2.68c0,0-0.13,0.14-0.46,0.12c-0.33-0.03-2.02-1.05-2.7-2.62
			C51.41,77.34,51.66,76.38,52.82,77.16z"/>
		<path class="st7" d="M55.3,76.71c0,0,0.86,2.08,1.67,2.55c0,0-0.12,0.14-0.44,0.11c-0.31-0.03-1.92-1-2.57-2.5
			C53.96,76.87,54.19,75.96,55.3,76.71z"/>
		<path class="st7" d="M22.77,83.3c0,0,1.45,3.51,2.81,4.3c0,0-0.21,0.23-0.74,0.19c-0.53-0.05-3.24-1.68-4.34-4.21
			C20.5,83.58,20.9,82.04,22.77,83.3z"/>
		<g>
			<path class="st29" d="M175.91,116.96c0.16,0.33,8.69,12.92,9.08,16.87c0.39,3.95-5.38,5.64-8.98,4.08
				c-3.6-1.56-7.31-6.48-12.73-10.09s-9.86-12.21-4.09-15.73C164.98,108.56,172.11,109.03,175.91,116.96z"/>
			<path class="st29" d="M180.25,133.04c-2.4-1.64-8.28,0.44-13.78,6.24c-5.5,5.79-11.51,14.75-13.74,19.12
				c-2.23,4.37-4.68,7.3-4.19,14.37c0.48,7.07,6.64,7.37,6.64,7.37s-3.51-3.73-2.16-8.76c1.34-5.03,3.51-10.35,5.11-9.86
				s0.59-0.16,0.59-0.16s1.31,6.89,4.23,10.79c2.91,3.89,6.66,0.51,6.66,0.51s-3.64-0.35-4.48-3.91s-0.92-8.24-0.75-11.03
				c0.17-2.78-0.53-4.18,1.88-5.91c2.41-1.73,16.72-10.24,18.29-16.09C185.37,132.6,180.25,133.04,180.25,133.04z"/>
		</g>
		<path class="st18" d="M130.34,75.47c4.94-1.25,7.85-11.72,15.27-22.05c3.6-5.01,10.57-7.85,14.93-13.68
			c2.3-3.07,3.63-7.49,6.33-10.18c2.52-2.5,6.39-3.29,9.05-5.99c2.84-2.88,3.06-6.08,6.22-8.71c2.22-1.86,6.44-3.15,8.93-4.75
			c2.79-1.78,5.3-4.49,8.41-5.65c2.97-1.11,6.53-0.71,9.69-1.7c2.79-0.87,6.07-2.4,9.16-2.6c3.09-0.2,5.98,0.94,9.16,0.79
			c2.12-0.1,9.12-1.37,11.31-0.79c6.9,1.81,7.69,3.28,10.63,4.3c3.58,1.24,8.34,3.03,11.2,5.43c3.03,2.55,5.13,6.41,6.48,8.44
			c2.83,2.32,6.95,4.68,9.8,8.07c2.19,2.6,3.21,6.22,4.86,8.37c2.52,3.28,6.87,4.79,9.69,8.52c1.78,2.35,2.94,8.07,3.54,9.12
			c1.78,3.11,5.92,4.63,8.14,7.69c1.82,2.51,1.72,6.58,3.32,8.9c1.69,2.45,4.79,3.17,6.63,5.43c1.53,1.88,2.16,5.11,3.85,6.94
			c1.8,1.95,4.88,2.8,7.09,4.52c2.14,1.67,4.23,4.95,6.63,6.63c3.16,2.22,6.82,2.78,11.38,4.45
			C372.7,108.15,119.81,78.14,130.34,75.47z"/>
		<path class="st30" d="M332.36,99.34c-0.58-0.3-1.15-0.64-1.7-1.02c-2.4-1.68-4.5-4.97-6.64-6.64c-2.2-1.72-5.29-2.57-7.08-4.52
			c-1.68-1.83-2.32-5.06-3.85-6.94c-1.85-2.27-4.94-2.98-6.63-5.43c-1.6-2.31-1.49-6.39-3.32-8.9c-2.21-3.06-6.37-4.58-8.14-7.69
			c-0.61-1.05-1.77-6.77-3.55-9.12c-2.82-3.73-7.17-5.24-9.69-8.52c-1.66-2.15-2.67-5.76-4.86-8.36c-2.85-3.38-6.97-5.75-9.8-8.07
			c-1.36-2.04-3.45-5.9-6.48-8.44c-2.86-2.4-7.62-4.19-11.2-5.43c-2.94-1.02-3.73-2.49-10.63-4.3c-2.2-0.57-9.19,0.69-11.31,0.79
			c-3.18,0.15-6.07-0.99-9.16-0.79c-3.09,0.19-6.38,1.73-9.17,2.6c-3.15,0.98-6.72,0.58-9.69,1.7c-3.11,1.17-5.61,3.87-8.41,5.65
			c-2.49,1.59-6.71,2.89-8.93,4.75c-3.15,2.63-3.38,5.83-6.22,8.7c-2.66,2.7-6.53,3.49-9.04,5.99c-2.71,2.69-4.03,7.11-6.33,10.19
			c-4.37,5.83-11.33,8.67-14.93,13.68c-4.88,6.79-7.81,13.64-10.64,17.89c-3.98-0.79-5.73-1.37-4.64-1.65
			c4.95-1.25,7.85-11.72,15.27-22.05c3.6-5.01,10.56-7.84,14.93-13.68c2.3-3.08,3.62-7.48,6.33-10.18c2.52-2.51,6.39-3.29,9.04-5.99
			c2.84-2.88,3.07-6.08,6.22-8.71c2.22-1.86,6.44-3.15,8.93-4.75c2.8-1.79,5.3-4.49,8.41-5.65c2.97-1.12,6.53-0.71,9.69-1.69
			c2.79-0.87,6.07-2.4,9.17-2.61c3.08-0.2,5.98,0.94,9.16,0.79c2.12-0.1,9.11-1.37,11.31-0.79c6.9,1.81,7.68,3.28,10.63,4.3
			c3.57,1.24,8.34,3.03,11.2,5.43c3.03,2.54,5.12,6.41,6.48,8.44c2.83,2.33,6.95,4.69,9.8,8.07c2.19,2.6,3.21,6.22,4.86,8.37
			c2.52,3.28,6.87,4.78,9.69,8.52c1.78,2.35,2.94,8.06,3.55,9.12c1.77,3.1,5.92,4.63,8.14,7.68c1.83,2.52,1.72,6.59,3.32,8.9
			c1.69,2.45,4.78,3.17,6.63,5.43c1.53,1.88,2.17,5.11,3.85,6.94c1.79,1.96,4.88,2.81,7.08,4.53c2.14,1.66,4.23,4.95,6.64,6.63
			c3.16,2.21,6.82,2.78,11.38,4.45C347.9,99.09,343.4,99.73,332.36,99.34z"/>
		<path class="st31" d="M145.72,76.15c0,0,27.13-44.68,81.88-33.47c57.45,11.76,69.51,50.36,69.51,50.36L145.72,76.15z"/>
		<path class="st29" d="M257.84,173.59c0,0,21.97-27.46,14.91-35.31c-7.06-7.85-40.02,15.69-40.02,15.69
			S233.51,175.16,257.84,173.59z"/>
		<g>
			<g>
				<path class="st29" d="M265.55,172.02c0,0,9.02,4.9,12.75,11.18c3.73,6.28,3.92,11.97,9.42,16.09c5.49,4.12,8.3,5.3,8.43,10.66
					s-3.27,15.43-3.66,22.36c-0.39,6.93,0.39,8.76-4.05,10.72c-4.45,1.96-15.82,1.96-17.52,1.44c-1.7-0.52-3.14-0.92-3.14-0.92
					s-7.32,0.78-9.15,0c-1.83-0.78-2.09-2.75-1.96-4.18s1.05-2.88,4.97-3.27c3.92-0.39,6.41,0.65,12.16-3.53s6.93-12.16,7.98-17.13
					c1.05-4.97,0.13-6.02-2.22-7.72c-2.35-1.7-35.05-19.75-41.32-32.69C231.94,162.08,255.88,163.13,265.55,172.02z"/>
				<path class="st29" d="M272.75,238c0,0-5.1-0.85-5.88,4.38c0,0,3.66-0.85,5.88-0.59C274.97,242.05,274.18,238.98,272.75,238z"/>
				<path class="st29" d="M259.7,240.28c1.14-1.53-0.07-2.22-1.7-2.81c-1.63-0.59-6.21,0.59-8.04,4.51
					C249.96,241.98,256.76,244.21,259.7,240.28z"/>
			</g>
		</g>
		<path class="st30" d="M133.73,73.21c14.98-7.69,42.97-14.93,80.29-10.4c37.32,4.52,45.46,9.05,51.57,11.31
			c6.11,2.26,29.63,5.2,43.2,14.93c13.57,9.73,84.82,6.41,120.1,6.41c35.28,0,68.92,22.56,84,40.96
			c15.08,18.4,26.98,22.07,27.88,25.69c0.9,3.62-27.68-8.45-40.95-19.3c-18.01-14.74-31.12-21.89-68.52-20.81
			c-31.36,0.9-55.19,15.08-90.77,15.68c-35.59,0.6-40.71,7.54-58.51,8.14c-17.79,0.6-39.81,0.9-64.84-2.71
			c-25.03-3.62-45.54-3.02-67.55-11.16c-22.01-8.14-27.44-21.41-27.44-32.57C122.2,88.21,128.15,76.07,133.73,73.21z"/>
		<path class="st30" d="M138.71,71.62c0,0-9.05,3.17-14.02,0.23c-4.98-2.94-15.46-16.66-27.82-20.58
			c-12.36-3.92-33.93,6.18-36.79,6.63c-2.87,0.45-16.74,6.33-22.01,7.39c-5.28,1.06-17.49,5.58-21.71,5.58s-10.25,0-14.02,4.22
			s-1.96,7.24-1.36,7.99s8.44-1.96,12.06-0.75c3.62,1.21,8.29,2.56,16.44-0.3c8.14-2.86,26.39-7.99,31.97-0.45
			c5.58,7.54-11.76,26.24-18.09,32.42c-6.33,6.18-14.78,9.65-16.44,12.06c-1.66,2.41,4.37,5.13,9.2,3.77
			c4.82-1.36,14.78-11.76,20.96-15.53c6.18-3.77,15.38-10.86,20.21-14.63c4.82-3.77,17.04-3.62,22.32,0.6
			c5.28,4.22,12.21,16.44,30.76,17.34C148.89,118.52,148.74,72.98,138.71,71.62z"/>
		<g>
			<path class="st32" d="M520.84,145.14c-1.37,1.93-2.83,3.88-4.25,5.51c-0.48,0.55-1.05,1.21-1.62,1.93
				c2.4,1.31,4.83,2.54,7.18,3.68c0.27-0.31,0.5-0.68,0.66-1.08c0.73-1.77,1.37-4.14,1.76-6.53
				C523.37,147.58,522.13,146.41,520.84,145.14z"/>
			<path class="st32" d="M510.05,147.78c0.21-0.28,0.42-0.55,0.56-0.89c1.16-2.81,2.08-7.14,2.17-10.63
				c-0.65-0.8-1.34-1.61-2.07-2.42c-1.82,2.72-4.06,5.9-6.21,8.39c-1.73-1.62-3.48-3.17-5.24-4.61c0.31-0.34,0.57-0.73,0.75-1.18
				c1.2-2.91,2.13-7.43,2.17-10.99c-0.71-0.63-1.45-1.25-2.2-1.88c-1.84,2.73-4.07,5.91-6.2,8.35c-0.25,0.29-0.53,0.61-0.82,0.95
				c-2.18-1.51-4.37-2.91-6.57-4.18c0.47-0.42,0.87-0.93,1.12-1.54c1.24-3,2.2-7.71,2.18-11.31c-0.74-0.51-1.49-1-2.25-1.49
				c-1.82,2.72-4.04,5.86-6.15,8.29c-0.57,0.65-1.28,1.47-1.95,2.35c-2.2-1.04-4.41-1.98-6.63-2.82c0.4-0.38,0.74-0.83,0.96-1.37
				c1.32-3.19,2.3-8.44,1.98-11.9c-0.09-0.96-1.25-1.32-1.8-0.49c-1.76,2.63-3.95,5.76-6.03,8.15c-0.73,0.84-1.71,1.96-2.52,3.15
				c-3.13-0.9-6.25-1.62-9.36-2.19c0.02-0.04,0.04-0.07,0.06-0.11c1.4-3.39,2.45-8.97,2.11-12.66c-0.09-1.02-1.33-1.4-1.92-0.52
				c-1.87,2.8-4.2,6.12-6.42,8.67c-0.79,0.91-1.84,2.11-2.7,3.39c-3.48-0.34-6.93-0.5-10.33-0.53c0.28-1.96,0.28-4.45,0.64-5.75
				c0.49-1.8,2-6.14,1.15-7.87c-0.17-0.35-3.41,3.66-4.15,4.98c-0.91,1.65-2.14,3.03-3.23,4.56c-0.7,0.99-1.72,2.62-2.45,4.25
				c-4.33,0.22-8.53,0.64-12.59,1.17c1.31-4.01,2.18-9.42,1.83-13.19c-0.11-1.21-1.58-1.67-2.28-0.62c-2.23,3.33-5,7.28-7.63,10.31
				c-1.23,1.41-2.98,3.44-4.08,5.46c-3.24,0.61-6.33,1.25-9.25,1.87c1.93-4.99,2.19-11.15,2.13-15.59
				c-0.04-2.96-4.14-3.41-5.04-0.68c-1.24,3.74-4.03,7.67-5.82,11.11c-1.21,2.33-3.99,5.27-5.4,8.09c-0.69,0.12-1.36,0.24-2.01,0.33
				c-1.28,0.19-2.61,0.38-3.97,0.55c1.79-4.37,2.68-12.45-0.82-14.2c-2.9-1.45-7.61,4.89-9.15,7.84c-1.16,2.23-3.71,5.16-4.63,7.84
				c-2.44,0.19-4.94,0.37-7.46,0.53c1.22-4.47,1.42-10.51-1.56-12c-2.9-1.45-7.61,4.89-9.15,7.84c-0.75,1.43-2.06,3.15-3.16,4.91
				c-18.65,0.85-36.92,1.17-46.79,1.91c-17.43,1.31-57.5,0.44-90.18-3.49c-30.34-3.64-48.66-13.67-59.84-16.82
				c-0.86-0.24-1.68-0.44-2.46-0.6c-4.37-0.87-10.7-3.85-17.16-7.49c-9.65-5.45-22.66-5.85-26.84-9.5
				c-2.87-2.51-9.04-4.27-12.23-7.01c-4.55-3.91-8.35-7.15-8.35-7.15l-12.31,8.14c-0.32,8.79-13.77,23.2-19.18,28.48
				c-6.33,6.19-14.78,9.65-16.44,12.07c-1.66,2.41,4.37,5.12,9.2,3.76c4.83-1.35,14.78-11.76,20.96-15.53
				c6.18-3.77,15.38-10.86,20.21-14.63c4.82-3.77,17.03-3.62,22.31,0.6c5.07,4.05,11.66,15.47,28.57,17.17
				c4.16,5.48,10.92,10.58,21.49,14.5c22.01,8.14,42.52,7.54,67.55,11.15c25.03,3.62,47.04,3.32,64.83,2.72
				c17.79-0.61,22.92-7.55,58.51-8.15c35.58-0.6,59.41-14.78,90.77-15.68c21.62-0.62,35.11,1.51,46.14,6.26
				c1.5,0.65,2.95,1.34,4.38,2.08c0,0,0,0,0,0c3.09,1.62,6.04,3.47,8.98,5.53c1.6,1.13,3.22,2.33,4.85,3.6h0
				c1.37,1.07,2.76,2.18,4.18,3.34c0.8,0.65,1.67,1.31,2.57,1.97c0,0-0.01,0.01-0.01,0.01c0.09,0.07,0.2,0.14,0.29,0.2
				c0.33,0.24,0.69,0.48,1.04,0.72c0.71,0.49,1.41,0.99,2.16,1.48c0.4,0.26,0.82,0.52,1.23,0.79c0.54,0.35,1.07,0.69,1.63,1.04
				c0.01,0,0.01-0.01,0.02-0.01c1.58,0.97,3.19,1.92,4.85,2.85c-0.27-0.35-0.56-0.7-0.85-1.05
				C511.86,149.75,510.95,148.76,510.05,147.78z"/>
		</g>
		<path class="st33" d="M166.14,116.43c-0.36-0.42-0.95,0.04-0.85,0.5c0.66,3.26,0.85,6.41,0.76,9.74
			c-0.09,3.21-0.87,6.59-0.49,9.76c0.03,0.27,0.39,0.43,0.55,0.15c1.92-3.28,1.98-7.71,1.98-11.43
			C168.09,122.17,168.15,118.79,166.14,116.43z"/>
		<path class="st34" d="M61.07,91c1.63-3.74,2.08-7.11,0.37-9.43c-1.26-1.71-3.19-2.77-5.49-3.35l11.58,1.11l7.3-1.96
			C74.54,77.73,64,88.12,61.07,91z"/>
		<path class="st30" d="M233.87,108.41c-0.46,0.73-17.74,40.28-11.57,53.33c6.17,13.04,48.24-10.63,57.5-19.13
			c7.69-7.06,4.95-32.22-7.38-41.92C264.19,94.21,241.91,95.74,233.87,108.41z"/>
		<path class="st30" d="M244.89,159.86c0,0,11.28,14.77,9.51,25.33c-1.77,10.56-5.05,16.53-2.58,23.75
			c2.47,7.22,4.89,9.18,1.5,15.66c-3.39,6.48-6.37,18.57-7.52,23.79c-1.15,5.23-20.01,6.86-22.44,6.44
			c-2.43-0.42-13.05-0.25-13.2-1.6c-0.14-1.35,14.73-6.39,18.82-11.08c4.09-4.69,11.79-20.31,9.03-28.69
			c-2.76-8.38-21.57-44.48-15.01-57.94C229.58,142.08,245.01,157.81,244.89,159.86z"/>
		<path class="st29" d="M226.08,254.03c1.14-1.53-0.07-2.22-1.7-2.81c-1.63-0.59-6.21,0.59-8.04,4.51
			C216.34,255.73,223.14,257.96,226.08,254.03z"/>
		<path class="st29" d="M214.99,252.36c0.97-1.29-0.06-1.88-1.44-2.38c-1.38-0.5-5.26,0.5-6.81,3.82
			C206.74,253.8,212.5,255.68,214.99,252.36z"/>
		<path class="st35" d="M161.93,40.56c-0.07-0.71-1.03-0.71-1.1,0c-0.76,6.88-0.46,14.42,0.92,21.2c0.09,0.44,0.73,0.31,0.75-0.1
			C162.83,54.74,162.59,47.46,161.93,40.56z"/>
		<path class="st35" d="M177.65,26.08c-0.04-0.84-1.43-1.14-1.55-0.21c-0.77,5.64-0.66,11.44-0.88,17.12
			c-0.24,6.21-0.57,12.48-0.29,18.69c0.03,0.56,0.78,0.53,0.85,0c0.76-5.89,0.98-11.87,1.25-17.8
			C177.29,37.99,177.94,31.96,177.65,26.08z"/>
		<path class="st35" d="M192.05,10.41c-0.02-0.36-0.59-0.49-0.67-0.09c-1.39,7.43-1.42,15.2-1.87,22.73
			c-0.49,8.12-0.86,16.25-1.16,24.38c-0.03,0.84,1.24,0.83,1.3,0c0.61-7.83,1.17-15.67,1.6-23.51
			C191.68,26.16,192.59,18.19,192.05,10.41z"/>
		<path class="st35" d="M209.93,4.73c-0.04-0.65-1.03-0.86-1.19-0.16c-1.91,8.18-1.77,17.18-2.47,25.54
			c-0.76,9.04-1.29,18.08-1.89,27.13c-0.04,0.68,0.98,0.66,1.05,0c0.9-8.75,1.85-17.49,2.61-26.25
			C208.77,22.42,210.46,13.31,209.93,4.73z"/>
		<path class="st35" d="M227.41,2.97c-2,9.19-2.31,18.78-3.52,28.1c-1.23,9.39-2.81,18.73-4.08,28.12c-0.1,0.72,0.95,1.01,1.13,0.27
			c2.25-9.48,3.73-19.14,5.06-28.79c1.24-9.04,2.92-18.44,2.5-27.59C228.47,2.47,227.55,2.35,227.41,2.97z"/>
		<path class="st35" d="M248.51,6.52c-3.39,9.09-5.74,18.57-7.98,28.02c-2.11,8.89-4.49,17.97-5.3,27.1
			c-0.08,0.91,1.31,1.04,1.55,0.21c2.63-9.01,4.13-18.38,6.36-27.5c2.24-9.15,4.9-18.21,6.95-27.39
			C250.32,5.91,248.87,5.54,248.51,6.52z"/>
		<path class="st35" d="M266.31,19.13c-6.56,14.89-11.78,30.96-16.28,46.59c-0.26,0.9,1.03,1.2,1.36,0.38
			c6.05-15.04,11.84-30.87,15.82-46.59C267.35,18.99,266.54,18.6,266.31,19.13z"/>
		<path class="st35" d="M281.17,35.22c-6.23,10.46-11.48,22.71-14.83,34.42c-0.27,0.96,1.2,1.64,1.65,0.7
			c5.31-11.13,10.2-23.02,14.16-34.7C282.35,35.05,281.47,34.71,281.17,35.22z"/>
		<path class="st35" d="M293.94,53.28c-4.98,6.82-8,14.23-10.96,22.1c-0.31,0.83,1.03,1.39,1.44,0.61
			c3.91-7.52,7.89-14.19,10.96-22.1C295.72,52.99,294.42,52.61,293.94,53.28z"/>
		<path class="st35" d="M305.8,69.08c-2.54,3.92-4.72,8.35-6.57,12.64c-0.48,1.1,0.97,2.03,1.65,0.96
			c2.54-3.98,4.66-8.67,5.66-13.29C306.64,68.95,306.06,68.69,305.8,69.08z"/>
		<path class="st35" d="M315.98,81.92c-1.7,2.24-3.06,4.63-4.07,7.26c-0.39,1.03,1.12,1.51,1.68,0.71c1.59-2.3,2.76-4.8,3.63-7.44
			C317.48,81.65,316.41,81.35,315.98,81.92z"/>
		<g>
			<path class="st2" d="M68.1,64c0.1,2.48-0.75,4.53-1.91,4.58c-1.16,0.05-2.18-1.92-2.29-4.4s0.75-4.53,1.91-4.58
				C66.97,59.55,67.99,61.52,68.1,64z"/>
			<path class="st3" d="M67.43,61.43c0.03,0.63-0.46,1.16-1.09,1.18c-0.63,0.03-1.16-0.46-1.18-1.09c-0.03-0.63,0.46-1.16,1.09-1.18
				C66.87,60.31,67.4,60.8,67.43,61.43z"/>
		</g>
		<path class="st2" d="M62.55,57.74c0.34-1.43,1.63-2.59,3.08-2.82c1.31-0.21,3.22,0.25,3.72,1.63c0.07,0.2-0.13,0.41-0.33,0.36
			c-1.03-0.28-1.82-0.89-2.97-0.77c-1.31,0.14-2.18,0.9-2.97,1.88C62.88,58.26,62.49,58.03,62.55,57.74z"/>
		<path class="st36" d="M235.03,110.56c-4.29,3.37-6.28,10.2-7.9,15.24c-1.82,5.68-3.64,12.21-2.96,18.22
			c0.09,0.85,1.28,1.12,1.55,0.21c1.65-5.57,2.19-11.37,4.01-16.93c1.76-5.36,5.52-10.58,6.39-16.11
			C236.23,110.53,235.56,110.14,235.03,110.56z"/>
		<path class="st36" d="M241.98,104.55c-0.39-0.5-1.1-0.67-1.67-0.33c-0.66,0.4-1.35,0.86-1.86,1.44c-0.52,0.59-1.16,1.34-1.27,2.14
			c-0.07,0.5,0.01,0.96,0.44,1.29c0.35,0.26,0.97,0.39,1.36,0.1c0.58-0.44,0.95-1.03,1.44-1.55c0.46-0.49,0.92-0.97,1.45-1.38
			C242.38,105.86,242.34,105,241.98,104.55z"/>
		<path class="st33" d="M281.82,115.33c-0.57-0.49-1.66-0.04-1.37,0.79c3.7,10.52-0.05,20.35-5.76,29.33
			c-0.59,0.93,1.48,0.51,2.25-0.22c4.47-4.27,6.37-8.83,7.41-14.87C285.16,125.65,285.8,118.77,281.82,115.33z"/>
		<path class="st2" d="M22.29,72.82c-0.59,0.21-1.12,0.36-1.69,0.65c-0.5,0.27-0.99,0.55-1.45,0.89c-0.41,0.3-0.01,0.9,0.4,0.79
			c0.58-0.16,1.13-0.4,1.69-0.65c0.54-0.24,0.95-0.58,1.45-0.9C23.1,73.35,22.7,72.68,22.29,72.82z"/>
		<g>
			<path class="st37" d="M209.54,77.95c-5.09-2.45-12.31-0.43-17.64,0.5c-2.91,0.51-1.9,4.58,0.65,4.82
				c5.05,0.47,12.39,1.86,16.99-0.83C211.12,81.52,211.34,78.82,209.54,77.95z"/>
			<path class="st37" d="M255.71,83.96c-3.38-4.78-11.36-2.25-15.83-0.41c-1.57,0.65-2.66,1.9-2.41,3.7
				c0.21,1.53,1.63,3.07,3.31,2.92c2.44-0.21,4.91-0.29,7.36-0.32c2.34-0.03,5.48-0.1,7.08-2.03
				C256.06,86.8,256.57,85.17,255.71,83.96z"/>
			<path class="st37" d="M233.28,70.7c-3.91-1.57-8.87-1.54-12.7,0.14c-3.37,1.48-2.47,7.26,1.04,7.94
				c1.69,0.33,3.38,0.38,5.09,0.53c1.37,0.12,2.65,0.47,4.01,0.7C236.89,81.08,239.03,73.02,233.28,70.7z"/>
			<path class="st37" d="M185.46,67.65c-0.78-0.18-1.53-0.38-2.33-0.4c-0.73-0.02-1.46,0-2.19,0c-2.65,0-2.65,4.12,0,4.12
				c0.73,0,1.46,0.02,2.19,0c0.8-0.03,1.56-0.22,2.33-0.4C187.1,70.6,187.1,68.03,185.46,67.65z"/>
			<path class="st37" d="M284.74,87.53c-1.3-0.34-2.55-0.67-3.9-0.72c-2.29-0.09-4.23,1.82-4.52,3.99
				c-0.13,0.98-0.01,2.08,0.55,2.94c0.69,1.06,1.57,1.66,2.75,2.12c0.86,0.33,1.77,0.42,2.68,0.55c1.27,0.19,2.4,0.21,3.55-0.46
				c0.96-0.56,1.87-1.65,2.12-2.75C288.51,90.78,287.23,88.19,284.74,87.53z"/>
			<path class="st37" d="M167.34,75.66c-1.18-0.77-2.7-0.93-4.08-0.79c-0.5,0.05-1,0.1-1.5,0.17c-0.73,0.1-1.46,0.4-2.07,0.86
				c-1.67,0.89-2.05,3.1-1.36,4.76c0.41,1.33,1.7,2.12,2.89,2.7c1.65,0.79,3.15,1.23,5.01,0.8c1.78-0.42,3.09-2.12,3.33-3.86
				C169.81,78.39,168.92,76.7,167.34,75.66z"/>
			<g>
				<path class="st37" d="M135.08,85.14L135.08,85.14C135.07,85.14,135.07,85.14,135.08,85.14
					C135.07,85.14,135.07,85.14,135.08,85.14z"/>
				<path class="st37" d="M136.96,80.28c-1.13-1.05-2.68-1.85-4.24-1.31c-1.21,0.42-2.21,1.28-2.86,2.37
					c-1.19,2,0.72,4.36,2.89,3.92c0.05,0.01,0.1,0.03,0.15,0.04c0.78,0.18,1.46,0.1,2.16-0.17h0h0c0.03-0.01,0.05-0.02,0.08-0.03
					c-0.03,0.01-0.05,0.02-0.07,0.03c1.1-0.11,2.03-0.68,2.47-1.73C137.98,82.38,137.8,81.06,136.96,80.28z"/>
				<path class="st37" d="M135.2,85.13c-0.05,0-0.08,0.01-0.12,0.01C134.97,85.18,135,85.19,135.2,85.13z"/>
			</g>
			<path class="st37" d="M182.98,87.6c-0.54-0.58-1.12-1.04-1.91-1.26c-0.6-0.17-1.25-0.16-1.87-0.18
				c-1.82-0.07-3.56,1.65-3.48,3.48c0.04,0.9,0.34,1.83,1.02,2.46c0.67,0.61,1.53,1.06,2.46,1.02c0.62-0.02,1.27-0.01,1.87-0.18
				c0.79-0.22,1.37-0.68,1.91-1.26C184.07,90.51,184.07,88.78,182.98,87.6z"/>
			<path class="st37" d="M224.12,89.72c-1-0.91-2.07-1.28-3.41-1.41c-1.1-0.11-2.42,0.05-3.4,0.46c-0.19,0.07-0.37,0.16-0.56,0.25
				c-0.28,0.11-0.56,0.22-0.84,0.32c-1.57,0.61-2.97,1.95-2.89,3.79c0.08,1.86,1.2,3.13,2.89,3.79c0.28,0.11,0.56,0.22,0.84,0.32
				c0.19,0.09,0.37,0.17,0.56,0.25c0.97,0.41,2.31,0.57,3.4,0.46c1.31-0.13,2.45-0.45,3.41-1.41c0.84-0.84,1.47-2.21,1.41-3.41
				C225.47,91.88,225.06,90.59,224.12,89.72z"/>
			<path class="st37" d="M271.94,80c-1.62-1.14-3.77-1-5.5-0.2c-1.22,0.56-1.28,2.37-0.42,3.23c1.37,1.36,3.45,2.01,5.33,1.49
				c0.95-0.26,1.64-1.09,1.77-2.06C273.26,81.43,272.77,80.59,271.94,80z"/>
			<path class="st37" d="M267.38,96.5c-0.3-0.97-0.81-1.74-1.74-2.2c-0.47-0.23-0.94-0.46-1.4-0.68c-0.65-0.32-1.33-0.47-2.05-0.27
				c-0.62,0.17-1.28,0.65-1.59,1.22c-0.65,1.23-0.36,2.94,0.95,3.64c0.46,0.24,0.92,0.49,1.37,0.73c0.53,0.28,1.05,0.49,1.66,0.53
				c0.43,0.03,0.82-0.08,1.21-0.21C266.94,98.87,267.75,97.72,267.38,96.5z"/>
			<path class="st37" d="M313.31,95.87c-0.84-1.19-1.63-2.05-3.11-2.33c-1.03-0.19-2.13-0.26-3.18-0.23
				c-2.07,0.05-4.35,0.38-6.22,1.27c-1.98,0.94-1.98,4.3,0,5.24c1.86,0.88,4.16,1.21,6.22,1.27c0.9,0.02,1.79-0.06,2.68-0.17
				c1.77-0.21,2.62-1,3.6-2.4C313.81,97.82,313.81,96.57,313.31,95.87z"/>
			<path class="st37" d="M114.06,72.19c-0.58-1.37-2.2-2.3-3.69-1.81c-0.03,0.01-0.06,0.02-0.1,0.03c-0.99,0.33-1.98,1.1-2.19,2.19
				c-0.18,0.91-0.18,1.85,0.34,2.66c0.31,0.48,0.71,0.83,1.24,1.06c0.38,0.16,0.88,0.27,1.32,0.21c0.64,0.03,1.18-0.14,1.8-0.43
				c0.65-0.31,1.28-1.19,1.44-1.87C114.38,73.53,114.34,72.86,114.06,72.19z"/>
			<path class="st37" d="M105.47,58.46c-0.54-0.49-1.12-0.73-1.81-0.84c0.04,0.01,0.08,0.01,0.12,0.02
				c-0.74-0.12-1.46-0.28-2.22-0.38c0.27,0.04,0.53,0.07,0.8,0.11c-0.18-0.03-0.35-0.06-0.53-0.1c-1.41-0.32-2.83,0.31-3.4,1.67
				c-0.24,0.57-0.34,1.27-0.15,1.88c0.25,0.76,0.7,1.24,1.32,1.72c1.09,0.84,2.36,1.12,3.72,1.1c1.59-0.02,3.11-1.39,3.04-3.04
				C106.32,59.82,106.06,59,105.47,58.46z"/>
			<path class="st37" d="M89.58,55.88c-0.33-0.01-0.66-0.02-1-0.03c-1.27-0.04-2.49,1.15-2.43,2.43c0.06,1.28,1.07,2.48,2.43,2.43
				c0.33-0.01,0.66-0.02,1-0.03c1.25-0.04,2.46-1.07,2.4-2.4C91.92,56.94,90.92,55.92,89.58,55.88z"/>
			<path class="st37" d="M151.91,71.81c-1.27-1.26-3.19-0.85-4.7-0.32c-1.1,0.38-1.82,1.36-1.66,2.55c0.17,1.24,1.11,1.86,2.28,2.01
				c0.75,0.1,1.33,0.13,2.09,0.01c0.26-0.04,0.54-0.07,0.79-0.13c0.71-0.19,1.18-0.66,1.57-1.25
				C152.85,73.8,152.63,72.52,151.91,71.81z"/>
			<path class="st37" d="M256.26,74.67c-0.11-0.15-0.21-0.29-0.32-0.44c-0.38-0.52-0.85-0.87-1.52-0.87c-0.62,0-1.21,0.34-1.52,0.87
				c-0.67,1.14,0.18,2.67,1.52,2.65c0.19,0,0.39-0.01,0.58-0.01C256.01,76.86,256.94,75.61,256.26,74.67z"/>
			<path class="st37" d="M207.17,66.47c-0.58-0.38-1.29-0.54-1.98-0.33c-0.35,0.11-0.7,0.22-1.06,0.32
				c-1.22,0.37-2.11,1.72-1.7,2.99c0.42,1.29,1.67,2.01,2.99,1.7c0.36-0.09,0.72-0.17,1.08-0.26c0.7-0.17,1.23-0.67,1.53-1.28
				C209.36,68.68,208.8,66.6,207.17,66.47z"/>
		</g>
		<g>
			<path class="st33" d="M244.2,118.14c-0.21-0.7-0.96-0.97-1.59-0.65c-0.99,0.51-1.57,1.66-2.04,2.61
				c-0.48,0.96-1.38,2.1-1.01,3.21c0.15,0.46,0.61,0.92,1.14,0.87c1.35-0.12,2.02-1.38,2.65-2.46
				C243.96,120.69,244.57,119.35,244.2,118.14z"/>
			<path class="st33" d="M251,117.91c-0.07-0.28-0.38-0.52-0.67-0.51c-0.69,0.03-1.12,0.71-1.56,1.17c-0.39,0.42-0.36,1.08,0.1,1.43
				c0.45,0.35,1.11,0.23,1.41-0.27C250.61,119.18,251.16,118.58,251,117.91z"/>
			<path class="st33" d="M246.04,125.41c-0.14,0.15-0.29,0.29-0.43,0.44c-0.44,0.44-0.34,1.2,0.19,1.51
				c0.49,0.29,1.32,0.05,1.41-0.57l0.09-0.64C247.41,125.45,246.62,124.83,246.04,125.41z"/>
			<path class="st33" d="M239.15,131.35c-0.5-0.2-1.07-0.03-1.35,0.44c-0.35,0.58-0.78,1-1.18,1.54c-0.43,0.59-0.63,1.18-0.83,1.87
				c-0.31,1.04,0.91,1.97,1.83,1.41c0.73-0.45,1.29-0.94,1.65-1.73c0.31-0.68,0.4-1.51,0.51-2.25
				C239.85,132.09,239.69,131.56,239.15,131.35z"/>
			<path class="st33" d="M247.64,132.09c-0.59,0.34-1.03,0.76-1.44,1.3c-0.4,0.53-0.57,1.21-0.67,1.85
				c-0.09,0.53,0.09,1.06,0.63,1.28c0.48,0.19,1.09,0.04,1.35-0.44c0.24-0.45,0.57-0.82,0.83-1.25c0.25-0.42,0.52-0.84,0.79-1.25
				C249.75,132.65,248.54,131.57,247.64,132.09z"/>
			<path class="st33" d="M254.59,127.9c-0.49-0.49-1.52-0.46-1.83,0.24c-0.21,0.46-0.3,0.75-0.21,1.26c0.05,0.24,0.3,0.5,0.54,0.54
				c0.51,0.1,0.8,0,1.26-0.21C255.05,129.42,255.08,128.39,254.59,127.9z"/>
		</g>
		<g>
			<path class="st30" d="M166.3,124.7c-0.08,0.39-0.82,17.05-3.06,20.77c-2.24,3.72-8.42,1.43-10.56-2.3
				c-2.14-3.73-2.18-10.48-4.58-17.2s-0.68-17.19,6.71-16.5C162.2,110.16,168.16,115.25,166.3,124.7z"/>
			<path class="st30" d="M159.6,141.68c-1.03-3.01-7.57-5.03-16.2-3.54c-8.63,1.49-19.78,5.43-24.59,7.81
				c-4.82,2.38-8.89,3.36-13.1,9.89c-4.2,6.53,1.01,10.83,1.01,10.83s-0.64-5.58,3.83-9.12c4.47-3.54,9.86-6.8,10.94-5.32
				c1.08,1.48,0.62,0.25,0.62,0.25s-3.36,6.92-3.35,12.25c0.01,5.33,5.52,4.8,5.52,4.8s-2.96-2.69-1.38-6.37
				c1.58-3.68,4.58-7.85,6.56-10.18c1.97-2.33,2.27-4.02,5.52-3.96c3.25,0.06,21.4,1.94,26.6-2.17
				C164.38,144.64,159.6,141.68,159.6,141.68z"/>
			<path class="st36" d="M151.82,110.7c0.39-0.6-0.43-1.08-0.91-0.71c-6.17,4.81-2.75,17.26,0.3,22.85
				c0.21,0.39,0.78,0.12,0.69-0.29C150.31,125.59,147.61,117.24,151.82,110.7z"/>
			<path class="st36" d="M155.72,109.26c-0.31-0.05-0.6-0.12-0.92-0.07c-0.27,0.04-0.54,0.09-0.8,0.15
				c-0.91,0.17-0.71,1.68,0.22,1.62c0.27-0.02,0.54-0.03,0.82-0.06c0.31-0.03,0.58-0.18,0.86-0.3
				C156.46,110.37,156.32,109.36,155.72,109.26z"/>
		</g>
		<g>
			<path class="st38" d="M203.11,29.68c-0.86-0.44-1.72-0.71-2.66-0.35c-1.93,0.74-2.69,2.23-2.41,4.25
				c0.42,3.06-0.6,6.37,0.63,9.31c0.69,1.66,3.04,2.36,4.07,0.53c1.67-2.96,1.13-6.62,1.96-9.84
				C205.06,32.16,204.47,30.38,203.11,29.68z"/>
			<path class="st38" d="M218.46,44.25c-0.44-0.96-1.64-1.22-2.56-1.04c-1.71,0.32-2.15,2.35-1.8,3.78c0.3,1.2,1.72,2.04,2.91,1.65
				c1.13-0.37,1.82-1.4,1.71-2.55C218.87,45.44,218.75,44.86,218.46,44.25z"/>
			<path class="st38" d="M239.75,27.26c-0.38-0.97-1.31-1.7-2.41-1.37c-3.91,1.17-3.6,7.26-2.55,10.26
				c0.73,2.08,3.95,1.83,3.96-0.54c0-1.36,0.19-2.8,0.52-4.12C239.59,30.16,240.27,28.6,239.75,27.26z"/>
			<path class="st38" d="M255.94,42.45c-0.02-0.22-0.01-0.42-0.01-0.64c0.01-0.68-0.22-1.26-0.62-1.79c0.08,0.1,0.15,0.18,0.02-0.01
				c-0.27-0.4-0.62-0.71-1.09-0.82c-0.8-0.2-1.69-0.05-2.34,0.45c-0.71,0.54-1.12,1.35-1.29,2.22c-0.18,0.94-0.05,1.96,0.7,2.65
				c0.53,0.49,1.19,0.8,1.93,0.8c0.7,0,1.43-0.3,1.93-0.8c0.67-0.67,0.83-1.48,0.74-2.35L255.94,42.45z"/>
			<path class="st38" d="M266.57,57.43c-0.47-0.97-1.91-1.05-2.61-0.34c-0.66,0.67-0.83,1.44-1.19,2.26
				c-0.34,0.76-0.73,1.51-1.17,2.21c-0.62,0.98-0.2,2.37,0.77,2.94c1.04,0.61,2.32,0.21,2.94-0.77
				C266.43,61.98,267.53,59.45,266.57,57.43z"/>
			<path class="st38" d="M285.5,56.35c-0.18-1.2-1.73-1.57-2.64-1.07c-0.88,0.47-1.7,1.12-2.15,2.02c-0.59,1.19-0.36,2.8,0.91,3.46
				c1.14,0.6,2.84,0.36,3.46-0.91c0.17-0.34,0.36-0.68,0.46-1.05c0.09-0.36,0.09-0.68,0.09-1.03
				C285.64,57.3,285.57,56.83,285.5,56.35z"/>
			<path class="st38" d="M184.77,42.23c-0.42-2.67-0.45-5.43-1.2-8.03c-0.47-1.62-3.02-2.19-3.83-0.5
				c-1.65,3.45-1.01,7.06,0.45,10.46c0.49,1.14,2.1,1.46,3.13,1.02C184.55,44.67,184.96,43.48,184.77,42.23z"/>
			<path class="st38" d="M172.58,51.23c-0.03-0.22-0.06-0.45-0.09-0.67c-0.07-0.49-0.49-0.96-0.85-1.24
				c-0.4-0.31-0.92-0.53-1.44-0.51c-0.42,0.02-0.83,0.13-1.2,0.33c-0.45,0.24-1.02,0.9-1.09,1.42c-0.03,0.22-0.06,0.45-0.09,0.67
				c-0.12,0.88-0.07,1.76,0.64,2.41c0.48,0.44,1.08,0.73,1.75,0.73c0.64,0,1.3-0.28,1.75-0.73
				C172.63,52.95,172.71,52.14,172.58,51.23z"/>
			<path class="st38" d="M148.99,59.68c-0.06,0-0.06,0.09,0,0.09C149.05,59.77,149.05,59.68,148.99,59.68z"/>
			<path class="st38" d="M258.76,21.52c0,0,0,0.01,0.01,0.01c-0.06-0.24-0.13-0.48-0.19-0.71c-0.33-1.21-1.9-1.62-2.78-0.74
				c-0.16,0.16-0.32,0.32-0.48,0.48c-0.51,0.4-0.84,0.96-0.84,1.69c0,0.94,0.69,1.94,1.64,2.15c0.89,0.2,1.79-0.07,2.35-0.8
				C258.97,22.94,259.02,22.2,258.76,21.52z"/>
			<path class="st38" d="M298.56,71.1c-0.32-0.74-0.89-1.31-1.76-1.31c-0.68,0-1.32,0.41-1.64,1c-0.51,0.39-0.82,0.91-1.18,1.51
				c-0.03,0.06-0.07,0.12-0.1,0.17c-0.05,0.05-0.1,0.1-0.15,0.15c-1.14,0.77-1.72,2.38-0.92,3.62c0.79,1.22,2.35,1.7,3.65,0.96
				c0.88-0.5,1.63-1.22,2.17-2.08c0.25-0.39,0.43-0.87,0.55-1.32C299.44,72.73,299.21,71.87,298.56,71.1z"/>
			<path class="st38" d="M232.99,51.49c-0.71-0.64-1.52-0.94-2.48-0.81c-0.98,0.13-1.58,0.64-2.15,1.41
				c-0.46,0.62-0.58,1.44-0.66,2.18c-0.01,0.06-0.01,0.12-0.02,0.18c-0.09,0.33-0.08,0.76-0.11,1.09c-0.15,1.66,1.14,3.94,3.08,3.77
				c1.06-0.1,1.93-0.38,2.62-1.27c0.62-0.8,0.84-1.62,0.93-2.61C234.32,54.04,234.06,52.46,232.99,51.49z"/>
			<path class="st38" d="M215.79,21c-1.27,0-2.48,1.11-2.42,2.42c0.06,1.31,1.06,2.42,2.42,2.42c1.27,0,2.48-1.11,2.42-2.42
				C218.15,22.11,217.15,21,215.79,21z"/>
			<path class="st38" d="M187.1,53.59c-0.64-0.84-1.37-1.15-2.42-0.98c-1.23,0.2-1.91,1.65-2.12,2.76
				c-0.22,1.12,0.22,2.21,1.31,2.67c1.05,0.44,2.21,0.03,2.82-0.92C187.29,56.15,187.87,54.6,187.1,53.59z"/>
		</g>
	</g>
	<path id="_x30_8-silhouette" d="M523.98,148.11c-0.27-0.25-0.55-0.5-0.82-0.75c-0.58-0.54-1.17-1.1-1.77-1.68
		c-0.16-0.16-0.32-0.3-0.48-0.46c-2.53-2.49-5.22-5.4-8.01-8.81c-0.55-0.67-1.13-1.34-1.73-2.02c-0.16-0.18-0.3-0.36-0.46-0.54
		c0,0-0.01,0.01-0.01,0.01c-2.47-2.76-5.33-5.59-8.52-8.4c0,0,0,0,0-0.01c-0.26-0.23-0.54-0.46-0.8-0.69
		c-0.37-0.32-0.74-0.64-1.12-0.96c-0.09-0.08-0.18-0.16-0.28-0.24c0,0,0,0,0,0.01c-3.16-2.64-6.6-5.24-10.29-7.73c0,0,0-0.01,0-0.01
		c-0.14-0.1-0.29-0.19-0.43-0.28c-0.25-0.17-0.5-0.33-0.76-0.5c-0.35-0.23-0.71-0.47-1.06-0.71c0,0,0,0.01-0.01,0.01
		c-16.41-10.62-37.17-18.9-58.55-18.9c-24.26,0-65.53,1.57-93.35-0.61c-1.76-0.6-3.38-1.28-4.88-2.33c-1.61-1.12-3.07-2.95-4.5-4.55
		c-0.71-0.79-1.42-1.53-2.13-2.09c-1.16-0.9-2.55-1.57-3.88-2.28c-1.2-0.64-2.35-1.32-3.2-2.25c-0.95-1.03-1.56-2.5-2.2-3.93
		c-0.49-1.11-0.98-2.18-1.65-3c-1.44-1.77-3.64-2.6-5.34-4.04c-0.48-0.41-0.92-0.85-1.29-1.39c-0.27-0.38-0.47-0.83-0.66-1.29
		c-0.36-0.88-0.61-1.87-0.86-2.88c-0.23-0.92-0.46-1.84-0.78-2.71c-0.26-0.73-0.58-1.42-1.02-2.01c-0.05-0.06-0.1-0.12-0.15-0.18
		c-1.67-2.18-4.3-3.59-6.26-5.41c-0.01-0.01-0.01-0.01-0.02-0.02c0,0-0.01-0.01-0.01-0.01c-0.44-0.41-0.82-0.85-1.17-1.32
		c-0.18-0.25-0.38-0.49-0.53-0.75c-0.1-0.18-0.23-0.52-0.36-0.92c-0.66-1.99-1.71-6.24-3.19-8.2c-0.88-1.17-1.92-2.1-2.99-2.96
		c-1.64-1.3-3.37-2.4-4.87-3.69c-0.67-0.57-1.29-1.18-1.83-1.88c-1.45-1.88-2.41-4.89-4.09-7.35c-0.24-0.35-0.5-0.69-0.77-1.02
		c-2.85-3.38-6.97-5.74-9.8-8.07c-1.36-2.03-3.45-5.9-6.48-8.44c-2.86-2.4-7.62-4.19-11.2-5.43c-2.39-0.83-3.36-1.95-7.34-3.31
		c-0.1-0.03-0.21-0.07-0.31-0.1c-0.85-0.28-1.83-0.58-2.99-0.88c-1.97-0.52-7.81,0.45-10.51,0.73c-0.31,0.03-0.58,0.06-0.8,0.07
		c-0.45,0.02-0.9,0.01-1.34-0.01c-2.66-0.14-5.17-0.95-7.81-0.78c0,0,0,0,0,0c0,0,0,0,0,0c-3.09,0.2-6.37,1.73-9.16,2.6
		c-1.48,0.46-3.05,0.62-4.61,0.77c-1.76,0.17-3.5,0.33-5.08,0.92c-3.11,1.17-5.61,3.87-8.41,5.65c-2.49,1.6-6.71,2.89-8.93,4.75
		c-1.71,1.43-2.56,3.02-3.43,4.64c-0.65,1.21-1.34,2.44-2.4,3.62c-0.13,0.15-0.24,0.3-0.39,0.45c-2.66,2.7-6.53,3.49-9.05,5.99
		c-2.71,2.69-4.04,7.11-6.33,10.18c-3.06,4.09-7.39,6.72-10.95,9.65c-0.24,0.2-0.5,0.4-0.74,0.6c-0.02,0.02-0.04,0.04-0.06,0.05
		c-0.59,0.51-1.16,1.04-1.69,1.59c-0.43,0.45-0.8,0.92-1.18,1.4c-0.1,0.13-0.22,0.25-0.32,0.38c0,0,0,0,0,0c0,0,0,0,0,0
		c-5.34,7.44-8.35,14.93-11.45,19.02c-0.09,0.12-0.18,0.24-0.26,0.35c-2.94,0.47-6.62,0.59-9.2-0.94
		c-4.98-2.94-15.46-16.66-27.82-20.58c-8.33-2.64-20.81,1.08-28.96,3.93c-0.73-0.3-1.59-0.38-2.28-0.27
		c-1.18,0.19-2.23,1.01-2.77,2.08c-1.33,0.48-2.32,0.82-2.78,0.9c-2.87,0.45-16.74,6.33-22.01,7.39
		c-5.28,1.06-17.49,5.58-21.71,5.58c-4.22,0-10.25,0-14.02,4.22c-3.77,4.22-1.96,7.24-1.36,7.99c0.11,0.14,0.48,0.16,1.01,0.11
		c0.97,1.86,2.94,3.05,3.35,3.09c0.43,0.04,0.6-0.15,0.6-0.15c-0.9-0.53-1.84-2.49-2.16-3.21c0.31-0.06,0.63-0.11,0.97-0.18
		c0.92,1.99,3.05,3.28,3.47,3.32c0.43,0.04,0.6-0.15,0.6-0.15c-1.09-0.64-2.25-3.42-2.28-3.48c0.61-0.1,1.24-0.19,1.86-0.26
		c-0.04,0.08-0.06,0.15-0.06,0.15c0.89,2.05,3.09,3.38,3.52,3.42c0.43,0.04,0.6-0.15,0.6-0.15c-1.11-0.64-2.28-3.49-2.28-3.49
		c-0.04-0.02-0.06-0.03-0.1-0.05c0.71-0.03,1.39,0,2,0.09c0.91,2,3.06,3.3,3.48,3.34c0.43,0.04,0.6-0.15,0.6-0.15
		c-0.7-0.41-1.42-1.68-1.86-2.57c0.7,0.21,1.47,0.41,2.27,0.57c0.97,1.85,2.94,3.04,3.34,3.08c0.43,0.04,0.6-0.15,0.6-0.15
		c-0.71-0.41-1.44-1.73-1.88-2.62c0.61,0.06,1.25,0.09,1.93,0.09c1.13,2.45,3.75,4.04,4.27,4.09c0.53,0.05,0.74-0.19,0.74-0.19
		c-1.14-0.67-2.34-3.22-2.69-4.03c0.39-0.04,0.76-0.07,1.18-0.13c1.02,1.66,2.78,2.7,3.16,2.73c0.43,0.04,0.6-0.15,0.6-0.15
		c-0.8-0.47-1.63-2.08-2.03-2.94c0.66-0.15,1.35-0.34,2.06-0.55c1.03,1.36,2.47,2.2,2.81,2.23c0.43,0.04,0.6-0.15,0.6-0.15
		c-0.69-0.4-1.41-1.66-1.85-2.55c0.02-0.01,0.04-0.01,0.07-0.02c0.58-0.2,1.22-0.42,1.89-0.64c1,1.17,2.25,1.89,2.56,1.91
		c0.43,0.04,0.6-0.15,0.6-0.15c-0.61-0.36-1.24-1.38-1.68-2.23c0.58-0.18,1.18-0.36,1.81-0.54c1.03,1.38,2.49,2.24,2.84,2.27
		c0.43,0.04,0.6-0.15,0.6-0.15c-0.69-0.4-1.41-1.67-1.85-2.56c0.43-0.12,0.86-0.23,1.31-0.35c0.81,1.44,2.34,2.36,2.66,2.39
		c0.35,0.03,0.49-0.12,0.49-0.12c-0.73-0.43-1.49-2.02-1.76-2.61c0.62-0.15,1.24-0.28,1.88-0.42c0.79,1.08,1.94,1.76,2.21,1.78
		c0.33,0.03,0.46-0.12,0.46-0.12c-0.52-0.3-1.06-1.24-1.4-1.93c0.81-0.16,1.63-0.29,2.45-0.41c0.79,1.14,2,1.85,2.27,1.88
		c0.33,0.03,0.46-0.12,0.46-0.12c-0.52-0.31-1.07-1.26-1.41-1.94c0.79-0.1,1.58-0.17,2.35-0.23c0.78,1.29,2.15,2.11,2.44,2.14
		c0.33,0.03,0.46-0.12,0.46-0.12c-0.57-0.33-1.15-1.4-1.48-2.09c0.67-0.02,1.34-0.02,1.99,0c0.76,1.37,2.21,2.25,2.52,2.28
		c0.33,0.03,0.46-0.12,0.46-0.12c-0.57-0.33-1.15-1.4-1.48-2.09c0.54,0.05,1.06,0.13,1.58,0.22c0.73,0.85,1.63,1.37,1.86,1.39
		c0.31,0.03,0.44-0.11,0.44-0.11c-0.29-0.17-0.58-0.54-0.84-0.96c0.16,0.04,0.32,0.08,0.47,0.13c0.24,0.07,0.48,0.14,0.72,0.23
		c0.36,0.13,0.7,0.29,1.04,0.46c0.18,0.09,0.38,0.17,0.55,0.27c0.37,0.21,0.71,0.46,1.05,0.72c0.11,0.08,0.23,0.15,0.34,0.24
		c0.43,0.37,0.81,0.77,1.15,1.23c0.05,0.07,0.09,0.14,0.13,0.21c0.13,0.19,0.25,0.39,0.35,0.6c0.06,0.13,0.11,0.27,0.17,0.4
		c0.07,0.17,0.13,0.33,0.18,0.51c0.04,0.15,0.08,0.3,0.11,0.45c0.04,0.18,0.06,0.35,0.08,0.54c0.02,0.16,0.04,0.31,0.05,0.48
		c0.01,0.2,0.01,0.41,0,0.62c0,0.08,0,0.16,0,0.24c-0.02,0.47-0.08,0.96-0.18,1.46c-0.02,0.1-0.04,0.21-0.07,0.31
		c0,0.01,0,0.02-0.01,0.03c-0.04,0.16-0.09,0.33-0.13,0.5c-5.02,4.74-12.31,10.92-17.54,12.32c-8.71,2.32-15.1,3.63-14.23,6.24
		c1.12,3.35,9.58-0.87,12.49-1.6c1.71-0.43,5.12-1.82,8.7-3.39c-0.12,0.37-0.14,1.84,0.5,3.06c0,0.01-0.01,0.01-0.01,0.02
		c-0.17,0.21-0.35,0.42-0.52,0.62c-0.18,0.21-0.36,0.42-0.54,0.63c-0.38-0.65-0.89-1.63-0.85-2.24c0,0-0.19,0.03-0.34,0.31
		c-0.13,0.24-0.19,1.65,0.33,2.93c-0.09,0.1-0.18,0.21-0.27,0.31c-0.37,0.42-0.74,0.84-1.11,1.24c-0.05,0.06-0.1,0.11-0.16,0.17
		c-0.38-0.65-0.88-1.63-0.85-2.24c0,0-0.19,0.03-0.34,0.31c-0.13,0.24-0.19,1.61,0.31,2.88c-0.09,0.1-0.19,0.2-0.28,0.3
		c-0.18,0.19-0.36,0.38-0.53,0.57c-0.24,0.26-0.48,0.51-0.72,0.75c-0.42-0.75-0.87-1.71-0.84-2.34c0,0-0.22,0.03-0.4,0.37
		c-0.14,0.26-0.22,1.64,0.23,3.02c-0.19,0.2-0.39,0.4-0.57,0.58c-0.12,0.12-0.23,0.23-0.34,0.34c-0.2,0.2-0.38,0.38-0.57,0.56
		c-0.45-0.76-1.11-1.99-1.07-2.75c0,0-0.22,0.03-0.4,0.37c-0.15,0.28-0.23,1.92,0.38,3.41c-0.53,0.49-1.07,0.97-1.62,1.42
		c-0.45-0.76-1.11-2-1.07-2.76c0,0-0.22,0.03-0.4,0.37c-0.15,0.27-0.22,1.83,0.33,3.3c-0.38,0.3-0.77,0.59-1.16,0.87
		c-0.5-0.86-1.15-2.14-1.11-2.93c0,0-0.25,0.04-0.45,0.42c-0.16,0.29-0.25,1.87,0.27,3.43c-0.47,0.33-0.94,0.64-1.4,0.95
		c-0.59-1-1.43-2.59-1.38-3.56c0,0-0.29,0.04-0.53,0.49c-0.19,0.35-0.29,2.24,0.34,4.09c-0.4,0.26-0.8,0.5-1.18,0.74
		c-0.48-0.85-1.04-2-1-2.74c0,0-0.25,0.04-0.45,0.42c-0.15,0.27-0.23,1.67,0.18,3.12c-0.41,0.25-0.8,0.5-1.18,0.74
		c-0.5-0.86-1.13-2.11-1.09-2.89c0,0-0.25,0.04-0.45,0.42c-0.15,0.29-0.25,1.8,0.23,3.33c-0.39,0.26-0.75,0.51-1.07,0.75
		c-0.51-0.86-1.22-2.21-1.18-3.05c0,0-0.25,0.04-0.45,0.42c-0.17,0.31-0.25,2.09,0.39,3.74c-0.08,0.09-0.17,0.18-0.23,0.27
		c-1.22,1.77,1.71,3.7,5.27,4.06c1.29,0.13,2.65,0.07,3.94-0.29c1.02-0.29,2.29-1,3.69-1.95c5.2-3.54,12.4-10.61,17.28-13.58
		c6.18-3.77,15.38-10.86,20.21-14.63c0.3-0.24,0.63-0.46,0.99-0.66c3.3-1.9,8.79-2.47,13.67-1.7c0.87,0.14,1.72,0.31,2.54,0.54
		c0.03,0.01,0.06,0.01,0.09,0.02c0.14,0.04,0.27,0.09,0.41,0.13c1.79,0.54,3.4,1.29,4.62,2.27c1.84,1.47,3.9,3.92,6.56,6.52
		c0.11,0.1,0.21,0.2,0.31,0.31c0.32,0.31,0.66,0.62,1,0.93c0.18,0.16,0.35,0.32,0.53,0.48c0.32,0.28,0.64,0.56,0.98,0.83
		c0.22,0.19,0.44,0.37,0.67,0.56c0.32,0.26,0.66,0.51,1,0.77c0.26,0.2,0.52,0.39,0.8,0.59c0.34,0.24,0.69,0.47,1.04,0.71
		c0.3,0.2,0.6,0.39,0.91,0.58c0.36,0.22,0.73,0.44,1.11,0.65c0.33,0.19,0.67,0.37,1.01,0.55c0.39,0.2,0.79,0.4,1.2,0.59
		c0.36,0.17,0.73,0.34,1.11,0.5c0.42,0.18,0.86,0.35,1.3,0.52c0.39,0.15,0.79,0.29,1.2,0.42c0.46,0.16,0.94,0.3,1.42,0.44
		c0.42,0.12,0.85,0.23,1.29,0.34c0.51,0.13,1.03,0.24,1.56,0.35c0.44,0.09,0.9,0.16,1.35,0.23c0.57,0.09,1.14,0.18,1.74,0.24
		c0.17,0.02,0.32,0.05,0.49,0.07c0.2,0.26,0.44,0.52,0.65,0.79c0.26,0.32,0.51,0.63,0.78,0.94c0.33,0.37,0.68,0.74,1.04,1.11
		c0.3,0.31,0.6,0.63,0.92,0.94c0.36,0.35,0.76,0.7,1.15,1.04c0.36,0.32,0.71,0.64,1.09,0.95c0.4,0.33,0.83,0.65,1.25,0.97
		c0.42,0.32,0.83,0.64,1.28,0.96c0.43,0.3,0.91,0.6,1.37,0.9c0.49,0.32,0.96,0.64,1.47,0.94c0.49,0.3,1.03,0.58,1.55,0.87
		c0.53,0.29,1.04,0.6,1.6,0.88c0.66,0.34,1.37,0.66,2.07,0.99c0.47,0.22,0.91,0.45,1.4,0.66c1.23,0.54,2.51,1.06,3.86,1.56
		c0.03,0.01,0.07,0.02,0.1,0.03c0.43,2.03,0.78,3.97,1.15,5.73c-2.21-0.16-4.74-0.04-7.49,0.44c-8.63,1.49-19.78,5.43-24.59,7.81
		c-4.82,2.38-8.89,3.36-13.1,9.89c-4.2,6.53,1.01,10.83,1.01,10.83s-0.64-5.58,3.83-9.12c4.47-3.54,9.86-6.8,10.94-5.32
		c0.22,0.3,0.36,0.46,0.47,0.57c-0.66,1.43-3.2,7.28-3.19,11.92c0.01,5.33,5.52,4.8,5.52,4.8s-2.96-2.69-1.38-6.37
		c1.58-3.68,4.58-7.85,6.56-10.18c1.97-2.33,2.27-4.02,5.52-3.96c2.88,0.05,17.47,1.53,24.37-1c-2.9,4-5.38,7.93-6.63,10.39
		c-2.23,4.37-4.68,7.3-4.19,14.37c0.48,7.07,6.64,7.37,6.64,7.37s-3.51-3.73-2.16-8.76c1.34-5.03,3.51-10.35,5.11-9.86
		c0.32,0.1,0.52,0.14,0.66,0.16c0.3,1.4,1.62,7.07,4.16,10.46c2.91,3.89,6.66,0.51,6.66,0.51s-3.64-0.35-4.48-3.91
		c-0.84-3.55-0.92-8.24-0.75-11.03c0.17-2.78-0.53-4.18,1.88-5.91c1.96-1.41,11.77-7.29,16.22-12.58c3.5,0.42,7.04,0.78,10.64,1.13
		c7.67,0.76,15.61,1.5,24.09,2.73c1.68,0.24,3.31,0.43,4.97,0.63c-1.27,6.48-1.69,12.48-0.4,16.6
		c-1.62,15.77,13.78,45.62,16.26,53.14c2.76,8.38-4.93,24-9.03,28.69c-2.61,2.99-9.6,6.12-14.29,8.35c-0.32-0.2-0.71-0.37-1.15-0.53
		c-1.38-0.5-5.26,0.5-6.81,3.82c0,0,3.03,0.98,5.65,0.26c1.3,0.19,3,0.3,4.72,0.39c-0.29,0.39-0.55,0.82-0.77,1.29
		c0,0,5.7,1.85,8.92-0.85c5.45-0.15,19.56-1.99,20.55-6.49c1.15-5.22,4.12-17.31,7.52-23.79c3.39-6.48,0.97-8.44-1.5-15.66
		c-2.02-5.91-0.19-10.97,1.51-18.4c11.34,8.63,24.74,16.12,26.21,17.19c2.35,1.7,3.27,2.75,2.22,7.72
		c-1.05,4.97-2.22,12.95-7.98,17.13s-8.24,3.14-12.16,3.53c-2.03,0.2-3.24,0.69-3.97,1.31c-1.84-0.36-5.97,0.88-7.7,4.58
		c0,0,3.96,1.29,7.14,0.16c0.31,0.59,0.78,1.1,1.52,1.42c1.83,0.78,9.15,0,9.15,0s1.44,0.39,3.14,0.92
		c1.7,0.52,13.08,0.52,17.52-1.44c4.45-1.96,3.66-3.79,4.05-10.72c0.39-6.93,3.79-17,3.66-22.36c-0.13-5.36-2.94-6.54-8.44-10.66
		c-5.49-4.12-5.69-9.81-9.42-16.09c-3.73-6.28-12.75-11.18-12.75-11.18c-1.23-1.13-2.69-2.13-4.29-2.99
		c3.83-5.31,9.77-14.27,11.99-21.49c0.79-0.53,1.52-1.04,2.22-1.53c2.24-0.06,4.43-0.12,6.55-0.2c2.29-0.08,4.37-0.26,6.33-0.52
		c13.29-1.76,21.17-7.1,52.18-7.62c35.59-0.6,59.41-14.78,90.77-15.68c0.88-0.03,1.73-0.04,2.58-0.06c0.31-0.01,0.63-0.02,0.94-0.02
		c0.66-0.01,1.3-0.01,1.94-0.02c0.56,0,1.13-0.01,1.68-0.01c0.55,0,1.1,0.01,1.64,0.01c0.62,0.01,1.25,0.01,1.86,0.02
		c0.47,0.01,0.94,0.02,1.41,0.03c0.68,0.02,1.34,0.04,2,0.06c0.39,0.01,0.78,0.03,1.16,0.05c0.76,0.03,1.51,0.07,2.25,0.12
		c0.26,0.02,0.53,0.03,0.79,0.05c3.1,0.2,6,0.49,8.72,0.87c0.08,0.01,0.16,0.02,0.25,0.04c0.83,0.12,1.64,0.24,2.43,0.38
		c0.1,0.02,0.2,0.04,0.31,0.05c0.79,0.14,1.56,0.28,2.32,0.43c0.07,0.01,0.14,0.03,0.21,0.04c5.09,1.04,9.54,2.44,13.65,4.21
		c1.5,0.65,2.95,1.34,4.38,2.08c0,0,0,0,0,0c1.53,0.8,3.01,1.65,4.49,2.56c0.04,0.02,0.07,0.04,0.11,0.07
		c1.46,0.91,2.9,1.87,4.35,2.88c0.03,0.02,0.06,0.04,0.08,0.06c1.56,1.1,3.13,2.27,4.71,3.5c0.09,0.07,0.17,0.13,0.26,0.2
		c1.19,0.93,2.39,1.89,3.62,2.89c0.13,0.11,0.26,0.21,0.4,0.32c13.27,10.86,41.85,22.92,40.95,19.3
		C540.11,159.43,533.47,156.71,523.98,148.11z M54.84,101.06c-0.14-0.24-0.3-0.53-0.44-0.83c0.45-0.2,0.89-0.4,1.32-0.6
		c0.02,0.05,0.04,0.11,0.06,0.16c-0.25,0.34-0.5,0.68-0.75,1.02C54.96,100.9,54.9,100.98,54.84,101.06z M51.91,101.34
		c0.58-0.25,1.15-0.51,1.73-0.77c0.06,0.47,0.18,1.01,0.4,1.52c-0.16,0.21-0.32,0.41-0.48,0.62c-0.21,0.26-0.42,0.52-0.63,0.78
		c-0.02,0.02-0.04,0.04-0.05,0.07C52.55,103.04,51.98,102.03,51.91,101.34z M166.47,139.28c-0.65,0.69-1.31,1.42-1.97,2.19
		c0.31-1.51,0.57-3.23,0.79-5.01c0.11,0.02,0.21,0.05,0.32,0.07c0.09,0.17,0.3,0.24,0.45,0.1c0.89,0.19,1.77,0.35,2.66,0.52
		C167.96,137.79,167.22,138.49,166.47,139.28z"/>
</g>
</svg>
