<?xml version="1.0" encoding="utf-8"?>
<!-- Generator: Adobe Illustrator 23.0.1, SVG Export Plug-In . SVG Version: 6.00 Build 0)  -->
<svg version="1.1" id="Layer_1" xmlns="http://www.w3.org/2000/svg" xmlns:xlink="http://www.w3.org/1999/xlink" x="0px" y="0px"
	 viewBox="0 0 464.67 184.88" style="enable-background:new 0 0 464.67 184.88;" xml:space="preserve">
<style type="text/css">
	.st0{fill:#6D5287;}
	.st1{fill:#896CA6;}
	.st2{fill:#2A363F;}
	.st3{fill:#FFFFFF;}
	.st4{fill:#826EAC;}
	.st5{fill:#8B7BAA;}
	.st6{fill:#8F463B;}
	.st7{fill:#D5D4D3;}
	.st8{fill:#69802B;}
	.st9{fill:#77912B;}
	.st10{fill:#85A429;}
	.st11{fill:#8EA63E;}
	.st12{fill:#B8C38B;}
	.st13{fill:#ADB393;}
	.st14{fill:#DD513F;}
	.st15{fill:#4D5138;}
	.st16{fill:#9AA962;}
	.st17{fill:#BAC09F;}
	.st18{fill:#E27533;}
	.st19{fill:#B8B0CC;}
	.st20{fill:#473D54;}
	.st21{fill:#CE5720;}
	.st22{fill:#C4805F;}
	.st23{fill:#218B57;}
	.st24{fill:#39AA6E;}
	.st25{fill:#89C8A5;}
	.st26{fill:#64BFB3;}
	.st27{fill:#318876;}
	.st28{fill:#A14525;}
	.st29{fill:#617729;}
	.st30{fill:#718A2B;}
	.st31{fill:#A49035;}
	.st32{fill:#A7B86A;}
	.st33{fill:#8B975F;}
	.st34{fill:#704D19;}
	.st35{fill:#E08276;}
	.st36{fill:#7F885A;}
	.st37{fill:#B4BB9A;}
	.st38{fill:#CC8455;}
	.st39{fill:#CA6222;}
	.st40{fill:#CD4433;}
	.st41{fill:#492917;}
	.st42{fill:#EFAE82;}
	.st43{fill:#BA7A50;}
	.st44{fill:#D39266;}
	.st45{fill:#DF864C;}
	.st46{fill:#8F98AD;}
	.st47{fill:#AEB8D1;}
	.st48{fill:#5C698B;}
	.st49{fill:#6F7D9D;}
	.st50{fill:#6E717D;}
	.st51{fill:#5B6681;}
	.st52{fill:#66779C;}
	.st53{fill:#8B95AD;}
	.st54{fill:#8C93A5;}
	.st55{fill:#D46D2E;}
	.st56{fill:#5E331A;}
	.st57{fill:#EEA34F;}
	.st58{fill:#894216;}
	.st59{fill:#E5AA25;}
	.st60{fill:#964F34;}
	.st61{fill:#AB5D41;}
	.st62{fill:#C69886;}
	.st63{fill:#80452F;}
	.st64{fill:#F3CC40;}
	.st65{fill:#C0502D;}
	.st66{fill:#DE653F;}
	.st67{fill:#F5CCBF;}
	.st68{fill:#532919;}
	.st69{fill:#C48F6C;}
	.st70{fill:#CD3F2E;}
	.st71{fill:#DC4632;}
	.st72{fill:#E96251;}
	.st73{fill:#A82B17;}
	.st74{fill:#E77767;}
	.st75{fill:#319885;}
	.st76{fill:#45AE9A;}
	.st77{fill:#369482;}
</style>
<g id="_x30_6-ankylosaurus_1_">
	<g id="_x30_6-ankylosaurus">
		<g>
			<path class="st46" d="M350.18,43.81c-0.46,1.37-8.97-1.89-10.98-4.72c-0.8-1.13,3.5-9.52,4.58-10.34
				C344.85,27.93,352.49,36.92,350.18,43.81z"/>
			<path class="st46" d="M368.29,58.64c-0.75,1.23-8.34-3.8-9.69-7.01c-0.54-1.28,5.5-8.53,6.73-9.09
				C366.56,41.97,372.05,52.42,368.29,58.64z"/>
			<path class="st46" d="M387.45,69.53c-0.79,1.08-7.41-4.18-8.39-7.25c-0.39-1.23,5.76-7.44,6.94-7.86
				C387.18,53.99,391.42,64.08,387.45,69.53z"/>
			<path class="st46" d="M403.5,76.16c-0.52,0.52-3.64-2.91-3.91-4.66c-0.11-0.7,3.77-3.52,4.45-3.65S406.12,73.56,403.5,76.16z"/>
			<path class="st46" d="M283.92,21.67c-0.4,1.74-11.28-1.22-14.11-4.46c-1.13-1.3,1.53-13.47,2.75-14.61
				C273.79,1.46,285.92,12.9,283.92,21.67z"/>
			<path class="st46" d="M310.56,28.75c-0.4,1.74-11.28-1.22-14.11-4.46c-1.13-1.3,1.53-13.47,2.75-14.61S312.55,19.98,310.56,28.75
				z"/>
			<path class="st46" d="M329.41,34.96c-0.61,1.36-9.05-2.84-10.84-5.95c-0.71-1.25,3.45-10.79,4.63-11.53S332.48,28.1,329.41,34.96
				z"/>
			<path class="st46" d="M258.73,19.15c-0.4,1.74-11.28-1.22-14.11-4.46c-1.13-1.3,1.53-13.47,2.75-14.61S260.73,10.38,258.73,19.15
				z"/>
			<path class="st46" d="M232.13,19.59c-0.01,1.36-8.61,0.93-11.25-1.02c-1.05-0.78-1.06-10.3-0.34-11.35
				C221.27,6.17,232.18,12.72,232.13,19.59z"/>
			<path class="st46" d="M205.26,28.94c-0.01,1.36-8.61,0.93-11.25-1.02c-1.05-0.78-1.06-10.3-0.34-11.35
				C194.39,15.52,205.31,22.08,205.26,28.94z"/>
			<path class="st46" d="M178.19,38.8c-0.01,0.99-6.28,0.68-8.21-0.75c-0.77-0.57-0.77-7.51-0.24-8.28
				C170.26,29.01,178.23,33.79,178.19,38.8z"/>
			<path class="st46" d="M154.31,55.47c-0.01,0.99-6.28,0.68-8.21-0.75c-0.77-0.57-0.77-7.51-0.24-8.28
				C146.39,45.68,154.36,50.46,154.31,55.47z"/>
			<path class="st46" d="M130.79,67.46c-0.16,0.85-5.49-0.36-6.92-1.88c-0.57-0.6,0.47-6.55,1.04-7.13
				C125.48,57.88,131.58,63.18,130.79,67.46z"/>
			<path class="st46" d="M113.52,76.82c-0.16,0.85-5.49-0.36-6.92-1.88c-0.57-0.6,0.47-6.55,1.04-7.13
				C108.2,67.24,114.31,72.53,113.52,76.82z"/>
			<path class="st46" d="M97.12,83.28C97,83.93,92.9,83,91.8,81.84c-0.44-0.46,0.36-5.03,0.8-5.47
				C93.04,75.92,97.72,79.99,97.12,83.28z"/>
			<path class="st47" d="M418.8,80.79c0.45,0.94,2.23,3.75,4.56,4.79c2.74,1.22,6.08,0.53,6.89-0.53c1.49-1.95-3.85-15.37-7.8-14.88
				C420.04,70.47,418.8,80.79,418.8,80.79z"/>
		</g>
		<path class="st48" d="M228.92,106.78c0.44,0.57,1.68,13.21,0,18.25c-1.68,5.04-31.46,26.18-33.62,31.7
			c-2.16,5.52,1.68,10.57,1.68,10.57l10.57,11.05c0,0,3.84,2.88,3.84,4.56c0,0-5.52-1.68-6.96-1.2c-1.44,0.48-2.4,1.68-5.28,1.2
			c-2.88-0.48-4.56-1.2-4.56-1.2s-1.44,2.64-6,0.48c-4.56-2.16-16.81-15.85-17.29-18.97c-0.48-3.12,4.32-13.45,4.32-13.45
			s4.32-15.85,10.57-21.86c6.24-6,11.77-10.81,11.77-10.81l1.44-16.33C199.38,100.78,217.63,92.13,228.92,106.78z"/>
		<path class="st48" d="M364.13,112.79c0.5,0.57,4.56,17.29,4.32,20.17c-0.24,2.88,16.81,18.01,20.41,22.58
			c3.6,4.56,10.09,16.81,10.57,20.65c0.48,3.84-2.16,5.76-2.16,5.76s-1.44-2.88-3.12-3.12c-1.68-0.24-4.56,1.2-4.56,1.2l-3.12-1.44
			l-3.6,0.24c0,0-6-14.89-8.41-17.29c-2.4-2.4-19.93-7.69-28.1-15.61c-8.17-7.93-11.53-24.26-11.53-24.26l12.49-13.45
			C347.32,108.22,360.77,108.94,364.13,112.79z"/>
		<path class="st49" d="M251.61,9.42c38.61,0.95,77.13,17.18,113.28,40.33c36.15,23.15,40.86,22.33,46.95,33.7
			c6.09,11.37,8.68,32-8.32,33.24c-19.67,1.44-57.27-1.26-69.86-0.04c-12.59,1.22-22.75,8.53-52.8,6.5
			c-30.06-2.03-43.06-2.44-57.27-5.69s-25.59-13-32.49-15.03c-6.9-2.03-22.34-8.12-37.37-10.56c-15.03-2.44-93.82,9.74-99.06,10.42
			c-5.25,0.68-10.17,6.87-30.48,5.66c-20.31-1.22-25.69-6.5-23.75-16.69c1.62-8.53,14.88-10.08,35.03-5.76
			c10.8,2.32,14.19,3.12,24.23,3.12c17.28,0,35.06-8.3,59.74-20.15C159.95,49.01,202.05,8.2,251.61,9.42z"/>
		<path class="st49" d="M235.4,53.95c18.33-0.14,33.14,20.41,36.5,38.67c3.36,18.25-3.6,35.54-5.76,45.63
			c-2.16,10.09-2.16,19.45-0.96,22.34c1.2,2.88,6,12.73,9.13,15.37c3.12,2.64,6.48,3.12,6.24,7.2c0,0-4.08-1.92-6-0.48
			c-1.92,1.44-9.61-0.48-9.61-0.48s0,2.4-3.12,2.16c-3.12-0.24-5.76-0.48-7.93-2.64c-2.16-2.16-12.97-13.69-15.61-17.29
			c-2.64-3.6,2.16-9.61,0.72-16.09c-1.44-6.48-3.84-11.53-2.88-19.45c0.96-7.93,0.24-11.29,0.24-11.29s-18.25-9.61-24.5-22.58
			C205.62,82.04,204.42,54.19,235.4,53.95z"/>
		<path class="st49" d="M348.52,92.37c5.33,2.89,8.41,13.69,3.6,21.61s-23.3,24.98-26.18,33.38c-2.88,8.41-4.08,18.97-2.64,21.86
			c1.44,2.88,5.28,8.65,7.69,9.85c2.4,1.2,4.8,0.96,5.28,5.04c0,0-4.8-2.88-5.52-1.2c-0.72,1.68-3.6,1.44-5.04,1.2
			c-1.44-0.24-3.6-0.96-3.6-0.96s2.4,1.2-1.44,1.68c-3.84,0.48-9.61-3.36-14.41-5.28c-4.8-1.92-2.88-7.45-3.12-11.05
			c-0.24-3.6-0.96-17.77,0.96-30.74c1.92-12.97,12.49-35.78,21.85-42.27C335.31,89.01,340.11,87.81,348.52,92.37z"/>
		<path class="st49" d="M399.54,72.71c0,0,37.22,12.77,43.3,17.1c6.08,4.33,12.87,12.74,15.05,14.6
			c2.18,1.86,10.14,12.22,5.18,21.82c0,0-0.86,0.5-1.57,0.61c0,0-3.24,6.16-10.95,5.39c-7.71-0.77-14.55-5.04-18.76-4.95
			c-4.21,0.1-15.88-3.04-25.4-7.48c-9.52-4.44-15.1-15.08-14.67-22.38C392.15,90.13,389.24,71.47,399.54,72.71z"/>
		<path class="st50" d="M463.07,126.23c0,0-0.86,0.5-1.58,0.61c0,0-2.14,4.07-7.1,5.18l0.28-5.61l-1.26-0.81
			c0,0,2.52-4.05,2.16-14.13c-0.14-4.01,2.81-4.24,4.87-4.02C463.35,111.64,466.73,119.14,463.07,126.23z"/>
		<path class="st51" d="M463.35,112.93c-1.38,0.79-3.61,1.73-8.49-1.52c-7.2-4.8-19.67-16.32-31.67-18.71
			c-3.56-0.71-6.09-1.55-8.64-2.27c-4.95-1.4-9.98-2.32-22.89-0.91c-2.77,0.31-5.92,0.72-9.5,1.26
			c-28.79,4.32-103.97-12.19-114.09-13.32c-3.24-0.36-9.36-17.99-35.87-18.83c-17.28-0.55-15.84,12-22.07,14.4
			c-12.84,4.94-30.23-3.84-50.39-0.96c-20.15,2.88-85.66,23.75-100.41,24.47c0,0-2.92,3.03-5.69,5.95
			c-4.93,1.25-11.65,8.62-30.66,7.48c-20.31-1.22-24.49-8.52-22.55-18.71c1.62-8.53,14.87-10.08,35.03-5.76
			c10.8,2.31,14.19,3.12,24.24,3.12c17.28,0,35.05-8.31,59.74-20.15C159.94,49.01,202.05,8.2,251.6,9.41
			c38.61,0.95,77.13,17.18,113.28,40.33c23.54,15.07,33.75,19.98,39.69,24.72c10.37,3.65,33.57,12.01,38.26,15.35
			c6.08,4.33,12.87,12.74,15.05,14.6C459.03,105.39,461.73,108.65,463.35,112.93z"/>
		<path class="st52" d="M236.48,115.37c-3.71-3.8-8.25-6.69-12.12-10.34c-3.61-3.4-6.89-7.21-9.24-11.6
			c-2.32-4.33-3.55-9.15-3.33-14.07c0.22-4.91,2.64-8.56,4.04-13.08c0.17-0.56-0.45-0.93-0.92-0.71c-4.23,2.06-5.78,7.36-6.37,11.7
			c-0.71,5.25,0.19,10.55,2.32,15.38c4.47,10.13,14.57,19.89,24.81,24.1C236.48,117.08,237.01,115.91,236.48,115.37z"/>
		<path class="st52" d="M336.61,90.89c-6.53-0.15-11.32,5.31-15.09,10c-4.06,5.05-9.44,11.49-10.2,18.14
			c-0.05,0.4,0.5,0.55,0.75,0.31c2.22-2.07,3.64-4.77,5.3-7.28c1.91-2.87,3.9-5.69,6.08-8.36c3.89-4.76,8.26-8.31,13.54-11.43
			C337.63,91.9,337.34,90.91,336.61,90.89z"/>
		<path class="st52" d="M342.04,89.64c-0.92-0.2-1.83-0.19-2.65,0.19c-0.95,0.45-0.82,1.62,0.34,1.84c0.8,0.15,1.68,0.29,2.49,0.27
			c0.55-0.02,1.34-0.25,1.4-0.8C343.72,90.39,342.8,89.81,342.04,89.64z"/>
		<path class="st53" d="M275.86,100.72c-0.61-4.26-1.77-8.39-3.12-12.46c-1.35-4.06-2.6-8.57-5.14-12.07
			c-0.58-0.8-1.67-0.3-1.54,0.65c0.52,3.77,2.35,7.29,3.56,10.88c1.22,3.62,2.22,7.32,2.84,11.09c0.6,3.63,0.87,7.38,0.6,11.06
			c-0.26,3.58-2.06,7.5-1.63,11.05c0.04,0.33,0.42,0.7,0.76,0.44C277.38,117.4,276.67,106.39,275.86,100.72z"/>
		<path class="st53" d="M352.26,93.66c-0.22-0.27-0.57,0.08-0.45,0.35c1.53,3.47,2.49,7.5,2.28,11.3c-0.2,3.5-1.37,6.92-2.04,10.34
			c-0.05,0.24,0.21,0.39,0.39,0.23C358.84,110.42,357.05,99.55,352.26,93.66z"/>
		<g>
			<path class="st2" d="M440.15,105.31c-0.04,2.12,0.74,3.85,1.72,3.86c0.99,0.02,1.82-1.68,1.86-3.8c0.04-2.12-0.74-3.85-1.72-3.86
				C441.02,101.49,440.19,103.19,440.15,105.31z"/>
			<path class="st3" d="M440.67,103.11c-0.01,0.54,0.42,0.98,0.95,0.99c0.54,0.01,0.98-0.42,0.99-0.95
				c0.01-0.54-0.42-0.98-0.95-0.99C441.12,102.14,440.68,102.57,440.67,103.11z"/>
		</g>
		<path class="st2" d="M444.75,99.86c-0.32-1.21-1.45-2.17-2.68-2.34c-1.12-0.15-2.74,0.28-3.14,1.46c-0.06,0.17,0.12,0.35,0.29,0.3
			c0.87-0.26,1.54-0.8,2.52-0.72c1.12,0.09,1.88,0.72,2.57,1.54C444.48,100.31,444.81,100.1,444.75,99.86z"/>
		<path class="st2" d="M462.26,125.54c-6.51,0.4-12.4-0.28-17.2-5.16c-0.32-0.33-0.76,0.15-0.49,0.49c4.08,5.19,12,7.79,17.95,5.62
			C462.99,126.31,462.75,125.51,462.26,125.54z"/>
		<path class="st54" d="M262.81,11.48c-4.4,6.51-6.4,15.44-8.28,22.97c-1.96,7.84-3.68,16.05-3.84,24.16
			c-0.01,0.67,1.06,0.85,1.19,0.16c1.56-7.94,2.64-15.91,4.67-23.76c0.96-3.7,2.01-7.37,3.21-11c1.32-4.02,3.14-8,3.93-12.15
			C263.8,11.32,263.12,11.02,262.81,11.48z"/>
		<path class="st54" d="M286.42,19.17c-2.76,3.61-4.07,8.61-5.45,12.88c-1.55,4.78-2.82,9.65-3.9,14.56
			C275,56,273.09,65.88,272.63,75.5c-0.05,0.99,1.54,1.22,1.75,0.24c2-9.43,2.86-19.07,4.93-28.5c1.03-4.69,2.25-9.35,3.71-13.93
			c1.43-4.5,3.84-8.94,4.76-13.55C287.94,18.88,286.92,18.51,286.42,19.17z"/>
		<path class="st54" d="M313.41,27.43c-5.26,7.72-8.4,17.62-11.09,26.49c-2.75,9.06-5.05,18.67-5.42,28.17
			c-0.03,0.72,1.14,0.9,1.28,0.17c1.86-9.35,3.39-18.64,6.18-27.78c2.79-9.15,7.2-17.53,10.44-26.47
			C315.12,27.16,313.87,26.75,313.41,27.43z"/>
		<path class="st54" d="M333.49,32.7c-2.53,3.64-3.98,8.13-5.47,12.28c-1.56,4.35-2.94,8.76-4.16,13.22
			c-2.4,8.74-4.42,17.78-4.92,26.84c-0.05,0.9,1.41,1.12,1.59,0.22c1.76-8.85,3.22-17.71,5.63-26.42c1.17-4.24,2.5-8.44,3.97-12.59
			c1.53-4.31,3.62-8.56,4.61-13.02C334.91,32.45,333.93,32.06,333.49,32.7z"/>
		<path class="st54" d="M353.19,46.17c-3.89,5.71-6.23,13.15-8.61,19.6c-2.54,6.88-5.46,14.24-6.47,21.52
			c-0.15,1.11,1.27,1.53,1.69,0.47c2.64-6.74,4.22-13.95,6.71-20.77c2.47-6.78,6.13-13.3,8.2-20.18
			C355,45.87,353.71,45.42,353.19,46.17z"/>
		<path class="st54" d="M373.09,55.06c-3.33,5.04-4.92,11.55-7.01,17.18c-2.26,6.1-5.09,12.35-6.53,18.71
			c-0.16,0.7,0.85,1.21,1.21,0.51c2.93-5.64,4.78-12.07,6.94-18.04c2.1-5.81,5.2-12.06,5.93-18.22
			C373.67,54.9,373.24,54.85,373.09,55.06z"/>
		<path class="st54" d="M392.38,67.56c-5.42,4.87-9.94,15.16-9.31,22.49c0.05,0.58,0.79,0.68,0.99,0.13
			c1.42-3.73,2.01-7.69,3.58-11.39c1.57-3.7,3.86-6.95,5.65-10.52C393.6,67.67,392.88,67.11,392.38,67.56z"/>
		<path class="st54" d="M409.61,76.05c-2.65,3.19-4.61,7.67-5.02,11.79c-0.08,0.78,1.16,1.1,1.49,0.4
			c1.73-3.68,3.25-7.77,4.48-11.65C410.71,76.09,409.97,75.62,409.61,76.05z"/>
		<path class="st54" d="M238.05,9.91c-3.94,6.69-5.62,15.08-7.13,22.61c-1.51,7.52-3.33,16.01-2.54,23.69
			c0.08,0.75,1.23,1.05,1.41,0.19c1.67-7.62,1.86-15.56,3.45-23.24c1.59-7.67,4.52-15.14,5.79-22.84
			C239.13,9.75,238.38,9.35,238.05,9.91z"/>
		<path class="st54" d="M210.29,20.19c-3.31,7.85-4.43,17.22-5.64,25.61c-1.19,8.24-2.34,16.73-1.81,25.07
			c0.04,0.67,1.15,0.93,1.26,0.17c1.26-8.63,1.65-17.36,3.01-25.99c1.29-8.24,3.82-16.39,4.79-24.65
			C212.03,19.4,210.62,19.43,210.29,20.19z"/>
		<path class="st54" d="M185.32,30.12c-2.54,6.89-3.52,14.39-4.64,21.62c-0.51,3.31-0.95,6.63-1.36,9.95
			c-0.4,3.21-1.16,6.62-0.56,9.83c0.15,0.8,1.17,0.58,1.41,0c1.37-3.27,1.35-7.38,1.83-10.86c0.47-3.43,1-6.85,1.53-10.27
			c1.05-6.69,2.63-13.33,3.05-20.1C186.62,29.53,185.55,29.48,185.32,30.12z"/>
		<path class="st54" d="M162.04,44.36c-2.09,4.5-3.13,9.61-4.25,14.42c-1.03,4.38-1.98,9.08-0.81,13.52c0.23,0.88,1.39,0.6,1.48-0.2
			c0.59-4.96,1.16-9.77,2.36-14.64c1.03-4.17,2.33-8.42,2.59-12.73C163.45,44.03,162.35,43.7,162.04,44.36z"/>
		<path class="st54" d="M137.88,59.09c-2.33,5.43-3.55,12.04-2.07,17.89c0.25,0.99,1.67,0.73,1.72-0.23
			c0.35-5.81,0.48-11.33,1.76-17.06C139.48,58.88,138.25,58.24,137.88,59.09z"/>
		<path class="st54" d="M118.98,75.72c-0.09-2.05-0.22-4.03-0.62-6.04c-0.2-1.02-1.58-0.65-1.68,0.23c-0.24,2.09-0.2,4.13-0.13,6.23
			c0.06,1.66-0.16,3.51,0.75,4.95c0.29,0.46,1.03,0.52,1.3,0C119.46,79.47,119.05,77.49,118.98,75.72z"/>
		<path class="st54" d="M102.7,82.04c-0.06-1.15,0.33-2.27,0.13-3.39c-0.14-0.79-1.18-0.92-1.69-0.45c-1.75,1.61-1.55,6.5,0.45,7.82
			c0.53,0.35,1.43,0.03,1.54-0.63C103.33,84.22,102.76,83.21,102.7,82.04z"/>
		<path class="st54" d="M85.87,89.06c-0.19-0.77-0.29-1.54-0.32-2.33c-0.03-0.75,0.07-1.45-0.25-2.15c-0.22-0.47-1.03-0.6-1.36-0.18
			c-1.04,1.34-0.53,3.7-0.13,5.22C84.16,90.96,86.2,90.4,85.87,89.06z"/>
		<path class="st54" d="M71.76,93.23c-0.29-0.9-0.69-1.71-0.9-2.64c-0.21-0.91-0.44-1.72-0.73-2.61c-0.16-0.51-0.8-0.57-1.09-0.14
			c-0.71,1.04-0.93,2.02-0.75,3.27c0.18,1.19,0.62,2.4,1.41,3.31C70.51,95.34,72.13,94.37,71.76,93.23z"/>
		<g>
			<path class="st47" d="M389.12,87.65c0.61-1.84,13.92,1.92,13.92,1.92s-8.23,8.51-11.31,7.85
				C388.64,96.77,388.64,89.09,389.12,87.65z"/>
			<path class="st47" d="M364.65,87.63c0.19-2.2,15.66-0.42,16.51,1.48c0.85,1.9-11.01,8.68-11.01,8.68S364.23,92.5,364.65,87.63z"
				/>
			<path class="st47" d="M342.09,86.24c0.19-2.14,15.21-0.41,16.04,1.44c0.82,1.85-10.69,8.43-10.69,8.43S341.68,90.97,342.09,86.24
				z"/>
			<path class="st47" d="M320.5,84.08c0.19-2.14,15.21-0.41,16.04,1.44c0.82,1.85-11.42,9.93-13.76,9.75
				C320.44,95.09,320.09,88.81,320.5,84.08z"/>
			<path class="st47" d="M300.77,80.7c2.12-1.44,15.63,0,15.89,2.88c0.26,2.88-12.7,13.01-16.16,10.08
				C298.38,91.85,300.77,80.7,300.77,80.7z"/>
			<path class="st47" d="M276.91,76.2c2.28-1.44,16.79,0,17.07,2.88c0.28,2.88-13.65,13.01-17.36,10.08
				C274.35,87.35,276.91,76.2,276.91,76.2z"/>
			<path class="st47" d="M183.87,66.84c2.28-1.44,16.79,0,17.07,2.88c0.28,2.88-13.65,13.01-17.36,10.08
				C181.31,78,183.87,66.84,183.87,66.84z"/>
			<path class="st47" d="M412.57,100.49c1.16-0.44,5.03-1.38,7.92-0.36c3.39,1.19,5.74,4.52,5.57,6.07
				c-0.31,2.88-15.92,9.9-19.04,6.34C405.91,111.29,412.57,100.49,412.57,100.49z"/>
			<path class="st47" d="M413.33,91.92c1.12,0.53,4.9,1.79,7.86,1.01c3.47-0.91,6.09-4.03,6.05-5.59
				c-0.07-2.89-14.84-10.95-18.45-7.9C407.53,80.52,413.33,91.92,413.33,91.92z"/>
			<path class="st47" d="M159.55,69.22c1.95-1.85,16.47-3.26,17.31-0.5c0.84,2.77-10.86,15.42-15.07,13.26
				C159.21,80.67,159.55,69.22,159.55,69.22z"/>
			<path class="st47" d="M138.95,74.78c1.31-2.14,14.03-6.94,15.46-4.65c1.43,2.29-6.02,16.52-10.34,15.6
				C141.43,85.16,138.95,74.78,138.95,74.78z"/>
			<path class="st47" d="M120.38,79.83c1.19-1.95,12.74-6.3,14.04-4.22c1.3,2.08-5.47,15-9.39,14.16
				C122.62,89.26,120.38,79.83,120.38,79.83z"/>
			<path class="st47" d="M103.25,84.71c1.07-1.75,11.43-5.65,12.6-3.79c1.16,1.86-4.91,13.46-8.43,12.71
				C105.26,93.17,103.25,84.71,103.25,84.71z"/>
			<path class="st47" d="M87.41,89.39c1.07-1.75,11.43-5.65,12.6-3.79c1.16,1.86-4.91,13.46-8.43,12.71
				C89.43,97.85,87.41,89.39,87.41,89.39z"/>
			<path class="st47" d="M73.37,94.07c0.91-1.5,9.81-4.85,10.81-3.25c1,1.6-4.21,11.55-7.23,10.91
				C75.1,101.33,73.37,94.07,73.37,94.07z"/>
			<path class="st47" d="M207.3,64.46c0.67-1.52,15.92-6.97,16.99-4.28c1.06,2.69-9.33,18.62-13.71,16.82
				C207.89,75.89,206.63,65.98,207.3,64.46z"/>
			<path class="st47" d="M252.87,64.83c3.03-0.83,18.74,5.72,18.08,9.03c-0.66,3.31-19.67,9.88-22.81,5.34
				C246.21,76.41,252.87,64.83,252.87,64.83z"/>
			<path class="st47" d="M229.91,57.97c2.76-1.5,19.56,1.3,19.66,4.67c0.11,3.38-16.9,14.1-21,10.4
				C226.07,70.76,229.91,57.97,229.91,57.97z"/>
			<path class="st47" d="M279.95,61.94c0.67-1.56,7.02-4.14,9.31-3.66c2.29,0.48,7.08,5.18,7.08,6.1c0,2.06-3.58,1.54-8.51,0.67
				C282.89,64.17,279.55,62.87,279.95,61.94z"/>
			<path class="st47" d="M255.48,55.22c0.67-1.56,7.02-4.14,9.31-3.66c2.29,0.48,7.08,5.18,7.08,6.1c0,2.06-3.58,1.54-8.51,0.67
				C258.42,57.46,255.08,56.15,255.48,55.22z"/>
			<path class="st47" d="M209.59,52.91c0.13-1.7,5.32-6.18,7.64-6.46c2.32-0.28,8.37,2.63,8.67,3.5c0.66,1.96-2.89,2.61-7.85,3.37
				C213.1,54.08,209.51,53.92,209.59,52.91z"/>
			<path class="st47" d="M184.76,58.48c0.13-1.7,5.32-6.18,7.64-6.46c2.32-0.28,8.37,2.63,8.67,3.5c0.66,1.96-2.89,2.61-7.85,3.37
				C188.26,59.66,184.68,59.5,184.76,58.48z"/>
			<path class="st47" d="M162.98,61.21c0.12-1.51,4.72-5.49,6.78-5.73c2.06-0.25,7.44,2.34,7.7,3.11c0.59,1.74-2.57,2.32-6.97,2.99
				C166.09,62.25,162.91,62.11,162.98,61.21z"/>
			<path class="st47" d="M142.84,67.8c-0.04-1.06,2.8-4.21,4.2-4.54c1.4-0.33,5.31,1.06,5.55,1.58c0.55,1.17-1.58,1.82-4.55,2.64
				C145.07,68.29,142.87,68.44,142.84,67.8z"/>
			<path class="st47" d="M122.22,74.57c0.04-0.73,3.06-3.09,4.46-3.43c1.4-0.33,5.14,0.33,5.34,0.67c0.45,0.76-1.69,1.37-4.67,2.15
				C124.37,74.74,122.19,75.01,122.22,74.57z"/>
			<path class="st47" d="M106.44,80.47c-0.04-0.54,2.02-2.6,3.04-2.99c1.02-0.39,3.9-0.29,4.08-0.06c0.41,0.51-1.14,1.18-3.31,2.06
				C108.07,80.37,106.46,80.79,106.44,80.47z"/>
			<path class="st47" d="M233.65,51.46c0.46-1.63,6.03-4.97,8.18-4.77c2.15,0.2,7.01,4.27,7.11,5.19c0.21,2.05-3.13,1.97-7.75,1.7
				C236.57,53.32,233.38,52.44,233.65,51.46z"/>
			<path class="st47" d="M304.16,68.34c0.62-1.58,6.04-4.35,7.95-3.95c1.91,0.4,5.78,4.91,5.75,5.82c-0.07,2.05-3.06,1.65-7.18,0.95
				C306.55,70.46,303.79,69.28,304.16,68.34z"/>
			<path class="st47" d="M325.57,72.66c0.62-1.58,6.04-4.35,7.95-3.95c1.91,0.4,5.78,4.91,5.75,5.82c-0.07,2.05-3.06,1.65-7.18,0.95
				C327.97,74.78,325.2,73.6,325.57,72.66z"/>
			<path class="st47" d="M347.34,76.08c0.62-1.58,6.04-4.35,7.95-3.95c1.91,0.4,5.78,4.91,5.75,5.82c-0.07,2.05-3.06,1.65-7.18,0.95
				C349.74,78.2,346.97,77.02,347.34,76.08z"/>
			<path class="st47" d="M351.48,64.92c0.62-1.58,5.38-5.5,7.29-5.1c1.91,0.4,6.44,6.06,6.41,6.97c-0.07,2.05-3.06,1.65-7.18,0.95
				C353.88,67.04,351.11,65.86,351.48,64.92z"/>
			<path class="st47" d="M330.85,57.25c0.62-1.58,5.38-5.5,7.29-5.1c1.91,0.4,6.44,6.06,6.41,6.97c-0.07,2.05-3.06,1.65-7.18,0.95
				C333.24,59.36,330.48,58.19,330.85,57.25z"/>
			<path class="st47" d="M309.25,50.53c0.62-1.58,5.38-5.5,7.29-5.1c1.91,0.4,6.44,6.06,6.41,6.97c-0.07,2.05-3.06,1.65-7.18,0.95
				C311.65,52.65,308.89,51.47,309.25,50.53z"/>
			<path class="st47" d="M211.77,41.96c-0.08-1.77,2.79-7.56,4.79-7.99c1.99-0.43,8.74,3.04,9.1,3.93c0.81,1.99-2.22,2.89-6.46,3.97
				C214.97,42.96,211.82,43.01,211.77,41.96z"/>
			<path class="st47" d="M187.48,46.64c-0.08-1.77,2.79-7.56,4.79-7.99c1.99-0.43,8.74,3.04,9.1,3.93c0.81,1.99-2.22,2.89-6.46,3.97
				C190.68,47.64,187.53,47.69,187.48,46.64z"/>
			<path class="st47" d="M165.24,52.3c-0.07-1.52,2.4-6.49,4.11-6.86c1.71-0.37,7.51,2.61,7.82,3.37c0.7,1.71-1.91,2.48-5.55,3.41
				C167.99,53.16,165.28,53.2,165.24,52.3z"/>
			<path class="st47" d="M152.2,54.18c0.25,0.89-5.46,2.22-7.54,1.43c-0.83-0.31-2.61-6.53-2.33-7.35
				C142.6,47.44,150.96,49.69,152.2,54.18z"/>
			<path class="st47" d="M129.88,65.82c0.25,0.89-5.46,2.22-7.54,1.43c-0.83-0.31-2.61-6.53-2.33-7.35
				C120.28,59.07,128.64,61.32,129.88,65.82z"/>
			<path class="st47" d="M112.4,74.53c0.2,0.74-4.52,1.83-6.25,1.18c-0.69-0.26-2.16-5.41-1.93-6.09
				C104.45,68.95,111.37,70.81,112.4,74.53z"/>
			<path class="st47" d="M95.99,81.7c0.2,0.74-4.1,3.28-5.83,2.62c-0.69-0.26-2.36-6.22-2.13-6.9
				C88.25,76.75,94.96,77.98,95.99,81.7z"/>
			<path class="st47" d="M142.78,59.87c-0.06-1.27,2-5.41,3.43-5.72c1.43-0.31,6.26,2.18,6.52,2.81c0.58,1.42-1.59,2.07-4.62,2.85
				C145.07,60.59,142.82,60.62,142.78,59.87z"/>
			<path class="st47" d="M121.79,69.46c-0.06-1.27,2-5.41,3.43-5.72c1.43-0.31,6.26,2.18,6.52,2.81c0.58,1.42-1.59,2.07-4.62,2.85
				C124.07,70.18,121.82,70.22,121.79,69.46z"/>
			<path class="st47" d="M105.79,76.51c-0.26-1.01,0.7-4.7,1.8-5.18c1.1-0.49,5.41,0.71,5.72,1.17c0.71,1.05-0.94,1.93-3.25,3.07
				C107.75,76.71,105.95,77.12,105.79,76.51z"/>
			<path class="st47" d="M89.01,83.34c-0.24-0.93,0.65-4.33,1.66-4.77c1.01-0.45,4.98,0.65,5.27,1.08c0.65,0.97-0.86,1.78-2.99,2.83
				C90.82,83.52,89.16,83.9,89.01,83.34z"/>
			<path class="st47" d="M283.28,45.12c0.83-2.11,5.99-9.23,8.54-8.69c2.55,0.54,9.82,9.98,9.78,11.19
				c-0.09,2.74-4.09,2.21-9.6,1.27C286.49,47.96,282.79,46.38,283.28,45.12z"/>
			<path class="st47" d="M235.78,40.38c0.17-1.97,2.72-9.2,4.98-9.38c2.26-0.18,10.67,5.9,10.94,6.93c0.6,2.31-2.87,2.86-7.71,3.44
				C239.16,41.95,235.68,41.55,235.78,40.38z"/>
			<path class="st47" d="M257.28,41.05c0.61-2.18,5.05-9.78,7.64-9.5c2.59,0.28,10.76,8.95,10.83,10.17
				c0.18,2.74-3.86,2.6-9.43,2.21C260.75,43.56,256.91,42.35,257.28,41.05z"/>
			<path class="st47" d="M372.83,70.28c0.49-1.24,4.23-4.33,5.73-4.01c1.5,0.32,5.07,4.77,5.04,5.49c-0.05,1.61-2.41,1.3-5.65,0.75
				C374.71,71.95,372.54,71.02,372.83,70.28z"/>
			<path class="st47" d="M394.18,77.46c0.37-0.94,3.21-3.29,4.35-3.05c1.14,0.24,3.85,3.62,3.83,4.17
				c-0.04,1.22-1.83,0.99-4.29,0.57C395.61,78.73,393.96,78.02,394.18,77.46z"/>
			<path class="st47" d="M368.95,79.82c0.47-1,5.2-2.53,6.93-2.16c1.74,0.37,5.46,3.53,5.48,4.13c0.05,1.34-2.66,0.92-6.4,0.24
				C371.22,81.34,368.67,80.42,368.95,79.82z"/>
			<path class="st47" d="M390.85,82.75c0.39-0.89,4.05-2.36,5.38-2.08c1.32,0.28,4.1,2.98,4.1,3.5c0,1.18-2.07,0.88-4.92,0.37
				C392.55,84.03,390.62,83.28,390.85,82.75z"/>
			<path class="st47" d="M90.07,85.59c0.03-0.33,2.07-1.84,3.01-2.2c0.94-0.36,3.45-0.63,3.59-0.51c0.3,0.27-1.14,0.86-3.15,1.66
				C91.52,85.34,90.05,85.79,90.07,85.59z"/>
			<path class="st47" d="M304.44,33.55c-0.4,1.74-11.28-1.22-14.11-4.46c-1.13-1.3,1.53-13.47,2.75-14.61
				C294.31,13.34,306.44,24.78,304.44,33.55z"/>
			<path class="st47" d="M231.87,21.3c0.47,1.72-10.51,4.27-14.54,2.75c-1.61-0.61-5.03-12.59-4.5-14.17
				C213.37,8.3,229.47,12.63,231.87,21.3z"/>
			<path class="st47" d="M204.08,30.9c0.41,1.49-9.1,3.7-12.58,2.38c-1.39-0.52-4.36-10.89-3.89-12.26
				C188.07,19.65,202,23.4,204.08,30.9z"/>
			<path class="st47" d="M178.92,40.73c0.35,1.26-7.68,3.12-10.62,2.01c-1.17-0.44-3.68-9.2-3.29-10.36
				C165.4,31.23,177.17,34.4,178.92,40.73z"/>
			<path class="st47" d="M278.88,27.07c-0.4,1.74-11.28-1.22-14.1-4.46c-1.13-1.3,1.53-13.47,2.75-14.61
				C268.75,6.86,280.88,18.3,278.88,27.07z"/>
			<path class="st47" d="M254.41,22.22c-0.1,1.52-9.7,0.5-12.53-1.86c-1.13-0.94-0.53-11.6,0.35-12.73
				C243.1,6.5,254.91,14.54,254.41,22.22z"/>
			<path class="st47" d="M327.62,40.33c-0.46,1.37-8.97-1.89-10.98-4.72c-0.8-1.13,2.54-11.5,3.62-12.32
				C321.33,22.47,329.93,33.45,327.62,40.33z"/>
			<path class="st47" d="M346.22,49.81c-0.46,1.37-8.97-1.89-10.98-4.72c-0.8-1.13,3.5-9.52,4.58-10.34
				C340.89,33.93,348.53,42.92,346.22,49.81z"/>
			<path class="st47" d="M367.69,59.17c-0.46,1.37-8.97-1.89-10.98-4.72c-0.8-1.13,3.5-9.52,4.58-10.34
				C362.36,43.29,370,52.28,367.69,59.17z"/>
			<path class="st47" d="M386.62,66.7c-0.38,1.14-7.49-1.57-9.17-3.94c-0.67-0.95,2.93-7.96,3.82-8.64
				C382.17,53.44,388.55,60.95,386.62,66.7z"/>
			<path class="st47" d="M403.83,74.73c-0.25,0.76-4.97-1.04-6.08-2.61c-0.44-0.63,1.94-5.27,2.53-5.72
				C400.88,65.94,405.11,70.92,403.83,74.73z"/>
		</g>
	</g>
	<path id="_x30_6-silhouette" d="M463.78,124.6c0.06-0.16,0.11-0.32,0.16-0.47c0.14-0.41,0.25-0.83,0.35-1.24
		c0.03-0.14,0.07-0.29,0.1-0.43c0.11-0.54,0.19-1.08,0.23-1.62c0-0.06,0-0.11,0.01-0.17c0.03-0.49,0.04-0.97,0.03-1.45
		c0-0.15-0.01-0.3-0.02-0.46c-0.02-0.41-0.06-0.82-0.11-1.23c-0.02-0.12-0.03-0.24-0.04-0.36c-0.08-0.52-0.17-1.02-0.29-1.52
		c-0.02-0.09-0.05-0.17-0.07-0.26c-0.1-0.42-0.22-0.83-0.35-1.23c-0.04-0.14-0.09-0.27-0.13-0.41c-0.09-0.28-0.19-0.55-0.3-0.82
		c0,0,0,0,0,0c-0.02-0.05-0.05-0.1-0.07-0.16c-0.02-0.06-0.04-0.11-0.06-0.17c-0.03-0.08-0.06-0.17-0.1-0.26
		c-0.12-0.29-0.24-0.56-0.37-0.84c-0.03-0.07-0.06-0.13-0.09-0.2c-0.05-0.1-0.09-0.19-0.14-0.29c-0.04-0.08-0.08-0.16-0.12-0.25
		c-0.13-0.27-0.26-0.53-0.4-0.78c-0.04-0.07-0.08-0.14-0.12-0.22c0-0.01-0.01-0.01-0.01-0.02c-0.05-0.1-0.11-0.19-0.16-0.29
		c-0.14-0.24-0.27-0.47-0.41-0.7c-0.05-0.09-0.11-0.18-0.16-0.26c-0.02-0.03-0.04-0.07-0.06-0.11c-0.01-0.01-0.02-0.03-0.03-0.04
		c-0.2-0.31-0.4-0.62-0.59-0.9c0,0,0,0,0,0c-0.03-0.04-0.06-0.08-0.09-0.12c-0.13-0.18-0.25-0.34-0.37-0.5
		c-0.12-0.16-0.24-0.33-0.36-0.48c-0.13-0.17-0.25-0.31-0.38-0.47c-0.1-0.12-0.2-0.25-0.29-0.35c-0.17-0.19-0.31-0.35-0.46-0.51
		c-0.04-0.04-0.09-0.1-0.13-0.14c-0.18-0.19-0.35-0.35-0.49-0.47c-2.18-1.86-8.97-10.28-15.05-14.6c-0.28-0.2-0.63-0.41-1.03-0.64
		c-0.04-0.02-0.09-0.05-0.13-0.07c-2.31-1.31-6.41-3.09-11.19-5.01c0.14-3.64-4.5-14.34-8.03-13.91c-1.92,0.23-3.09,6.79-3.5,9.48
		c-2.94-1.09-5.81-2.14-8.42-3.07c0.14-0.51-0.58-0.96-0.94-0.53c-0.04,0.05-0.08,0.1-0.12,0.15c-1.83-0.66-3.5-1.25-4.92-1.75
		c0,0,0,0,0,0c1.06-2.84,0.02-6.7-0.53-6.6c-0.22,0.04-0.79,0.38-1.45,0.83c-0.94-1.51-2.03-2.51-2.31-2.3
		c-0.37,0.28-1.43,2.18-2.07,3.73c-0.01,0-0.01-0.01-0.02-0.01c-2.48-1.53-5.45-3.29-9.12-5.47c0.36-5.07-2.2-10.53-3.07-10.22
		c-0.37,0.13-1.22,0.83-2.21,1.76c-1.12-1.46-2.19-2.31-2.52-2.06c-0.45,0.35-1.6,2.32-2.53,4.3c-1.62-0.99-3.31-2.03-5.11-3.15
		c0-0.02,0.01-0.04,0.01-0.05c0.03-0.26-0.27-0.33-0.45-0.22c-0.16-0.1-0.33-0.21-0.49-0.31c-0.96-0.6-1.95-1.22-2.96-1.86
		c-0.06-0.04-0.12-0.08-0.18-0.12c-0.27-5.31-3.34-10.58-4.22-10.17c-0.42,0.19-1.4,1.17-2.48,2.41c-0.73-0.69-1.32-1.03-1.56-0.84
		c-0.32,0.24-0.93,1.17-1.61,2.38c-3.01-1.86-6.03-3.68-9.07-5.43c0.01-6.3-5.9-13.02-6.83-12.3c-0.61,0.47-2.28,3.41-3.45,6.06
		c-0.22-0.1-0.4-0.14-0.51-0.06c-0.07,0.05-0.15,0.13-0.24,0.24c-3.18-1.67-6.36-3.29-9.57-4.83c-0.67-6.32-5.87-13.25-6.8-12.67
		c-0.65,0.4-2.2,3.47-3.35,6.36c-0.2,0.35-0.43,0.84-0.68,1.44c-3.19-1.36-6.39-2.66-9.6-3.86c-2.76-6.66-9.48-12.57-10.38-11.74
		c-0.61,0.57-1.58,3.89-2.26,7.23c-1.87-1.81-3.46-2.81-3.86-2.44c-0.2,0.18-0.43,0.67-0.68,1.34c-3.29-0.92-6.59-1.75-9.9-2.49
		c-2.98-6.24-9.09-11.52-9.93-10.73c-0.59,0.55-1.51,3.68-2.19,6.91c-1.41-1.2-2.53-1.82-2.85-1.51c-0.3,0.28-0.69,1.24-1.09,2.53
		c-3.24-0.4-6.48-0.67-9.73-0.86c-3.13-5.72-8.54-10.33-9.34-9.59c-0.69,0.64-1.82,4.76-2.49,8.48c-1.38-0.85-2.42-1.23-2.66-0.92
		c-0.2,0.26-0.39,1.05-0.55,2.11c-0.9,0.08-1.8,0.17-2.69,0.28c-0.16-0.38-0.67-0.55-0.93-0.1c-0.04,0.07-0.07,0.14-0.11,0.21
		c-3.29,0.41-6.55,1.01-9.77,1.74c-3.18-3.2-7.19-5.27-7.62-4.64c-0.27,0.4-0.44,1.99-0.49,3.87c-3.75-1.45-6.98-1.89-7.22-1.2
		c-0.23,0.69,0.28,3.34,1.07,6.17c-4.25,1.53-8.45,3.26-12.61,5.17c-3.19-3.21-7.2-5.28-7.63-4.65c-0.34,0.49-0.51,2.81-0.5,5.24
		c-2.94-1.05-5.37-1.35-5.56-0.79c-0.23,0.68,0.39,3.61,1.25,6.44c-4.17,2.25-8.29,4.61-12.37,7.04c-2.36-3.08-6.37-5.27-6.74-4.73
		c-0.22,0.31-0.34,1.65-0.36,3.17c-2.33-0.79-4.21-1-4.36-0.55c-0.27,0.79,0.82,5.13,1.91,7.94c-5.17,3.22-10.28,6.47-15.34,9.66
		c-2.35-2.43-5.4-4.01-5.72-3.55c-0.17,0.25-0.28,1.14-0.34,2.24c-1.71-0.59-3.1-0.76-3.21-0.43c-0.22,0.65,0.83,4.62,1.7,6.45
		c-4.79,2.95-9.55,5.78-14.28,8.4c-1.62-2.8-4.45-5.03-4.83-4.65c-0.21,0.21-0.48,1.13-0.71,2.25c-2.13-0.89-4.06-1.2-4.19-0.81
		c-0.26,0.77,1.27,6.23,2.16,7.21c-0.91,0.46-1.82,0.92-2.73,1.35c-0.49,0.23-0.95,0.46-1.43,0.69c-0.44-0.24-1.11,0.06-1.27,0.61
		c-1.55,0.74-3.08,1.47-4.58,2.18c-1.65-2.55-4.16-4.48-4.52-4.12c-0.2,0.21-0.47,1.1-0.7,2.19c-1.44-0.51-2.63-0.65-2.72-0.38
		c-0.18,0.54,0.7,3.87,1.42,5.36c-3.36,1.55-6.59,3-9.71,4.33c-1.26-1.85-3.06-3.22-3.33-2.96c-0.16,0.16-0.36,0.86-0.53,1.7
		c-1.96-0.81-3.92-1-4.04-0.63c-0.14,0.41,0.43,2.79,1.05,4.64c0,0.02-0.01,0.03-0.01,0.05c-6.75,2.6-13.05,4.52-19.12,5.57
		c-0.26-0.21-0.67-0.17-0.89,0.15c-2.05,0.33-4.09,0.57-6.11,0.68c-1.09,0.06-2.17,0.1-3.25,0.1c-0.63,0-1.23,0-1.81-0.01
		c-5.36-0.06-8.79-0.41-13.01-1.17c-2.62-0.47-5.53-1.11-9.41-1.94C15.3,81.18,2.05,82.72,0.43,91.25
		c-0.03,0.17-0.05,0.33-0.07,0.49c-1.71,9.93,2.65,17.02,22.63,18.22c18.93,1.13,25.67-6.17,30.6-7.46
		c0.36-0.09,0.72-0.17,1.07-0.22c1.55-0.2,9.57-1.41,20.45-2.95c0.55,1.24,1.19,2.24,1.85,2.38c1.23,0.26,2.83-1.25,4.22-3.23
		c2.94-0.41,6.02-0.83,9.18-1.25c0.4,0.58,0.81,0.97,1.23,1.06c0.94,0.2,2.07-0.5,3.19-1.65c23.79-3.12,50.78-6.11,58.94-4.79
		c15.03,2.44,30.46,8.53,37.37,10.56c2.18,0.64,4.8,2.05,7.81,3.78l-0.96,10.9c0,0-5.52,4.8-11.77,10.81
		c-6.24,6-10.57,21.85-10.57,21.85s-4.8,10.33-4.32,13.45c0.48,3.12,12.73,16.81,17.29,18.97c4.56,2.16,6-0.48,6-0.48
		s1.68,0.72,4.56,1.2c2.88,0.48,3.84-0.72,5.28-1.2c1.44-0.48,6.96,1.2,6.96,1.2c0-1.68-3.84-4.56-3.84-4.56l-10.57-11.05
		c0,0-3.84-5.04-1.68-10.57c2.16-5.52,31.94-26.66,33.62-31.7c0.52-1.57,0.76-3.88,0.83-6.33c2.22,0.39,4.47,0.73,6.83,1.04
		c0.09,1.79,0.08,4.74-0.45,9.14c-0.96,7.93,1.44,12.97,2.88,19.45c1.44,6.48-3.36,12.49-0.72,16.09
		c2.64,3.6,13.45,15.13,15.61,17.29c2.16,2.16,4.8,2.4,7.93,2.64s3.12-2.16,3.12-2.16s7.69,1.92,9.61,0.48c1.92-1.44,6,0.48,6,0.48
		c0.24-4.08-3.12-4.56-6.24-7.2c-3.12-2.64-7.93-12.49-9.13-15.37c-1.2-2.88-1.2-12.25,0.96-22.34c0.89-4.18,2.61-9.6,4.08-15.8
		c3.3,0.21,6.83,0.44,10.63,0.7c11.97,0.81,20.77,0.13,27.84-1.04c-2.27,5.67-3.95,11.24-4.6,15.66
		c-1.92,12.97-1.2,27.14-0.96,30.74c0.24,3.6-1.68,9.13,3.12,11.05c4.8,1.92,10.57,5.76,14.41,5.28c3.84-0.48,1.44-1.68,1.44-1.68
		s2.16,0.72,3.6,0.96c1.44,0.24,4.32,0.48,5.04-1.2c0.72-1.68,5.52,1.2,5.52,1.2c-0.48-4.08-2.88-3.84-5.28-5.04
		s-6.24-6.96-7.69-9.85c-1.44-2.88-0.24-13.45,2.64-21.85c1.39-4.04,6.39-10.09,11.74-16.15c1.86,4.99,4.7,10.85,8.68,14.71
		c8.17,7.93,25.7,13.21,28.1,15.61c2.4,2.4,8.41,17.29,8.41,17.29l3.6-0.24l3.12,1.44c0,0,2.88-1.44,4.56-1.2
		c1.68,0.24,3.12,3.12,3.12,3.12s2.64-1.92,2.16-5.76c-0.48-3.84-6.96-16.09-10.57-20.65c-3.6-4.56-20.65-19.69-20.41-22.58
		c0.17-2.03-1.8-10.95-3.15-16.23c12.77,0.33,26.41,0.64,36.3,0.08c1.46,1.16,3.06,2.18,4.8,2.99c9.52,4.44,21.19,7.57,25.4,7.48
		c4.21-0.09,11.05,4.18,18.76,4.95c2.2,0.22,4.02-0.13,5.53-0.74c0.03-0.01,0.06-0.02,0.09-0.03c1.57-0.65,2.77-1.57,3.63-2.43
		c0.01-0.01,0.01-0.01,0.02-0.02c1.14-1.15,1.68-2.16,1.68-2.16c0.71-0.11,1.57-0.61,1.57-0.61c0-0.01,0.01-0.02,0.01-0.02
		C463.36,125.68,463.58,125.14,463.78,124.6z"/>
</g>
</svg>
