<?xml version="1.0" encoding="utf-8"?>
<!-- Generator: Adobe Illustrator 23.0.1, SVG Export Plug-In . SVG Version: 6.00 Build 0)  -->
<svg version="1.1" id="Layer_1" xmlns="http://www.w3.org/2000/svg" xmlns:xlink="http://www.w3.org/1999/xlink" x="0px" y="0px"
	 viewBox="0 0 456.52 208.11" style="enable-background:new 0 0 456.52 208.11;" xml:space="preserve">
<style type="text/css">
	.st0{fill:#6D5287;}
	.st1{fill:#896CA6;}
	.st2{fill:#2A363F;}
	.st3{fill:#FFFFFF;}
	.st4{fill:#826EAC;}
	.st5{fill:#8B7BAA;}
	.st6{fill:#8F463B;}
	.st7{fill:#D5D4D3;}
	.st8{fill:#69802B;}
	.st9{fill:#77912B;}
	.st10{fill:#85A429;}
	.st11{fill:#8EA63E;}
	.st12{fill:#B8C38B;}
	.st13{fill:#ADB393;}
	.st14{fill:#DD513F;}
	.st15{fill:#4D5138;}
	.st16{fill:#9AA962;}
	.st17{fill:#BAC09F;}
	.st18{fill:#E27533;}
	.st19{fill:#B8B0CC;}
	.st20{fill:#473D54;}
	.st21{fill:#CE5720;}
	.st22{fill:#C4805F;}
	.st23{fill:#218B57;}
	.st24{fill:#39AA6E;}
	.st25{fill:#89C8A5;}
	.st26{fill:#64BFB3;}
	.st27{fill:#318876;}
	.st28{fill:#A14525;}
	.st29{fill:#617729;}
	.st30{fill:#718A2B;}
	.st31{fill:#A49035;}
	.st32{fill:#A7B86A;}
	.st33{fill:#8B975F;}
	.st34{fill:#704D19;}
	.st35{fill:#E08276;}
	.st36{fill:#7F885A;}
	.st37{fill:#B4BB9A;}
	.st38{fill:#CC8455;}
	.st39{fill:#CA6222;}
	.st40{fill:#CD4433;}
	.st41{fill:#492917;}
	.st42{fill:#EFAE82;}
	.st43{fill:#BA7A50;}
	.st44{fill:#D39266;}
	.st45{fill:#DF864C;}
	.st46{fill:#8F98AD;}
	.st47{fill:#AEB8D1;}
	.st48{fill:#5C698B;}
	.st49{fill:#6F7D9D;}
	.st50{fill:#6E717D;}
	.st51{fill:#5B6681;}
	.st52{fill:#66779C;}
	.st53{fill:#8B95AD;}
	.st54{fill:#8C93A5;}
	.st55{fill:#D46D2E;}
	.st56{fill:#5E331A;}
	.st57{fill:#EEA34F;}
	.st58{fill:#894216;}
	.st59{fill:#E5AA25;}
	.st60{fill:#964F34;}
	.st61{fill:#AB5D41;}
	.st62{fill:#C69886;}
	.st63{fill:#80452F;}
	.st64{fill:#F3CC40;}
	.st65{fill:#C0502D;}
	.st66{fill:#DE653F;}
	.st67{fill:#F5CCBF;}
	.st68{fill:#532919;}
	.st69{fill:#C48F6C;}
	.st70{fill:#CD3F2E;}
	.st71{fill:#DC4632;}
	.st72{fill:#E96251;}
	.st73{fill:#A82B17;}
	.st74{fill:#E77767;}
	.st75{fill:#319885;}
	.st76{fill:#45AE9A;}
	.st77{fill:#369482;}
</style>
<g id="_x30_2-pteranodon_1_">
	<g id="_x30_2-pteranodon">
		<path class="st70" d="M370.18,22.52c-50.61,10.92-122.07,99.74-122.07,99.74c6.45,5.46,40.69,3.47,48.63-1.98
			c6.3-4.33,30.09-45.19,54.02-68.58c3.01-0.28,7.59-0.82,9.12-1.63c2.66-1.4-1.49-2.23-1.49-2.23s6.7,0.74,7.82-0.37
			c1.12-1.12-3.35-2.23-3.35-2.23s4.47,0,7.07-2.61c2.15-2.15-4.79-1.26-7.31-0.88c2.22-1.52,4.41-2.83,6.56-3.83
			c17.31-8.06,40.81-8.1,60.54-5.95c11.41,1.24,15.94,3.78,22.08,5.83c2.62,0.87,4.71,1.12,4.71,1.12S420.79,11.61,370.18,22.52z"/>
		<path class="st71" d="M199.16,165.4c0,0-2.68,13.42-6.04,16.78c-3.36,3.36-12.3,7.16-12.3,7.16s-1.79,3.36-5.59,7.83
			c-3.8,4.47-7.21,3.02-7.72,2.18c-0.5-0.84-1.85-0.67-2.01,0.17c-0.17,0.84-0.5,1.51,0.5,2.01c1.01,0.5,2.18,1.01,2.18,1.01
			s-3.02-0.5-3.86-0.34c-0.84,0.17-0.5,1.85-0.5,1.85l3.86,0.84c0,0-3.52,0-3.19,0.84c0.34,0.84,1.51,1.51,3.19,1.51
			c1.68,0,2.85-0.5,5.2-1.01c2.35-0.5,6.88-5.54,10.07-10.57c0,0,19.29-5.03,23.15-9.9c3.86-4.87,13.59-15.1,13.59-15.1
			S213.7,149.41,199.16,165.4z"/>
		<path class="st72" d="M258.28,119.66c0,0-28.28-14.14-32.75-16.75c-4.47-2.61-20.1-18.98-24.93-28.28
			c-4.84-9.3-36.1-45.03-36.1-45.03s0.74-2.23,3.35-2.05c2.6,0.19,4.65,2.42,5.21,0.74c0.56-1.67-5.58-4.65-5.58-4.65
			s6.51,0.56,7.44-0.74c0.93-1.3-3.35-4.09-6.14-4.09c-2.79,0-7.63,0.93-7.63,0.93s5.21-1.86,4.28-3.16
			c-0.93-1.3-7.82-0.37-7.82-0.37l-5.02,2.79c0,0-45.78-21.03-70.71-18.42C56.94,3.17,13.4,16.2,0,32.94c0,0,64.01-7.07,89.69,6.33
			s56.25,55.61,66.99,74.8c17.49,31.26,18.24,53.03,18.24,53.03s32.38-13.21,47.26-22.52C237.07,135.29,258.28,119.66,258.28,119.66
			z"/>
		<path class="st71" d="M306.66,100.18c-4.51,0.75-5.21,6.2-13.4,9.18c-8.19,2.98-22.58,4.71-51.61,8.93
			c-29.03,4.22-38.46,26.3-43.92,30.52c-5.46,4.22-6.7,19.35-1.98,22.33c4.71,2.98,20.1,3.72,34.98,1.24
			c14.89-2.48,39.7-12.65,49.13-18.61s12.9-15.88,18.11-18.86c5.21-2.98,13.15,0.25,19.1,0.5
			C323.04,135.66,308.15,99.93,306.66,100.18z"/>
		<path class="st71" d="M175.1,164.32c-1.84,2.69-2.42,12.28-6.14,16c-3.72,3.72-13.65,7.94-13.65,7.94s-1.98,3.72-6.2,8.68
			c-4.22,4.96-8,3.35-8.56,2.42c-0.56-0.93-2.05-0.74-2.23,0.19c-0.19,0.93-0.56,1.67,0.56,2.23c1.12,0.56,2.42,1.12,2.42,1.12
			s-3.35-0.56-4.28-0.37c-0.93,0.19-0.56,2.05-0.56,2.05l4.28,0.93c0,0-3.91,0-3.54,0.93c0.37,0.93,1.67,1.67,3.54,1.67
			c1.86,0,3.16-0.56,5.77-1.12c2.61-0.56,7.63-6.14,11.16-11.72c0,0,21.4-5.58,25.68-10.98c4.28-5.4,15.07-16.75,15.07-16.75
			s15.58-19.16,10.73-22.45C205.5,142.61,181.99,154.27,175.1,164.32z"/>
		<path class="st71" d="M341.83,92.12c-2.05-2.23-18.42-21.96-29.59-29.4c-11.17-7.44-27.54-22.33-31.26-18.98
			c-3.72,3.35,16.75,25.68,22.33,36.84c5.58,11.17,2.98,24.56,4.47,31.26c1.49,6.7,4.09,20.47,10.79,25.68
			c6.7,5.21,21.96,22.33,41.31,32.75c19.35,10.42,26.05,14.51,27.91,13.03s-23.45-26.42-30.52-36.1
			c-7.07-9.68-7.44-17.49-7.44-17.49s61.78,29.4,65.13,28.28c3.35-1.12-49.13-41.31-55.45-46.52c-6.33-5.21-8.93-4.84-9.68-7.44
			C349.09,101.42,345.76,96.4,341.83,92.12z"/>
		<g>
			<path class="st18" d="M325.34,143.56c8.02,7.51,20.15,18.96,34.54,26.71c19.35,10.42,26.05,14.51,27.91,13.03
				s-23.45-26.42-30.52-36.1c-7.07-9.68-7.44-17.49-7.44-17.49s61.78,29.4,65.13,28.28c3.35-1.12-49.13-41.31-55.45-46.52
				c-1.12-0.92-2.11-1.66-3.01-2.28c-4.41,2.68-14.52,8.05-23.79,7.49c-11.89-0.72-14.37-2.14-14.51-2.23
				c0.24,0.45,7.82,14.96,8.55,20.09C327.09,136.87,326.31,140.39,325.34,143.56z"/>
			<path class="st73" d="M322.55,116.81c0.16,0.31,4.07,7.96,8.92,9.91c4.96,1.99,17.86,20.84,21.84,25.31
				c3.97,4.47,34.48,31.26,34.48,31.26c1.86-1.49-23.45-26.42-30.52-36.1c-7.07-9.68-7.44-17.49-7.44-17.49s-2.48-1.49-7.94-2.48
				C336.52,126.24,322.97,117.1,322.55,116.81z"/>
		</g>
		<path class="st71" d="M0,32.6c0,0,0.93-0.1,2.61-0.26h0.01c5.69-3.72,23.58-14.8,42.55-20.08c19.6-5.46,36.22-6.95,58.3-3.48
			c22.08,3.48,41.18,11.91,54.58,23.07c13.4,11.16,28.54,34.48,33.25,43.17c4.71,8.69,5.71,36.72,13.64,43.42
			c7.94,6.7,21.09,11.91,26.8,12.16c2.63,0.11,7.16,0.39,11.02-0.16c3.38-0.47,4.62-1.33,5.61-2.82c0.99-1.49,1.22-3.28,0.99-3.97
			c-1.29-3.86-14.5-7.73-19.35-8.81c-6.7-1.49-18.11-7.32-18.11-7.32s-6.67-21.8-12.14-34.72c-6.86-11.1-35.25-43.56-35.25-43.56
			s0.74-2.23,3.35-2.05c2.6,0.19,4.65,2.42,5.21,0.74c0.56-1.67-5.58-4.65-5.58-4.65s6.51,0.56,7.44-0.74
			c0.93-1.3-3.35-4.09-6.14-4.09c-2.79,0-7.63,0.93-7.63,0.93s5.21-1.86,4.28-3.16c-0.93-1.3-7.82-0.37-7.82-0.37l-5.02,2.79
			c0,0-45.78-21.03-70.71-18.42C56.94,2.83,13.4,15.85,0,32.6z"/>
		<g>
			<path class="st2" d="M333.64,106.2c-0.05,2.82,0.98,5.13,2.3,5.15c1.32,0.02,2.43-2.25,2.48-5.07c0.05-2.82-0.98-5.13-2.3-5.15
				C334.8,101.11,333.69,103.38,333.64,106.2z"/>
			<path class="st3" d="M334.33,103.26c-0.01,0.71,0.56,1.3,1.27,1.32c0.71,0.01,1.3-0.56,1.32-1.27c0.01-0.71-0.56-1.3-1.27-1.32
				C334.93,101.98,334.34,102.54,334.33,103.26z"/>
		</g>
		<path class="st2" d="M331.72,97.07c2.59-2.48,7.63-2.09,9.03,1.57c0.21,0.56-0.57,0.92-0.95,0.55c-0.98-0.95-1.74-1.9-3.11-2.27
			c-1.53-0.42-3.22-0.11-4.61,0.62C331.79,97.68,331.47,97.31,331.72,97.07z"/>
		<path class="st74" d="M300.12,107.09c0.25-0.89,1.01-1.58,1.66-2.22c0.68-0.68,1.4-1.34,2.22-1.85c0.36-0.22,0.73,0.21,0.55,0.55
			c-0.44,0.87-1.06,1.64-1.68,2.39c-0.58,0.71-1.19,1.47-2.07,1.81C300.4,107.93,300.01,107.47,300.12,107.09z"/>
		<path class="st74" d="M241.05,119.03c9.67-0.95,19.27-1.61,28.86-3.27c4.48-0.78,8.98-1.59,13.43-2.53
			c4.66-0.99,9.25-2.54,13.94-3.34c0.36-0.06,0.66,0.46,0.27,0.65c-8.41,4.02-18.55,6.06-27.69,7.61
			c-9.43,1.61-19.23,2.79-28.82,2.42C240.05,120.52,240.08,119.12,241.05,119.03z"/>
		<path class="st74" d="M234,118.47c0.54-0.21,1-0.22,1.56-0.05c0.51,0.15,1,0.4,1.34,0.81c0.36,0.44-0.08,1.12-0.63,0.82
			c-0.7-0.39-1.34-0.61-2.14-0.68C233.59,119.34,233.5,118.66,234,118.47z"/>
		<path class="st74" d="M302.45,58.06c5.63,3.05,10.75,7.48,15.46,11.78c4.68,4.26,9.67,8.82,13.13,14.17
			c0.14,0.21-0.16,0.4-0.33,0.25c-4.94-4.06-9.26-8.92-14.1-13.12c-4.83-4.2-10.1-7.91-14.87-12.16
			C301.25,58.52,301.89,57.76,302.45,58.06z"/>
		<path class="st74" d="M296.65,53.84c0.7,0.23,1.31,0.35,1.92,0.79c0.55,0.39,1.18,0.82,1.55,1.4c0.43,0.68-0.39,1.3-1.01,1.01
			c-0.55-0.26-1.05-0.73-1.57-1.06c-0.52-0.32-0.86-0.71-1.36-1.03C295.64,54.59,295.97,53.62,296.65,53.84z"/>
		<path class="st70" d="M206.63,118.66c3.6,3.21,7.58,4.99,12.03,6.69c0.36,0.14,0.33,0.68-0.09,0.69
			c-4.98,0.13-9.77-2.75-12.8-6.52C205.27,118.92,206.03,118.13,206.63,118.66z"/>
		<path class="st70" d="M202.57,112.64c0.55,1.09,1.16,2.1,1.66,3.22c0.48,1.07-1.03,1.72-1.49,0.63c-0.47-1.12-0.78-2.27-1.2-3.41
			C201.33,112.48,202.29,112.07,202.57,112.64z"/>
		<path class="st70" d="M160.75,34.93c10.66,8.59,19.91,19.46,26.38,31.55c3.18,5.94,5.66,12.21,7.25,18.76
			c1.79,7.36,3.96,15.36,4.37,22.94c0.03,0.48-0.64,0.51-0.79,0.11c-2.61-6.95-3.44-14.72-5.19-21.93
			c-1.65-6.8-4.07-13.35-7.41-19.5c-6.49-11.96-15.72-21.72-25.76-30.76C158.8,35.37,159.95,34.29,160.75,34.93z"/>
		<path class="st70" d="M152,27.62c1.34,0.65,2.53,1.4,3.62,2.42c0.86,0.8,2.28,1.95,2.26,3.21c-0.01,0.46-0.45,0.8-0.89,0.68
			c-1.1-0.29-1.82-1.61-2.63-2.36c-0.99-0.92-2.05-1.81-3.16-2.58C150.36,28.4,151.08,27.17,152,27.62z"/>
		<path class="st70" d="M16.2,22.81c22.05-8.52,45.02-17.35,69.15-15.7c11.1,0.76,21.19,2.05,31.71,4.79
			c10,2.61,21.89,6.52,30.21,12.88c0.93,0.71,0.12,2.27-0.95,1.63c-9.2-5.53-19.4-9.68-29.86-12.11
			c-10.79-2.51-21.38-4.54-32.45-5.22c-23.35-1.44-45.97,7.05-67.35,15.41C15.63,24.88,15.17,23.2,16.2,22.81z"/>
		<path class="st70" d="M10.37,26.37c0.12-0.26,0.2-0.43,0.42-0.62c0.23-0.19,0.47-0.37,0.72-0.52c0.45-0.27,0.92-0.57,1.44-0.68
			c0.5-0.11,0.99,0.42,0.69,0.9c-0.3,0.47-0.73,0.82-1.16,1.16c-0.21,0.17-0.43,0.33-0.66,0.47c-0.32,0.19-0.55,0.21-0.91,0.23
			C10.39,27.35,10.2,26.77,10.37,26.37z"/>
		<path class="st70" d="M121.24,51.47c3.95-3.86,8.84-6.96,13.52-9.85c4.41-2.73,9-5.34,13.9-7.07c0.22-0.08,0.44,0.23,0.22,0.38
			c-4.46,2.93-9.19,5.44-13.7,8.31c-4.53,2.89-8.74,6.26-13.3,9.09C121.3,52.7,120.75,51.95,121.24,51.47z"/>
		<path class="st70" d="M59.5,26.33c3.11-6.27,9.28-10.41,15.33-13.59c0.44-0.23,0.99,0.39,0.56,0.73
			c-5.35,4.17-10.82,7.91-14.87,13.46C60.07,27.53,59.16,27.02,59.5,26.33z"/>
		<path class="st70" d="M169.21,126c8.09-4.43,17.05-7.52,25.71-10.64c0.45-0.16,0.77,0.58,0.33,0.78
			c-8.32,3.93-16.83,8.09-25.68,10.7C169.07,126.99,168.75,126.25,169.21,126z"/>
	</g>
	<path id="_x30_2-silhoutte" d="M370.18,22.52c-19.34,4.17-41.72,19.72-62,37.34c-10.73-7.8-23.91-19.09-27.2-16.13
		c-2.76,2.49,7.8,15.43,15.72,26.5c-19.78,18.55-36.29,37.39-43.96,46.46c-0.09,0.01-0.18,0.03-0.28,0.04
		c-8.53-4.29-23.75-11.97-26.93-13.83c-4.47-2.61-20.1-18.98-24.93-28.28c-0.1-0.2-0.24-0.43-0.36-0.65
		c-0.16-0.4-0.32-0.78-0.49-1.16c-6.62-10.72-33.36-41.39-35.15-43.44c0.26-0.55,1.14-1.97,3.25-1.82c2.6,0.19,4.65,2.42,5.21,0.74
		c0.04-0.13,0.04-0.26,0.01-0.4c0.31-1.31-3.23-3.35-4.82-4.2c1.74,0.1,5.94,0.23,6.68-0.8c0.12-0.17,0.15-0.37,0.11-0.58
		c0.33-1.38-3.62-3.85-6.25-3.85c-1.83,0-4.51,0.4-6.16,0.67c1.36-0.61,3.12-1.57,2.89-2.38c0.06-0.18,0.04-0.36-0.08-0.52
		c-0.93-1.3-7.82-0.37-7.82-0.37l-5.02,2.79c0,0-45.78-21.03-70.71-18.42C56.94,2.83,13.4,15.85,0,32.6c0,0,0.13-0.01,0.32-0.03
		C0.22,32.69,0.1,32.82,0,32.94c0,0,64.01-7.07,89.69,6.33c25.68,13.4,56.25,55.61,66.99,74.8c14.28,25.51,17.4,44.7,18.06,50.9
		c-1.57,3.33-2.31,11.88-5.78,15.35c-3.72,3.72-13.65,7.94-13.65,7.94s-1.98,3.72-6.2,8.68c-4.22,4.96-8,3.35-8.56,2.42
		c-0.56-0.93-2.05-0.74-2.23,0.19c-0.19,0.93-0.56,1.67,0.56,2.23c1.12,0.56,2.42,1.12,2.42,1.12s-3.35-0.56-4.28-0.37
		c-0.93,0.19-0.56,2.05-0.56,2.05l4.28,0.93c0,0-3.91,0-3.54,0.93s1.67,1.67,3.54,1.67c1.86,0,3.16-0.56,5.77-1.12
		c2.61-0.56,7.63-6.14,11.17-11.72c0,0,21.4-5.58,25.68-10.98c2.83-3.57,8.49-9.72,12.01-13.49c0.13,0.11,0.25,0.25,0.4,0.34
		c0.48,0.31,1.1,0.58,1.8,0.84c-1.1,3.91-2.67,8.44-4.43,10.21c-3.36,3.36-12.3,7.16-12.3,7.16s-1.79,3.36-5.59,7.83
		c-3.8,4.47-7.21,3.02-7.72,2.18c-0.5-0.84-1.85-0.67-2.01,0.17c-0.17,0.84-0.5,1.51,0.5,2.01c1.01,0.5,2.18,1.01,2.18,1.01
		s-3.02-0.5-3.86-0.34c-0.84,0.17-0.5,1.85-0.5,1.85l3.86,0.84c0,0-3.52,0-3.19,0.84c0.34,0.84,1.51,1.51,3.19,1.51
		c1.68,0,2.85-0.5,5.2-1.01c2.35-0.5,6.88-5.54,10.07-10.57c0,0,19.29-5.03,23.15-9.9c2.5-3.15,7.46-8.55,10.64-11.96
		c4.48-0.17,9.26-0.63,14-1.42c14.89-2.48,39.7-12.65,49.13-18.61c9.43-5.95,12.9-15.88,18.11-18.86
		c5.01-2.87,12.55,0.01,18.42,0.45c0.67,0.82,1.39,1.55,2.18,2.16c2.96,2.3,7.61,6.94,13.53,12.29c0,0,0,0,0.01,0
		c1.1,0.99,2.25,2.01,3.43,3.04c0.27,0.23,0.54,0.47,0.81,0.7c1.24,1.07,2.51,2.15,3.83,3.23c0.07,0.06,0.15,0.12,0.22,0.18
		c1.23,1,2.49,2,3.79,2.99c0.34,0.26,0.68,0.52,1.03,0.78c1.4,1.06,2.83,2.11,4.3,3.13c0.05,0.04,0.11,0.07,0.16,0.11
		c1.4,0.97,2.85,1.91,4.31,2.83c0.39,0.24,0.77,0.48,1.16,0.72c1.55,0.95,3.12,1.88,4.73,2.74c19.35,10.42,26.05,14.51,27.91,13.03
		c1.86-1.49-23.45-26.42-30.52-36.1c-7.07-9.68-7.44-17.49-7.44-17.49s61.78,29.4,65.13,28.28c3.35-1.12-49.13-41.31-55.45-46.52
		c-0.53-0.44-1.02-0.82-1.5-1.18c-0.07-0.05-0.14-0.1-0.2-0.15c-0.45-0.34-0.88-0.65-1.29-0.93c0,0-0.01-0.01-0.02-0.01c0,0,0,0,0,0
		c-4.18-2.89-6.06-3.02-6.67-5.17c-0.74-2.6-4.07-7.62-8-11.91c-1.13-1.23-6.63-7.79-13.2-14.67c7-9.19,14.55-18.34,22.13-25.75
		c3.01-0.28,7.59-0.82,9.12-1.63c2.66-1.4-1.49-2.23-1.49-2.23s6.7,0.74,7.82-0.37c1.12-1.12-3.35-2.23-3.35-2.23s4.47,0,7.07-2.61
		c2.15-2.15-4.79-1.26-7.31-0.88c2.22-1.52,4.41-2.83,6.56-3.83c17.31-8.06,40.81-8.1,60.54-5.95c11.41,1.24,15.94,3.78,22.08,5.83
		c2.62,0.87,4.71,1.12,4.71,1.12S420.79,11.61,370.18,22.52z"/>
</g>
</svg>
