<?xml version="1.0" encoding="utf-8"?>
<!-- Generator: Adobe Illustrator 23.0.1, SVG Export Plug-In . SVG Version: 6.00 Build 0)  -->
<svg version="1.1" id="Layer_1" xmlns="http://www.w3.org/2000/svg" xmlns:xlink="http://www.w3.org/1999/xlink" x="0px" y="0px"
	 viewBox="0 0 2227.87 619.53" style="enable-background:new 0 0 2227.87 619.53;" xml:space="preserve">
<style type="text/css">
	.st0{fill:#FFFFFF;}
	.st1{fill:#90CFCF;}
</style>
<g>
	<g>
		<path d="M601.86,289.42c-1.35-1.74-2.32-3.87-2.9-6.38c-0.58-0.96-1.07-2.22-1.45-3.77c-1.74-3.48-3-8.31-3.77-14.5
			c-0.77-8.89-1.16-15.95-1.16-21.17c-0.2-2.32-0.29-5.51-0.29-9.57v-6.96c0-5.8-0.1-10.34-0.29-13.63
			c-0.2-3.48-0.29-10.34-0.29-20.59c0-27.45,0.58-48.62,1.74-63.51c0-2.32,3.29-4.06,9.86-5.22h8.7h7.25
			c11.02,0,19.24,0.2,24.65,0.58c8.12,0.58,16.34,0.87,24.65,0.87c1.93,0,3.38-0.09,4.35-0.29h4.35l1.45,1.16
			c6.38-1.35,12.95-2.22,19.72-2.61c6.76-0.38,14.98-0.58,24.65-0.58c0.38,0,0.87,0.29,1.45,0.87h9.28c1.54,0,2.75,0.87,3.62,2.61
			c0.87,1.74,1.59,4.25,2.17,7.54c0.77,2.51,1.35,5.61,1.74,9.28c0.77,4.83,1.45,8.02,2.03,9.57c0,5.42-0.97,8.12-2.9,8.12
			c-0.19,0-0.48-0.29-0.87-0.87l-1.16-0.29c-0.97-0.19-2.03-0.09-3.19,0.29c-1.16,0.58-2.42,0.87-3.77,0.87
			c-1.16,0-2.13-0.29-2.9-0.87c-0.39-0.19-1.26-0.29-2.61-0.29c-1.74,0-3.77,0.29-6.09,0.87c-0.77,0.2-2.27,0.49-4.5,0.87
			c-2.22,0.39-4.79,0.58-7.68,0.58c-8.32,0-14.31,0.2-17.98,0.58c-2.13,0.2-4.16,0.77-6.09,1.74v-0.58c-0.77,0-1.45,0.97-2.03,2.9
			c-1.35,3.29-2.22,7.83-2.61,13.63c-0.2,1.74-0.29,3.67-0.29,5.8c0,2.13,0.33,3.58,1.01,4.35c0.67,0.78,1.79,1.16,3.33,1.16
			c1.16,0,2.12-0.38,2.9-1.16c0.38,0,0.87,0.1,1.45,0.29c0.58,0.2,1.06,0.49,1.45,0.87h24.65c0.19-0.38,0.48-0.67,0.87-0.87
			c0.38-0.19,0.77-0.29,1.16-0.29c1.93,0,3.38,0.29,4.35,0.87c1.16,0.58,3.48,1.16,6.96,1.74c1.93,0,3.29,0.58,4.06,1.74
			c0.97,1.35,1.45,2.61,1.45,3.77l6.09,19.14c0.58,3.1-2.32,5.12-8.7,6.09c-3.67,0.77-10.73,1.16-21.17,1.16h-12.47h-8.7
			c-2.71,0-4.74,0.15-6.09,0.44c-1.35,0.29-2.22,1.01-2.61,2.17c-0.78,0.97-1.16,2.51-1.16,4.64v1.16c0,0.97,0.09,1.65,0.29,2.03
			l-0.29,6.38c-0.2,1.35-0.29,3.38-0.29,6.09v2.9v2.61v1.74c8.7,0,17.59-0.29,26.68-0.87c8.89-0.58,17.69-0.87,26.39-0.87
			c0.58,0,1.06,0.44,1.45,1.31c0.39,0.87,0.58,1.88,0.58,3.04c0.39,1.16,0.58,2.42,0.58,3.77c0.39,2.9,0.97,5.61,1.74,8.12
			l2.03,8.41v5.8v0.87v2.32l-2.32,2.03h-2.03h-0.87c-2.13,0-3.48-0.1-4.06-0.29c-0.58-0.39-1.26-0.58-2.03-0.58
			c-0.39,0.19-0.97,0.48-1.74,0.87c-0.77,0.39-1.45,0.77-2.03,1.16v-1.45l-3.48,0.29h-4.35c-0.78,0-1.36-0.19-1.74-0.58l-2.32-0.29
			c-7.15,0-12.18,0.68-15.08,2.03h-91.93C602.34,290.58,602.05,290.2,601.86,289.42z"/>
		<path d="M801.67,297.54l-6.67-1.16c-6.38-0.97-11.7-2.13-15.95-3.48c-2.32-0.19-4.35-0.87-6.09-2.03
			c-1.55-0.58-2.51-1.35-2.9-2.32l-6.38-35.96v-1.45c0-1.35,0.15-2.37,0.44-3.04c0.29-0.68,0.92-1.11,1.88-1.31
			c12.57,4.83,24.94,7.25,37.12,7.25c3.87,0,6.86,0.1,8.99,0.29c7.34,0,12.66-0.96,15.95-2.9c1.74-1.16,2.61-2.8,2.61-4.93
			c0-3.09-0.97-5.65-2.9-7.68c-1.93-2.03-4.74-3.82-8.41-5.37l-9.28-3.48c-2.71-0.58-5.8-1.64-9.28-3.19c0-0.19-0.1-0.33-0.29-0.43
			c-0.19-0.1-0.39-0.34-0.58-0.73c-0.77-0.19-2.42-1.16-4.93-2.9l-1.74-0.87c0.39,0,0.58-0.1,0.58-0.29c0-0.19-0.29-0.38-0.87-0.58
			c-0.58-0.38-1.69-1.01-3.33-1.88c-1.64-0.87-3.04-1.88-4.21-3.04c-1.74-0.97-2.61-2.12-2.61-3.48v-1.45
			c-4.83,0-8.99-5.02-12.47-15.08c-2.9-10.25-4.35-17.5-4.35-21.75c0-17.98,7.73-31.8,23.2-41.47
			c12.56-7.92,29.87-13.24,51.91-15.95c14.3-1.54,32.09-2.32,53.36-2.32c2.71,0.97,4.83,1.55,6.38,1.74c3.48,0.2,5.8,1.36,6.96,3.48
			c0.58,0.97,1.06,2.9,1.45,5.8c0.58,3.09,1.16,12.08,1.74,26.97c0.38,0.39,0.58,0.97,0.58,1.74c0,1.55-2.13,2.8-6.38,3.77
			c-4.64,0.58-7.64,0.87-8.99,0.87l-6.67,0.87c-7.54,0.97-12.47,1.65-14.79,2.03c-7.93,1.36-13.44,3.77-16.53,7.25
			c-1.93,2.32-2.9,4.74-2.9,7.25c0,1.36,0.19,2.42,0.58,3.19c0.38,0.77,1.35,1.64,2.9,2.61c1.74,0.97,6.77,3.38,15.08,7.25
			c8.89,3.87,17.79,8.9,26.68,15.08c7.54,5.22,12.95,12.18,16.24,20.88c1.74,3.67,2.61,8.51,2.61,14.5c0,5.42-0.68,10.06-2.03,13.92
			c-5.03,12.76-14.5,23.2-28.42,31.32c-6.58,3.87-13.44,6.91-20.59,9.13c-7.16,2.22-14.02,3.33-20.59,3.33l-42.63,0.87
			L801.67,297.54z"/>
		<path d="M1024.97,292.61h-13.34h-15.08h-19.14c-1.74-2.71-2.9-7.63-3.48-14.79c-0.77-6.38-1.16-15.66-1.16-27.84l0.29-31.9
			c0.19-7.73,0.29-20.01,0.29-36.83l-0.87-0.87h-28.71c-4.25,0-7.06-4.83-8.41-14.5c-0.77-5.22-1.16-12.86-1.16-22.91v-3.77
			c0.38-1.35,0.58-3.48,0.58-6.38v-5.8l0.29-2.32l1.16-1.16l5.22,0.29h5.8c8.5,0,14.98-0.09,19.43-0.29h18.85h5.22h9.86h12.47h12.47
			c2.51,0.2,6.09,0.29,10.73,0.29h7.25c0.77-0.38,2.03-0.58,3.77-0.58c1.35-0.38,2.61-0.58,3.77-0.58c3.67,0,6.48,0.19,8.41,0.58
			c3.87,0.39,6.77,0.58,8.7,0.58l7.54-0.29h11.31c5.8,0,9.76,0.1,11.89,0.29l4.06,0.29c0.19,0.2,0.48,0.44,0.87,0.73
			c0.39,0.29,0.58,0.53,0.58,0.72v49.3c0,1.16-0.63,2.42-1.88,3.77c-1.26,1.35-2.46,2.22-3.62,2.61c-6.38-1.35-14.7-2.03-24.94-2.03
			h-11.02c-2.9,0-4.83,3.67-5.8,11.02c-0.39,2.13-0.58,5.22-0.58,9.28v8.7c0,3.87,0.09,6.77,0.29,8.7v8.12
			c0,7.93-0.39,15.28-1.16,22.04c-0.39,5.03-0.58,8.7-0.58,11.02c-0.39,2.32-0.58,5.51-0.58,9.57c0,5.8-0.2,10.63-0.58,14.5
			c-0.19,5.99-2.42,9.18-6.67,9.57c-4.64,0.58-7.35,0.87-8.12,0.87H1024.97z"/>
		<path d="M1211.15,325.38c-0.77-0.19-1.93-0.68-3.48-1.45c-1.35-0.58-2.61-0.87-3.77-0.87c-0.77,0-2.13-0.49-4.06-1.45
			c-1.35-0.97-2.61-1.45-3.77-1.45l-3.48-0.87c-1.16,0-1.93-0.1-2.32-0.29c-0.58,0-0.87-0.1-0.87-0.29
			c-6.19-1.35-12.47-3.58-18.85-6.67l-18.85-7.83c-1.36-0.58-2.03-1.55-2.03-2.9c0-1.16,0.29-2.32,0.87-3.48l7.83-13.63
			c1.93-3.67,4.64-8.02,8.12-13.05c1.35-1.35,2.71-3.77,4.06-7.25c1.16-2.71,1.74-4.35,1.74-4.93c-2.9-5.61-6.58-11.6-11.02-17.98
			c-4.45-7.73-8.02-12.85-10.73-15.37c-0.39-0.96-1.26-2.51-2.61-4.64c-3.09-5.41-4.54-7.92-4.35-7.54l-4.93-8.7
			c-1.35-1.93-3-4.83-4.93-8.7c-1.16-1.93-2.42-4.35-3.77-7.25c-1.74-2.9-2.71-4.64-2.9-5.22c-1.55-1.74-4.16-6.38-7.83-13.92
			c-3.48-7.73-5.22-12.37-5.22-13.92c0-0.77,0.77-1.79,2.32-3.04c1.54-1.25,3.29-2.56,5.22-3.92c6.18-2.9,10.25-4.64,12.18-5.22
			c2.51-1.16,4.69-2.12,6.53-2.9c1.83-0.77,3.33-1.45,4.5-2.03c4.44-2.12,10.63-4.73,18.56-7.83c1.54-0.77,5.22-2.32,11.02-4.64
			c2.12-0.58,4.06-0.87,5.8-0.87c1.16,0,2.12,0.39,2.9,1.16c0.77,0.39,1.93,1.93,3.48,4.64l10.15,22.04
			c5.8,12.18,9.86,20.4,12.18,24.65c0.38,0.58,0.77,1.3,1.16,2.17c0.38,0.87,0.77,1.5,1.16,1.88c1.16,1.55,2.22,2.32,3.19,2.32
			c0.58,0,1.11-0.29,1.59-0.87c0.48-0.58,0.82-1.06,1.02-1.45l19.72-51.91c0.77-2.51,2.42-4.45,4.93-5.8
			c2.12-1.35,4.74-1.83,7.83-1.45c12.57,4.06,21.85,7.35,27.84,9.86c11.79,4.83,20.49,9.09,26.1,12.76
			c1.93,0.97,3.24,2.18,3.92,3.62c0.67,1.45,0.72,2.86,0.14,4.21c-0.19,1.74-0.68,3.19-1.45,4.35l-1.74,3.48l-46.4,100.63l-2.32,5.8
			l-28.42,54.23c-1.35,2.32-2.56,3.92-3.62,4.79c-1.06,0.87-2.27,1.3-3.62,1.3C1218.69,327.7,1215.79,326.93,1211.15,325.38z"/>
		<path d="M516.31,561.74l-44.37-0.29c-3.29,0-5.41-2.12-6.38-6.38c-0.97-2.71-1.45-6.57-1.45-11.6c0-16.82-0.19-31.8-0.58-44.95
			c-0.58-18.95-0.87-38.96-0.87-60.03v-63.8c0-1.74,0.82-3.43,2.46-5.08c1.64-1.64,3.33-2.46,5.08-2.46l33.64,0.29
			c6.38,0.19,14.4,0.29,24.07,0.29c14.5,0,25.81-0.1,33.93-0.29l10.73-0.29c11.98-0.39,21.46-0.58,28.42-0.58
			c11.98,0,23.58,2.32,34.8,6.96c13.14,5.03,23.68,13.63,31.61,25.81c9.47,14.7,14.21,32.77,14.21,54.23
			c0,20.3-2.27,37.22-6.81,50.75c-4.54,13.54-11.75,24.65-21.61,33.35c-9.86,8.51-22.76,14.7-38.71,18.56
			c-15.95,3.87-35.91,5.8-59.88,5.8L516.31,561.74z M560.1,523.46c1.54,0,3.67-0.19,6.38-0.58c0.97-0.19,1.69-0.43,2.18-0.72
			c0.48-0.29,0.92-0.53,1.3-0.72c2.32-2.71,4.54-8.41,6.67-17.11c1.35-5.41,3-14.69,4.93-27.84c0.97-11.21,1.45-20.88,1.45-29v-5.51
			c0-5.03-0.48-12.57-1.45-22.62c-1.35-10.05-3.29-17.11-5.8-21.17c-2.13-2.71-4.06-4.06-5.8-4.06s-3.29,0.2-4.64,0.58
			c-1.36,0.39-2.23,0.68-2.61,0.87c-0.39,0.19-1.26,0.68-2.61,1.45l-0.29,34.8c0,3.09-0.19,7.73-0.58,13.92l-0.29,6.96
			c-0.39,9.67-0.58,16.63-0.58,20.88l-1.45,49.59C557.68,523.37,558.75,523.46,560.1,523.46z"/>
		<path d="M710.03,565.51c0,0-0.49-3.48-1.45-10.44c-0.58-2.9-0.87-5.51-0.87-7.83c0-3.09-0.1-5.03-0.29-5.8
			c-0.19-5.61-0.68-14.5-1.45-26.68l-0.87-11.02c-1.16-17.01-1.74-29.58-1.74-37.7v-70.47c0-1.54,1.74-2.71,5.22-3.48
			c1.93-0.58,4.64-0.87,8.12-0.87c2.32,0,4.83,0.14,7.54,0.43c2.71,0.29,4.74,0.43,6.09,0.43c2.9,0.39,7.44,0.58,13.63,0.58
			l1.16-0.87h12.76c0.58,0.58,1.26,0.87,2.03,0.87h1.16c0.19-0.19,0.67-0.29,1.45-0.29c0.38-0.19,0.96-0.29,1.74-0.29
			c0.19-0.19,0.48-0.29,0.87-0.29c0.58,0,1.26,0.15,2.03,0.44c0.77,0.29,1.35,0.43,1.74,0.43h21.46l0.87,49.88
			c0,0.2-0.15,0.83-0.44,1.89c-0.29,1.06-0.53,2.46-0.72,4.21c-0.58,6.96-0.87,12.47-0.87,16.53v56.55l-0.87,11.02
			c-0.58,4.83-0.77,8.8-0.58,11.89c0,4.06-0.14,7.3-0.43,9.72c-0.29,2.42-0.92,4.3-1.89,5.65c-1.16,1.36-3,2.03-5.51,2.03
			l-0.29-0.29l-0.87-0.29c-0.39,0-0.58,0.1-0.58,0.29h-1.45c-1.16,0.38-1.84,0.67-2.03,0.87c-0.97,0-3.19-0.29-6.67-0.87l-4.06-0.29
			c-0.97,0-1.55,0.38-1.74,1.16h-21.75h-4.06l-7.54,1.45l-6.96,0.87l-6.67,0.58C711.77,565.51,710.03,565.51,710.03,565.51z"/>
		<path d="M842.56,562.61h-4.64h-4.35h-2.32l-11.31-3.19l-0.58-1.74c-0.19,0-0.29-0.97-0.29-2.9c0-2.51-0.1-4.54-0.29-6.09
			l-0.29-11.02c-0.19-2.32-0.29-5.99-0.29-11.02c0-4.83-0.1-8.41-0.29-10.73v-8.7c-1.16-12.18-1.74-24.75-1.74-37.7v-2.32v-4.35
			c0-2.32,0.09-3.96,0.29-4.93v-2.32v-2.03c-0.2-0.58-0.29-1.54-0.29-2.9v-3.19v-1.74v-2.9v-4.64c0-2.32,0.09-3.96,0.29-4.93v-2.9
			l0.29-1.45v-3.77c0.19-1.93,0.29-4.54,0.29-7.83c0-2.51-0.1-4.74-0.29-6.67l-0.29-6.67l-0.29-1.16c-0.58-0.38-0.58-0.67,0-0.87
			c0.77-3.09,3.19-5.32,7.25-6.67c1.93-0.77,5.12-1.16,9.57-1.16c3.29,0,11.89-0.29,25.81-0.87c6.96-0.38,11.31-0.58,13.05-0.58
			c2.9-0.19,6.38-0.29,10.44-0.29c1.93,0.2,3.29,0.54,4.06,1.02c0.77,0.48,1.5,1.3,2.17,2.46c0.68,1.16,1.21,2.03,1.59,2.61
			l5.8,8.41c-0.2-0.19,2.22,3.29,7.25,10.44c4.64,7.54,10.25,16.05,16.82,25.52c0.97,1.55,2.13,3.29,3.48,5.22
			c1.35,1.93,2.8,4.16,4.35,6.67v-10.15c0.19-2.71,0.29-6.57,0.29-11.6c0-6.57,0.19-13.92,0.58-22.04c0-1.54,0.1-2.95,0.29-4.21
			c0.19-1.25,0.29-2.27,0.29-3.04c0-1.93,0.1-2.9,0.29-2.9c0.77-1.16,2.12-2.42,4.06-3.77c2.32-1.55,4.74-2.22,7.25-2.03h14.5h2.9
			c2.9,0,5.32,0.1,7.25,0.29h8.7c1.93,0.19,4.83,0.29,8.7,0.29h6.38h2.9c3.87,0,6.77,0.68,8.7,2.03c1.16,0.77,1.93,1.79,2.32,3.04
			c0.38,1.26,0.58,3.14,0.58,5.65c0,2.52-0.1,4.64-0.29,6.38c-0.2,1.93-0.29,4.25-0.29,6.96v2.03c0.19,0.58,0.29,1.45,0.29,2.61
			v7.54l-0.29,33.35v32.77v7.83c0,20.88-0.2,34.12-0.58,39.73l-0.87,9.57c-0.97,4.45-2.32,6.76-4.06,6.96
			c-0.39,0-0.92,0.09-1.6,0.29c-0.68,0.19-1.4,0.29-2.17,0.29c-6.96,0-12.08-0.2-15.37-0.58h-15.08h-15.08h-3.77
			c-0.58,0.19-1.35,0.29-2.32,0.29c-2.32,0-4.74-0.49-7.25-1.45c-1.55-0.38-3.19-1.45-4.93-3.19l-25.52-35.96
			c-0.97-1.35-2.8-3.58-5.51-6.67l-3.77-3.48c-0.97-0.96-1.74-1.45-2.32-1.45s-1.06,0.25-1.45,0.73c-0.39,0.48-0.58,0.92-0.58,1.3
			v4.93c-0.19,1.55-0.29,3.96-0.29,7.25v8.41c-0.19,2.13-0.29,5.03-0.29,8.7v6.96v4.35c-0.19,0.39-0.29,0.97-0.29,1.74
			c0,0.2-0.29,1.74-0.87,4.64c-0.39,0.78-0.68,1.26-0.87,1.45c-0.2,0.2-0.87,0.29-2.03,0.29c-0.39-0.19-0.72-0.29-1.01-0.29
			s-0.54,0-0.73,0c-15.27,1.35-27.94,2.03-37.99,2.03H842.56z"/>
		<path d="M1109.35,568.41c-1.36-0.39-3.48-0.58-6.38-0.58c-7.35,0-16.44-1.64-27.26-4.93h-2.03c-1.36,0-2.8-0.39-4.35-1.16
			c-0.39-0.38-0.87-0.72-1.45-1.01c-0.58-0.29-1.26-0.73-2.03-1.31l-6.09-3.48c-5.8-3.29-10.92-7.88-15.37-13.78
			c-4.45-5.89-8.03-12.42-10.73-19.58c-5.22-13.14-7.83-26.58-7.83-40.31c0-15.27,3.09-29.96,9.28-44.08
			c6.57-14.88,15.37-26.68,26.39-35.38c12.18-9.67,25.71-14.5,40.6-14.5c4.64,0,8.21,0.19,10.73,0.58c0-0.39,0.29-0.58,0.87-0.58
			h0.87c13.53,0,25.62,0.48,36.25,1.45c9.08,1.35,17.5,4.16,25.23,8.41c15.46,10.25,26.58,21.46,33.35,33.64
			c7.15,13.54,10.73,29.48,10.73,47.85c0,18.37-4.35,35.58-13.05,51.62l-2.9,4.64c-0.78,1.16-1.26,1.74-1.45,1.74l-0.87,1.45
			l-2.03,1.16c-8.31,12.38-20.88,20.79-37.7,25.23c-11.21,2.32-26.68,3.48-46.4,3.48C1114.18,568.99,1112.06,568.8,1109.35,568.41z
			 M1124.72,544.05c2.32-3.48,4.25-10.25,5.8-20.3c0.19-1.74,0.67-5.6,1.45-11.6c0.77-5.99,1.25-11.6,1.45-16.82
			c0.77-13.14,1.16-21.26,1.16-24.36v-6.67v-2.32c0-6.96-0.29-12.95-0.87-17.98c-0.58-7.92-1.74-14.21-3.48-18.85
			c-1.74-2.32-3.09-3.48-4.06-3.48c-1.93,0-3.77,1.45-5.51,4.35c-1.74,2.9-3.09,8.22-4.06,15.95l-6.09,46.4v5.8v3.77
			c0.58,8.12,0.87,13.44,0.87,15.95l0.58,6.96l0.87,9.28c0,1.55,0.19,2.9,0.58,4.06l3.19,10.73c0.19,0.78,0.72,1.36,1.59,1.74
			c0.87,0.39,1.69,0.58,2.46,0.58C1122.4,547.24,1123.75,546.18,1124.72,544.05z"/>
		<path d="M1275.52,567.54l-6.67-1.16c-6.38-0.97-11.7-2.13-15.95-3.48c-2.32-0.2-4.35-0.87-6.09-2.03
			c-1.55-0.58-2.51-1.35-2.9-2.32l-6.38-35.96v-1.45c0-1.35,0.15-2.37,0.44-3.04c0.29-0.68,0.92-1.11,1.88-1.31
			c12.57,4.83,24.94,7.25,37.12,7.25c3.87,0,6.86,0.1,8.99,0.29c7.34,0,12.66-0.96,15.95-2.9c1.74-1.16,2.61-2.8,2.61-4.93
			c0-3.09-0.97-5.65-2.9-7.68c-1.93-2.03-4.74-3.82-8.41-5.37l-9.28-3.48c-2.71-0.58-5.8-1.64-9.28-3.19c0-0.19-0.1-0.33-0.29-0.43
			c-0.19-0.1-0.39-0.34-0.58-0.73c-0.77-0.19-2.42-1.16-4.93-2.9l-1.74-0.87c0.39,0,0.58-0.1,0.58-0.29c0-0.19-0.29-0.39-0.87-0.58
			c-0.58-0.39-1.69-1.02-3.33-1.88c-1.64-0.87-3.04-1.89-4.21-3.05c-1.74-0.96-2.61-2.12-2.61-3.48v-1.45
			c-4.83,0-8.99-5.03-12.47-15.08c-2.9-10.25-4.35-17.5-4.35-21.75c0-17.98,7.73-31.8,23.2-41.47
			c12.56-7.92,29.87-13.24,51.91-15.95c14.3-1.54,32.09-2.32,53.36-2.32c2.71,0.97,4.83,1.55,6.38,1.74c3.48,0.2,5.8,1.36,6.96,3.48
			c0.58,0.97,1.06,2.9,1.45,5.8c0.58,3.09,1.16,12.08,1.74,26.97c0.38,0.39,0.58,0.97,0.58,1.74c0,1.55-2.13,2.8-6.38,3.77
			c-4.64,0.58-7.64,0.87-8.99,0.87l-6.67,0.87c-7.54,0.97-12.47,1.65-14.79,2.03c-7.93,1.35-13.44,3.77-16.53,7.25
			c-1.93,2.32-2.9,4.74-2.9,7.25c0,1.35,0.19,2.42,0.58,3.19c0.38,0.78,1.35,1.65,2.9,2.61c1.74,0.97,6.77,3.38,15.08,7.25
			c8.89,3.87,17.79,8.89,26.68,15.08c7.54,5.22,12.95,12.18,16.24,20.88c1.74,3.67,2.61,8.51,2.61,14.5
			c0,5.42-0.68,10.05-2.03,13.92c-5.03,12.76-14.5,23.2-28.42,31.32c-6.58,3.87-13.44,6.91-20.59,9.13
			c-7.16,2.22-14.02,3.33-20.59,3.33l-42.63,0.87L1275.52,567.54z"/>
		<path d="M1411.82,562.03c0,0,0.38-3.29,1.16-9.86c0-2.32,0.48-4.93,1.45-7.83c0-1.35,0.09-2.46,0.29-3.33
			c0.19-0.87,0.29-1.59,0.29-2.17c4.44-21.07,9.38-41.86,14.79-62.35l19.72-77.14c0-0.38,0.29-0.87,0.87-1.45s1.16-1.06,1.74-1.45
			h2.03c2.32,0,4.16-0.29,5.51-0.87c1.16-0.19,3.19-0.29,6.09-0.29c4.64,0,8.12,0.1,10.44,0.29c3.48,0.58,7.06,0.87,10.73,0.87
			l15.08-0.29c1.54-0.39,3.38-0.58,5.51-0.58l12.76-0.58h9.57c3.67,0,7.25,0.1,10.73,0.29h8.12c1.93,0.19,4.74,0.29,8.41,0.29h11.02
			c0.58,0,1.16,0.1,1.74,0.29c0.58,0.19,1.06,0.39,1.45,0.58c0.77,0.39,1.74,0.58,2.9,0.58h2.61c1.35,0.97,2.03,1.93,2.03,2.9
			l20.59,76.56c6.38,24.55,11.41,45.34,15.08,62.35c0,0.97,0.29,2.8,0.87,5.51c0.77,3.87,1.16,6.96,1.16,9.28
			c0,1.35-0.2,3.19-0.58,5.51c-0.97,1.94-2.32,2.9-4.06,2.9h-3.19c-2.51,0-4.45-0.1-5.8-0.29h-6.38h-6.09h-4.93
			c-1.35,0-2.13-0.09-2.32-0.29h-15.95l-0.29-0.58c-0.39-0.38-0.97-0.58-1.74-0.58l-0.87,0.58c0,0.39-0.2,0.58-0.58,0.58h-0.87
			h-2.03c-0.97-0.38-2.71-0.58-5.22-0.58c-4.64-0.38-8.51-0.58-11.6-0.58c-2.13-4.45-4.64-14.21-7.54-29.29
			c-4.06,0.58-8.7,0.87-13.92,0.87h-7.54h-7.25c-0.78,2.9-1.26,5.32-1.45,7.25c-0.2,0.97-0.97,4.25-2.32,9.86
			c-1.35,5.61-2.61,9.38-3.77,11.31l-1.74,0.58c-0.58,0.2-1.26,0.39-2.03,0.58h-0.58c-1.16,0-1.93-0.19-2.32-0.58
			c-0.78-0.38-1.26-0.58-1.45-0.58l-11.02,0.58h-8.12c-0.97,0.2-1.74,0.34-2.32,0.44c-0.58,0.1-0.97,0.14-1.16,0.14h-23.2h-2.32
			c-1.74,0.2-5.32,0.29-10.73,0.29h-6.96c-1.16,0.19-3,0.29-5.51,0.29h-3.48C1413.65,562.03,1411.82,562.03,1411.82,562.03z
			 M1532.17,490.11c0,0-0.1-0.58-0.29-1.74l-2.32-13.92c-0.39-2.71-0.78-5.17-1.16-7.39c-0.39-2.22-0.68-4.3-0.87-6.24
			c-0.58-2.32-1.01-4.5-1.3-6.53c-0.29-2.03-0.63-3.92-1.02-5.65c-0.19-1.16-0.39-2.66-0.58-4.5c-0.19-1.83-0.48-3.14-0.87-3.92
			l-0.58-3.48c0-0.77-0.2-1.45-0.58-2.03l-0.29-1.74l-0.58,1.74v1.16v0.87c0,0.2-0.1,0.54-0.29,1.02c-0.2,0.48-0.39,1.3-0.58,2.46
			c-0.2,0.97-0.39,2.17-0.58,3.62c-0.19,1.45-0.48,3.04-0.87,4.79l-2.03,11.89l-2.32,13.34l-0.87,6.38
			c-0.39,1.55-0.78,4.06-1.16,7.54c-1.74,8.7-2.51,12.67-2.32,11.89h12.76c0.19-0.19,0.48-0.44,0.87-0.73
			c0.38-0.29,0.67-0.43,0.87-0.43h0.87c0.97,0,1.79,0.1,2.46,0.29c0.68,0.19,1.31,0.39,1.89,0.58c1.16,0.39,2.32,0.58,3.48,0.58
			C1532.75,493.4,1532.17,490.11,1532.17,490.11z"/>
		<path d="M1688.19,566.67c0,0-2.71-0.39-8.12-1.16c-4.45-0.97-8.51-2.32-12.18-4.06c-3.67-1.74-7.06-4.45-10.15-8.12
			c-6.19-7.73-10.34-17.88-12.47-30.45c-1.55-10.25-2.13-21.46-1.74-33.64v-12.76c0-1.74,0.1-3.09,0.29-4.06v-5.8v-5.22v-2.9
			l0.87-2.03c0-0.19,0.05-0.48,0.15-0.87c0.09-0.39,0.14-1.06,0.14-2.03c0.58-6.96,0.87-12.57,0.87-16.82l0.58-10.73
			c0.19-4.83,0.29-10.44,0.29-16.82c0-2.51-0.1-4.25-0.29-5.22c-0.39-2.32-0.58-4.16-0.58-5.51c0-2.9,3-4.35,8.99-4.35h4.06
			c2.32,0,3.87-0.19,4.64-0.58l35.38,0.58c0.58,0.58,0.96,0.87,1.16,0.87l2.32-0.87c10.05,0,16.53,0.97,19.43,2.9
			c1.93,1.35,3.33,3.38,4.21,6.09c0.87,2.71,1.3,6.38,1.3,11.02c0,3.09,0.19,7.35,0.58,12.76c0.38,2.71,0.58,6.96,0.58,12.76v2.9
			c-0.39,5.61-0.78,14.79-1.16,27.55l-0.29,13.92v12.47c-0.39,2.32-0.58,5.42-0.58,9.28v4.35v4.35c-0.2,2.71,0.19,6.48,1.16,11.31
			c0.96,1.55,1.83,2.32,2.61,2.32c1.16,0,5.51-1.45,13.05-4.35l6.96-3.48c1.93-0.77,2.9-1.55,2.9-2.32v-95.41
			c-0.58-4.06-0.87-7.25-0.87-9.57c-0.19-0.97-0.29-2.42-0.29-4.35v-4.35v-2.9c0-2.32,0.48-3.96,1.45-4.93
			c0.39-0.58,1.35-0.87,2.9-0.87c0.38,0,0.77,0.14,1.16,0.43c0.38,0.29,0.58,0.63,0.58,1.02v0.58c1.93-0.77,6.09-1.45,12.47-2.03
			c5.22-0.58,11.02-0.87,17.4-0.87h7.25h4.64h5.51l30.45,0.87c0.38,0,0.72,0.1,1.01,0.29c0.29,0.19,0.44,0.39,0.44,0.58
			c0.19,0,0.29,0.19,0.29,0.58v1.45c-0.2,0-0.29,0.29-0.29,0.87l1.45-0.29c0.19-0.38,0.48-0.58,0.87-0.58
			c0.58,0,0.87,0.48,0.87,1.45c0,33.83-0.14,61.92-0.43,84.25s-1.12,44.91-2.46,67.71c0,0.97-0.78,2.42-2.32,4.35
			c-0.77,0.97-1.45,1.74-2.03,2.32c-0.19,0.39-0.48,0.68-0.87,0.87c-0.39,0.2-0.68,0.39-0.87,0.58c-0.19-0.19-0.87-0.43-2.03-0.72
			s-2.13-0.44-2.9-0.44l-0.87,0.58c-0.39,0.39-0.77,0.58-1.16,0.58c-7.73,1.36-19.91,2.03-36.54,2.03h-12.76
			c-4.83,0-9.09-0.38-12.76-1.16c-1.35-0.96-2.8-3.38-4.35-7.25c-0.2-1.35-0.58-2.51-1.16-3.48c-0.39-0.97-0.87-1.45-1.45-1.45
			c-1.55,0-3.96,1.06-7.25,3.19c-0.39,0.39-0.92,0.83-1.59,1.31c-0.68,0.48-1.31,1.01-1.89,1.59c-1.55,1.16-2.61,2.13-3.19,2.9
			c-5.22,2.9-11.41,5.02-18.56,6.38c-4.83,1.16-9.28,1.74-13.34,1.74c-4.45,0-7.73,0.1-9.86,0.29
			C1692.05,566.48,1688.19,566.67,1688.19,566.67z"/>
		<path d="M1987.46,552.46c0,0-3-4.25-8.99-12.76c-4.25-5.61-10.83-15.56-19.72-29.87l-4.93-7.83c-0.2-0.19-0.39-0.38-0.58-0.58
			h-1.45l-1.16,0.58c-0.19,2.51-0.29,9.28-0.29,20.3c0,7.16-0.39,15.57-1.16,25.23l-0.29,8.7c-0.77,2.13-1.26,3.19-1.45,3.19h-2.03
			h-0.87c-21.27,1.55-36.74,2.32-46.4,2.32h-4.35h-5.51c-2.13,0-3.67-0.09-4.64-0.29h-2.03l-8.99-2.9l-0.58-2.03
			c-0.39,0-0.63-0.39-0.73-1.16c-0.1-0.77-0.14-1.35-0.14-1.74c-0.58-8.12-1.06-14.01-1.45-17.69c-0.77-10.44-1.26-18.08-1.45-22.91
			c-0.39-4.64-0.58-7.64-0.58-8.99l-1.45-15.95l-0.29-8.7c-0.2-1.74-0.29-4.16-0.29-7.25v-2.61c0.38-0.97,0.58-2.51,0.58-4.64v-4.93
			c0.19-0.77,0.29-1.64,0.29-2.61l-0.29-2.32v-2.9c0-1.35-0.2-2.42-0.58-3.19v-1.74l0.29-7.25c0.19-1.35,0.29-3.38,0.29-6.09
			c0.38-5.8,0.58-11.31,0.58-16.53v-2.9c-0.2-0.58-0.29-1.83-0.29-3.77v-4.06v-2.9c-0.58-0.58-0.87-1.16-0.87-1.74
			c0-2.71,2.42-4.64,7.25-5.8c2.51-0.77,6.09-1.16,10.73-1.16c45.24,0,79.07,1.55,101.5,4.64c22.04,3.09,37.51,8.41,46.4,15.95
			c3.87,3.67,6.62,7.98,8.26,12.91c1.64,4.93,2.46,10.78,2.46,17.54c0,10.83-3.09,19.92-9.28,27.26c-4.06,4.06-8.8,7.45-14.21,10.15
			c1.16,2.9,4.54,8.7,10.15,17.4c1.16,1.36,2.27,2.81,3.33,4.35c1.06,1.55,2.37,3.19,3.92,4.93c3.67,5.03,7.93,10.54,12.76,16.53
			c0.19,0.77,0.97,2.42,2.32,4.93c0.96,0.39,1.5,0.83,1.59,1.3c0.1,0.49-0.05,1.12-0.43,1.89c-1.55,2.32-6.09,5.7-13.63,10.15
			c-0.97,0.97-2.13,1.94-3.48,2.9c-3.87,3.09-9.18,6.29-15.95,9.57c-6.19,3.29-11.5,5.6-15.95,6.96c-1.74,0.96-2.8,1.16-3.19,0.58
			C1991.71,556.62,1987.46,552.46,1987.46,552.46z M1957.59,461.4c4.06-1.16,6.96-2.32,8.7-3.48c2.9-1.74,5.41-3.67,7.54-5.8
			c2.12-2.51,3.19-5.41,3.19-8.7c0-5.41-1.64-9.76-4.93-13.05c-2.9-2.32-6.48-3.48-10.73-3.48h-12.47c0,2.51-0.19,6.48-0.58,11.89
			l-0.29,6.09c-0.39,3.87-0.58,9.86-0.58,17.98C1949.95,462.85,1953.34,462.37,1957.59,461.4z"/>
		<path d="M2110.13,567.54l-6.67-1.16c-6.38-0.97-11.7-2.13-15.95-3.48c-2.32-0.2-4.35-0.87-6.09-2.03
			c-1.55-0.58-2.51-1.35-2.9-2.32l-6.38-35.96v-1.45c0-1.35,0.15-2.37,0.44-3.04c0.29-0.68,0.92-1.11,1.88-1.31
			c12.57,4.83,24.94,7.25,37.12,7.25c3.87,0,6.86,0.1,8.99,0.29c7.34,0,12.66-0.96,15.95-2.9c1.74-1.16,2.61-2.8,2.61-4.93
			c0-3.09-0.97-5.65-2.9-7.68c-1.93-2.03-4.74-3.82-8.41-5.37l-9.28-3.48c-2.71-0.58-5.8-1.64-9.28-3.19c0-0.19-0.1-0.33-0.29-0.43
			c-0.19-0.1-0.39-0.34-0.58-0.73c-0.77-0.19-2.42-1.16-4.93-2.9l-1.74-0.87c0.39,0,0.58-0.1,0.58-0.29c0-0.19-0.29-0.39-0.87-0.58
			c-0.58-0.39-1.69-1.02-3.33-1.88c-1.64-0.87-3.04-1.89-4.21-3.05c-1.74-0.96-2.61-2.12-2.61-3.48v-1.45
			c-4.83,0-8.99-5.03-12.47-15.08c-2.9-10.25-4.35-17.5-4.35-21.75c0-17.98,7.73-31.8,23.2-41.47
			c12.56-7.92,29.87-13.24,51.91-15.95c14.3-1.54,32.09-2.32,53.36-2.32c2.71,0.97,4.83,1.55,6.38,1.74c3.48,0.2,5.8,1.36,6.96,3.48
			c0.58,0.97,1.06,2.9,1.45,5.8c0.58,3.09,1.16,12.08,1.74,26.97c0.38,0.39,0.58,0.97,0.58,1.74c0,1.55-2.13,2.8-6.38,3.77
			c-4.64,0.58-7.64,0.87-8.99,0.87l-6.67,0.87c-7.54,0.97-12.47,1.65-14.79,2.03c-7.93,1.35-13.44,3.77-16.53,7.25
			c-1.93,2.32-2.9,4.74-2.9,7.25c0,1.35,0.19,2.42,0.58,3.19c0.38,0.78,1.35,1.65,2.9,2.61c1.74,0.97,6.77,3.38,15.08,7.25
			c8.89,3.87,17.79,8.89,26.68,15.08c7.54,5.22,12.95,12.18,16.24,20.88c1.74,3.67,2.61,8.51,2.61,14.5
			c0,5.42-0.68,10.05-2.03,13.92c-5.03,12.76-14.5,23.2-28.42,31.32c-6.58,3.87-13.44,6.91-20.59,9.13
			c-7.16,2.22-14.02,3.33-20.59,3.33l-42.63,0.87L2110.13,567.54z"/>
	</g>
	<path d="M563.58,158.05c1.35-4.45,2.03-7.54,2.03-9.28v-46.4c0-0.19-0.29-0.87-0.87-2.03c-0.77-0.58-2.42-1.35-4.93-2.32
		c-5.8-1.16-14.12-1.74-24.94-1.74l-42.05,0.29c-9.09,0.39-22.81,0.58-41.18,0.58c-7.16,0-14.21,0.29-21.17,0.87
		c-7.35,0.58-14.5,0.87-21.46,0.87l-3.19-0.29c-0.97-0.39-2.13-0.58-3.48-0.58c-2.32,0-4.25,0.77-5.8,2.32l-1.45,1.45v2.9
		c-0.39,1.16-0.58,3.29-0.58,6.38c-0.2,1.55-0.29,3.77-0.29,6.67c-0.2,1.36-0.29,2.9-0.29,4.64c0,5.8,0.19,10.25,0.58,13.34
		c0.77,7.35,1.64,12.38,2.61,15.08c2.13,4.45,4.83,6.67,8.12,6.67l55.1,1.16c0.96,0,1.45,0.39,1.45,1.16c0,1.16-0.97,3-2.9,5.51
		c-0.78,1.55-3.09,4.64-6.96,9.28c-0.97,1.16-3.62,4.25-7.98,9.28c-4.35,5.03-8.94,9.76-13.77,14.21
		c-7.93,9.09-18.37,19.72-31.32,31.9v53.65c0,1.55,0.87,3.19,2.61,4.93c1.54,1.55,3.29,2.32,5.22,2.32l15.65,0.2
		c20.66-11.93,34.29-26.82,42.65-46.54l3.9-9.2l1.51,9.88c2.33,15.21,2.77,30.47,1.3,46.49c6.19,0.03,13.22,0.05,21.11,0.05h50.75
		c5.61,0,9.57-0.29,11.89-0.87c2.51-0.19,4.64-0.67,6.38-1.45c1.35-0.97,2.03-2.13,2.03-3.48v-0.87v-46.69
		c0-1.35-0.77-2.66-2.32-3.92c-1.55-1.26-3.19-1.89-4.93-1.89h-16.53h-17.11c-4.06,0.2-10.34,0.29-18.85,0.29
		c25.33-26.48,42.24-46.3,50.75-59.45C559.13,167.24,562.03,162.11,563.58,158.05z"/>
	<path d="M443.24,351.6c-6.67,22.22-16.24,36.01-30.56,54.63c-10.04,13.05-12.89,25.7-27.97,31.88
		c-16.31,6.68-21.27,21.05-33.85,33.96c-10.69,10.97-20.52,22.98-29.38,35.49c-17.69,24.94-41.54,37.57-71.64,41.08
		c-18.55,2.17-42.23,18.79-60.11,24.14c-10.47,3.13-20.18,10.02-29.15,16.67c-21.67,16.09-62.75,36.75-87.23,27.99
		c-21.02-7.52-21.34-38.19-30.16-59.83c-3.52-8.65-5.53-18.28-6.26-27.62c-2-25.79-10.69-35.73-15.85-60.57
		c-5.16-24.84-13.13-43.68-19.16-57.87c-7.97-18.74,11.05-61.32,16.87-59.14c29.59,11.06,62.29-5.99,62.29-5.99
		s-35.38,12.78-65.99-4.39c-5.3-2.97-0.52-17.7-0.97-24.21c-1.08-15.51,0.01-33.51-5.29-48.26c-3.58-9.96-12.94-39.06,1.26-36.71
		c28.23,4.68,80.82,8.19,80.82,8.19S4.66,224.59,5.58,214.21c2.39-27.08,10.54-54.95,19.15-71.09c2.88-5.39,6.41-10.45,9.01-15.96
		c9.5-20.09,13.58-17.25,34.07-15.92c47.9,3.11,64.79,38.2,58.48,86.87c-2.71,20.9-1.16,21.32-5.96,41.96
		c-4.49,19.3-7.16,38.67-1.15,58.18c0.66,2.15,1.44,4.29,2.39,6.32c0.83,1.77,1.98,3.38,4.04,6.8c7.4-16.38,14.32-31.31,20.93-46.37
		c11.9-27.12,20.44-37.29,27.32-50.97c1.12-2.23,79.41,44.25,79.41,44.25s-75.85-50.55-72.31-60.38c2.79-7.76,3.2-12.35,5.7-25.82
		c3.44-18.55,8.48-36.63,19.52-52.36c24.82-35.39,58.06-41.98,97.03-22.89c12.62,6.18,25.63,11.4,36.16,21.15
		c30.97,28.64,24.76,67.66,0.52,106.11c-12.28,19.48-15.27,42.72-28.75,61.46c-30.46,42.33-47.66,79.13-66.52,127.7
		c-0.14,0.36,0.01,0.83,0.04,1.83c14.22-2.38,19.46-0.15,28.28-10.71c14.16-16.96,26.94-35.09,39.83-53.07
		c17.97,18.94,58.25,53.62,58.25,53.62s-55.28-57.3-50.81-63.87c7.4-10.86,16.38-20.41,27.8-27.67
		c23.63-15.04,48.22-16.59,73.58-5.12c12.63,5.72,18.99,9.94,26.97,21.2C456.09,340.08,447.2,338.41,443.24,351.6z M326.99,98.91
		c4.5,4.2,9.86,7.49,14.97,11.31C350.72,87.06,353.63,18.86,352.25,0c-18.03,13.84-68.23,63.07-75.6,80.64
		c4.93,1.04,9.38,2.25,13.91,2.89C304.09,85.44,316.65,89.26,326.99,98.91z M459.65,328.6c0,0-0.01-0.01-0.01-0.01
		c-0.01,0.05-0.02,0.09-0.04,0.14L459.65,328.6z M454.38,321.68c1.65,2.38,3.5,4.61,5.26,6.92c6.95-24.85,10.58-50,7.08-77.85
		c-10.06,22.05-26.07,35.79-46.83,46.05C435.19,301.64,446.14,309.83,454.38,321.68z M100.24,111.24
		c-5.87-22.53-5.34-43.42,3.69-63.87C81.54,61.3,64.46,79.92,48.86,102.47C68.04,97.89,84.2,101.12,100.24,111.24z"/>
</g>
</svg>
